<?xml version="1.0" standalone="no"?>
<!DOCTYPE svg PUBLIC "-//W3C//DTD SVG 1.1//EN" "http://www.w3.org/Graphics/SVG/1.1/DTD/svg11.dtd" >
<svg xmlns="http://www.w3.org/2000/svg" xmlns:xlink="http://www.w3.org/1999/xlink" version="1.1">
<metadata>
Created by FontForge 20170910 at Wed Sep 27 22:29:19 2006
 By Jimmy Wärting
Copyright (c) 2006 by C.Dickinson. All rights reserved.
</metadata>
<defs>
<font id="Depot-Bold" horiz-adv-x="600" >
  <font-face 
    font-family="Depot Bold"
    font-weight="400"
    font-stretch="normal"
    units-per-em="1000"
    panose-1="2 0 8 3 4 0 0 2 0 4"
    ascent="770"
    descent="-230"
    x-height="525"
    cap-height="686"
    bbox="-101 -215 1237 991"
    underline-thickness="20"
    underline-position="-133"
    unicode-range="U+0020-FB04"
  />
<missing-glyph horiz-adv-x="500" 
d="M0 770h500v-770h-500v770zM60 60h380v650h-380v-650z" />
    <glyph glyph-name="fi" unicode="fi" horiz-adv-x="649" 
d="M428 0v421h-193v-421h-142v421h-87v104h87v49q0 38 13 70.5t37 56t58 36.5t76 13q14 0 27 -0.5t26.5 -3t29.5 -7t36 -11.5l-34 -110q-19 6 -36.5 9t-28.5 3q-27 0 -44.5 -13t-17.5 -50v-42h335v-525h-142zM587 674q0 -18 -7 -34t-19 -27.5t-28 -18t-34 -6.5
q-37 0 -62.5 24.5t-25.5 61.5q0 17 7 33t18.5 28t27.5 19t34 7t34 -7t28.5 -18.5t19.5 -27.5t7 -34z" />
    <glyph glyph-name="fl" unicode="fl" horiz-adv-x="635" 
d="M588 -11q-53 0 -87 14.5t-53.5 38.5t-26.5 53.5t-7 59.5v475q-24 2 -47 3t-42 1q-48 0 -69 -15t-21 -52v-42h104l-6 -104h-98v-421h-142v421h-87v104h87v49q0 38 14 70.5t42.5 56t73 36.5t105.5 13q19 0 51 -2t66 -5t64.5 -7t46.5 -8v-559q0 -32 10.5 -48t40.5 -16z" />
    <glyph glyph-name="f_h" unicode="fh" horiz-adv-x="921" 
d="M721 0v307q0 61 -17.5 85t-52.5 24q-23 0 -49 -13.5t-43 -29.5v-373h-142v630q-25 2 -48.5 3t-42.5 1q-49 0 -70 -15t-21 -52v-42h104l-6 -104h-98v-421h-142v421h-87v104h87v49q0 38 14 70.5t43 56t73 36.5t105 13q19 0 51.5 -2t67 -5t65.5 -7t47 -8v-243h2
q18 20 47 35.5t67 15.5q39 0 73 -14.5t59.5 -42t40.5 -68.5t15 -94v-317h-142z" />
    <glyph glyph-name="f_b" unicode="fb" horiz-adv-x="926" 
d="M888 266q0 -57 -14.5 -107.5t-43 -88.5t-71 -60t-99.5 -22q-29 0 -62.5 15t-53.5 41h-2q0 -2 -0.5 -8.5t-1 -13.5t-1 -13t-1.5 -9h-123v630q-24 2 -47.5 3t-42.5 1q-48 0 -69 -15t-21 -52v-42h104l-6 -104h-98v-421h-142v421h-87v104h87v49q0 38 14 70.5t42.5 56t73 36.5
t105.5 13q19 0 51.5 -2t66.5 -5t64.5 -7t46.5 -8v-240h2q17 18 48.5 32.5t60.5 14.5q50 0 90.5 -18.5t69.5 -53.5t44.5 -85t15.5 -112zM743 267q0 41 -7.5 69.5t-20 46t-30.5 25t-39 7.5q-24 0 -47 -10t-42 -24v-240q14 -16 37 -24.5t43 -8.5q51 0 78.5 39t27.5 120z" />
    <glyph glyph-name="f_f" unicode="ff" horiz-adv-x="704" 
d="M714 618q-19 6 -36.5 9t-28.5 3q-27 0 -44.5 -13t-17.5 -50v-42h104l-6 -104h-98v-421h-142v421h-210v-421h-142v421h-87v104h87v49q0 38 13 70.5t37 56t58 36.5t76 13q29 0 59.5 -5.5t59.5 -16.5l-34 -110q-19 6 -36.5 9t-28.5 3q-27 0 -44.5 -13t-17.5 -50v-42h210v49
q0 38 13 70.5t37 56t58 36.5t76 13q29 0 59.5 -5.5t59.5 -16.5z" />
    <glyph glyph-name="f_f_i" unicode="ffi" horiz-adv-x="1001" 
d="M939 674q0 -18 -7 -34t-19 -27.5t-28 -18t-34 -6.5q-37 0 -62.5 24.5t-25.5 61.5q0 17 7 33t18.5 28t27.5 19t34 7t34 -7t28.5 -18.5t19.5 -27.5t7 -34zM780 0v421h-193v-421h-142v421h-210v-421h-142v421h-87v104h87v49q0 38 13 70.5t37 56t58 36.5t76 13
q29 0 59.5 -5.5t59.5 -16.5l-34 -110q-19 6 -36.5 9t-28.5 3q-27 0 -44.5 -13t-17.5 -50v-42h210v49q0 38 13 70.5t37 56t58 36.5t76 13q14 0 27 -0.5t26.5 -3t29.5 -7t36 -11.5l-34 -110q-19 6 -36.5 9t-28.5 3q-27 0 -44.5 -13t-17.5 -50v-42h335v-525h-142z" />
    <glyph glyph-name="f_f_l" unicode="ffl" horiz-adv-x="987" 
d="M940 -11q-53 0 -87 14.5t-53.5 38.5t-26.5 53.5t-7 59.5v471q-25 2 -48 3t-40 1q-49 0 -70 -13t-21 -50v-42h104l-6 -104h-98v-421h-142v421h-210v-421h-142v421h-87v104h87v49q0 38 13 70.5t37 56t58 36.5t76 13q29 0 59.5 -5.5t59.5 -16.5l-34 -110q-19 6 -36.5 9
t-28.5 3q-27 0 -44.5 -13t-17.5 -50v-42h210v49q0 38 14 70.5t43 56t73 36.5t105 13q19 0 51.5 -2t66.5 -5t64 -7t46 -8v-559q0 -32 10.5 -48t40.5 -16z" />
    <glyph glyph-name="f_k" unicode="fk" horiz-adv-x="895" 
d="M743 0l-113 223q-8 18 -19 18q-8 0 -18 -11l-33 -36v-194h-142v630q-25 2 -48.5 3.5t-43.5 1.5q-49 0 -70 -15t-21 -52v-42h104l-6 -104h-98v-422h-142v422h-87v104h87v49q0 38 14 70.5t43 56t73 36.5t105 13q19 0 52 -2t67.5 -5t65.5 -7t47 -8v-364l132 160h179
l-188 -197v-2q25 5 40 -8.5t22 -26.5l152 -291h-154z" />
    <glyph glyph-name="f_t" unicode="ft" horiz-adv-x="734" 
d="M721 9q-20 -8 -48.5 -14t-61.5 -6q-39 0 -71 11t-55 33t-36 54.5t-13 75.5v258h-201v-421h-142v421h-87v104h87v49q0 38 13 70.5t37 56t58 36.5t76 13q29 0 59.5 -5.5t59.5 -16.5l-34 -110q-19 6 -36.5 9t-28.5 3q-27 0 -44.5 -13t-17.5 -50v-42h210l8 154l125 11v-165
h126l-11 -104h-115v-245q0 -38 16.5 -52.5t36.5 -14.5q15 0 29 2.5t30 7.5l31 -110v0z" />
    <glyph glyph-name="f_j" unicode="fj" horiz-adv-x="635" 
d="M573 -36q0 -38 -13 -70t-35.5 -55t-54.5 -35.5t-69 -12.5q-29 0 -61 6t-58 17l31 110q19 -7 36 -10t28 -3q19 0 36.5 12.5t17.5 53.5v444h-196v-421h-142v421h-87v104h87v49q0 38 13 70.5t37 56t58 36.5t76 13q29 0 59.5 -5.5t59.5 -16.5l-34 -110q-19 6 -36.5 9t-28.5 3
q-27 0 -44.5 -13t-17.5 -50v-42h338v-561zM589 673q0 -18 -7 -34t-19 -27.5t-27.5 -18t-33.5 -6.5q-37 0 -63 24.5t-26 61.5q0 18 7 33.5t19 27.5t28 19t34 7q36 0 62 -25.5t26 -61.5z" />
    <glyph glyph-name="f_y" unicode="fy" horiz-adv-x="873" 
d="M648 -64q-8 -21 -22 -46.5t-36.5 -47t-56 -36t-79.5 -14.5q-25 0 -52.5 4.5t-46.5 12.5l20 114q11 -4 28 -7.5t38 -3.5q22 0 36 5.5t23 15t14.5 22t10.5 25.5l21 57l-151 384h-160v-421h-142v421h-87v104h87v49q0 38 13 70.5t37 56t58 36.5t76 13q29 0 59.5 -5.5
t59.5 -16.5l-34 -110q-19 6 -36.5 9t-28.5 3q-27 0 -44.5 -13t-17.5 -50v-42h265l81 -231q2 -8 7 -22q4 -12 11 -32.5t18 -51.5h2q10 31 16 51.5t10 32.5q4 14 7 22l73 231h145z" />
    <glyph glyph-name=".notdef" horiz-adv-x="500" 
d="M0 770h500v-770h-500v770zM60 60h380v650h-380v-650z" />
    <glyph glyph-name=".null" horiz-adv-x="0" 
 />
    <glyph glyph-name="nonmarkingreturn" horiz-adv-x="260" 
 />
    <glyph glyph-name="space" unicode=" " horiz-adv-x="260" 
 />
    <glyph glyph-name="percent" unicode="%" horiz-adv-x="907" 
d="M690 -11q-43 0 -76.5 15.5t-56 42t-34.5 61.5t-12 74q0 41 12 76t35 60.5t56 40t75 14.5q43 0 77 -14.5t57.5 -40t36 -60.5t12.5 -76q0 -39 -12.5 -74t-35.5 -61.5t-57 -42t-77 -15.5zM214 333q-44 0 -77 15.5t-56 42t-34.5 61.5t-11.5 74q0 40 12 75t35 61t56 40.5
t75 14.5q43 0 77 -14.5t57.5 -40t36 -60.5t12.5 -76q0 -39 -12.5 -74.5t-35.5 -61.5t-57 -41.5t-77 -15.5zM295 0l234 706h83l-234 -706h-83zM690 286q-32 0 -49.5 -26.5t-17.5 -77.5q0 -52 18 -79.5t48 -27.5q31 0 49.5 28t18.5 79t-18 77.5t-49 26.5zM281 526
q0 49 -18 76.5t-48 27.5q-32 0 -50 -26.5t-18 -77.5q0 -52 18 -79.5t48 -27.5q31 0 49.5 28t18.5 79z" />
    <glyph glyph-name="ampersand" unicode="&#x26;" horiz-adv-x="712" 
d="M677 344q-14 -56 -37 -108t-55 -97q25 -21 47 -39.5t41 -33.5l-86 -81q-17 15 -38 33t-44 38q-42 -31 -92 -49t-111 -18q-52 0 -98.5 14.5t-81.5 42.5t-55.5 69t-20.5 95q0 39 11.5 70t31 55t45 43t53.5 34q-23 39 -35.5 77t-12.5 73q0 42 16 76t43.5 58t63.5 37t76 13
t74.5 -12t60 -34t40 -54t14.5 -71q0 -36 -15.5 -64t-40 -51.5t-56 -42.5t-64.5 -37q32 -43 70.5 -85.5t79.5 -80.5q26 37 42.5 79.5t25.5 87.5zM418 136q-45 42 -88.5 88.5t-80.5 94.5q-28 -20 -45 -44t-17 -54q0 -26 10 -46.5t26.5 -35.5t39 -23t48.5 -8q59 0 107 28z
M299 466q43 21 71.5 45t28.5 59q0 26 -15 45t-43 19t-47.5 -20t-19.5 -50q0 -45 25 -98z" />
    <glyph glyph-name="quotesingle" unicode="'" horiz-adv-x="233" 
d="M168 409h-102l-9 277h119z" />
    <glyph glyph-name="parenleft" unicode="(" horiz-adv-x="360" 
d="M209 -114q-4 6 -25.5 43t-45.5 96t-43 137t-19 167t19 167t43 137t45.5 96t25.5 43h123q-20 -30 -43.5 -76t-44 -103.5t-34 -124.5t-13.5 -139q0 -73 13.5 -140t34 -124t44 -103t43.5 -76h-123z" />
    <glyph glyph-name="parenright" unicode=")" horiz-adv-x="360" 
d="M151 772q4 -6 25.5 -43t45.5 -96.5t43 -137.5t19 -166q0 -89 -19 -167.5t-43 -137.5t-45.5 -95.5t-25.5 -42.5h-123q20 30 43.5 76t44 103t34 124t13.5 140q0 72 -13.5 139t-34 124.5t-44 103.5t-43.5 76h123z" />
    <glyph glyph-name="asterisk" unicode="*" horiz-adv-x="509" 
d="M459 622q9 -15 9 -33q0 -11 -4.5 -21.5t-15.5 -16.5l-127 -47l127 -48q11 -6 15.5 -16.5t4.5 -21.5q0 -12 -4.5 -23t-12.5 -20t-18.5 -14.5t-21.5 -5.5q-12 0 -19 5l-104 86l22 -134q0 -20 -17.5 -32t-38.5 -12q-20 0 -37.5 12t-17.5 32l22 134l-105 -86q-8 -5 -19 -5
t-21 5.5t-18 14.5t-12.5 20t-4.5 23q0 11 4.5 21.5t15.5 16.5l127 48l-127 47q-11 6 -15.5 16.5t-4.5 21.5q0 12 4.5 23t12 20t18 14.5t21.5 5.5t19 -5l105 -86l-22 134q0 20 17.5 32.5t37.5 12.5q21 0 38.5 -12.5t17.5 -32.5l-22 -134l104 86q7 5 19 5q14 0 27 -8.5
t21 -21.5z" />
    <glyph glyph-name="plus" unicode="+" horiz-adv-x="549" 
d="M334 195v-168h-120v168h-168v120h168v169h120v-169h169v-120h-169z" />
    <glyph glyph-name="comma" unicode="," horiz-adv-x="278" 
d="M224 62q0 -32 -13 -67.5t-31 -68t-38 -58.5t-34 -38l-64 29q7 10 17 27t19.5 36t16 38t6.5 34q-30 11 -44.5 35.5t-14.5 48.5q0 18 6.5 35t18.5 30t28.5 20.5t35.5 7.5q40 0 65.5 -31t25.5 -78z" />
    <glyph glyph-name="hyphen" unicode="-" horiz-adv-x="442" 
d="M75 222v105h292v-105h-292z" />
    <glyph glyph-name="period" unicode="." horiz-adv-x="286" 
d="M232 83q0 -38 -25.5 -66t-63.5 -28q-19 0 -35 7.5t-28 20t-19 28.5t-7 34q0 38 25.5 66t63.5 28q19 0 35 -7.5t28 -20t19 -28.5t7 -34z" />
    <glyph glyph-name="slash" unicode="/" horiz-adv-x="402" 
d="M146 -120h-112l222 859h112z" />
    <glyph glyph-name="zero" unicode="0" 
d="M572 344q0 -71 -16 -135t-49 -113t-84.5 -78t-123.5 -29t-123 29t-84 78t-48.5 113t-15.5 135q0 73 15.5 137t48.5 112t84.5 75.5t122.5 27.5t122.5 -27.5t85 -75.5t49.5 -112t16 -137zM424 344q0 111 -33 171t-92 60q-57 0 -90 -59.5t-33 -171.5t33 -173t90 -61
q58 0 91.5 61t33.5 173z" />
    <glyph glyph-name="one" unicode="1" horiz-adv-x="550" 
d="M81 0v121h142v430l-122 -39l-40 110l206 63h101v-564h113v-121h-400z" />
    <glyph glyph-name="two" unicode="2" 
d="M69 0l-14 72q0 58 23 103t57.5 82t75 67t75 57.5t57.5 54t23 56.5q0 33 -21 58t-63 25t-71 -21t-52 -66l-102 63q29 64 85 104.5t140 40.5q52 0 94.5 -14.5t72.5 -41.5t46 -64.5t16 -83.5q0 -43 -22 -80t-55 -70t-71.5 -62t-71.5 -56t-55 -52.5t-22 -50.5h308v-121h-453z
" />
    <glyph glyph-name="three" unicode="3" 
d="M501 208q0 -45 -17 -85t-49 -70t-78.5 -47t-105.5 -17q-61 0 -107.5 17.5t-92.5 44.5l52 105q42 -23 77.5 -34.5t70.5 -11.5q25 0 44.5 8.5t32 22.5t19 32t6.5 38q0 19 -6 36t-18 30.5t-30.5 21.5t-43.5 8h-56v105h52q23 0 39.5 7.5t27 20t15 27.5t4.5 30q0 14 -4.5 28
t-15 25t-26.5 18t-38 7q-24 0 -52.5 -8t-68.5 -35l-66 94q40 32 90.5 51t96.5 19q56 0 99 -15.5t72.5 -42t45 -62t15.5 -76.5q0 -44 -26.5 -76.5t-68.5 -53.5v-2q54 -24 82.5 -65t28.5 -95z" />
    <glyph glyph-name="four" unicode="4" 
d="M547 147h-109v-147l-134 -11v158h-261v63q0 24 3 47.5t10 55.5l81 372h123l-87 -397q-1 -4 -1.5 -10.5t-0.5 -10.5h133l11 239l123 14v-253h119z" />
    <glyph glyph-name="five" unicode="5" 
d="M516 234q0 -49 -19 -93.5t-53.5 -78t-83 -53.5t-108.5 -20q-61 0 -114 22t-102 56l58 99q40 -28 77.5 -42t76.5 -14q52 0 86 33t34 90q0 50 -27.5 82.5t-81.5 32.5q-29 0 -55.5 -7t-60.5 -19q-12 -4 -23 -4t-19 4t-12.5 10t-6.5 13t-2 12v1l10 327h396l-5 -121h-268
l-5 -114h2q14 6 36 9.5t42 3.5q42 0 83 -15.5t73 -44.5t52 -71.5t20 -97.5z" />
    <glyph glyph-name="six" unicode="6" 
d="M201 324q-1 -10 -1 -19.5v-19.5q0 -24 4 -54.5t14.5 -57t30 -45t50.5 -18.5q28 0 47.5 10t31.5 26.5t17.5 39t5.5 46.5q0 23 -4.5 45t-16 39.5t-30 28.5t-45.5 11q-28 0 -55.5 -8.5t-48.5 -23.5zM548 231q0 -52 -17 -96t-49 -76.5t-78.5 -51t-104.5 -18.5
q-60 0 -106.5 24.5t-77.5 66.5t-47 97t-16 115q0 77 21 149.5t63 129t104 91t144 34.5q35 0 65 -6t62 -17l-29 -114q-17 7 -43.5 11.5t-52.5 4.5q-40 0 -69.5 -12t-50 -33t-33.5 -48.5t-20 -58.5q24 17 55.5 26t66.5 9q47 0 86 -17t67.5 -47t44 -71.5t15.5 -91.5z" />
    <glyph glyph-name="seven" unicode="7" 
d="M547 590q-53 -59 -90 -114t-59.5 -114t-32.5 -124.5t-10 -143.5v-94l-146 -11v115q0 67 9 129.5t28.5 120.5t51.5 110t79 97v3h-310l-14 121h466l28 -95v0z" />
    <glyph glyph-name="eight" unicode="8" 
d="M326 417q25 16 40 36.5t15 51.5q0 28 -21.5 49t-59.5 21t-59.5 -21t-21.5 -49q0 -17 8.5 -29.5t23 -22.5t34 -18.5t41.5 -17.5zM268 296q-32 -18 -52 -42.5t-20 -62.5q0 -13 6.5 -27.5t19.5 -26.5t32.5 -19.5t45.5 -7.5t45.5 7.5t32.5 19.5t19.5 26.5t6.5 27.5
q0 21 -11 36t-30 27t-43.5 22t-51.5 20zM549 191q0 -49 -22 -87t-57 -63.5t-79.5 -38.5t-90.5 -13t-90.5 13t-80 38.5t-57 63.5t-21.5 87q0 31 9 54.5t24.5 42t36 32.5t43.5 25q-38 24 -64 61.5t-26 97.5q0 44 17.5 79.5t48 60.5t71.5 38.5t89 13.5t89.5 -13.5t71.5 -38
t47.5 -60t17.5 -79.5q0 -50 -27 -80.5t-67 -52.5q24 -13 45.5 -29.5t37 -38t25 -49.5t9.5 -64z" />
    <glyph glyph-name="nine" unicode="9" 
d="M550 383q0 -68 -16.5 -138t-55.5 -127t-103 -93t-159 -36q-24 0 -48 3.5t-57 13.5l23 118q28 -8 46.5 -11t35.5 -3q48 0 80 14.5t53 37.5t31.5 52t15.5 59q-21 -20 -53.5 -33t-66.5 -13q-38 0 -78 11.5t-73 38.5t-54 72t-21 112q0 31 11 71.5t38 77t73.5 61.5t117.5 25
q66 0 115 -26.5t81.5 -70.5t48 -100.5t15.5 -115.5zM402 380q0 22 -3.5 55.5t-15 64.5t-33.5 53t-60 22q-28 0 -46 -11t-28.5 -28t-14.5 -37t-4 -38q0 -58 24.5 -95t64.5 -37q36 0 65.5 11t50.5 27v13z" />
    <glyph glyph-name="colon" unicode=":" horiz-adv-x="318" 
d="M252 83q0 -38 -25.5 -66t-63.5 -28q-19 0 -35 7.5t-28 20t-19 28.5t-7 34q0 38 25.5 66t63.5 28q19 0 35 -7.5t28 -20t19 -28.5t7 -34zM252 428q0 -18 -7 -35t-19 -30t-28 -20.5t-35 -7.5t-35 7.5t-28 20t-19 28.5t-7 34t7 35t19 30t28 20.5t35 7.5t35 -7.5t28 -20
t19 -28.5t7 -34z" />
    <glyph glyph-name="semicolon" unicode=";" horiz-adv-x="325" 
d="M256 62q0 -32 -13 -67.5t-31.5 -68t-38.5 -58.5t-33 -38l-64 29q7 10 17 27t19 36t15.5 38t6.5 34q-29 11 -43.5 35.5t-14.5 48.5q0 18 6.5 35t18.5 30t28.5 20.5t35.5 7.5q40 0 65.5 -31t25.5 -78zM252 427q0 -18 -7 -35t-19 -30t-28 -20.5t-35 -7.5t-35.5 7.5t-28.5 20
t-18.5 28.5t-6.5 34t6.5 35t18.5 30t28.5 20.5t35.5 7.5t35 -7.5t28 -20t19 -28.5t7 -34z" />
    <glyph glyph-name="less" unicode="&#x3c;" horiz-adv-x="522" 
d="M411 -6l-370 295l370 297l70 -91l-256 -206l256 -204z" />
    <glyph glyph-name="equal" unicode="=" horiz-adv-x="549" 
d="M46 100v121h457v-121h-457zM46 292v120h457v-120h-457z" />
    <glyph glyph-name="greater" unicode="&#x3e;" horiz-adv-x="522" 
d="M297 289l-256 206l70 91l370 -297l-370 -295l-70 91z" />
    <glyph glyph-name="question" unicode="?" horiz-adv-x="489" 
d="M435 527q0 -35 -11.5 -58.5t-29 -42t-38 -33.5t-38 -31.5t-29 -37t-11.5 -49.5q0 -13 3 -29l-130 -15q-2 14 -3.5 27t-1.5 24q0 38 10.5 64.5t27 46t35 34t35 28t27 28t10.5 34.5q0 26 -15 42.5t-56 16.5q-30 0 -62.5 -14t-56.5 -30l-55 99q37 25 85 43.5t110 18.5
q36 0 71 -11.5t62.5 -33t44 -52.5t16.5 -69zM220 164q18 0 33.5 -7t27.5 -19t19 -28t7 -33q0 -34 -24 -61t-62 -27t-62 26.5t-24 60.5v2q0 17 6.5 32.5t18 27.5t27 19t33.5 7z" />
    <glyph glyph-name="at" unicode="@" horiz-adv-x="795" 
d="M749 378q0 -41 -12.5 -82t-36.5 -75t-59 -55t-80 -21q-27 0 -54.5 18.5t-37.5 58.5q-39 -77 -127 -77q-33 0 -59 14t-43 37t-26 52t-9 58q0 51 18 94t48 74.5t69.5 49.5t83.5 18q22 0 44 -5t42 -13t37 -17t29 -16l-37 -174q-4 -17 -4 -33q0 -30 13.5 -40.5t28.5 -10.5
q9 0 22.5 7.5t26.5 25t22 45t9 67.5q0 45 -13.5 87.5t-42 75.5t-72.5 53t-105 20q-67 0 -120.5 -25.5t-90.5 -67.5t-56.5 -95.5t-19.5 -110.5q0 -51 16 -95t47 -76.5t75.5 -51t100.5 -18.5q37 0 72.5 8t81.5 27l25 -78q-34 -18 -81 -30t-97 -12q-77 0 -138.5 25t-104 68.5
t-65.5 103t-23 128.5q0 76 27 145t76.5 122t119.5 84.5t155 31.5q82 0 143 -28.5t101.5 -74t60.5 -102.5t20 -114zM467 446q-11 4 -22 6t-24 2q-20 0 -39 -11t-34 -30.5t-24 -46.5t-9 -60q0 -28 11.5 -48t35.5 -20q15 0 27 5t22.5 18.5t20 37.5t17.5 63z" />
    <glyph glyph-name="A" unicode="A" horiz-adv-x="666" 
d="M508 0l-54 154h-255l-53 -154h-136l241 674l161 12l245 -686h-149zM360 423q-3 8 -7 22q-4 12 -10.5 33t-15.5 54h-3q-10 -33 -15.5 -54t-9.5 -33q-4 -14 -7 -22l-58 -165h183z" />
    <glyph glyph-name="B" unicode="B" horiz-adv-x="583" 
d="M549 210q0 -43 -14.5 -81.5t-46 -67t-80 -45t-115.5 -16.5h-225v685h227q43 0 82.5 -12t70 -36t49 -60t18.5 -84q0 -18 -4.5 -36t-15 -34.5t-28.5 -31.5t-46 -25v-2q73 -23 100.5 -63t27.5 -91zM401 210q0 25 -7.5 42.5t-20.5 28t-30 15t-36 4.5h-94v-179h89q18 0 36 4
t32 14t22.5 27t8.5 44zM367 490q0 32 -18.5 53t-61.5 21h-74v-155h88q19 0 31.5 7.5t20 19t11 26t3.5 28.5z" />
    <glyph glyph-name="C" unicode="C" horiz-adv-x="644" 
d="M610 96q-60 -55 -122.5 -81t-133.5 -26q-81 0 -139 26t-95.5 73t-55.5 111.5t-18 142.5q0 76 19 140.5t58 112t97.5 74.5t137.5 27q64 0 118.5 -20t116.5 -72l-73 -93q-43 36 -80 50t-82 14q-79 0 -121.5 -59t-42.5 -173q0 -115 41 -174t125 -59q41 0 85 17.5t92 60.5
l73 -92v0z" />
    <glyph glyph-name="D" unicode="D" horiz-adv-x="672" 
d="M626 346q0 -72 -17 -135.5t-53 -110t-91.5 -73.5t-132.5 -27h-264v686h264q77 0 132.5 -26t91.5 -71.5t53 -108t17 -134.5zM478 346q0 106 -37 162.5t-109 56.5h-119v-444h119q72 0 109 59t37 166z" />
    <glyph glyph-name="E" unicode="E" horiz-adv-x="540" 
d="M498 0h-430v686h422v-121h-277v-159h249v-121h-249v-164h294z" />
    <glyph glyph-name="F" unicode="F" horiz-adv-x="518" 
d="M213 565v-159h244v-121h-244v-285h-145v686h416v-121h-271z" />
    <glyph glyph-name="G" unicode="G" horiz-adv-x="692" 
d="M628 79q-18 -16 -46 -32t-62 -29t-71.5 -21t-74.5 -8q-82 0 -143.5 27.5t-102.5 75.5t-61.5 112.5t-20.5 137.5q0 77 23.5 142t67.5 112t106.5 73.5t139.5 26.5q66 0 123 -19t111 -60l-67 -97q-45 31 -85 43t-82 12q-39 0 -73.5 -17t-60 -47.5t-40.5 -72.5t-15 -93
t12 -94t34.5 -74.5t56 -49t77.5 -17.5q41 0 75 8.5t54 22.5v116h-94v100h219v-278v0z" />
    <glyph glyph-name="H" unicode="H" horiz-adv-x="658" 
d="M445 0v285h-232v-285h-145v686h145v-280h232v280h145v-686h-145z" />
    <glyph glyph-name="I" unicode="I" horiz-adv-x="281" 
d="M68 0v686h145v-686h-145z" />
    <glyph glyph-name="J" unicode="J" horiz-adv-x="279" 
d="M211 6q0 -43 -11 -83t-35 -70.5t-61.5 -49t-91.5 -18.5q-23 0 -50.5 3.5t-62.5 13.5l19 121q22 -7 45.5 -11t34.5 -4q23 0 36.5 9t20.5 24t9 34.5t2 39.5v670h145v-679v0z" />
    <glyph glyph-name="K" unicode="K" horiz-adv-x="609" 
d="M436 0l-166 289l-57 -67v-222h-145v685h145v-272h2l195 272h174l-226 -285l241 -400h-163z" />
    <glyph glyph-name="L" unicode="L" horiz-adv-x="506" 
d="M488 0h-420v686h145v-565h284z" />
    <glyph glyph-name="M" unicode="M" horiz-adv-x="843" 
d="M670 0l-28 376q-1 11 -2 26q-1 12 -2 29.5t-3 39.5h-3q-8 -22 -13 -39.5t-10 -29.5q-5 -14 -9 -25l-106 -285h-147l-105 284q-4 11 -8 26q-4 12 -9.5 29.5t-12.5 39.5h-2q-2 -22 -3 -39.5t-2 -29.5q-1 -14 -1 -25l-26 -377h-144l52 686h166l122 -322q4 -10 9 -26
q5 -14 12 -35l17 -51h3q9 30 16 51t12 35q5 16 9 25l122 323h167l69 -686h-140z" />
    <glyph glyph-name="N" unicode="N" horiz-adv-x="664" 
d="M475 0l-264 409h-2v-409h-145v674l134 12l254 -399h3v399h145v-686h-125z" />
    <glyph glyph-name="O" unicode="O" horiz-adv-x="700" 
d="M654 343q0 -72 -17.5 -136.5t-55 -112.5t-95 -76.5t-136.5 -28.5q-80 0 -137 28.5t-94.5 76.5t-55 112.5t-17.5 136.5q0 76 18 140.5t55 111.5t94.5 74t136.5 27t136.5 -27t94.5 -74t55 -111.5t18 -140.5zM506 343q0 107 -40 169.5t-116 62.5q-77 0 -116.5 -62.5
t-39.5 -168.5q0 -53 10 -96.5t30 -74t49 -47t67 -16.5q37 0 66 16.5t49 47t30 73.5t10 96h1z" />
    <glyph glyph-name="P" unicode="P" horiz-adv-x="578" 
d="M532 469q0 -47 -15 -86.5t-45 -68.5t-74.5 -45.5t-102.5 -16.5h-82v-252h-145v685h227q58 0 102.5 -16t74.5 -44.5t45 -68.5t15 -87zM384 469q0 46 -21 70.5t-71 24.5h-79v-192h79q50 0 71 24t21 73z" />
    <glyph glyph-name="Q" unicode="Q" horiz-adv-x="700" 
d="M654 344q0 -65 -14 -123t-43.5 -104.5t-74.5 -78.5t-107 -43q3 -17 16.5 -29.5t34.5 -20.5t48.5 -12t59.5 -4l-25 -143q-56 0 -101 16.5t-77.5 45t-50.5 66t-19 78.5q-67 9 -115 40t-79 78.5t-46 107t-15 125.5q0 76 18 141t55 112t94.5 74t136.5 27t136.5 -27t94.5 -74
t55 -111.5t18 -140.5zM506 343q0 107 -40 169.5t-116 62.5q-77 0 -116.5 -62t-39.5 -168q0 -53 10 -96.5t30 -74.5t49 -47.5t67 -16.5q37 0 66 16.5t49 47t30 74t10 96.5z" />
    <glyph glyph-name="R" unicode="R" horiz-adv-x="589" 
d="M419 0l-92 195q-14 28 -30 48.5t-42 20.5h-42v-264h-145v685h228q58 0 101.5 -15t73 -42.5t44.5 -66t15 -84.5q0 -59 -28 -107t-93 -76v-2q16 -6 24.5 -18t13.5 -23l132 -251h-160zM382 476q0 42 -18.5 65t-70.5 23h-80v-181h82q45 0 66 25.5t21 67.5z" />
    <glyph glyph-name="S" unicode="S" horiz-adv-x="534" 
d="M499 195q0 -45 -20 -83t-54.5 -65.5t-79.5 -42.5t-94 -15q-72 0 -130 23.5t-108 58.5l58 105q49 -32 93 -49t87 -17q26 0 45 7t31 18t18 24.5t6 26.5q0 27 -22 45t-54.5 33.5t-70.5 32t-70.5 41.5t-54.5 62.5t-22 94.5q0 48 19 85t50.5 63t73 39.5t87.5 13.5
q63 0 117 -20.5t93 -46.5l-53 -103q-38 21 -75.5 35t-81.5 14q-42 0 -62 -21.5t-20 -53.5q0 -31 22 -50t54.5 -34t70.5 -31t70.5 -39.5t54.5 -59.5t22 -91z" />
    <glyph glyph-name="T" unicode="T" horiz-adv-x="514" 
d="M496 565h-166v-565h-145v564h-175v122h495z" />
    <glyph glyph-name="U" unicode="U" horiz-adv-x="651" 
d="M587 243q0 -117 -66 -185.5t-193 -68.5q-64 0 -112.5 17.5t-81.5 50.5t-49.5 80t-16.5 105v443h145v-449q0 -57 25.5 -91.5t89.5 -34.5q63 0 88.5 34t25.5 91v450h145v-442v0z" />
    <glyph glyph-name="V" unicode="V" horiz-adv-x="646" 
d="M396 0h-147l-239 686h153l118 -345q5 -12 11 -33q5 -18 13 -46.5t19 -70.5h5q11 42 19.5 70.5t13.5 46.5q6 21 10 33l120 345h144z" />
    <glyph glyph-name="W" unicode="W" horiz-adv-x="870" 
d="M710 0h-157l-80 270q-4 13 -9 32q-5 17 -12 42t-17 62h-3q-10 -37 -16.5 -62t-11.5 -42q-5 -19 -9 -32l-82 -270h-156l-147 685h147l79 -397q2 -14 6 -30q2 -14 5.5 -31t6.5 -36h3q5 19 9 36.5t8 31.5q4 16 9 30l88 291l135 12l95 -304q5 -14 9 -30q4 -14 8.5 -31
t9.5 -36h3q2 19 5 36t5 31l5 30l72 397h142z" />
    <glyph glyph-name="X" unicode="X" horiz-adv-x="619" 
d="M443 0l-133 242h-2l-144 -242h-154l220 356l-186 329h161l110 -215h2l105 215h151l-179 -329l215 -356h-166z" />
    <glyph glyph-name="Y" unicode="Y" horiz-adv-x="599" 
d="M371 290v-290h-144v290l-217 395h161l76 -170q4 -8 11 -23q6 -13 15.5 -33.5t24.5 -52.5h3q14 32 23 52.5t14 33.5q6 15 10 23l80 170h161z" />
    <glyph glyph-name="Z" unicode="Z" horiz-adv-x="549" 
d="M507 0h-462l-11 86l289 478h-270v121h415l41 -73l-295 -488v-3h302z" />
    <glyph glyph-name="bracketleft" unicode="[" horiz-adv-x="360" 
d="M90 771h205v-100h-84v-685h84v-101h-205v886z" />
    <glyph glyph-name="backslash" unicode="\" horiz-adv-x="402" 
d="M256 -120l-222 859h112l222 -859h-112z" />
    <glyph glyph-name="bracketright" unicode="]" horiz-adv-x="360" 
d="M65 -115v101h84v685h-84v100h205v-886h-205z" />
    <glyph glyph-name="asciicircum" unicode="^" horiz-adv-x="565" 
d="M426 332l-145 266l-144 -267l-96 54l197 344h85l202 -344z" />
    <glyph glyph-name="underscore" unicode="_" horiz-adv-x="512" 
d="M0 -138v58h512v-58h-512z" />
    <glyph glyph-name="grave" unicode="`" horiz-adv-x="428" 
d="M162 791l176 -165l-59 -67l-188 152z" />
    <glyph glyph-name="a" unicode="a" horiz-adv-x="525" 
d="M347 0q-5 10 -7 25.5t-2 23.5h-2q-30 -35 -67 -47.5t-69 -12.5q-33 0 -62.5 10.5t-51.5 30t-35 48.5t-13 65q0 46 20 76t51.5 48t71.5 25t79 7q17 0 33.5 -1t31.5 -3v26q0 48 -21 71.5t-59 23.5q-29 0 -62 -11t-61 -29l-64 96q88 64 196 64q42 0 80.5 -14t68 -42t47 -70
t17.5 -98v-312h-120zM325 209q-23 5 -48 5q-18 0 -34.5 -3t-30 -9.5t-21.5 -18.5t-8 -30q0 -23 14.5 -37.5t47.5 -14.5q14 0 37 5t43 22v81z" />
    <glyph glyph-name="b" unicode="b" horiz-adv-x="573" 
d="M535 267q0 -57 -14.5 -107.5t-43 -88.5t-71 -60t-99.5 -22q-29 0 -62.5 15t-53.5 41h-2q0 -2 -0.5 -8.5t-1 -13.5t-1 -13.5t-1.5 -9.5h-123v739l142 11v-261h2q17 18 48.5 32.5t60.5 14.5q50 0 90.5 -18.5t69.5 -53.5t44.5 -85t15.5 -112zM390 268q0 41 -7.5 69.5t-20 46
t-30.5 25t-39 7.5q-24 0 -47 -10t-42 -24v-240q14 -16 37 -24.5t43 -8.5q51 0 78.5 39t27.5 120z" />
    <glyph glyph-name="c" unicode="c" horiz-adv-x="537" 
d="M497 47q-23 -13 -45 -24t-45.5 -18.5t-50 -11.5t-58.5 -4q-63 0 -111.5 20t-81.5 56t-50 86.5t-17 111.5q0 59 17 109t50 86.5t81 57t110 20.5q54 0 98 -15t98 -52l-65 -97q-33 25 -65.5 34t-56.5 9q-60 0 -91 -36t-31 -116t32 -117t92 -37q28 0 59 8.5t75 32.5l56 -103
v0z" />
    <glyph glyph-name="d" unicode="d" horiz-adv-x="573" 
d="M388 0q-1 3 -1.5 10t-1 14.5t-1 14.5t-0.5 9h-2q-20 -29 -55.5 -44t-68.5 -15q-54 0 -95 21.5t-68.5 59t-42 88t-14.5 109.5q0 58 17 107.5t46.5 85.5t69.5 56t87 20q29 0 59.5 -9t51.5 -27v239h142v-739h-123zM369 388q-18 14 -37 21t-43 7q-45 0 -75.5 -36.5
t-30.5 -111.5q0 -85 27.5 -122t78.5 -37q20 0 43 9t37 27v243z" />
    <glyph glyph-name="e" unicode="e" horiz-adv-x="558" 
d="M518 280q0 -13 -1 -31t-4 -26h-327q4 -34 16.5 -56t29 -35t36 -18t38.5 -5q35 0 71.5 10.5t78.5 35.5l53 -99q-54 -38 -105.5 -52.5t-108.5 -14.5q-65 0 -113 21.5t-80 58.5t-48 87t-16 107t15.5 106.5t46.5 86.5t77.5 58t107.5 21q60 0 104 -20.5t72.5 -56t42.5 -81.5
t14 -97zM372 318q0 54 -25.5 75.5t-61.5 21.5q-15 0 -31 -3.5t-29.5 -14t-23.5 -29.5t-13 -50h184z" />
    <glyph glyph-name="f" unicode="f" horiz-adv-x="352" 
d="M362 618q-19 6 -36.5 9t-28.5 3q-27 0 -44.5 -13t-17.5 -50v-42h98v-104h-98v-421h-142v421h-87v104h87v49q0 38 13 70.5t37 56t58 36.5t76 13q29 0 59.5 -5.5t59.5 -16.5z" />
    <glyph glyph-name="g" unicode="g" horiz-adv-x="569" 
d="M511 17q0 -48 -15.5 -89t-46.5 -71t-77 -47t-107 -17q-40 0 -82 7.5t-98 30.5l39 116q25 -11 45.5 -18t37 -10.5t30.5 -4.5t28 -1q29 0 49 8t32 22.5t17.5 33t5.5 39.5v31h-2q-17 -18 -49.5 -32.5t-68.5 -14.5q-47 0 -85.5 18.5t-66.5 53.5t-43.5 85t-15.5 112
q0 57 14.5 106t43 85t71 56.5t99.5 20.5q15 0 31.5 -4t32.5 -11t29.5 -17t22.5 -23h2q0 2 0.5 8t1 13.5t1 14t1.5 9.5h123v-510zM369 384q-14 17 -37 25t-43 8q-51 0 -78.5 -34t-27.5 -115q0 -41 7.5 -69.5t20 -46t30.5 -25t39 -7.5q24 0 47 10t42 24v230z" />
    <glyph glyph-name="h" unicode="h" horiz-adv-x="569" 
d="M369 0v307q0 61 -17.5 85t-52.5 24q-23 0 -49 -13.5t-43 -29.5v-373h-142v739h142v-254h2q18 20 47 35.5t67 15.5q39 0 73 -14.5t59.5 -42t40.5 -68.5t15 -94v-317h-142z" />
    <glyph glyph-name="i" unicode="i" horiz-adv-x="300" 
d="M79 0v525h142v-525h-142zM238 674q0 -37 -26 -61.5t-62 -24.5t-62 24.5t-26 61.5q0 18 7 33.5t19 27.5t27.5 19t33.5 7q37 0 63 -25.5t26 -61.5z" />
    <glyph glyph-name="j" unicode="j" horiz-adv-x="283" 
d="M221 -36q0 -38 -13 -70t-35.5 -55t-54.5 -35.5t-69 -12.5q-29 0 -61 6t-58 17l31 110q19 -7 36 -10t28 -3q19 0 36.5 12.5t17.5 53.5v548h142v-561zM237 673q0 -18 -7 -34t-19 -27.5t-27.5 -18t-33.5 -6.5q-37 0 -63 24.5t-26 61.5q0 18 7 33.5t19 27.5t28 19t34 7
q36 0 62 -25.5t26 -61.5z" />
    <glyph glyph-name="k" unicode="k" horiz-adv-x="542" 
d="M390 0l-113 223q-8 18 -19 18q-8 0 -18 -11l-33 -36v-194h-142v739h142v-374l132 160h179l-188 -197v-2q4 1 11 1q20 0 32.5 -12.5t18.5 -23.5l152 -291h-154z" />
    <glyph glyph-name="l" unicode="l" horiz-adv-x="283" 
d="M236 -11q-53 0 -87 14.5t-53.5 38.5t-26.5 53.5t-7 59.5v584h142v-570q0 -32 10.5 -48t40.5 -16z" />
    <glyph glyph-name="m" unicode="m" horiz-adv-x="825" 
d="M626 0v310q0 59 -12 82.5t-44 23.5q-27 0 -50.5 -15.5t-37.5 -30.5q3 -24 3 -50v-320h-141v310q0 59 -12 82.5t-44 23.5q-26 0 -47.5 -13.5t-37.5 -29.5v-373h-141v525h120q2 -8 4.5 -25t2.5 -27h2q9 11 20.5 22.5t26 20.5t33 14.5t42.5 5.5q91 0 139 -77q12 13 28 26.5
t34 25t38.5 18.5t42.5 7q37 0 68.5 -14t54.5 -41t36 -67.5t13 -93.5v-320h-141z" />
    <glyph glyph-name="n" unicode="n" horiz-adv-x="567" 
d="M367 0v310q0 60 -15.5 83t-47.5 23q-26 0 -53 -11.5t-47 -28.5v-376h-142v525h120q1 -4 2.5 -11.5t2.5 -15.5t1.5 -15t0.5 -10h2q19 23 52 43t75 20q86 0 138.5 -55t52.5 -161v-320h-142z" />
    <glyph glyph-name="o" unicode="o" horiz-adv-x="576" 
d="M538 263q0 -56 -16 -105.5t-47 -87t-78 -59.5t-108 -22q-62 0 -109 21.5t-78.5 59t-47.5 87.5t-16 106q0 60 16 110t48 86t78.5 56.5t108.5 20.5q63 0 109.5 -20.5t77.5 -57t46.5 -86.5t15.5 -109zM393 264q0 75 -27 113.5t-77 38.5q-49 0 -77.5 -39t-28.5 -113
q0 -75 29 -115t77 -40q46 0 75 40t29 115z" />
    <glyph glyph-name="p" unicode="p" horiz-adv-x="576" 
d="M538 258q0 -58 -17 -107.5t-46.5 -85.5t-69.5 -56t-87 -20q-29 0 -59.5 9t-51.5 27v-223h-142v723h123q1 -3 1.5 -10t1 -14.5t1 -14.5t0.5 -9h2q20 28 55.5 43.5t68.5 15.5q54 0 95 -21.5t68.5 -59t42 -88t14.5 -109.5zM393 257q0 85 -27.5 122t-78.5 37q-20 0 -43 -8.5
t-37 -27.5v-243q18 -14 37.5 -21t42.5 -7q45 0 75.5 36.5t30.5 111.5z" />
    <glyph glyph-name="q" unicode="q" horiz-adv-x="573" 
d="M369 -209v245h-2q-17 -19 -49.5 -33t-68.5 -14q-47 0 -85.5 18.5t-66.5 53.5t-43.5 84.5t-15.5 112.5q0 57 14.5 107.5t43 88.5t71 60t99.5 22q29 0 62.5 -15t53.5 -41h2q0 2 0.5 8.5t1 13.5t1 13.5t1.5 9.5h123v-723zM369 382q-14 17 -37 25.5t-43 8.5q-51 0 -78.5 -39
t-27.5 -120q0 -42 7.5 -70t20 -45.5t30.5 -25t39 -7.5q24 0 47 9.5t42 23.5v240z" />
    <glyph glyph-name="r" unicode="r" horiz-adv-x="378" 
d="M358 409q-8 3 -17.5 5t-25.5 2q-20 0 -39.5 -10.5t-35.5 -26.5t-26 -35t-10 -36v-308h-142v525h122q1 -4 2.5 -15t2.5 -23t1.5 -23t0.5 -14h3q5 11 16 25.5t27.5 28t38 23t48.5 9.5q23 0 37 -4.5t19 -8.5z" />
    <glyph glyph-name="s" unicode="s" horiz-adv-x="445" 
d="M359 380q-28 15 -59 25.5t-60 10.5q-21 0 -33.5 -8.5t-12.5 -26.5q0 -19 16 -31t40 -23t52.5 -23t52.5 -30.5t40 -46t16 -69.5q0 -43 -17.5 -75t-46 -53t-65 -31t-73.5 -10q-56 0 -103 19t-91 51l63 100q33 -23 67 -36.5t65 -13.5q23 0 39.5 9.5t16.5 30.5q0 19 -16 31
t-40 22.5t-52.5 22.5t-52.5 31t-40 47t-16 72q0 40 16.5 70t43.5 50t60.5 30.5t68.5 10.5q42 0 86 -13t88 -40z" />
    <glyph glyph-name="t" unicode="t" horiz-adv-x="381" 
d="M368 9q-20 -8 -48.5 -14t-61.5 -6q-39 0 -71 11t-55 33t-36 54.5t-13 75.5v258h-74v104h74l17 154l125 11v-165h126l-11 -104h-115v-245q0 -38 16.5 -52.5t36.5 -14.5q15 0 29 2.5t30 7.5l31 -110v0z" />
    <glyph glyph-name="u" unicode="u" horiz-adv-x="567" 
d="M389 0q-1 4 -2.5 11.5t-2.5 15.5t-1.5 14.5t-0.5 9.5h-2q-17 -24 -51 -43t-76 -19q-86 0 -138.5 55t-52.5 161v320h142v-310q0 -60 15.5 -83t47.5 -23q26 0 53 11.5t47 28.5v376h142v-525h-120z" />
    <glyph glyph-name="v" unicode="v" horiz-adv-x="513" 
d="M328 0h-145l-180 525h147l110 -368h3l115 368h132z" />
    <glyph glyph-name="w" unicode="w" horiz-adv-x="788" 
d="M626 0h-147l-83 322h-2l-84 -322h-145l-152 525h145l67 -244q1 -7 5 -20q2 -11 6.5 -29.5t10.5 -45.5h3q6 27 10.5 45.5t7.5 29.5q4 13 6 20l59 233l136 11l64 -244q1 -7 5 -20q3 -11 7.5 -29.5t11.5 -45.5h3q5 27 8.5 45.5t5.5 29.5l4 20l54 244h144z" />
    <glyph glyph-name="x" unicode="x" horiz-adv-x="507" 
d="M350 0l-96 169h-3l-104 -169h-144l175 277l-159 248h156l80 -141h3l86 141h144l-157 -249l173 -276h-154z" />
    <glyph glyph-name="y" unicode="y" horiz-adv-x="521" 
d="M296 -64q-8 -21 -22 -46.5t-36.5 -47t-56 -36t-79.5 -14.5q-25 0 -52.5 4.5t-46.5 12.5l20 114q11 -4 28 -7.5t38 -3.5q22 0 36 5.5t23 15t14.5 22t10.5 25.5l21 57l-191 488h145l81 -231q2 -8 7 -22q4 -12 11 -32.5t18 -51.5h2q10 31 16 51.5t10 32.5q4 14 7 22l73 231
h145z" />
    <glyph glyph-name="z" unicode="z" horiz-adv-x="484" 
d="M439 0h-379l-23 89l224 314v2h-199l-13 120h367l26 -90l-222 -312v-3h234z" />
    <glyph glyph-name="braceleft" unicode="{" horiz-adv-x="360" 
d="M303 -115q-94 0 -146 41.5t-52 116.5l10 169q0 33 -13.5 51t-40.5 18h-37v94h37q27 0 40.5 18t13.5 50l-10 169q0 75 52 116.5t146 41.5v-104q-48 0 -65.5 -14.5t-17.5 -43.5l11 -166q0 -35 -19.5 -64.5t-62.5 -49.5v-2q43 -20 62.5 -48.5t19.5 -63.5l-11 -167
q0 -29 17.5 -43t65.5 -14v-105v0z" />
    <glyph glyph-name="bar" unicode="|" horiz-adv-x="293" 
d="M205 -75h-117v846h117v-846z" />
    <glyph glyph-name="braceright" unicode="}" horiz-adv-x="360" 
d="M57 770q94 0 146 -41.5t52 -116.5l-10 -169q0 -32 13.5 -50t40.5 -18h37v-94h-37q-27 0 -40.5 -18.5t-13.5 -50.5l10 -169q0 -75 -52 -116.5t-146 -41.5v105q48 0 65.5 14t17.5 43l-11 167q0 35 19 64t62 49v2q-43 20 -62 48t-19 63l11 168q0 29 -17.5 43.5t-65.5 14.5
v104v0z" />
    <glyph glyph-name="asciitilde" unicode="~" horiz-adv-x="542" 
d="M484 207q-19 -11 -38 -17t-35 -8q-18 -4 -36 -3q-26 0 -55 9t-57 19.5t-53 19.5t-43 9q-33 0 -58 -8.5t-51 -20.5v101q19 11 38 16.5t35 8.5q18 4 36 4q26 0 55 -9t57 -19.5t53 -19.5t43 -9q33 0 58 8.5t51 19.5v-101v0z" />
    <glyph glyph-name="dagger" unicode="&#x2020;" horiz-adv-x="463" 
d="M285 411l7 -411h-120l7 411l-133 -7v111l133 -7l-7 177h120l-7 -177l132 7v-111z" />
    <glyph glyph-name="degree" unicode="&#xb0;" horiz-adv-x="330" 
d="M289 624q0 -26 -9 -49t-25.5 -40t-39 -27t-50.5 -10t-50.5 10t-39 26.5t-25.5 39t-9 48.5t9.5 49t26.5 40.5t39.5 27.5t48.5 10t48.5 -10t39.5 -27.5t26.5 -40t9.5 -47.5zM220 622q0 23 -16.5 40t-38.5 17t-38 -16.5t-16 -38.5q0 -24 16 -40t38 -16t38.5 15.5t16.5 38.5z
" />
    <glyph glyph-name="cent" unicode="&#xa2;" 
d="M289 410q-37 -11 -57 -46t-20 -101q0 -65 20 -101.5t57 -47.5v296zM534 52q-50 -32 -94 -46t-86 -16v-79h-65v80q-54 6 -96 28t-70 57.5t-42.5 83t-14.5 103.5q0 55 14.5 102t43 82.5t70 58t95.5 28.5v80h65v-79q44 -4 83.5 -19t86.5 -47l-69 -98q-32 21 -56.5 30
t-44.5 12v-303q23 2 51.5 11t67.5 34z" />
    <glyph glyph-name="sterling" unicode="&#xa3;" 
d="M445 298h-133q1 -8 1.5 -17t0.5 -18q0 -35 -16 -69.5t-51 -69.5v-2h287v-122h-405l-26 96q39 43 55.5 80.5t16.5 74.5q0 22 -5 47h-82v83h62q-8 27 -13.5 55.5t-5.5 60.5q0 49 18.5 86t49 62t71.5 37.5t86 12.5q46 0 87 -10.5t83 -33.5l-54 -105q-20 11 -49.5 19.5
t-57.5 8.5q-43 0 -66.5 -21t-23.5 -56q0 -26 5 -52.5t11 -52.5l3 -11h160z" />
    <glyph glyph-name="section" unicode="&#xa7;" horiz-adv-x="543" 
d="M260 -97q-59 0 -107 22t-93 54l60 101q44 -30 77.5 -44t62.5 -14q31 0 47 19t16 42q0 18 -11 30.5t-27 21.5t-34 15t-31 11q-26 10 -50.5 25t-43 35.5t-30 48t-11.5 62.5q0 33 11 61t31 51q-19 35 -19 82q0 41 15 73t41 53.5t60.5 33t73.5 11.5q24 0 45 -3t42.5 -10
t44 -17t48.5 -25l-48 -100q-26 12 -45 19.5t-34 12t-28 6t-25 1.5q-29 0 -41.5 -17t-12.5 -38t17.5 -33.5t44.5 -23t57.5 -23t57.5 -33.5t44.5 -53.5t17.5 -83.5q0 -32 -10.5 -59.5t-29.5 -50.5q10 -18 14 -39t4 -45q0 -42 -17 -75t-45 -56t-64 -35.5t-75 -12.5zM340 254
q5 10 5 23q0 21 -12 34.5t-29.5 22t-37 14t-35.5 11.5q-3 -4 -5.5 -10.5t-2.5 -16.5q0 -15 9 -25.5t22.5 -17.5t28 -12.5t25.5 -9.5z" />
    <glyph glyph-name="bullet" unicode="&#x2022;" horiz-adv-x="448" 
d="M369 345q0 -30 -11.5 -56.5t-31 -46t-45.5 -30.5t-56 -11t-56.5 11t-46 30.5t-31 46t-11.5 56.5t11.5 56t31 45.5t45.5 31t56 11.5t56.5 -11.5t46 -31t31 -45.5t11.5 -56z" />
    <glyph glyph-name="paragraph" unicode="&#xb6;" horiz-adv-x="623" 
d="M294 -120v337q-56 4 -102 24t-78.5 51.5t-50 72t-17.5 86.5q0 49 19.5 91.5t53 74.5t78 50.5t94.5 18.5h294v-806h-119v715h-53v-715h-119z" />
    <glyph glyph-name="germandbls" unicode="&#xdf;" horiz-adv-x="608" 
d="M575 161q0 -43 -16 -75.5t-42.5 -54t-61 -32t-72.5 -10.5q-30 0 -61.5 10.5t-60.5 27.5l43 107q27 -14 46 -19.5t33 -5.5q26 0 38 15t12 37q0 17 -12 29.5t-30.5 24t-40 25t-40 32.5t-30.5 46t-12 66q0 38 12 61.5t26 42.5t26 37.5t12 46.5q0 24 -12 41t-40 17
q-23 0 -40 -15t-17 -54v-561h-142v421h-87v104h87v41q0 42 15 76t40.5 58t60.5 37t74 13q40 0 75 -13t61.5 -36.5t42 -55.5t15.5 -71q0 -36 -10.5 -60.5t-23 -44t-23 -37.5t-10.5 -42q0 -17 12 -29t30.5 -23.5t40 -24.5t40 -33t30.5 -48.5t12 -70.5z" />
    <glyph glyph-name="registered" unicode="&#xae;" horiz-adv-x="620" 
d="M582 410q0 -73 -23.5 -127.5t-62.5 -91t-88 -54.5t-100 -18t-99.5 18.5t-86.5 55t-61 91t-23 126.5t23 126t61 89.5t86.5 53.5t99.5 18t100 -18t88 -53.5t62.5 -89.5t23.5 -126zM513 410q0 49 -15 90t-42.5 69.5t-65 44.5t-82.5 16t-82 -15.5t-63.5 -44.5t-41 -69.5
t-14.5 -90.5q0 -51 14.5 -92t41 -70.5t63.5 -45.5t82 -16t82.5 16t65 45.5t42.5 70.5t15 92zM350 267l-42 85q-3 6 -7 12t-10 6h-10v-103h-75v283h99q50 0 76.5 -24.5t26.5 -64.5q0 -23 -10 -42t-32 -32q0 -1 1 -1.5t2 -2.5l2 -4l61 -112h-82zM332 460q0 14 -6 23.5t-20 9.5
h-27v-67h27q14 0 20 10t6 24z" />
    <glyph glyph-name="copyright" unicode="&#xa9;" horiz-adv-x="707" 
d="M669 329q0 -85 -27 -149t-71.5 -106.5t-101.5 -63.5t-117 -21t-116.5 21.5t-100.5 64t-70.5 106t-26.5 148.5q0 84 26.5 147t70.5 104.5t100.5 62t116.5 20.5t117 -20.5t101.5 -62t71.5 -104.5t27 -147zM600 329q0 60 -18.5 109.5t-51.5 84.5t-78.5 54t-99.5 19t-99 -19
t-77.5 -54t-50.5 -84.5t-18 -109.5q0 -62 18 -112.5t50.5 -86t77.5 -55t99 -19.5t99.5 19.5t78.5 55.5t51.5 86.5t18.5 111.5zM435 377q-20 32 -40.5 44t-46.5 12q-41 0 -63.5 -28t-22.5 -76q0 -50 22.5 -78t63.5 -28q33 0 55 14t45 40l56 -49q-38 -45 -73.5 -62t-82.5 -17
q-41 0 -72 14t-52.5 38.5t-32.5 57t-11 70.5t11 71t32.5 57t52.5 37.5t72 13.5q48 0 86 -21.5t71 -75.5z" />
    <glyph glyph-name="trademark" unicode="&#x2122;" horiz-adv-x="940" 
d="M272 593v-317h-120v317h-90v92h301v-92h-91zM764 276l-4 228h-2l-60 -179h-111l-59 179h-2l-5 -228h-117l25 409h135l76 -235h2l80 235h135l25 -409h-118z" />
    <glyph glyph-name="acute" unicode="&#xb4;" horiz-adv-x="418" 
d="M333 711l-188 -152l-59 67l176 165z" />
    <glyph glyph-name="dieresis" unicode="&#xa8;" horiz-adv-x="529" 
d="M292 675q0 29 20 49t49 20t50 -20.5t21 -48.5q0 -29 -20.5 -48.5t-49.5 -19.5t-49.5 19.5t-20.5 48.5zM97 675q0 29 21 49t50 20t49 -20.5t20 -48.5q0 -29 -20 -48.5t-49 -19.5t-50 20t-21 48z" />
    <glyph glyph-name="notequal" unicode="&#x2260;" horiz-adv-x="549" 
d="M293 102l-25 -101l-104 26l17 73h-135v120h164l16 70h-180v120h210l25 101l104 -26l-17 -73h135v-120h-164l-16 -70h180v-120h-210z" />
    <glyph glyph-name="AE" unicode="&#xc6;" horiz-adv-x="915" 
d="M508 0l-26 158h-247l-70 -158h-155l334 685h451l21 -120h-257l26 -159h217l20 -121h-217l28 -164h272v-121h-397zM414 565l-134 -303h184z" />
    <glyph glyph-name="Oslash" unicode="&#xd8;" horiz-adv-x="700" 
d="M654 343q0 -72 -17.5 -136.5t-55 -112.5t-95 -76.5t-136.5 -28.5q-43 0 -79.5 8.5t-66.5 24.5l-50 -87l-59 34l53 92q-53 49 -77.5 122.5t-24.5 159.5q0 76 18 140.5t55 111.5t94.5 74t136.5 27q85 0 147 -32l49 86l59 -34l-52 -90q52 -48 76.5 -120.5t24.5 -162.5z
M431 550q-36 25 -81 25q-77 0 -116.5 -62.5t-39.5 -168.5q0 -94 30 -152zM506 343q0 92 -30 151l-206 -359q34 -25 80 -25q37 0 66.5 16.5t49 47t30 73.5t10.5 96z" />
    <glyph glyph-name="plusminus" unicode="&#xb1;" horiz-adv-x="549" 
d="M334 195v-158h-120v158h-168v120h168v158h120v-158h169v-120h-169zM46 -129v108h457v-108h-457z" />
    <glyph glyph-name="lessequal" unicode="&#x2264;" horiz-adv-x="495" 
d="M387 34l-346 255l349 252l64 -93l-220 -159l220 -162zM41 -133v108h413v-108h-413z" />
    <glyph glyph-name="greaterequal" unicode="&#x2265;" horiz-adv-x="495" 
d="M261 289l-220 159l64 93l349 -252l-346 -255l-67 93zM41 -25h413v-108h-413v108z" />
    <glyph glyph-name="yen" unicode="&#xa5;" 
d="M371 175v-175h-143v175h-143v86h143v28l-7 15h-136v86h91l-155 295h160l115 -286h6l116 286h161l-156 -295h89v-86h-133l-9 -15v-28h142v-86h-141z" />
    <glyph glyph-name="ordfeminine" unicode="&#xaa;" horiz-adv-x="396" 
d="M251 351q-21 -22 -46 -29.5t-47 -7.5q-24 0 -45 8t-37 22t-25.5 34.5t-9.5 44.5q0 33 14.5 54.5t37 33.5t51 17t55.5 5h21.5t20.5 -2v16q0 59 -47 59q-18 0 -41.5 -7.5t-45.5 -24.5l-50 73q38 26 71 37.5t71 11.5q30 0 57.5 -10t47.5 -28.5t32 -45t12 -59.5v-183
q0 -5 1 -12q1 -6 2 -15t4 -22h-97q-3 7 -4.5 15t-2.5 15zM241 465q-15 3 -32 3q-22 0 -40.5 -7.5t-18.5 -30.5q0 -14 8.5 -22.5t30.5 -8.5q9 0 23.5 2.5t28.5 9.5v54z" />
    <glyph glyph-name="ordmasculine" unicode="&#xba;" horiz-adv-x="438" 
d="M220 314q-44 0 -77.5 15t-56 41.5t-34 61t-11.5 73.5q0 41 11.5 76t34 60.5t56 39.5t77.5 14q45 0 78 -14.5t55.5 -40t33.5 -60t11 -75.5q0 -39 -11.5 -73.5t-34 -60.5t-55.5 -41.5t-77 -15.5zM220 605q-32 0 -51 -24.5t-19 -74.5q0 -51 19.5 -76.5t50.5 -25.5
q29 0 49 25.5t20 76.5t-18.5 75t-50.5 24z" />
    <glyph glyph-name="ae" unicode="&#xe6;" horiz-adv-x="845" 
d="M805 280q0 -13 -1 -31t-4 -26h-327q4 -34 16.5 -56t29 -35t36 -18t38.5 -5q35 0 71.5 10.5t78.5 35.5l53 -99q-54 -38 -105.5 -52.5t-108.5 -14.5q-60 0 -105 18t-77 50q-32 -26 -77.5 -47t-102.5 -21q-40 0 -73.5 11t-57.5 31.5t-37.5 50.5t-13.5 69q0 42 20 70.5
t51.5 46t71 24.5t78.5 7q17 0 33.5 -1t32.5 -3v29q0 48 -21 70t-59 22q-29 0 -62 -11t-61 -29l-64 96q88 64 196 64q45 0 84 -15.5t68 -44.5q31 28 72 43.5t94 15.5q60 0 104 -20.5t72.5 -56t42.5 -81.5t14 -97zM349 133q-15 36 -21 77l-3 1q-11 1 -23 2t-25 1q-17 0 -34 -3
t-30.5 -9.5t-21.5 -18.5t-8 -30q0 -23 14.5 -37.5t47.5 -14.5q32 0 59 10.5t45 21.5zM659 318q0 54 -25.5 75.5t-61.5 21.5q-15 0 -31 -3.5t-29.5 -14t-23.5 -29.5t-13 -50h184z" />
    <glyph glyph-name="oslash" unicode="&#xf8;" horiz-adv-x="576" 
d="M538 263q0 -56 -16 -105.5t-47 -87t-78 -59.5t-108 -22q-62 0 -108 21l-35 -61l-58 34l36 63q-43 38 -64.5 94.5t-21.5 122.5q0 60 16 110t48 86t78.5 56.5t108.5 20.5q59 0 107 -20l34 60l58 -34l-35 -61q43 -37 64 -93t21 -125zM332 407q-18 9 -43 9q-49 0 -77.5 -39
t-28.5 -113q0 -54 15 -90zM393 264q0 52 -14 88l-134 -233q19 -10 44 -10q46 0 75 40t29 115z" />
    <glyph glyph-name="questiondown" unicode="&#xbf;" horiz-adv-x="489" 
d="M46 100q0 34 11.5 58t29 42.5t38 33.5t38 31.5t29 37t11.5 49.5q0 12 -3 29l130 15q2 -14 3.5 -27t1.5 -24q0 -38 -10.5 -64.5t-27 -46t-35 -34t-35 -28t-27 -28t-10.5 -34.5q0 -26 15 -42.5t56 -16.5q30 0 62.5 14t56.5 30l55 -99q-37 -25 -85 -43.5t-110 -18.5
q-36 0 -71 11.5t-62.5 33t-44 52.5t-16.5 69zM174 551q0 16 6.5 32t18 28t27 19.5t34.5 7.5q38 0 62 -26.5t24 -60.5v-2q0 -17 -6.5 -32.5t-18 -27.5t-27 -19t-33.5 -7q-38 0 -62 26.5t-25 61.5z" />
    <glyph glyph-name="exclamdown" unicode="&#xa1;" horiz-adv-x="369" 
d="M120 401h128l21 -462h-169zM98 549q0 16 6.5 32t18 28t27 19.5t34.5 7.5q38 0 62 -26.5t25 -60.5q0 -18 -6.5 -34t-18 -28t-27.5 -19t-34 -7q-38 0 -62.5 26.5t-24.5 61.5z" />
    <glyph glyph-name="logicalnot" unicode="&#xac;" horiz-adv-x="615" 
d="M449 82v152h-403v108h523v-260h-120z" />
    <glyph glyph-name="florin" unicode="&#x192;" horiz-adv-x="573" 
d="M490 615q-31 16 -52 19.5t-34 3.5q-58 0 -68 -78l-12 -88h126l-10 -104h-131l-56 -397q-6 -40 -22 -70t-39.5 -52t-53 -36t-62.5 -22l-44 97q52 19 73 41t26 60l54 379h-97l10 104h101l15 105q5 38 20.5 70t39.5 55t55.5 35.5t68.5 12.5t70.5 -10t68.5 -30z" />
    <glyph glyph-name="approxequal" unicode="&#x2248;" horiz-adv-x="542" 
d="M484 293q-19 -11 -38 -16.5t-35 -8.5q-18 -4 -36 -4q-26 0 -54.5 9t-57 19.5t-53.5 19.5t-43 9q-33 0 -58 -8.5t-51 -19.5v101q19 11 38 16t35 8q18 3 36 4q26 0 55 -9t57 -19.5t53 -19.5t43 -9q34 0 58.5 8.5t50.5 20.5v-101zM484 109q-19 -11 -38 -17t-35 -8
q-18 -4 -36 -3q-26 0 -55 8.5t-57 19t-53 19.5t-43 9q-33 0 -58 -8.5t-51 -19.5v101q19 11 38 16t35 8q18 3 36 4q26 0 55 -9t57 -19.5t53 -19t43 -8.5q33 0 58 8.5t51 19.5v-101z" />
    <glyph glyph-name="guillemotleft" unicode="&#xab;" horiz-adv-x="639" 
d="M518 54l-226 236l225 235l81 -78l-159 -157l159 -159zM266 54l-225 236l225 235l81 -78l-160 -157l159 -159z" />
    <glyph glyph-name="guillemotright" unicode="&#xbb;" horiz-adv-x="639" 
d="M200 290l-159 157l80 78l226 -235l-225 -236l-81 77zM452 290l-160 157l81 78l225 -235l-225 -236l-80 77z" />
    <glyph glyph-name="ellipsis" unicode="&#x2026;" horiz-adv-x="825" 
d="M766 83q0 -38 -25.5 -66t-63.5 -28q-19 0 -35.5 7.5t-28.5 20t-19 28.5t-7 34t7 35t19 30t28 20.5t35 7.5t35.5 -7.5t28.5 -19.5t19 -28t7 -34zM502 83q0 -38 -25.5 -66t-63.5 -28q-19 0 -35.5 7.5t-28.5 20t-19 28.5t-7 34t7 35t19 30t28 20.5t35 7.5t35.5 -7.5
t28.5 -19.5t18.5 -28t6.5 -34h1zM238 83q0 -38 -25.5 -66t-63.5 -28q-19 0 -35.5 7.5t-28.5 20t-18.5 28.5t-6.5 34q0 37 25 65t63 28q19 0 35.5 -7.5t28.5 -19.5t18.5 -28t6.5 -34h1z" />
    <glyph glyph-name="OE" unicode="&#x152;" horiz-adv-x="968" 
d="M926 0h-414v31q-33 -20 -73 -31t-89 -11q-80 0 -137 28.5t-94.5 76.5t-55 112.5t-17.5 136.5q0 76 18 140.5t55 111.5t94.5 74t136.5 27q95 0 161 -40v29h415v-120h-270v-159h234v-121h-234v-164h279zM506 343q0 107 -40 169.5t-116 62.5q-77 0 -116.5 -62.5
t-39.5 -168.5q0 -53 10 -96.5t30 -74t49 -47t67 -16.5q37 0 66 16.5t49 47t30 73.5t10 96h1z" />
    <glyph glyph-name="oe" unicode="&#x153;" horiz-adv-x="919" 
d="M880 280q0 -13 -1 -31t-4 -26h-327q4 -34 16.5 -56t29 -35t36 -18t38.5 -5q35 0 71.5 10.5t78.5 35.5l53 -99q-54 -38 -105.5 -52.5t-108.5 -14.5q-63 0 -110 20t-79 55q-31 -35 -75.5 -55t-103.5 -20q-62 0 -109 21.5t-78.5 59t-47.5 87.5t-16 106q0 60 16 110t48 86
t78.5 56.5t108.5 20.5q60 0 105 -19t75 -53q32 33 76 52t102 19q60 0 104 -20.5t72.5 -56t42.5 -81.5t14 -97zM396 264q0 75 -28.5 113.5t-78.5 38.5q-49 0 -77.5 -39t-28.5 -113q0 -75 29 -115t77 -40q46 0 76.5 40t30.5 115zM734 318q0 54 -25.5 75.5t-61.5 21.5
q-15 0 -31 -3.5t-29.5 -14t-23.5 -29.5t-13 -50h184z" />
    <glyph glyph-name="endash" unicode="&#x2013;" horiz-adv-x="500" 
d="M0 219v120h500v-120h-500z" />
    <glyph glyph-name="emdash" unicode="&#x2014;" horiz-adv-x="1000" 
d="M0 219v120h1000v-120h-1000z" />
    <glyph glyph-name="quotedblleft" unicode="&#x201c;" horiz-adv-x="498" 
d="M274 464q0 31 13 67t31 68.5t38 58.5t34 38l64 -29q-7 -10 -17 -27t-19 -36t-15.5 -38t-6.5 -34q29 -11 43.5 -35.5t14.5 -48.5q0 -37 -25 -65t-63 -28q-41 0 -66.5 31t-25.5 78zM54 464q0 31 13 67t31 68.5t38 58.5t34 38l64 -29q-7 -10 -17 -27t-19 -36t-15.5 -38
t-6.5 -34q29 -11 43.5 -35.5t14.5 -48.5q0 -37 -25 -65t-63 -28q-41 0 -66.5 31t-25.5 78z" />
    <glyph glyph-name="quotedblright" unicode="&#x201d;" horiz-adv-x="498" 
d="M224 586q0 -31 -13 -66.5t-31 -68.5t-38 -58.5t-34 -37.5l-64 29q7 10 17 27t19.5 36t16 38t6.5 34q-30 11 -44.5 35.5t-14.5 48.5q0 18 6.5 35t18.5 30t28.5 20.5t35.5 7.5q40 0 65.5 -31t25.5 -79zM444 586q0 -31 -13 -66.5t-31 -68.5t-38 -58.5t-34 -37.5l-64 29
q7 10 17 27t19.5 36t16 38t6.5 34q-30 11 -44.5 35.5t-14.5 48.5q0 18 6.5 35t18.5 30t28.5 20.5t35.5 7.5q40 0 65.5 -31t25.5 -79z" />
    <glyph glyph-name="quoteleft" unicode="&#x2018;" horiz-adv-x="278" 
d="M54 464q0 31 13 67t31 68.5t38 58.5t34 38l64 -29q-7 -10 -17 -27t-19 -36t-15.5 -38t-6.5 -34q29 -11 43.5 -35.5t14.5 -48.5q0 -37 -25 -65t-63 -28q-41 0 -66.5 31t-25.5 78z" />
    <glyph glyph-name="quoteright" unicode="&#x2019;" horiz-adv-x="278" 
d="M224 586q0 -31 -13 -66.5t-31 -68.5t-38 -58.5t-34 -37.5l-64 29q7 10 17 27t19.5 36t16 38t6.5 34q-30 11 -44.5 35.5t-14.5 48.5q0 18 6.5 35t18.5 30t28.5 20.5t35.5 7.5q40 0 65.5 -31t25.5 -79z" />
    <glyph glyph-name="fraction" unicode="&#x2044;" horiz-adv-x="280" 
d="M83 -49h-108l222 859h108z" />
    <glyph glyph-name="Euro" unicode="&#x20ac;" 
d="M440 232h-188q6 -25 16.5 -47.5t27.5 -39t40.5 -26t55.5 -9.5q42 0 79 15t69 41l72 -91q-48 -42 -101.5 -64t-118.5 -22q-64 0 -113 18t-84 50.5t-57.5 77t-32.5 97.5h-95v60h86q-1 12 -1.5 24.5t-0.5 25.5q0 24 3 50h-87v60h95q11 52 33 96.5t56.5 77t82.5 51t111 18.5
q60 0 107.5 -16t94.5 -53l-69 -96q-32 25 -62.5 34.5t-70.5 9.5q-31 0 -53.5 -9.5t-39 -26t-27 -39t-16.5 -47.5h197l-9 -60h-197q-1 -13 -1.5 -25.5t-0.5 -23.5q0 -13 0.5 -25.5t1.5 -25.5h206z" />
    <glyph glyph-name="guilsinglleft" unicode="&#x2039;" horiz-adv-x="387" 
d="M266 54l-225 236l225 235l81 -78l-160 -157l160 -159z" />
    <glyph glyph-name="guilsinglright" unicode="&#x203a;" horiz-adv-x="387" 
d="M121 525l226 -236l-225 -235l-81 77l159 158l-159 159z" />
    <glyph glyph-name="daggerdbl" unicode="&#x2021;" horiz-adv-x="474" 
d="M291 189v-189h-115v189l-138 -10v112h138v113h-138v113l138 -10v178h115v-178l137 10v-113h-138v-113h138v-112z" />
    <glyph glyph-name="periodcentered" unicode="&#xb7;" horiz-adv-x="266" 
d="M222 292q0 -38 -25.5 -66t-63.5 -28q-19 0 -35 7.5t-28 20t-19 28.5t-7 34q0 38 25.5 66t63.5 28q19 0 35 -7.5t28 -20t19 -28.5t7 -34z" />
    <glyph glyph-name="quotesinglbase" unicode="&#x201a;" horiz-adv-x="278" 
d="M224 62q0 -32 -13 -67.5t-31 -68t-38 -58.5t-34 -38l-64 29q7 10 17 27t19.5 36t16 38t6.5 34q-30 11 -44.5 35.5t-14.5 48.5q0 18 6.5 35t18.5 30t28.5 20.5t35.5 7.5q40 0 65.5 -31t25.5 -78z" />
    <glyph glyph-name="quotedblbase" unicode="&#x201e;" horiz-adv-x="498" 
d="M224 62q0 -32 -13 -67.5t-31 -68t-38 -58.5t-34 -38l-64 29q7 10 17 27t19.5 36t16 38t6.5 34q-30 11 -44.5 35.5t-14.5 48.5q0 18 6.5 35t18.5 30t28.5 20.5t35.5 7.5q40 0 65.5 -31t25.5 -78zM444 62q0 -32 -13 -67.5t-31 -68t-38 -58.5t-34 -38l-64 29q7 10 17 27
t19.5 36t16 38t6.5 34q-30 11 -44.5 35.5t-14.5 48.5q0 18 6.5 35t18.5 30t28.5 20.5t35.5 7.5q40 0 65.5 -31t25.5 -78z" />
    <glyph glyph-name="perthousand" unicode="&#x2030;" horiz-adv-x="1272" 
d="M1064 -11q-43 0 -75 15.5t-53.5 42t-32 61.5t-10.5 74q0 40 11 75t32 61t53 40.5t74 14.5q43 0 75.5 -14.5t54.5 -40t33 -60.5t11 -76q0 -39 -11 -74t-32.5 -61.5t-54 -42t-75.5 -15.5zM673 -11q-43 0 -75 15.5t-53.5 42t-32 61.5t-10.5 74q0 40 11 75t32 61t53 40.5
t74 14.5q43 0 75.5 -14.5t54.5 -40t33 -60.5t11 -76q0 -39 -11 -74t-32.5 -61.5t-54 -42t-75.5 -15.5zM379 526q0 -39 -11 -74t-32.5 -61.5t-53.5 -42t-75 -15.5q-44 0 -76 15.5t-53.5 42t-32 61.5t-10.5 74q0 40 11 75t32 61t53 40.5t74 14.5q43 0 75.5 -14.5t54.5 -40
t33 -60.5t11 -76zM279 0l234 706h88l-233 -706h-89zM673 286q-32 0 -49.5 -26.5t-17.5 -77.5q0 -52 18 -79.5t48 -27.5q31 0 49.5 28t18.5 79t-18 77.5t-49 26.5zM1064 286q-32 0 -49.5 -26.5t-17.5 -77.5q0 -52 18 -79.5t48 -27.5q31 0 49.5 28t18.5 79t-18 77.5t-49 26.5z
M206 630q-32 -1 -49.5 -27.5t-17.5 -76.5q0 -52 18 -79.5t48 -27.5q31 0 49.5 28t18.5 79t-18 77.5t-49 26.5z" />
    <glyph glyph-name="dotlessi" unicode="&#x131;" horiz-adv-x="292" 
d="M75 0v526h142v-526h-142z" />
    <glyph glyph-name="circumflex" unicode="&#x2c6;" horiz-adv-x="499" 
d="M249 672l-122 -96l-54 73l177 126l177 -126l-54 -73l-122 96h-2z" />
    <glyph glyph-name="tilde" unicode="&#x2dc;" horiz-adv-x="509" 
d="M308 706q7 0 17 3.5t27 26.5l71 -50q-14 -30 -43.5 -55t-71.5 -25q-18 0 -34 6t-29.5 13t-25 13t-18.5 6t-18 -3.5t-26 -25.5l-71 50q7 15 18.5 29t25.5 25t32 18t39 7q18 0 34 -6t29.5 -13t24.5 -13t19 -6z" />
    <glyph glyph-name="macron" unicode="&#xaf;" horiz-adv-x="442" 
d="M75 624v105h292v-105h-292z" />
    <glyph glyph-name="breve" unicode="&#x2d8;" horiz-adv-x="478" 
d="M402 709q-28 -54 -72 -81.5t-90 -27.5q-48 0 -91.5 27.5t-72.5 81.5l74 52q12 -21 24 -33.5t23.5 -19t22 -8.5t20.5 -2q20 0 42.5 12.5t45.5 50.5l74 -52v0z" />
    <glyph glyph-name="dotaccent" unicode="&#x2d9;" horiz-adv-x="266" 
d="M214 673q0 -35 -23.5 -60t-57.5 -25q-17 0 -32 6.5t-26 18t-17 26t-6 30.5q0 35 23 60t58 25q17 0 31.5 -6.5t25.5 -18t17.5 -26t6.5 -30.5z" />
    <glyph glyph-name="ring" unicode="&#x2da;" horiz-adv-x="340" 
d="M170 770q40 0 68 -28t28 -68t-28 -68t-68 -28t-68 28t-28 68t28 68t68 28zM170 639q14 0 24 10.5t10 24.5t-10 24.5t-24 10.5t-24 -10.5t-10 -24.5t10 -24.5t24 -10.5z" />
    <glyph glyph-name="cedilla" unicode="&#xb8;" horiz-adv-x="446" 
d="M255 -24h12q40 0 63.5 -24t23.5 -61q0 -44 -31 -71.5t-85 -27.5q-21 0 -47 7t-49 18l22 68q34 -16 62 -16q24 0 30 10.5t6 16.5t-6 15.5t-30 9.5q-14 0 -25.5 -2t-25.5 -6l16 108h71z" />
    <glyph glyph-name="hungarumlaut" unicode="&#x2dd;" horiz-adv-x="589" 
d="M375 559l-65 61l161 170l77 -73zM135 559l-65 61l161 170l77 -73z" />
    <glyph glyph-name="ogonek" unicode="&#x2db;" horiz-adv-x="268" 
d="M240 0q-48 -29 -75.5 -53.5t-27.5 -52.5q0 -14 8 -20t20 -6q14 0 26 3.5t23 9.5l25 -67q-16 -8 -37.5 -15.5t-53.5 -7.5q-21 0 -40.5 6.5t-34.5 18.5t-23.5 29.5t-8.5 39.5q0 34 18.5 61.5t60.5 53.5h120v0z" />
    <glyph glyph-name="caron" unicode="&#x2c7;" horiz-adv-x="499" 
d="M251 678l122 97l54 -73l-177 -126l-177 126l54 73l122 -97h2z" />
    <glyph glyph-name="Adieresis" unicode="&#xc4;" horiz-adv-x="666" 
d="M508 0l-54 154h-255l-53 -154h-136l241 674l161 12l245 -686h-149zM360 423q-3 8 -7 22q-4 12 -10.5 33t-15.5 54h-3q-10 -33 -15.5 -54t-9.5 -33q-4 -14 -7 -22l-58 -165h183zM361 875q0 29 20 49t49 20t50 -20.5t21 -48.5q0 -29 -20.5 -48.5t-49.5 -19.5t-49.5 19.5
t-20.5 48.5zM166 875q0 29 21 49t50 20t49 -20.5t20 -48.5q0 -29 -20 -48.5t-49 -19.5t-50 20t-21 48z" />
    <glyph glyph-name="Aring" unicode="&#xc5;" horiz-adv-x="666" 
d="M508 0l-54 154h-255l-53 -154h-136l241 674l161 12l245 -686h-149zM360 423q-3 8 -7 22q-4 12 -10.5 33t-15.5 54h-3q-10 -33 -15.5 -54t-9.5 -33q-4 -14 -7 -22l-58 -165h183zM333 970q40 0 68 -28t28 -68t-28 -68t-68 -28t-68 28t-28 68t28 68t68 28zM333 839
q14 0 24 10.5t10 24.5t-10 24.5t-24 10.5t-24 -10.5t-10 -24.5t10 -24.5t24 -10.5z" />
    <glyph glyph-name="Ccedilla" unicode="&#xc7;" horiz-adv-x="644" 
d="M610 96q-57 -52 -115 -77.5t-124 -28.5l-2 -14h12q40 0 63.5 -24t23.5 -61q0 -44 -31 -71.5t-85 -27.5q-21 0 -47 7t-49 18l22 68q34 -16 62 -16q24 0 30 10.5t6 16.5t-6 15.5t-30 9.5q-14 0 -25.5 -2t-25.5 -6l12 80q-67 8 -115 37t-79 75t-46 106t-15 131
q0 76 19 140.5t58 112t97.5 74.5t137.5 27q64 0 118.5 -20t116.5 -72l-73 -93q-43 36 -80 50t-82 14q-79 0 -121.5 -59t-42.5 -173q0 -115 41 -174t125 -59q41 0 85 17.5t92 60.5l73 -92v0z" />
    <glyph glyph-name="Eacute" unicode="&#xc9;" horiz-adv-x="540" 
d="M498 0h-430v686h422v-121h-277v-159h249v-121h-249v-164h294zM393 911l-188 -152l-59 67l176 165z" />
    <glyph glyph-name="Ntilde" unicode="&#xd1;" horiz-adv-x="664" 
d="M475 0l-264 409h-2v-409h-145v674l134 12l254 -399h3v399h145v-686h-125zM386 906q7 0 17 3.5t27 26.5l71 -50q-14 -30 -43.5 -55t-71.5 -25q-18 0 -34 6t-29.5 13t-25 13t-18.5 6t-18 -3.5t-26 -25.5l-71 50q7 15 18.5 29t25.5 25t32 18t39 7q18 0 34 -6t29.5 -13
t24.5 -13t19 -6z" />
    <glyph glyph-name="Odieresis" unicode="&#xd6;" horiz-adv-x="700" 
d="M654 343q0 -72 -17.5 -136.5t-55 -112.5t-95 -76.5t-136.5 -28.5q-80 0 -137 28.5t-94.5 76.5t-55 112.5t-17.5 136.5q0 76 18 140.5t55 111.5t94.5 74t136.5 27t136.5 -27t94.5 -74t55 -111.5t18 -140.5zM506 343q0 107 -40 169.5t-116 62.5q-77 0 -116.5 -62.5
t-39.5 -168.5q0 -53 10 -96.5t30 -74t49 -47t67 -16.5q37 0 66 16.5t49 47t30 73.5t10 96h1zM378 875q0 29 20 49t49 20t50 -20.5t21 -48.5q0 -29 -20.5 -48.5t-49.5 -19.5t-49.5 19.5t-20.5 48.5zM183 875q0 29 21 49t50 20t49 -20.5t20 -48.5q0 -29 -20 -48.5t-49 -19.5
t-50 20t-21 48z" />
    <glyph glyph-name="Udieresis" unicode="&#xdc;" horiz-adv-x="651" 
d="M587 243q0 -117 -66 -185.5t-193 -68.5q-64 0 -112.5 17.5t-81.5 50.5t-49.5 80t-16.5 105v443h145v-449q0 -57 25.5 -91.5t89.5 -34.5q63 0 88.5 34t25.5 91v450h145v-442v0zM353 875q0 29 20 49t49 20t50 -20.5t21 -48.5q0 -29 -20.5 -48.5t-49.5 -19.5t-49.5 19.5
t-20.5 48.5zM158 875q0 29 21 49t50 20t49 -20.5t20 -48.5q0 -29 -20 -48.5t-49 -19.5t-50 20t-21 48z" />
    <glyph glyph-name="aacute" unicode="&#xe1;" horiz-adv-x="525" 
d="M347 0q-5 10 -7 25.5t-2 23.5h-2q-30 -35 -67 -47.5t-69 -12.5q-33 0 -62.5 10.5t-51.5 30t-35 48.5t-13 65q0 46 20 76t51.5 48t71.5 25t79 7q17 0 33.5 -1t31.5 -3v26q0 48 -21 71.5t-59 23.5q-29 0 -62 -11t-61 -29l-64 96q88 64 196 64q42 0 80.5 -14t68 -42t47 -70
t17.5 -98v-312h-120zM325 209q-23 5 -48 5q-18 0 -34.5 -3t-30 -9.5t-21.5 -18.5t-8 -30q0 -23 14.5 -37.5t47.5 -14.5q14 0 37 5t43 22v81zM386 711l-188 -152l-59 67l176 165z" />
    <glyph glyph-name="agrave" unicode="&#xe0;" horiz-adv-x="525" 
d="M347 0q-5 10 -7 25.5t-2 23.5h-2q-30 -35 -67 -47.5t-69 -12.5q-33 0 -62.5 10.5t-51.5 30t-35 48.5t-13 65q0 46 20 76t51.5 48t71.5 25t79 7q17 0 33.5 -1t31.5 -3v26q0 48 -21 71.5t-59 23.5q-29 0 -62 -11t-61 -29l-64 96q88 64 196 64q42 0 80.5 -14t68 -42t47 -70
t17.5 -98v-312h-120zM325 209q-23 5 -48 5q-18 0 -34.5 -3t-30 -9.5t-21.5 -18.5t-8 -30q0 -23 14.5 -37.5t47.5 -14.5q14 0 37 5t43 22v81zM210 791l176 -165l-59 -67l-188 152z" />
    <glyph glyph-name="acircumflex" unicode="&#xe2;" horiz-adv-x="525" 
d="M347 0q-5 10 -7 25.5t-2 23.5h-2q-30 -35 -67 -47.5t-69 -12.5q-33 0 -62.5 10.5t-51.5 30t-35 48.5t-13 65q0 46 20 76t51.5 48t71.5 25t79 7q17 0 33.5 -1t31.5 -3v26q0 48 -21 71.5t-59 23.5q-29 0 -62 -11t-61 -29l-64 96q88 64 196 64q42 0 80.5 -14t68 -42t47 -70
t17.5 -98v-312h-120zM325 209q-23 5 -48 5q-18 0 -34.5 -3t-30 -9.5t-21.5 -18.5t-8 -30q0 -23 14.5 -37.5t47.5 -14.5q14 0 37 5t43 22v81zM261 672l-122 -96l-54 73l177 126l177 -126l-54 -73l-122 96h-2z" />
    <glyph glyph-name="adieresis" unicode="&#xe4;" horiz-adv-x="525" 
d="M347 0q-5 10 -7 25.5t-2 23.5h-2q-30 -35 -67 -47.5t-69 -12.5q-33 0 -62.5 10.5t-51.5 30t-35 48.5t-13 65q0 46 20 76t51.5 48t71.5 25t79 7q17 0 33.5 -1t31.5 -3v26q0 48 -21 71.5t-59 23.5q-29 0 -62 -11t-61 -29l-64 96q88 64 196 64q42 0 80.5 -14t68 -42t47 -70
t17.5 -98v-312h-120zM325 209q-23 5 -48 5q-18 0 -34.5 -3t-30 -9.5t-21.5 -18.5t-8 -30q0 -23 14.5 -37.5t47.5 -14.5q14 0 37 5t43 22v81zM291 675q0 29 20 49t49 20t50 -20.5t21 -48.5q0 -29 -20.5 -48.5t-49.5 -19.5t-49.5 19.5t-20.5 48.5zM96 675q0 29 21 49t50 20
t49 -20.5t20 -48.5q0 -29 -20 -48.5t-49 -19.5t-50 20t-21 48z" />
    <glyph glyph-name="atilde" unicode="&#xe3;" horiz-adv-x="525" 
d="M347 0q-5 10 -7 25.5t-2 23.5h-2q-30 -35 -67 -47.5t-69 -12.5q-33 0 -62.5 10.5t-51.5 30t-35 48.5t-13 65q0 46 20 76t51.5 48t71.5 25t79 7q17 0 33.5 -1t31.5 -3v26q0 48 -21 71.5t-59 23.5q-29 0 -62 -11t-61 -29l-64 96q88 64 196 64q42 0 80.5 -14t68 -42t47 -70
t17.5 -98v-312h-120zM325 209q-23 5 -48 5q-18 0 -34.5 -3t-30 -9.5t-21.5 -18.5t-8 -30q0 -23 14.5 -37.5t47.5 -14.5q14 0 37 5t43 22v81zM316 706q7 0 17 3.5t27 26.5l71 -50q-14 -30 -43.5 -55t-71.5 -25q-18 0 -34 6t-29.5 13t-25 13t-18.5 6t-18 -3.5t-26 -25.5
l-71 50q7 15 18.5 29t25.5 25t32 18t39 7q18 0 34 -6t29.5 -13t24.5 -13t19 -6z" />
    <glyph glyph-name="aring" unicode="&#xe5;" horiz-adv-x="525" 
d="M347 0q-5 10 -7 25.5t-2 23.5h-2q-30 -35 -67 -47.5t-69 -12.5q-33 0 -62.5 10.5t-51.5 30t-35 48.5t-13 65q0 46 20 76t51.5 48t71.5 25t79 7q17 0 33.5 -1t31.5 -3v26q0 48 -21 71.5t-59 23.5q-29 0 -62 -11t-61 -29l-64 96q88 64 196 64q42 0 80.5 -14t68 -42t47 -70
t17.5 -98v-312h-120zM325 209q-23 5 -48 5q-18 0 -34.5 -3t-30 -9.5t-21.5 -18.5t-8 -30q0 -23 14.5 -37.5t47.5 -14.5q14 0 37 5t43 22v81zM262 770q40 0 68 -28t28 -68t-28 -68t-68 -28t-68 28t-28 68t28 68t68 28zM262 639q14 0 24 10.5t10 24.5t-10 24.5t-24 10.5
t-24 -10.5t-10 -24.5t10 -24.5t24 -10.5z" />
    <glyph glyph-name="ccedilla" unicode="&#xe7;" horiz-adv-x="537" 
d="M497 47q-45 -26 -87.5 -41t-102.5 -17l-2 -13h12q40 0 63.5 -24t23.5 -61q0 -44 -31 -71.5t-85 -27.5q-21 0 -47 7t-49 18l22 68q34 -16 62 -16q24 0 30 10.5t6 16.5t-6 15.5t-30 9.5q-14 0 -25.5 -2t-25.5 -6l12 82q-49 9 -86 32t-62 58t-38 80t-13 98q0 59 17 109
t50 86.5t81 57t110 20.5q54 0 98 -15t98 -52l-65 -97q-33 25 -65.5 34t-56.5 9q-60 0 -91 -36t-31 -116t32 -117t92 -37q28 0 59 8.5t75 32.5l56 -103v0z" />
    <glyph glyph-name="eacute" unicode="&#xe9;" horiz-adv-x="558" 
d="M518 280q0 -13 -1 -31t-4 -26h-327q4 -34 16.5 -56t29 -35t36 -18t38.5 -5q35 0 71.5 10.5t78.5 35.5l53 -99q-54 -38 -105.5 -52.5t-108.5 -14.5q-65 0 -113 21.5t-80 58.5t-48 87t-16 107t15.5 106.5t46.5 86.5t77.5 58t107.5 21q60 0 104 -20.5t72.5 -56t42.5 -81.5
t14 -97zM372 318q0 54 -25.5 75.5t-61.5 21.5q-15 0 -31 -3.5t-29.5 -14t-23.5 -29.5t-13 -50h184zM402 711l-188 -152l-59 67l176 165z" />
    <glyph glyph-name="egrave" unicode="&#xe8;" horiz-adv-x="558" 
d="M518 280q0 -13 -1 -31t-4 -26h-327q4 -34 16.5 -56t29 -35t36 -18t38.5 -5q35 0 71.5 10.5t78.5 35.5l53 -99q-54 -38 -105.5 -52.5t-108.5 -14.5q-65 0 -113 21.5t-80 58.5t-48 87t-16 107t15.5 106.5t46.5 86.5t77.5 58t107.5 21q60 0 104 -20.5t72.5 -56t42.5 -81.5
t14 -97zM372 318q0 54 -25.5 75.5t-61.5 21.5q-15 0 -31 -3.5t-29.5 -14t-23.5 -29.5t-13 -50h184zM246 791l176 -165l-59 -67l-188 152z" />
    <glyph glyph-name="ecircumflex" unicode="&#xea;" horiz-adv-x="558" 
d="M518 280q0 -13 -1 -31t-4 -26h-327q4 -34 16.5 -56t29 -35t36 -18t38.5 -5q35 0 71.5 10.5t78.5 35.5l53 -99q-54 -38 -105.5 -52.5t-108.5 -14.5q-65 0 -113 21.5t-80 58.5t-48 87t-16 107t15.5 106.5t46.5 86.5t77.5 58t107.5 21q60 0 104 -20.5t72.5 -56t42.5 -81.5
t14 -97zM372 318q0 54 -25.5 75.5t-61.5 21.5q-15 0 -31 -3.5t-29.5 -14t-23.5 -29.5t-13 -50h184zM278 672l-122 -96l-54 73l177 126l177 -126l-54 -73l-122 96h-2z" />
    <glyph glyph-name="edieresis" unicode="&#xeb;" horiz-adv-x="558" 
d="M518 280q0 -13 -1 -31t-4 -26h-327q4 -34 16.5 -56t29 -35t36 -18t38.5 -5q35 0 71.5 10.5t78.5 35.5l53 -99q-54 -38 -105.5 -52.5t-108.5 -14.5q-65 0 -113 21.5t-80 58.5t-48 87t-16 107t15.5 106.5t46.5 86.5t77.5 58t107.5 21q60 0 104 -20.5t72.5 -56t42.5 -81.5
t14 -97zM372 318q0 54 -25.5 75.5t-61.5 21.5q-15 0 -31 -3.5t-29.5 -14t-23.5 -29.5t-13 -50h184zM307 675q0 29 20 49t49 20t50 -20.5t21 -48.5q0 -29 -20.5 -48.5t-49.5 -19.5t-49.5 19.5t-20.5 48.5zM112 675q0 29 21 49t50 20t49 -20.5t20 -48.5q0 -29 -20 -48.5
t-49 -19.5t-50 20t-21 48z" />
    <glyph glyph-name="iacute" unicode="&#xed;" horiz-adv-x="292" 
d="M75 0v526h142v-526h-142zM271 711l-188 -152l-59 67l176 165z" />
    <glyph glyph-name="igrave" unicode="&#xec;" horiz-adv-x="292" 
d="M75 0v526h142v-526h-142zM95 791l176 -165l-59 -67l-188 152z" />
    <glyph glyph-name="icircumflex" unicode="&#xee;" horiz-adv-x="292" 
d="M75 0v526h142v-526h-142zM146 672l-122 -96l-54 73l177 126l177 -126l-54 -73l-122 96h-2z" />
    <glyph glyph-name="idieresis" unicode="&#xef;" horiz-adv-x="292" 
d="M75 0v526h142v-526h-142zM175 675q0 29 20 49t49 20t50 -20.5t21 -48.5q0 -29 -20.5 -48.5t-49.5 -19.5t-49.5 19.5t-20.5 48.5zM-20 675q0 29 21 49t50 20t49 -20.5t20 -48.5q0 -29 -20 -48.5t-49 -19.5t-50 20t-21 48z" />
    <glyph glyph-name="ntilde" unicode="&#xf1;" horiz-adv-x="567" 
d="M367 0v310q0 60 -15.5 83t-47.5 23q-26 0 -53 -11.5t-47 -28.5v-376h-142v525h120q1 -4 2.5 -11.5t2.5 -15.5t1.5 -15t0.5 -10h2q19 23 52 43t75 20q86 0 138.5 -55t52.5 -161v-320h-142zM337 706q7 0 17 3.5t27 26.5l71 -50q-14 -30 -43.5 -55t-71.5 -25q-18 0 -34 6
t-29.5 13t-25 13t-18.5 6t-18 -3.5t-26 -25.5l-71 50q7 15 18.5 29t25.5 25t32 18t39 7q18 0 34 -6t29.5 -13t24.5 -13t19 -6z" />
    <glyph glyph-name="oacute" unicode="&#xf3;" horiz-adv-x="576" 
d="M538 263q0 -56 -16 -105.5t-47 -87t-78 -59.5t-108 -22q-62 0 -109 21.5t-78.5 59t-47.5 87.5t-16 106q0 60 16 110t48 86t78.5 56.5t108.5 20.5q63 0 109.5 -20.5t77.5 -57t46.5 -86.5t15.5 -109zM393 264q0 75 -27 113.5t-77 38.5q-49 0 -77.5 -39t-28.5 -113
q0 -75 29 -115t77 -40q46 0 75 40t29 115zM411 711l-188 -152l-59 67l176 165z" />
    <glyph glyph-name="ograve" unicode="&#xf2;" horiz-adv-x="576" 
d="M538 263q0 -56 -16 -105.5t-47 -87t-78 -59.5t-108 -22q-62 0 -109 21.5t-78.5 59t-47.5 87.5t-16 106q0 60 16 110t48 86t78.5 56.5t108.5 20.5q63 0 109.5 -20.5t77.5 -57t46.5 -86.5t15.5 -109zM393 264q0 75 -27 113.5t-77 38.5q-49 0 -77.5 -39t-28.5 -113
q0 -75 29 -115t77 -40q46 0 75 40t29 115zM245 791l176 -165l-59 -67l-188 152z" />
    <glyph glyph-name="ocircumflex" unicode="&#xf4;" horiz-adv-x="576" 
d="M538 263q0 -56 -16 -105.5t-47 -87t-78 -59.5t-108 -22q-62 0 -109 21.5t-78.5 59t-47.5 87.5t-16 106q0 60 16 110t48 86t78.5 56.5t108.5 20.5q63 0 109.5 -20.5t77.5 -57t46.5 -86.5t15.5 -109zM393 264q0 75 -27 113.5t-77 38.5q-49 0 -77.5 -39t-28.5 -113
q0 -75 29 -115t77 -40q46 0 75 40t29 115zM287 672l-122 -96l-54 73l177 126l177 -126l-54 -73l-122 96h-2z" />
    <glyph glyph-name="odieresis" unicode="&#xf6;" horiz-adv-x="576" 
d="M538 263q0 -56 -16 -105.5t-47 -87t-78 -59.5t-108 -22q-62 0 -109 21.5t-78.5 59t-47.5 87.5t-16 106q0 60 16 110t48 86t78.5 56.5t108.5 20.5q63 0 109.5 -20.5t77.5 -57t46.5 -86.5t15.5 -109zM393 264q0 75 -27 113.5t-77 38.5q-49 0 -77.5 -39t-28.5 -113
q0 -75 29 -115t77 -40q46 0 75 40t29 115zM316 675q0 29 20 49t49 20t50 -20.5t21 -48.5q0 -29 -20.5 -48.5t-49.5 -19.5t-49.5 19.5t-20.5 48.5zM121 675q0 29 21 49t50 20t49 -20.5t20 -48.5q0 -29 -20 -48.5t-49 -19.5t-50 20t-21 48z" />
    <glyph glyph-name="otilde" unicode="&#xf5;" horiz-adv-x="576" 
d="M538 263q0 -56 -16 -105.5t-47 -87t-78 -59.5t-108 -22q-62 0 -109 21.5t-78.5 59t-47.5 87.5t-16 106q0 60 16 110t48 86t78.5 56.5t108.5 20.5q63 0 109.5 -20.5t77.5 -57t46.5 -86.5t15.5 -109zM393 264q0 75 -27 113.5t-77 38.5q-49 0 -77.5 -39t-28.5 -113
q0 -75 29 -115t77 -40q46 0 75 40t29 115zM342 706q7 0 17 3.5t27 26.5l71 -50q-14 -30 -43.5 -55t-71.5 -25q-18 0 -34 6t-29.5 13t-25 13t-18.5 6t-18 -3.5t-26 -25.5l-71 50q7 15 18.5 29t25.5 25t32 18t39 7q18 0 34 -6t29.5 -13t24.5 -13t19 -6z" />
    <glyph glyph-name="uacute" unicode="&#xfa;" horiz-adv-x="567" 
d="M389 0q-1 4 -2.5 11.5t-2.5 15.5t-1.5 14.5t-0.5 9.5h-2q-17 -24 -51 -43t-76 -19q-86 0 -138.5 55t-52.5 161v320h142v-310q0 -60 15.5 -83t47.5 -23q26 0 53 11.5t47 28.5v376h142v-525h-120zM407 711l-188 -152l-59 67l176 165z" />
    <glyph glyph-name="ugrave" unicode="&#xf9;" horiz-adv-x="567" 
d="M389 0q-1 4 -2.5 11.5t-2.5 15.5t-1.5 14.5t-0.5 9.5h-2q-17 -24 -51 -43t-76 -19q-86 0 -138.5 55t-52.5 161v320h142v-310q0 -60 15.5 -83t47.5 -23q26 0 53 11.5t47 28.5v376h142v-525h-120zM231 791l176 -165l-59 -67l-188 152z" />
    <glyph glyph-name="ucircumflex" unicode="&#xfb;" horiz-adv-x="567" 
d="M389 0q-1 4 -2.5 11.5t-2.5 15.5t-1.5 14.5t-0.5 9.5h-2q-17 -24 -51 -43t-76 -19q-86 0 -138.5 55t-52.5 161v320h142v-310q0 -60 15.5 -83t47.5 -23q26 0 53 11.5t47 28.5v376h142v-525h-120zM282 672l-122 -96l-54 73l177 126l177 -126l-54 -73l-122 96h-2z" />
    <glyph glyph-name="udieresis" unicode="&#xfc;" horiz-adv-x="567" 
d="M389 0q-1 4 -2.5 11.5t-2.5 15.5t-1.5 14.5t-0.5 9.5h-2q-17 -24 -51 -43t-76 -19q-86 0 -138.5 55t-52.5 161v320h142v-310q0 -60 15.5 -83t47.5 -23q26 0 53 11.5t47 28.5v376h142v-525h-120zM311 675q0 29 20 49t49 20t50 -20.5t21 -48.5q0 -29 -20.5 -48.5
t-49.5 -19.5t-49.5 19.5t-20.5 48.5zM116 675q0 29 21 49t50 20t49 -20.5t20 -48.5q0 -29 -20 -48.5t-49 -19.5t-50 20t-21 48z" />
    <glyph glyph-name="Agrave" unicode="&#xc0;" horiz-adv-x="666" 
d="M508 0l-54 154h-255l-53 -154h-136l241 674l161 12l245 -686h-149zM360 423q-3 8 -7 22q-4 12 -10.5 33t-15.5 54h-3q-10 -33 -15.5 -54t-9.5 -33q-4 -14 -7 -22l-58 -165h183zM280 991l176 -165l-59 -67l-188 152z" />
    <glyph glyph-name="Atilde" unicode="&#xc3;" horiz-adv-x="666" 
d="M508 0l-54 154h-255l-53 -154h-136l241 674l161 12l245 -686h-149zM360 423q-3 8 -7 22q-4 12 -10.5 33t-15.5 54h-3q-10 -33 -15.5 -54t-9.5 -33q-4 -14 -7 -22l-58 -165h183zM387 906q7 0 17 3.5t27 26.5l71 -50q-14 -30 -43.5 -55t-71.5 -25q-18 0 -34 6t-29.5 13
t-25 13t-18.5 6t-18 -3.5t-26 -25.5l-71 50q7 15 18.5 29t25.5 25t32 18t39 7q18 0 34 -6t29.5 -13t24.5 -13t19 -6z" />
    <glyph glyph-name="Otilde" unicode="&#xd5;" horiz-adv-x="700" 
d="M654 343q0 -72 -17.5 -136.5t-55 -112.5t-95 -76.5t-136.5 -28.5q-80 0 -137 28.5t-94.5 76.5t-55 112.5t-17.5 136.5q0 76 18 140.5t55 111.5t94.5 74t136.5 27t136.5 -27t94.5 -74t55 -111.5t18 -140.5zM506 343q0 107 -40 169.5t-116 62.5q-77 0 -116.5 -62.5
t-39.5 -168.5q0 -53 10 -96.5t30 -74t49 -47t67 -16.5q37 0 66 16.5t49 47t30 73.5t10 96h1zM404 906q7 0 17 3.5t27 26.5l71 -50q-14 -30 -43.5 -55t-71.5 -25q-18 0 -34 6t-29.5 13t-25 13t-18.5 6t-18 -3.5t-26 -25.5l-71 50q7 15 18.5 29t25.5 25t32 18t39 7q18 0 34 -6
t29.5 -13t24.5 -13t19 -6z" />
    <glyph glyph-name="ydieresis" unicode="&#xff;" horiz-adv-x="521" 
d="M296 -64q-8 -21 -22 -46.5t-36.5 -47t-56 -36t-79.5 -14.5q-25 0 -52.5 4.5t-46.5 12.5l20 114q11 -4 28 -7.5t38 -3.5q22 0 36 5.5t23 15t14.5 22t10.5 25.5l21 57l-191 488h145l81 -231q2 -8 7 -22q4 -12 11 -32.5t18 -51.5h2q10 31 16 51.5t10 32.5q4 14 7 22l73 231
h145zM289 675q0 29 20 49t49 20t50 -20.5t21 -48.5q0 -29 -20.5 -48.5t-49.5 -19.5t-49.5 19.5t-20.5 48.5zM94 675q0 29 21 49t50 20t49 -20.5t20 -48.5q0 -29 -20 -48.5t-49 -19.5t-50 20t-21 48z" />
    <glyph glyph-name="Ydieresis" unicode="&#x178;" horiz-adv-x="599" 
d="M371 290v-290h-144v290l-217 395h161l76 -170q4 -8 11 -23q6 -13 15.5 -33.5t24.5 -52.5h3q14 32 23 52.5t14 33.5q6 15 10 23l80 170h161zM327 875q0 29 20 49t49 20t50 -20.5t21 -48.5q0 -29 -20.5 -48.5t-49.5 -19.5t-49.5 19.5t-20.5 48.5zM132 875q0 29 21 49t50 20
t49 -20.5t20 -48.5q0 -29 -20 -48.5t-49 -19.5t-50 20t-21 48z" />
    <glyph glyph-name="Acircumflex" unicode="&#xc2;" horiz-adv-x="666" 
d="M508 0l-54 154h-255l-53 -154h-136l241 674l161 12l245 -686h-149zM360 423q-3 8 -7 22q-4 12 -10.5 33t-15.5 54h-3q-10 -33 -15.5 -54t-9.5 -33q-4 -14 -7 -22l-58 -165h183zM332 872l-122 -96l-54 73l177 126l177 -126l-54 -73l-122 96h-2z" />
    <glyph glyph-name="Ecircumflex" unicode="&#xca;" horiz-adv-x="540" 
d="M498 0h-430v686h422v-121h-277v-159h249v-121h-249v-164h294zM276 872l-122 -96l-54 73l177 126l177 -126l-54 -73l-122 96h-2z" />
    <glyph glyph-name="Aacute" unicode="&#xc1;" horiz-adv-x="666" 
d="M508 0l-54 154h-255l-53 -154h-136l241 674l161 12l245 -686h-149zM360 423q-3 8 -7 22q-4 12 -10.5 33t-15.5 54h-3q-10 -33 -15.5 -54t-9.5 -33q-4 -14 -7 -22l-58 -165h183zM436 911l-188 -152l-59 67l176 165z" />
    <glyph glyph-name="Edieresis" unicode="&#xcb;" horiz-adv-x="540" 
d="M498 0h-430v686h422v-121h-277v-159h249v-121h-249v-164h294zM307 875q0 29 20 49t49 20t50 -20.5t21 -48.5q0 -29 -20.5 -48.5t-49.5 -19.5t-49.5 19.5t-20.5 48.5zM112 875q0 29 21 49t50 20t49 -20.5t20 -48.5q0 -29 -20 -48.5t-49 -19.5t-50 20t-21 48z" />
    <glyph glyph-name="Egrave" unicode="&#xc8;" horiz-adv-x="540" 
d="M498 0h-430v686h422v-121h-277v-159h249v-121h-249v-164h294zM237 991l176 -165l-59 -67l-188 152z" />
    <glyph glyph-name="Iacute" unicode="&#xcd;" horiz-adv-x="281" 
d="M68 0v686h145v-686h-145zM265 911l-188 -152l-59 67l176 165z" />
    <glyph glyph-name="Icircumflex" unicode="&#xce;" horiz-adv-x="281" 
d="M68 0v686h145v-686h-145zM140 872l-122 -96l-54 73l177 126l177 -126l-54 -73l-122 96h-2z" />
    <glyph glyph-name="Idieresis" unicode="&#xcf;" horiz-adv-x="281" 
d="M68 0v686h145v-686h-145zM169 875q0 29 20 49t49 20t50 -20.5t21 -48.5q0 -29 -20.5 -48.5t-49.5 -19.5t-49.5 19.5t-20.5 48.5zM-26 875q0 29 21 49t50 20t49 -20.5t20 -48.5q0 -29 -20 -48.5t-49 -19.5t-50 20t-21 48z" />
    <glyph glyph-name="Igrave" unicode="&#xcc;" horiz-adv-x="281" 
d="M68 0v686h145v-686h-145zM89 991l176 -165l-59 -67l-188 152z" />
    <glyph glyph-name="Oacute" unicode="&#xd3;" horiz-adv-x="700" 
d="M654 343q0 -72 -17.5 -136.5t-55 -112.5t-95 -76.5t-136.5 -28.5q-80 0 -137 28.5t-94.5 76.5t-55 112.5t-17.5 136.5q0 76 18 140.5t55 111.5t94.5 74t136.5 27t136.5 -27t94.5 -74t55 -111.5t18 -140.5zM506 343q0 107 -40 169.5t-116 62.5q-77 0 -116.5 -62.5
t-39.5 -168.5q0 -53 10 -96.5t30 -74t49 -47t67 -16.5q37 0 66 16.5t49 47t30 73.5t10 96h1zM474 911l-188 -152l-59 67l176 165z" />
    <glyph glyph-name="Ocircumflex" unicode="&#xd4;" horiz-adv-x="700" 
d="M654 343q0 -72 -17.5 -136.5t-55 -112.5t-95 -76.5t-136.5 -28.5q-80 0 -137 28.5t-94.5 76.5t-55 112.5t-17.5 136.5q0 76 18 140.5t55 111.5t94.5 74t136.5 27t136.5 -27t94.5 -74t55 -111.5t18 -140.5zM506 343q0 107 -40 169.5t-116 62.5q-77 0 -116.5 -62.5
t-39.5 -168.5q0 -53 10 -96.5t30 -74t49 -47t67 -16.5q37 0 66 16.5t49 47t30 73.5t10 96h1zM349 872l-122 -96l-54 73l177 126l177 -126l-54 -73l-122 96h-2z" />
    <glyph glyph-name="Ograve" unicode="&#xd2;" horiz-adv-x="700" 
d="M654 343q0 -72 -17.5 -136.5t-55 -112.5t-95 -76.5t-136.5 -28.5q-80 0 -137 28.5t-94.5 76.5t-55 112.5t-17.5 136.5q0 76 18 140.5t55 111.5t94.5 74t136.5 27t136.5 -27t94.5 -74t55 -111.5t18 -140.5zM506 343q0 107 -40 169.5t-116 62.5q-77 0 -116.5 -62.5
t-39.5 -168.5q0 -53 10 -96.5t30 -74t49 -47t67 -16.5q37 0 66 16.5t49 47t30 73.5t10 96h1zM307 991l176 -165l-59 -67l-188 152z" />
    <glyph glyph-name="Uacute" unicode="&#xda;" horiz-adv-x="651" 
d="M587 243q0 -117 -66 -185.5t-193 -68.5q-64 0 -112.5 17.5t-81.5 50.5t-49.5 80t-16.5 105v443h145v-449q0 -57 25.5 -91.5t89.5 -34.5q63 0 88.5 34t25.5 91v450h145v-442v0zM449 911l-188 -152l-59 67l176 165z" />
    <glyph glyph-name="Ucircumflex" unicode="&#xdb;" horiz-adv-x="651" 
d="M587 243q0 -117 -66 -185.5t-193 -68.5q-64 0 -112.5 17.5t-81.5 50.5t-49.5 80t-16.5 105v443h145v-449q0 -57 25.5 -91.5t89.5 -34.5q63 0 88.5 34t25.5 91v450h145v-442v0zM324 872l-122 -96l-54 73l177 126l177 -126l-54 -73l-122 96h-2z" />
    <glyph glyph-name="Ugrave" unicode="&#xd9;" horiz-adv-x="651" 
d="M587 243q0 -117 -66 -185.5t-193 -68.5q-64 0 -112.5 17.5t-81.5 50.5t-49.5 80t-16.5 105v443h145v-449q0 -57 25.5 -91.5t89.5 -34.5q63 0 88.5 34t25.5 91v450h145v-442v0zM273 991l176 -165l-59 -67l-188 152z" />
    <glyph glyph-name="Amacron" unicode="&#x100;" horiz-adv-x="666" 
d="M508 0l-54 154h-255l-53 -154h-136l241 674l161 12l245 -686h-149zM360 423q-3 8 -7 22q-4 12 -10.5 33t-15.5 54h-3q-10 -33 -15.5 -54t-9.5 -33q-4 -14 -7 -22l-58 -165h183zM187 824v105h292v-105h-292z" />
    <glyph glyph-name="amacron" unicode="&#x101;" horiz-adv-x="525" 
d="M347 0q-5 10 -7 25.5t-2 23.5h-2q-30 -35 -67 -47.5t-69 -12.5q-33 0 -62.5 10.5t-51.5 30t-35 48.5t-13 65q0 46 20 76t51.5 48t71.5 25t79 7q17 0 33.5 -1t31.5 -3v26q0 48 -21 71.5t-59 23.5q-29 0 -62 -11t-61 -29l-64 96q88 64 196 64q42 0 80.5 -14t68 -42t47 -70
t17.5 -98v-312h-120zM325 209q-23 5 -48 5q-18 0 -34.5 -3t-30 -9.5t-21.5 -18.5t-8 -30q0 -23 14.5 -37.5t47.5 -14.5q14 0 37 5t43 22v81zM116 624v105h292v-105h-292z" />
    <glyph glyph-name="Abreve" unicode="&#x102;" horiz-adv-x="666" 
d="M508 0l-54 154h-255l-53 -154h-136l241 674l161 12l245 -686h-149zM360 423q-3 8 -7 22q-4 12 -10.5 33t-15.5 54h-3q-10 -33 -15.5 -54t-9.5 -33q-4 -14 -7 -22l-58 -165h183zM496 909q-28 -54 -72 -81.5t-90 -27.5q-48 0 -91.5 27.5t-72.5 81.5l74 52q12 -21 24 -33.5
t23.5 -19t22 -8.5t20.5 -2q20 0 42.5 12.5t45.5 50.5l74 -52v0z" />
    <glyph glyph-name="abreve" unicode="&#x103;" horiz-adv-x="525" 
d="M347 0q-5 10 -7 25.5t-2 23.5h-2q-30 -35 -67 -47.5t-69 -12.5q-33 0 -62.5 10.5t-51.5 30t-35 48.5t-13 65q0 46 20 76t51.5 48t71.5 25t79 7q17 0 33.5 -1t31.5 -3v26q0 48 -21 71.5t-59 23.5q-29 0 -62 -11t-61 -29l-64 96q88 64 196 64q42 0 80.5 -14t68 -42t47 -70
t17.5 -98v-312h-120zM325 209q-23 5 -48 5q-18 0 -34.5 -3t-30 -9.5t-21.5 -18.5t-8 -30q0 -23 14.5 -37.5t47.5 -14.5q14 0 37 5t43 22v81zM425 709q-28 -54 -72 -81.5t-90 -27.5q-48 0 -91.5 27.5t-72.5 81.5l74 52q12 -21 24 -33.5t23.5 -19t22 -8.5t20.5 -2
q20 0 42.5 12.5t45.5 50.5l74 -52v0z" />
    <glyph glyph-name="Cacute" unicode="&#x106;" horiz-adv-x="644" 
d="M610 96q-60 -55 -122.5 -81t-133.5 -26q-81 0 -139 26t-95.5 73t-55.5 111.5t-18 142.5q0 76 19 140.5t58 112t97.5 74.5t137.5 27q64 0 118.5 -20t116.5 -72l-73 -93q-43 36 -80 50t-82 14q-79 0 -121.5 -59t-42.5 -173q0 -115 41 -174t125 -59q41 0 85 17.5t92 60.5
l73 -92v0zM475 911l-188 -152l-59 67l176 165z" />
    <glyph glyph-name="cacute" unicode="&#x107;" horiz-adv-x="537" 
d="M497 47q-23 -13 -45 -24t-45.5 -18.5t-50 -11.5t-58.5 -4q-63 0 -111.5 20t-81.5 56t-50 86.5t-17 111.5q0 59 17 109t50 86.5t81 57t110 20.5q54 0 98 -15t98 -52l-65 -97q-33 25 -65.5 34t-56.5 9q-60 0 -91 -36t-31 -116t32 -117t92 -37q28 0 59 8.5t75 32.5l56 -103
v0zM412 711l-188 -152l-59 67l176 165z" />
    <glyph glyph-name="Ccircumflex" unicode="&#x108;" horiz-adv-x="644" 
d="M610 96q-60 -55 -122.5 -81t-133.5 -26q-81 0 -139 26t-95.5 73t-55.5 111.5t-18 142.5q0 76 19 140.5t58 112t97.5 74.5t137.5 27q64 0 118.5 -20t116.5 -72l-73 -93q-43 36 -80 50t-82 14q-79 0 -121.5 -59t-42.5 -173q0 -115 41 -174t125 -59q41 0 85 17.5t92 60.5
l73 -92v0zM351 872l-122 -96l-54 73l177 126l177 -126l-54 -73l-122 96h-2z" />
    <glyph glyph-name="ccircumflex" unicode="&#x109;" horiz-adv-x="537" 
d="M497 47q-23 -13 -45 -24t-45.5 -18.5t-50 -11.5t-58.5 -4q-63 0 -111.5 20t-81.5 56t-50 86.5t-17 111.5q0 59 17 109t50 86.5t81 57t110 20.5q54 0 98 -15t98 -52l-65 -97q-33 25 -65.5 34t-56.5 9q-60 0 -91 -36t-31 -116t32 -117t92 -37q28 0 59 8.5t75 32.5l56 -103
v0zM303 672l-122 -96l-54 73l177 126l177 -126l-54 -73l-122 96h-2z" />
    <glyph glyph-name="Cdotaccent" unicode="&#x10a;" horiz-adv-x="644" 
d="M610 96q-60 -55 -122.5 -81t-133.5 -26q-81 0 -139 26t-95.5 73t-55.5 111.5t-18 142.5q0 76 19 140.5t58 112t97.5 74.5t137.5 27q64 0 118.5 -20t116.5 -72l-73 -93q-43 36 -80 50t-82 14q-79 0 -121.5 -59t-42.5 -173q0 -115 41 -174t125 -59q41 0 85 17.5t92 60.5
l73 -92v0zM424 873q0 -35 -23.5 -60t-57.5 -25q-17 0 -32 6.5t-26 18t-17 26t-6 30.5q0 35 23 60t58 25q17 0 31.5 -6.5t25.5 -18t17.5 -26t6.5 -30.5z" />
    <glyph glyph-name="cdotaccent" unicode="&#x10b;" horiz-adv-x="537" 
d="M497 47q-23 -13 -45 -24t-45.5 -18.5t-50 -11.5t-58.5 -4q-63 0 -111.5 20t-81.5 56t-50 86.5t-17 111.5q0 59 17 109t50 86.5t81 57t110 20.5q54 0 98 -15t98 -52l-65 -97q-33 25 -65.5 34t-56.5 9q-60 0 -91 -36t-31 -116t32 -117t92 -37q28 0 59 8.5t75 32.5l56 -103
v0zM374 673q0 -35 -23.5 -60t-57.5 -25q-17 0 -32 6.5t-26 18t-17 26t-6 30.5q0 35 23 60t58 25q17 0 31.5 -6.5t25.5 -18t17.5 -26t6.5 -30.5z" />
    <glyph glyph-name="Ccaron" unicode="&#x10c;" horiz-adv-x="644" 
d="M610 96q-60 -55 -122.5 -81t-133.5 -26q-81 0 -139 26t-95.5 73t-55.5 111.5t-18 142.5q0 76 19 140.5t58 112t97.5 74.5t137.5 27q64 0 118.5 -20t116.5 -72l-73 -93q-43 36 -80 50t-82 14q-79 0 -121.5 -59t-42.5 -173q0 -115 41 -174t125 -59q41 0 85 17.5t92 60.5
l73 -92v0zM355 878l122 97l54 -73l-177 -126l-177 126l54 73l122 -97h2z" />
    <glyph glyph-name="ccaron" unicode="&#x10d;" horiz-adv-x="537" 
d="M497 47q-23 -13 -45 -24t-45.5 -18.5t-50 -11.5t-58.5 -4q-63 0 -111.5 20t-81.5 56t-50 86.5t-17 111.5q0 59 17 109t50 86.5t81 57t110 20.5q54 0 98 -15t98 -52l-65 -97q-33 25 -65.5 34t-56.5 9q-60 0 -91 -36t-31 -116t32 -117t92 -37q28 0 59 8.5t75 32.5l56 -103
v0zM297 678l122 97l54 -73l-177 -126l-177 126l54 73l122 -97h2z" />
    <glyph glyph-name="Dcaron" unicode="&#x10e;" horiz-adv-x="672" 
d="M626 346q0 -72 -17 -135.5t-53 -110t-91.5 -73.5t-132.5 -27h-264v686h264q77 0 132.5 -26t91.5 -71.5t53 -108t17 -134.5zM478 346q0 106 -37 162.5t-109 56.5h-119v-444h119q72 0 109 59t37 166zM307 878l122 97l54 -73l-177 -126l-177 126l54 73l122 -97h2z" />
    <glyph glyph-name="Emacron" unicode="&#x112;" horiz-adv-x="540" 
d="M498 0h-430v686h422v-121h-277v-159h249v-121h-249v-164h294zM134 824v105h292v-105h-292z" />
    <glyph glyph-name="emacron" unicode="&#x113;" horiz-adv-x="558" 
d="M518 280q0 -13 -1 -31t-4 -26h-327q4 -34 16.5 -56t29 -35t36 -18t38.5 -5q35 0 71.5 10.5t78.5 35.5l53 -99q-54 -38 -105.5 -52.5t-108.5 -14.5q-65 0 -113 21.5t-80 58.5t-48 87t-16 107t15.5 106.5t46.5 86.5t77.5 58t107.5 21q60 0 104 -20.5t72.5 -56t42.5 -81.5
t14 -97zM372 318q0 54 -25.5 75.5t-61.5 21.5q-15 0 -31 -3.5t-29.5 -14t-23.5 -29.5t-13 -50h184zM143 624v105h292v-105h-292z" />
    <glyph glyph-name="Ebreve" unicode="&#x114;" horiz-adv-x="540" 
d="M498 0h-430v686h422v-121h-277v-159h249v-121h-249v-164h294zM443 909q-28 -54 -72 -81.5t-90 -27.5q-48 0 -91.5 27.5t-72.5 81.5l74 52q12 -21 24 -33.5t23.5 -19t22 -8.5t20.5 -2q20 0 42.5 12.5t45.5 50.5l74 -52v0z" />
    <glyph glyph-name="ebreve" unicode="&#x115;" horiz-adv-x="558" 
d="M518 280q0 -13 -1 -31t-4 -26h-327q4 -34 16.5 -56t29 -35t36 -18t38.5 -5q35 0 71.5 10.5t78.5 35.5l53 -99q-54 -38 -105.5 -52.5t-108.5 -14.5q-65 0 -113 21.5t-80 58.5t-48 87t-16 107t15.5 106.5t46.5 86.5t77.5 58t107.5 21q60 0 104 -20.5t72.5 -56t42.5 -81.5
t14 -97zM372 318q0 54 -25.5 75.5t-61.5 21.5q-15 0 -31 -3.5t-29.5 -14t-23.5 -29.5t-13 -50h184zM452 709q-28 -54 -72 -81.5t-90 -27.5q-48 0 -91.5 27.5t-72.5 81.5l74 52q12 -21 24 -33.5t23.5 -19t22 -8.5t20.5 -2q20 0 42.5 12.5t45.5 50.5l74 -52v0z" />
    <glyph glyph-name="Edotaccent" unicode="&#x116;" horiz-adv-x="540" 
d="M498 0h-430v686h422v-121h-277v-159h249v-121h-249v-164h294zM361 873q0 -35 -23.5 -60t-57.5 -25q-17 0 -32 6.5t-26 18t-17 26t-6 30.5q0 35 23 60t58 25q17 0 31.5 -6.5t25.5 -18t17.5 -26t6.5 -30.5z" />
    <glyph glyph-name="edotaccent" unicode="&#x117;" horiz-adv-x="558" 
d="M518 280q0 -13 -1 -31t-4 -26h-327q4 -34 16.5 -56t29 -35t36 -18t38.5 -5q35 0 71.5 10.5t78.5 35.5l53 -99q-54 -38 -105.5 -52.5t-108.5 -14.5q-65 0 -113 21.5t-80 58.5t-48 87t-16 107t15.5 106.5t46.5 86.5t77.5 58t107.5 21q60 0 104 -20.5t72.5 -56t42.5 -81.5
t14 -97zM372 318q0 54 -25.5 75.5t-61.5 21.5q-15 0 -31 -3.5t-29.5 -14t-23.5 -29.5t-13 -50h184zM366 673q0 -35 -23.5 -60t-57.5 -25q-17 0 -32 6.5t-26 18t-17 26t-6 30.5q0 35 23 60t58 25q17 0 31.5 -6.5t25.5 -18t17.5 -26t6.5 -30.5z" />
    <glyph glyph-name="Ecaron" unicode="&#x11a;" horiz-adv-x="540" 
d="M498 0h-430v686h422v-121h-277v-159h249v-121h-249v-164h294zM281 878l122 97l54 -73l-177 -126l-177 126l54 73l122 -97h2z" />
    <glyph glyph-name="ecaron" unicode="&#x11b;" horiz-adv-x="558" 
d="M518 280q0 -13 -1 -31t-4 -26h-327q4 -34 16.5 -56t29 -35t36 -18t38.5 -5q35 0 71.5 10.5t78.5 35.5l53 -99q-54 -38 -105.5 -52.5t-108.5 -14.5q-65 0 -113 21.5t-80 58.5t-48 87t-16 107t15.5 106.5t46.5 86.5t77.5 58t107.5 21q60 0 104 -20.5t72.5 -56t42.5 -81.5
t14 -97zM372 318q0 54 -25.5 75.5t-61.5 21.5q-15 0 -31 -3.5t-29.5 -14t-23.5 -29.5t-13 -50h184zM290 678l122 97l54 -73l-177 -126l-177 126l54 73l122 -97h2z" />
    <glyph glyph-name="Gcircumflex" unicode="&#x11c;" horiz-adv-x="692" 
d="M628 79q-18 -16 -46 -32t-62 -29t-71.5 -21t-74.5 -8q-82 0 -143.5 27.5t-102.5 75.5t-61.5 112.5t-20.5 137.5q0 77 23.5 142t67.5 112t106.5 73.5t139.5 26.5q66 0 123 -19t111 -60l-67 -97q-45 31 -85 43t-82 12q-39 0 -73.5 -17t-60 -47.5t-40.5 -72.5t-15 -93
t12 -94t34.5 -74.5t56 -49t77.5 -17.5q41 0 75 8.5t54 22.5v116h-94v100h219v-278v0zM375 872l-122 -96l-54 73l177 126l177 -126l-54 -73l-122 96h-2z" />
    <glyph glyph-name="gcircumflex" unicode="&#x11d;" horiz-adv-x="569" 
d="M511 17q0 -48 -15.5 -89t-46.5 -71t-77 -47t-107 -17q-40 0 -82 7.5t-98 30.5l39 116q25 -11 45.5 -18t37 -10.5t30.5 -4.5t28 -1q29 0 49 8t32 22.5t17.5 33t5.5 39.5v31h-2q-17 -18 -49.5 -32.5t-68.5 -14.5q-47 0 -85.5 18.5t-66.5 53.5t-43.5 85t-15.5 112
q0 57 14.5 106t43 85t71 56.5t99.5 20.5q15 0 31.5 -4t32.5 -11t29.5 -17t22.5 -23h2q0 2 0.5 8t1 13.5t1 14t1.5 9.5h123v-510zM369 384q-14 17 -37 25t-43 8q-51 0 -78.5 -34t-27.5 -115q0 -41 7.5 -69.5t20 -46t30.5 -25t39 -7.5q24 0 47 10t42 24v230zM283 672l-122 -96
l-54 73l177 126l177 -126l-54 -73l-122 96h-2z" />
    <glyph glyph-name="Gbreve" unicode="&#x11e;" horiz-adv-x="692" 
d="M628 79q-18 -16 -46 -32t-62 -29t-71.5 -21t-74.5 -8q-82 0 -143.5 27.5t-102.5 75.5t-61.5 112.5t-20.5 137.5q0 77 23.5 142t67.5 112t106.5 73.5t139.5 26.5q66 0 123 -19t111 -60l-67 -97q-45 31 -85 43t-82 12q-39 0 -73.5 -17t-60 -47.5t-40.5 -72.5t-15 -93
t12 -94t34.5 -74.5t56 -49t77.5 -17.5q41 0 75 8.5t54 22.5v116h-94v100h219v-278v0zM529 909q-28 -54 -72 -81.5t-90 -27.5q-48 0 -91.5 27.5t-72.5 81.5l74 52q12 -21 24 -33.5t23.5 -19t22 -8.5t20.5 -2q20 0 42.5 12.5t45.5 50.5l74 -52v0z" />
    <glyph glyph-name="gbreve" unicode="&#x11f;" horiz-adv-x="569" 
d="M511 17q0 -48 -15.5 -89t-46.5 -71t-77 -47t-107 -17q-40 0 -82 7.5t-98 30.5l39 116q25 -11 45.5 -18t37 -10.5t30.5 -4.5t28 -1q29 0 49 8t32 22.5t17.5 33t5.5 39.5v31h-2q-17 -18 -49.5 -32.5t-68.5 -14.5q-47 0 -85.5 18.5t-66.5 53.5t-43.5 85t-15.5 112
q0 57 14.5 106t43 85t71 56.5t99.5 20.5q15 0 31.5 -4t32.5 -11t29.5 -17t22.5 -23h2q0 2 0.5 8t1 13.5t1 14t1.5 9.5h123v-510zM369 384q-14 17 -37 25t-43 8q-51 0 -78.5 -34t-27.5 -115q0 -41 7.5 -69.5t20 -46t30.5 -25t39 -7.5q24 0 47 10t42 24v230zM457 709
q-28 -54 -72 -81.5t-90 -27.5q-48 0 -91.5 27.5t-72.5 81.5l74 52q12 -21 24 -33.5t23.5 -19t22 -8.5t20.5 -2q20 0 42.5 12.5t45.5 50.5l74 -52v0z" />
    <glyph glyph-name="Gdotaccent" unicode="&#x120;" horiz-adv-x="692" 
d="M628 79q-18 -16 -46 -32t-62 -29t-71.5 -21t-74.5 -8q-82 0 -143.5 27.5t-102.5 75.5t-61.5 112.5t-20.5 137.5q0 77 23.5 142t67.5 112t106.5 73.5t139.5 26.5q66 0 123 -19t111 -60l-67 -97q-45 31 -85 43t-82 12q-39 0 -73.5 -17t-60 -47.5t-40.5 -72.5t-15 -93
t12 -94t34.5 -74.5t56 -49t77.5 -17.5q41 0 75 8.5t54 22.5v116h-94v100h219v-278v0zM457 873q0 -35 -23.5 -60t-57.5 -25q-17 0 -32 6.5t-26 18t-17 26t-6 30.5q0 35 23 60t58 25q17 0 31.5 -6.5t25.5 -18t17.5 -26t6.5 -30.5z" />
    <glyph glyph-name="gdotaccent" unicode="&#x121;" horiz-adv-x="569" 
d="M511 17q0 -48 -15.5 -89t-46.5 -71t-77 -47t-107 -17q-40 0 -82 7.5t-98 30.5l39 116q25 -11 45.5 -18t37 -10.5t30.5 -4.5t28 -1q29 0 49 8t32 22.5t17.5 33t5.5 39.5v31h-2q-17 -18 -49.5 -32.5t-68.5 -14.5q-47 0 -85.5 18.5t-66.5 53.5t-43.5 85t-15.5 112
q0 57 14.5 106t43 85t71 56.5t99.5 20.5q15 0 31.5 -4t32.5 -11t29.5 -17t22.5 -23h2q0 2 0.5 8t1 13.5t1 14t1.5 9.5h123v-510zM369 384q-14 17 -37 25t-43 8q-51 0 -78.5 -34t-27.5 -115q0 -41 7.5 -69.5t20 -46t30.5 -25t39 -7.5q24 0 47 10t42 24v230zM365 673
q0 -35 -23.5 -60t-57.5 -25q-17 0 -32 6.5t-26 18t-17 26t-6 30.5q0 35 23 60t58 25q17 0 31.5 -6.5t25.5 -18t17.5 -26t6.5 -30.5z" />
    <glyph glyph-name="Hcircumflex" unicode="&#x124;" horiz-adv-x="658" 
d="M445 0v285h-232v-285h-145v686h145v-280h232v280h145v-686h-145zM328 872l-122 -96l-54 73l177 126l177 -126l-54 -73l-122 96h-2z" />
    <glyph glyph-name="hcircumflex" unicode="&#x125;" horiz-adv-x="569" 
d="M369 0v307q0 61 -17.5 85t-52.5 24q-23 0 -49 -13.5t-43 -29.5v-373h-142v739h142v-254h2q18 20 47 35.5t67 15.5q39 0 73 -14.5t59.5 -42t40.5 -68.5t15 -94v-317h-142zM134 872l-122 -96l-54 73l177 126l177 -126l-54 -73l-122 96h-2z" />
    <glyph glyph-name="Itilde" unicode="&#x128;" horiz-adv-x="281" 
d="M68 0v686h145v-686h-145zM195 906q7 0 17 3.5t27 26.5l71 -50q-14 -30 -43.5 -55t-71.5 -25q-18 0 -34 6t-29.5 13t-25 13t-18.5 6t-18 -3.5t-26 -25.5l-71 50q7 15 18.5 29t25.5 25t32 18t39 7q18 0 34 -6t29.5 -13t24.5 -13t19 -6z" />
    <glyph glyph-name="itilde" unicode="&#x129;" horiz-adv-x="292" 
d="M75 0v526h142v-526h-142zM201 706q7 0 17 3.5t27 26.5l71 -50q-14 -30 -43.5 -55t-71.5 -25q-18 0 -34 6t-29.5 13t-25 13t-18.5 6t-18 -3.5t-26 -25.5l-71 50q7 15 18.5 29t25.5 25t32 18t39 7q18 0 34 -6t29.5 -13t24.5 -13t19 -6z" />
    <glyph glyph-name="Imacron" unicode="&#x12a;" horiz-adv-x="281" 
d="M68 0v686h145v-686h-145zM-5 824v105h292v-105h-292z" />
    <glyph glyph-name="imacron" unicode="&#x12b;" horiz-adv-x="292" 
d="M75 0v526h142v-526h-142zM1 624v105h292v-105h-292z" />
    <glyph glyph-name="Ibreve" unicode="&#x12c;" horiz-adv-x="281" 
d="M68 0v686h145v-686h-145zM304 909q-28 -54 -72 -81.5t-90 -27.5q-48 0 -91.5 27.5t-72.5 81.5l74 52q12 -21 24 -33.5t23.5 -19t22 -8.5t20.5 -2q20 0 42.5 12.5t45.5 50.5l74 -52v0z" />
    <glyph glyph-name="ibreve" unicode="&#x12d;" horiz-adv-x="292" 
d="M75 0v526h142v-526h-142zM310 709q-28 -54 -72 -81.5t-90 -27.5q-48 0 -91.5 27.5t-72.5 81.5l74 52q12 -21 24 -33.5t23.5 -19t22 -8.5t20.5 -2q20 0 42.5 12.5t45.5 50.5l74 -52v0z" />
    <glyph glyph-name="Idotaccent" unicode="&#x130;" horiz-adv-x="281" 
d="M68 0v686h145v-686h-145zM221 873q0 -35 -23.5 -60t-57.5 -25q-17 0 -32 6.5t-26 18t-17 26t-6 30.5q0 35 23 60t58 25q17 0 31.5 -6.5t25.5 -18t17.5 -26t6.5 -30.5z" />
    <glyph glyph-name="IJ" unicode="&#x132;" horiz-adv-x="560" 
d="M68 0v686h145v-686h-145zM492 6q0 -43 -11 -83t-35 -70.5t-61.5 -49t-91.5 -18.5q-23 0 -50.5 3.5t-62.5 13.5l19 121q22 -7 45.5 -11t34.5 -4q23 0 36.5 9t20.5 24t9 34.5t2 39.5v670h145v-679v0z" />
    <glyph glyph-name="ij" unicode="&#x133;" horiz-adv-x="554" 
d="M79 0v525h142v-525h-142zM238 674q0 -37 -26 -61.5t-62 -24.5t-62 24.5t-26 61.5q0 18 7 33.5t19 27.5t27.5 19t33.5 7q37 0 63 -25.5t26 -61.5zM492 -36q0 -38 -13 -70t-35.5 -55t-54.5 -35.5t-69 -12.5q-29 0 -61 6t-58 17l31 110q19 -7 36 -10t28 -3q19 0 36.5 12.5
t17.5 53.5v548h142v-561zM508 673q0 -18 -7 -34t-19 -27.5t-27.5 -18t-33.5 -6.5q-37 0 -63 24.5t-26 61.5q0 18 7 33.5t19 27.5t28 19t34 7q36 0 62 -25.5t26 -61.5z" />
    <glyph glyph-name="Jcircumflex" unicode="&#x134;" horiz-adv-x="279" 
d="M211 6q0 -43 -11 -83t-35 -70.5t-61.5 -49t-91.5 -18.5q-23 0 -50.5 3.5t-62.5 13.5l19 121q22 -7 45.5 -11t34.5 -4q23 0 36.5 9t20.5 24t9 34.5t2 39.5v670h145v-679v0zM140 872l-122 -96l-54 73l177 126l177 -126l-54 -73l-122 96h-2z" />
    <glyph glyph-name="jcircumflex" unicode="&#x135;" horiz-adv-x="254" 
d="M192 -36q0 -38 -13 -70t-35.5 -55t-54.5 -35.5t-69 -12.5q-29 0 -61 6t-58 17l31 110q19 -7 36 -10t28 -3q19 0 36.5 12.5t17.5 53.5v548h142v-561zM123 672l-122 -96l-54 73l177 126l177 -126l-54 -73l-122 96h-2z" />
    <glyph glyph-name="Ldot" unicode="&#x13f;" horiz-adv-x="506" 
d="M488 0h-420v686h145v-565h284zM452 292q0 -38 -25.5 -66t-63.5 -28q-19 0 -35 7.5t-28 20t-19 28.5t-7 34q0 38 25.5 66t63.5 28q19 0 35 -7.5t28 -20t19 -28.5t7 -34z" />
    <glyph glyph-name="ldot" unicode="&#x140;" horiz-adv-x="428" 
d="M236 -11q-53 0 -87 14.5t-53.5 38.5t-26.5 53.5t-7 59.5v584h142v-570q0 -32 10.5 -48t40.5 -16zM432 292q0 -38 -25.5 -66t-63.5 -28q-19 0 -35 7.5t-28 20t-19 28.5t-7 34q0 38 25.5 66t63.5 28q19 0 35 -7.5t28 -20t19 -28.5t7 -34z" />
    <glyph glyph-name="Nacute" unicode="&#x143;" horiz-adv-x="664" 
d="M475 0l-264 409h-2v-409h-145v674l134 12l254 -399h3v399h145v-686h-125zM455 911l-188 -152l-59 67l176 165z" />
    <glyph glyph-name="nacute" unicode="&#x144;" horiz-adv-x="567" 
d="M367 0v310q0 60 -15.5 83t-47.5 23q-26 0 -53 -11.5t-47 -28.5v-376h-142v525h120q1 -4 2.5 -11.5t2.5 -15.5t1.5 -15t0.5 -10h2q19 23 52 43t75 20q86 0 138.5 -55t52.5 -161v-320h-142zM407 711l-188 -152l-59 67l176 165z" />
    <glyph glyph-name="Ncaron" unicode="&#x147;" horiz-adv-x="664" 
d="M475 0l-264 409h-2v-409h-145v674l134 12l254 -399h3v399h145v-686h-125zM333 878l122 97l54 -73l-177 -126l-177 126l54 73l122 -97h2z" />
    <glyph glyph-name="ncaron" unicode="&#x148;" horiz-adv-x="567" 
d="M367 0v310q0 60 -15.5 83t-47.5 23q-26 0 -53 -11.5t-47 -28.5v-376h-142v525h120q1 -4 2.5 -11.5t2.5 -15.5t1.5 -15t0.5 -10h2q19 23 52 43t75 20q86 0 138.5 -55t52.5 -161v-320h-142zM284 678l122 97l54 -73l-177 -126l-177 126l54 73l122 -97h2z" />
    <glyph glyph-name="Omacron" unicode="&#x14c;" horiz-adv-x="700" 
d="M654 343q0 -72 -17.5 -136.5t-55 -112.5t-95 -76.5t-136.5 -28.5q-80 0 -137 28.5t-94.5 76.5t-55 112.5t-17.5 136.5q0 76 18 140.5t55 111.5t94.5 74t136.5 27t136.5 -27t94.5 -74t55 -111.5t18 -140.5zM506 343q0 107 -40 169.5t-116 62.5q-77 0 -116.5 -62.5
t-39.5 -168.5q0 -53 10 -96.5t30 -74t49 -47t67 -16.5q37 0 66 16.5t49 47t30 73.5t10 96h1zM204 824v105h292v-105h-292z" />
    <glyph glyph-name="omacron" unicode="&#x14d;" horiz-adv-x="576" 
d="M538 263q0 -56 -16 -105.5t-47 -87t-78 -59.5t-108 -22q-62 0 -109 21.5t-78.5 59t-47.5 87.5t-16 106q0 60 16 110t48 86t78.5 56.5t108.5 20.5q63 0 109.5 -20.5t77.5 -57t46.5 -86.5t15.5 -109zM393 264q0 75 -27 113.5t-77 38.5q-49 0 -77.5 -39t-28.5 -113
q0 -75 29 -115t77 -40q46 0 75 40t29 115zM142 624v105h292v-105h-292z" />
    <glyph glyph-name="Obreve" unicode="&#x14e;" horiz-adv-x="700" 
d="M654 343q0 -72 -17.5 -136.5t-55 -112.5t-95 -76.5t-136.5 -28.5q-80 0 -137 28.5t-94.5 76.5t-55 112.5t-17.5 136.5q0 76 18 140.5t55 111.5t94.5 74t136.5 27t136.5 -27t94.5 -74t55 -111.5t18 -140.5zM506 343q0 107 -40 169.5t-116 62.5q-77 0 -116.5 -62.5
t-39.5 -168.5q0 -53 10 -96.5t30 -74t49 -47t67 -16.5q37 0 66 16.5t49 47t30 73.5t10 96h1zM513 909q-28 -54 -72 -81.5t-90 -27.5q-48 0 -91.5 27.5t-72.5 81.5l74 52q12 -21 24 -33.5t23.5 -19t22 -8.5t20.5 -2q20 0 42.5 12.5t45.5 50.5l74 -52v0z" />
    <glyph glyph-name="obreve" unicode="&#x14f;" horiz-adv-x="576" 
d="M538 263q0 -56 -16 -105.5t-47 -87t-78 -59.5t-108 -22q-62 0 -109 21.5t-78.5 59t-47.5 87.5t-16 106q0 60 16 110t48 86t78.5 56.5t108.5 20.5q63 0 109.5 -20.5t77.5 -57t46.5 -86.5t15.5 -109zM393 264q0 75 -27 113.5t-77 38.5q-49 0 -77.5 -39t-28.5 -113
q0 -75 29 -115t77 -40q46 0 75 40t29 115zM451 709q-28 -54 -72 -81.5t-90 -27.5q-48 0 -91.5 27.5t-72.5 81.5l74 52q12 -21 24 -33.5t23.5 -19t22 -8.5t20.5 -2q20 0 42.5 12.5t45.5 50.5l74 -52v0z" />
    <glyph glyph-name="Ohungarumlaut" unicode="&#x150;" horiz-adv-x="700" 
d="M654 343q0 -72 -17.5 -136.5t-55 -112.5t-95 -76.5t-136.5 -28.5q-80 0 -137 28.5t-94.5 76.5t-55 112.5t-17.5 136.5q0 76 18 140.5t55 111.5t94.5 74t136.5 27t136.5 -27t94.5 -74t55 -111.5t18 -140.5zM506 343q0 107 -40 169.5t-116 62.5q-77 0 -116.5 -62.5
t-39.5 -168.5q0 -53 10 -96.5t30 -74t49 -47t67 -16.5q37 0 66 16.5t49 47t30 73.5t10 96h1zM476 759l-65 61l161 170l77 -73zM236 759l-65 61l161 170l77 -73z" />
    <glyph glyph-name="ohungarumlaut" unicode="&#x151;" horiz-adv-x="576" 
d="M538 263q0 -56 -16 -105.5t-47 -87t-78 -59.5t-108 -22q-62 0 -109 21.5t-78.5 59t-47.5 87.5t-16 106q0 60 16 110t48 86t78.5 56.5t108.5 20.5q63 0 109.5 -20.5t77.5 -57t46.5 -86.5t15.5 -109zM393 264q0 75 -27 113.5t-77 38.5q-49 0 -77.5 -39t-28.5 -113
q0 -75 29 -115t77 -40q46 0 75 40t29 115zM404 559l-65 61l161 170l77 -73zM164 559l-65 61l161 170l77 -73z" />
    <glyph glyph-name="Racute" unicode="&#x154;" horiz-adv-x="589" 
d="M419 0l-92 195q-14 28 -30 48.5t-42 20.5h-42v-264h-145v685h228q58 0 101.5 -15t73 -42.5t44.5 -66t15 -84.5q0 -59 -28 -107t-93 -76v-2q16 -6 24.5 -18t13.5 -23l132 -251h-160zM382 476q0 42 -18.5 65t-70.5 23h-80v-181h82q45 0 66 25.5t21 67.5zM418 911l-188 -152
l-59 67l176 165z" />
    <glyph glyph-name="racute" unicode="&#x155;" horiz-adv-x="378" 
d="M358 409q-8 3 -17.5 5t-25.5 2q-20 0 -39.5 -10.5t-35.5 -26.5t-26 -35t-10 -36v-308h-142v525h122q1 -4 2.5 -15t2.5 -23t1.5 -23t0.5 -14h3q5 11 16 25.5t27.5 28t38 23t48.5 9.5q23 0 37 -4.5t19 -8.5zM353 711l-188 -152l-59 67l176 165z" />
    <glyph glyph-name="Rcaron" unicode="&#x158;" horiz-adv-x="589" 
d="M419 0l-92 195q-14 28 -30 48.5t-42 20.5h-42v-264h-145v685h228q58 0 101.5 -15t73 -42.5t44.5 -66t15 -84.5q0 -59 -28 -107t-93 -76v-2q16 -6 24.5 -18t13.5 -23l132 -251h-160zM382 476q0 42 -18.5 65t-70.5 23h-80v-181h82q45 0 66 25.5t21 67.5zM285 878l122 97
l54 -73l-177 -126l-177 126l54 73l122 -97h2z" />
    <glyph glyph-name="rcaron" unicode="&#x159;" horiz-adv-x="378" 
d="M358 409q-8 3 -17.5 5t-25.5 2q-20 0 -39.5 -10.5t-35.5 -26.5t-26 -35t-10 -36v-308h-142v525h122q1 -4 2.5 -15t2.5 -23t1.5 -23t0.5 -14h3q5 11 16 25.5t27.5 28t38 23t48.5 9.5q23 0 37 -4.5t19 -8.5zM221 678l122 97l54 -73l-177 -126l-177 126l54 73l122 -97h2z
" />
    <glyph glyph-name="Sacute" unicode="&#x15a;" horiz-adv-x="534" 
d="M499 195q0 -45 -20 -83t-54.5 -65.5t-79.5 -42.5t-94 -15q-72 0 -130 23.5t-108 58.5l58 105q49 -32 93 -49t87 -17q26 0 45 7t31 18t18 24.5t6 26.5q0 27 -22 45t-54.5 33.5t-70.5 32t-70.5 41.5t-54.5 62.5t-22 94.5q0 48 19 85t50.5 63t73 39.5t87.5 13.5
q63 0 117 -20.5t93 -46.5l-53 -103q-38 21 -75.5 35t-81.5 14q-42 0 -62 -21.5t-20 -53.5q0 -31 22 -50t54.5 -34t70.5 -31t70.5 -39.5t54.5 -59.5t22 -91zM410 911l-188 -152l-59 67l176 165z" />
    <glyph glyph-name="sacute" unicode="&#x15b;" horiz-adv-x="445" 
d="M359 380q-28 15 -59 25.5t-60 10.5q-21 0 -33.5 -8.5t-12.5 -26.5q0 -19 16 -31t40 -23t52.5 -23t52.5 -30.5t40 -46t16 -69.5q0 -43 -17.5 -75t-46 -53t-65 -31t-73.5 -10q-56 0 -103 19t-91 51l63 100q33 -23 67 -36.5t65 -13.5q23 0 39.5 9.5t16.5 30.5q0 19 -16 31
t-40 22.5t-52.5 22.5t-52.5 31t-40 47t-16 72q0 40 16.5 70t43.5 50t60.5 30.5t68.5 10.5q42 0 86 -13t88 -40zM356 711l-188 -152l-59 67l176 165z" />
    <glyph glyph-name="Scircumflex" unicode="&#x15c;" horiz-adv-x="534" 
d="M499 195q0 -45 -20 -83t-54.5 -65.5t-79.5 -42.5t-94 -15q-72 0 -130 23.5t-108 58.5l58 105q49 -32 93 -49t87 -17q26 0 45 7t31 18t18 24.5t6 26.5q0 27 -22 45t-54.5 33.5t-70.5 32t-70.5 41.5t-54.5 62.5t-22 94.5q0 48 19 85t50.5 63t73 39.5t87.5 13.5
q63 0 117 -20.5t93 -46.5l-53 -103q-38 21 -75.5 35t-81.5 14q-42 0 -62 -21.5t-20 -53.5q0 -31 22 -50t54.5 -34t70.5 -31t70.5 -39.5t54.5 -59.5t22 -91zM286 872l-122 -96l-54 73l177 126l177 -126l-54 -73l-122 96h-2z" />
    <glyph glyph-name="scircumflex" unicode="&#x15d;" horiz-adv-x="445" 
d="M359 380q-28 15 -59 25.5t-60 10.5q-21 0 -33.5 -8.5t-12.5 -26.5q0 -19 16 -31t40 -23t52.5 -23t52.5 -30.5t40 -46t16 -69.5q0 -43 -17.5 -75t-46 -53t-65 -31t-73.5 -10q-56 0 -103 19t-91 51l63 100q33 -23 67 -36.5t65 -13.5q23 0 39.5 9.5t16.5 30.5q0 19 -16 31
t-40 22.5t-52.5 22.5t-52.5 31t-40 47t-16 72q0 40 16.5 70t43.5 50t60.5 30.5t68.5 10.5q42 0 86 -13t88 -40zM243 672l-122 -96l-54 73l177 126l177 -126l-54 -73l-122 96h-2z" />
    <glyph glyph-name="Scedilla" unicode="&#x15e;" horiz-adv-x="534" 
d="M499 195q0 -43 -18 -79t-48.5 -62.5t-71 -43t-85.5 -20.5l-2 -14h12q40 0 63.5 -24t23.5 -61q0 -44 -31 -71.5t-85 -27.5q-21 0 -47 7t-49 18l22 68q34 -16 62 -16q24 0 30 10.5t6 16.5t-6 15.5t-30 9.5q-14 0 -25.5 -2t-25.5 -6l11 79q-57 7 -103.5 28.5t-88.5 50.5
l58 105q49 -32 93 -49t87 -17q26 0 45 7t31 18t18 24.5t6 26.5q0 27 -22 45t-54.5 33.5t-70.5 32t-70.5 41.5t-54.5 62.5t-22 94.5q0 48 19 85t50.5 63t73 39.5t87.5 13.5q63 0 117 -20.5t93 -46.5l-53 -103q-38 21 -75.5 35t-81.5 14q-42 0 -62 -21.5t-20 -53.5
q0 -31 22 -50t54.5 -34t70.5 -31t70.5 -39.5t54.5 -59.5t22 -91z" />
    <glyph glyph-name="scedilla" unicode="&#x15f;" horiz-adv-x="445" 
d="M359 380q-28 15 -59 25.5t-60 10.5q-21 0 -33.5 -8.5t-12.5 -26.5q0 -19 16 -31t40 -23t52.5 -23t52.5 -30.5t40 -46t16 -69.5q0 -39 -14.5 -68.5t-38.5 -50.5t-55.5 -33t-64.5 -15l-2 -15h12q40 0 63.5 -24t23.5 -61q0 -44 -31 -71.5t-85 -27.5q-21 0 -47 7t-49 18
l22 68q34 -16 62 -16q24 0 30 10.5t6 16.5t-6 15.5t-30 9.5q-14 0 -25.5 -2t-25.5 -6l11 79q-42 6 -79.5 23.5t-72.5 43.5l63 100q33 -23 67 -36.5t65 -13.5q23 0 39.5 9.5t16.5 30.5q0 19 -16 31t-40 22.5t-52.5 22.5t-52.5 31t-40 47t-16 72q0 40 16.5 70t43.5 50
t60.5 30.5t68.5 10.5q42 0 86 -13t88 -40z" />
    <glyph glyph-name="Scaron" unicode="&#x160;" horiz-adv-x="534" 
d="M499 195q0 -45 -20 -83t-54.5 -65.5t-79.5 -42.5t-94 -15q-72 0 -130 23.5t-108 58.5l58 105q49 -32 93 -49t87 -17q26 0 45 7t31 18t18 24.5t6 26.5q0 27 -22 45t-54.5 33.5t-70.5 32t-70.5 41.5t-54.5 62.5t-22 94.5q0 48 19 85t50.5 63t73 39.5t87.5 13.5
q63 0 117 -20.5t93 -46.5l-53 -103q-38 21 -75.5 35t-81.5 14q-42 0 -62 -21.5t-20 -53.5q0 -31 22 -50t54.5 -34t70.5 -31t70.5 -39.5t54.5 -59.5t22 -91zM290 878l122 97l54 -73l-177 -126l-177 126l54 73l122 -97h2z" />
    <glyph glyph-name="scaron" unicode="&#x161;" horiz-adv-x="445" 
d="M359 380q-28 15 -59 25.5t-60 10.5q-21 0 -33.5 -8.5t-12.5 -26.5q0 -19 16 -31t40 -23t52.5 -23t52.5 -30.5t40 -46t16 -69.5q0 -43 -17.5 -75t-46 -53t-65 -31t-73.5 -10q-56 0 -103 19t-91 51l63 100q33 -23 67 -36.5t65 -13.5q23 0 39.5 9.5t16.5 30.5q0 19 -16 31
t-40 22.5t-52.5 22.5t-52.5 31t-40 47t-16 72q0 40 16.5 70t43.5 50t60.5 30.5t68.5 10.5q42 0 86 -13t88 -40zM239 678l122 97l54 -73l-177 -126l-177 126l54 73l122 -97h2z" />
    <glyph glyph-name="Tcaron" unicode="&#x164;" horiz-adv-x="514" 
d="M496 565h-166v-565h-145v564h-175v122h495zM258 878l122 97l54 -73l-177 -126l-177 126l54 73l122 -97h2z" />
    <glyph glyph-name="Utilde" unicode="&#x168;" horiz-adv-x="651" 
d="M587 243q0 -117 -66 -185.5t-193 -68.5q-64 0 -112.5 17.5t-81.5 50.5t-49.5 80t-16.5 105v443h145v-449q0 -57 25.5 -91.5t89.5 -34.5q63 0 88.5 34t25.5 91v450h145v-442v0zM379 906q7 0 17 3.5t27 26.5l71 -50q-14 -30 -43.5 -55t-71.5 -25q-18 0 -34 6t-29.5 13
t-25 13t-18.5 6t-18 -3.5t-26 -25.5l-71 50q7 15 18.5 29t25.5 25t32 18t39 7q18 0 34 -6t29.5 -13t24.5 -13t19 -6z" />
    <glyph glyph-name="utilde" unicode="&#x169;" horiz-adv-x="567" 
d="M389 0q-1 4 -2.5 11.5t-2.5 15.5t-1.5 14.5t-0.5 9.5h-2q-17 -24 -51 -43t-76 -19q-86 0 -138.5 55t-52.5 161v320h142v-310q0 -60 15.5 -83t47.5 -23q26 0 53 11.5t47 28.5v376h142v-525h-120zM337 706q7 0 17 3.5t27 26.5l71 -50q-14 -30 -43.5 -55t-71.5 -25
q-18 0 -34 6t-29.5 13t-25 13t-18.5 6t-18 -3.5t-26 -25.5l-71 50q7 15 18.5 29t25.5 25t32 18t39 7q18 0 34 -6t29.5 -13t24.5 -13t19 -6z" />
    <glyph glyph-name="Umacron" unicode="&#x16a;" horiz-adv-x="651" 
d="M587 243q0 -117 -66 -185.5t-193 -68.5q-64 0 -112.5 17.5t-81.5 50.5t-49.5 80t-16.5 105v443h145v-449q0 -57 25.5 -91.5t89.5 -34.5q63 0 88.5 34t25.5 91v450h145v-442v0zM179 824v105h292v-105h-292z" />
    <glyph glyph-name="umacron" unicode="&#x16b;" horiz-adv-x="567" 
d="M389 0q-1 4 -2.5 11.5t-2.5 15.5t-1.5 14.5t-0.5 9.5h-2q-17 -24 -51 -43t-76 -19q-86 0 -138.5 55t-52.5 161v320h142v-310q0 -60 15.5 -83t47.5 -23q26 0 53 11.5t47 28.5v376h142v-525h-120zM137 624v105h292v-105h-292z" />
    <glyph glyph-name="Ubreve" unicode="&#x16c;" horiz-adv-x="651" 
d="M587 243q0 -117 -66 -185.5t-193 -68.5q-64 0 -112.5 17.5t-81.5 50.5t-49.5 80t-16.5 105v443h145v-449q0 -57 25.5 -91.5t89.5 -34.5q63 0 88.5 34t25.5 91v450h145v-442v0zM488 909q-28 -54 -72 -81.5t-90 -27.5q-48 0 -91.5 27.5t-72.5 81.5l74 52q12 -21 24 -33.5
t23.5 -19t22 -8.5t20.5 -2q20 0 42.5 12.5t45.5 50.5l74 -52v0z" />
    <glyph glyph-name="ubreve" unicode="&#x16d;" horiz-adv-x="567" 
d="M389 0q-1 4 -2.5 11.5t-2.5 15.5t-1.5 14.5t-0.5 9.5h-2q-17 -24 -51 -43t-76 -19q-86 0 -138.5 55t-52.5 161v320h142v-310q0 -60 15.5 -83t47.5 -23q26 0 53 11.5t47 28.5v376h142v-525h-120zM446 709q-28 -54 -72 -81.5t-90 -27.5q-48 0 -91.5 27.5t-72.5 81.5l74 52
q12 -21 24 -33.5t23.5 -19t22 -8.5t20.5 -2q20 0 42.5 12.5t45.5 50.5l74 -52v0z" />
    <glyph glyph-name="Uring" unicode="&#x16e;" horiz-adv-x="651" 
d="M587 243q0 -117 -66 -185.5t-193 -68.5q-64 0 -112.5 17.5t-81.5 50.5t-49.5 80t-16.5 105v443h145v-449q0 -57 25.5 -91.5t89.5 -34.5q63 0 88.5 34t25.5 91v450h145v-442v0zM325 970q40 0 68 -28t28 -68t-28 -68t-68 -28t-68 28t-28 68t28 68t68 28zM325 839
q14 0 24 10.5t10 24.5t-10 24.5t-24 10.5t-24 -10.5t-10 -24.5t10 -24.5t24 -10.5z" />
    <glyph glyph-name="uring" unicode="&#x16f;" horiz-adv-x="567" 
d="M389 0q-1 4 -2.5 11.5t-2.5 15.5t-1.5 14.5t-0.5 9.5h-2q-17 -24 -51 -43t-76 -19q-86 0 -138.5 55t-52.5 161v320h142v-310q0 -60 15.5 -83t47.5 -23q26 0 53 11.5t47 28.5v376h142v-525h-120zM283 770q40 0 68 -28t28 -68t-28 -68t-68 -28t-68 28t-28 68t28 68t68 28z
M283 639q14 0 24 10.5t10 24.5t-10 24.5t-24 10.5t-24 -10.5t-10 -24.5t10 -24.5t24 -10.5z" />
    <glyph glyph-name="Uhungarumlaut" unicode="&#x170;" horiz-adv-x="651" 
d="M587 243q0 -117 -66 -185.5t-193 -68.5q-64 0 -112.5 17.5t-81.5 50.5t-49.5 80t-16.5 105v443h145v-449q0 -57 25.5 -91.5t89.5 -34.5q63 0 88.5 34t25.5 91v450h145v-442v0zM441 759l-65 61l161 170l77 -73zM201 759l-65 61l161 170l77 -73z" />
    <glyph glyph-name="uhungarumlaut" unicode="&#x171;" horiz-adv-x="567" 
d="M389 0q-1 4 -2.5 11.5t-2.5 15.5t-1.5 14.5t-0.5 9.5h-2q-17 -24 -51 -43t-76 -19q-86 0 -138.5 55t-52.5 161v320h142v-310q0 -60 15.5 -83t47.5 -23q26 0 53 11.5t47 28.5v376h142v-525h-120zM400 559l-65 61l161 170l77 -73zM160 559l-65 61l161 170l77 -73z" />
    <glyph glyph-name="Wcircumflex" unicode="&#x174;" horiz-adv-x="867" 
d="M710 0h-157l-80 270q-4 13 -9 32q-5 17 -12 42t-17 62h-3q-10 -37 -16.5 -62t-11.5 -42q-5 -19 -9 -32l-82 -270h-156l-147 685h147l79 -397q2 -14 6 -30q2 -14 5.5 -31t6.5 -36h3q5 19 9 36.5t8 31.5q4 16 9 30l88 291l135 12l95 -304q5 -14 9 -30q4 -14 8.5 -31
t9.5 -36h3q2 19 5 36t5 31l5 30l72 397h142zM432 872l-122 -96l-54 73l177 126l177 -126l-54 -73l-122 96h-2z" />
    <glyph glyph-name="wcircumflex" unicode="&#x175;" horiz-adv-x="788" 
d="M626 0h-147l-83 322h-2l-84 -322h-145l-152 525h145l67 -244q1 -7 5 -20q2 -11 6.5 -29.5t10.5 -45.5h3q6 27 10.5 45.5t7.5 29.5q4 13 6 20l59 233l136 11l64 -244q1 -7 5 -20q3 -11 7.5 -29.5t11.5 -45.5h3q5 27 8.5 45.5t5.5 29.5l4 20l54 244h144zM393 672l-122 -96
l-54 73l177 126l177 -126l-54 -73l-122 96h-2z" />
    <glyph glyph-name="Ycircumflex" unicode="&#x176;" horiz-adv-x="599" 
d="M371 290v-290h-144v290l-217 395h161l76 -170q4 -8 11 -23q6 -13 15.5 -33.5t24.5 -52.5h3q14 32 23 52.5t14 33.5q6 15 10 23l80 170h161zM298 872l-122 -96l-54 73l177 126l177 -126l-54 -73l-122 96h-2z" />
    <glyph glyph-name="ycircumflex" unicode="&#x177;" horiz-adv-x="521" 
d="M296 -64q-8 -21 -22 -46.5t-36.5 -47t-56 -36t-79.5 -14.5q-25 0 -52.5 4.5t-46.5 12.5l20 114q11 -4 28 -7.5t38 -3.5q22 0 36 5.5t23 15t14.5 22t10.5 25.5l21 57l-191 488h145l81 -231q2 -8 7 -22q4 -12 11 -32.5t18 -51.5h2q10 31 16 51.5t10 32.5q4 14 7 22l73 231
h145zM259 672l-122 -96l-54 73l177 126l177 -126l-54 -73l-122 96h-2z" />
    <glyph glyph-name="Zacute" unicode="&#x179;" horiz-adv-x="549" 
d="M507 0h-462l-11 86l289 478h-270v121h415l41 -73l-295 -488v-3h302zM398 911l-188 -152l-59 67l176 165z" />
    <glyph glyph-name="zacute" unicode="&#x17a;" horiz-adv-x="474" 
d="M439 0h-379l-23 89l224 314v2h-199l-13 120h367l26 -90l-222 -312v-3h234zM370 711l-188 -152l-59 67l176 165z" />
    <glyph glyph-name="Zdotaccent" unicode="&#x17b;" horiz-adv-x="549" 
d="M507 0h-462l-11 86l289 478h-270v121h415l41 -73l-295 -488v-3h302zM365 873q0 -35 -23.5 -60t-57.5 -25q-17 0 -32 6.5t-26 18t-17 26t-6 30.5q0 35 23 60t58 25q17 0 31.5 -6.5t25.5 -18t17.5 -26t6.5 -30.5z" />
    <glyph glyph-name="zdotaccent" unicode="&#x17c;" horiz-adv-x="474" 
d="M439 0h-379l-23 89l224 314v2h-199l-13 120h367l26 -90l-222 -312v-3h234zM328 673q0 -35 -23.5 -60t-57.5 -25q-17 0 -32 6.5t-26 18t-17 26t-6 30.5q0 35 23 60t58 25q17 0 31.5 -6.5t25.5 -18t17.5 -26t6.5 -30.5z" />
    <glyph glyph-name="Zcaron" unicode="&#x17d;" horiz-adv-x="549" 
d="M507 0h-462l-11 86l289 478h-270v121h415l41 -73l-295 -488v-3h302zM278 878l122 97l54 -73l-177 -126l-177 126l54 73l122 -97h2z" />
    <glyph glyph-name="zcaron" unicode="&#x17e;" horiz-adv-x="474" 
d="M439 0h-379l-23 89l224 314v2h-199l-13 120h367l26 -90l-222 -312v-3h234zM250 678l122 97l54 -73l-177 -126l-177 126l54 73l122 -97h2z" />
    <glyph glyph-name="Aogonek" unicode="&#x104;" horiz-adv-x="666" 
d="M657 0q-48 -29 -75.5 -53.5t-27.5 -52.5q0 -14 8 -20t20 -6q14 0 26 3.5t23 9.5l25 -67q-16 -8 -37.5 -15.5t-53.5 -7.5q-21 0 -40.5 6.5t-34.5 18.5t-23.5 29.5t-8.5 39.5q0 34 18.5 61.5t60.5 53.5h120zM508 0l-54 154h-255l-53 -154h-136l241 674l161 12l245 -686
h-149zM360 423q-3 8 -7 22q-4 12 -10.5 33t-15.5 54h-3q-10 -33 -15.5 -54t-9.5 -33q-4 -14 -7 -22l-58 -165h183z" />
    <glyph glyph-name="aogonek" unicode="&#x105;" horiz-adv-x="525" 
d="M467 0q-48 -29 -75.5 -53.5t-27.5 -52.5q0 -14 8 -20t20 -6q14 0 26 3.5t23 9.5l25 -67q-16 -8 -37.5 -15.5t-53.5 -7.5q-21 0 -40.5 6.5t-34.5 18.5t-23.5 29.5t-8.5 39.5q0 33 18.5 61t60.5 54q-5 10 -7 25.5t-2 23.5h-2q-30 -35 -67 -47.5t-69 -12.5q-33 0 -62.5 10.5
t-51.5 30t-35 48.5t-13 65q0 46 20 76t51.5 48t71.5 25t79 7q17 0 33.5 -1t31.5 -3v26q0 48 -21 71.5t-59 23.5q-29 0 -62 -11t-61 -29l-64 96q88 64 196 64q42 0 80.5 -14t68 -42t47 -70t17.5 -98v-312zM325 209q-23 5 -48 5q-18 0 -34.5 -3t-30 -9.5t-21.5 -18.5t-8 -30
q0 -23 14.5 -37.5t47.5 -14.5q14 0 37 5t43 22v81z" />
    <glyph glyph-name="dcaron" unicode="&#x10f;" horiz-adv-x="683" 
d="M388 0q-1 3 -1.5 10t-1 14.5t-1 14.5t-0.5 9h-2q-20 -29 -55.5 -44t-68.5 -15q-54 0 -95 21.5t-68.5 59t-42 88t-14.5 109.5q0 58 17 107.5t46.5 85.5t69.5 56t87 20q29 0 59.5 -9t51.5 -27v239h142v-739h-123zM369 388q-18 14 -37 21t-43 7q-45 0 -75.5 -36.5
t-30.5 -111.5q0 -85 27.5 -122t78.5 -37q20 0 43 9t37 27v243zM682 655q0 -26 -8.5 -46.5t-22 -36t-31 -25.5t-35.5 -16l-28 59q23 11 31.5 25.5t8.5 32.5q0 16 -5 33t-19 37l70 29q17 -18 28 -42t11 -50z" />
    <glyph glyph-name="Dcroat" unicode="&#x110;" horiz-adv-x="750" 
d="M705 346q0 -72 -17 -135.5t-53 -110t-91.5 -73.5t-132.5 -27h-264v285h-113v121h113v279h264q77 0 132.5 -26t91.5 -71.5t53 -107.5t17 -134zM557 346q0 106 -37 162t-109 56h-119v-158h113v-121h-113v-164h119q72 0 109 59t37 166z" />
    <glyph glyph-name="dcroat" unicode="&#x111;" horiz-adv-x="573" 
d="M388 1q-1 3 -1.5 10t-1 14.5t-1 14.5t-0.5 9h-2q-20 -29 -55.5 -44t-68.5 -15q-54 0 -95 21.5t-68.5 59t-42 88t-14.5 109.5q0 58 17 107.5t46.5 85.5t69.5 56t87 20q29 0 59.5 -9t51.5 -27v78h-108v67h108v94h142v-94h74v-67h-74v-578h-123zM369 389q-18 14 -37 21
t-43 7q-45 0 -75.5 -36.5t-30.5 -111.5q0 -85 27.5 -122t78.5 -37q20 0 43 9t37 27v243z" />
    <glyph glyph-name="Eogonek" unicode="&#x118;" horiz-adv-x="540" 
d="M498 0q-48 -29 -75.5 -53.5t-27.5 -52.5q0 -26 28 -26q25 0 49 13l25 -67q-16 -8 -37.5 -15.5t-53.5 -7.5q-21 0 -40.5 6.5t-34.5 18.5t-23.5 29.5t-8.5 39.5q0 34 18.5 61.5t60.5 53.5h-310v686h422v-121h-277v-159h249v-121h-249v-164h294l-9 -121v0z" />
    <glyph glyph-name="eogonek" unicode="&#x119;" horiz-adv-x="558" 
d="M518 280q0 -13 -1 -31t-4 -26h-327q4 -34 16.5 -56t29 -35t36 -18t38.5 -5q35 0 71.5 10.5t78.5 35.5l53 -99q-75 -51 -103.5 -90.5t-28.5 -67.5q0 -10 7 -17.5t21 -7.5q15 0 26.5 3.5t23.5 9.5l25 -70q-17 -9 -38.5 -17t-53.5 -8q-21 0 -40.5 6t-34.5 18t-23.5 30.5
t-8.5 42.5q0 51 45 102q-8 -1 -15.5 -1h-15.5q-65 0 -113 21.5t-80 58.5t-48 87t-16 107t15.5 106.5t46.5 86.5t77.5 58t107.5 21q60 0 104 -20.5t72.5 -56t42.5 -81.5t14 -97zM372 318q0 54 -25.5 75.5t-61.5 21.5q-15 0 -31 -3.5t-29.5 -14t-23.5 -29.5t-13 -50h184z" />
    <glyph glyph-name="Gcommaaccent" unicode="&#x122;" horiz-adv-x="692" 
d="M438 -110q0 -26 -10.5 -43.5t-28.5 -28.5t-41 -17t-48 -8l-17 57q27 6 42.5 15t15.5 26q0 14 -5.5 26.5t-22.5 32.5l70 24q20 -15 32.5 -35.5t12.5 -48.5zM628 79q-18 -16 -46 -32t-62 -29t-71.5 -21t-74.5 -8q-82 0 -143.5 27.5t-102.5 75.5t-61.5 112.5t-20.5 137.5
q0 77 23.5 142t67.5 112t106.5 73.5t139.5 26.5q66 0 123 -19t111 -60l-67 -97q-45 31 -85 43t-82 12q-39 0 -73.5 -17t-60 -47.5t-40.5 -72.5t-15 -93t12 -94t34.5 -74.5t56 -49t77.5 -17.5q41 0 75 8.5t54 22.5v116h-94v100h219v-278z" />
    <glyph glyph-name="gcommaaccent" unicode="&#x123;" horiz-adv-x="569" 
d="M200 669q0 25 10.5 42.5t28.5 29t41 17.5t48 8l17 -57q-27 -6 -42.5 -15t-15.5 -26q0 -14 5.5 -26.5t22.5 -32.5l-70 -24q-20 15 -32.5 35.5t-12.5 48.5zM511 16q0 -48 -15.5 -89t-46.5 -71t-77 -47t-107 -17q-40 0 -82 7.5t-98 30.5l39 116q25 -11 45.5 -18t37 -10.5
t30.5 -4.5t28 -1q29 0 49 8t32 22.5t17.5 33t5.5 39.5v31h-2q-17 -18 -49.5 -32.5t-68.5 -14.5q-47 0 -85.5 18.5t-66.5 53.5t-43.5 85t-15.5 112q0 57 14.5 106t43 85t71 56.5t99.5 20.5q15 0 31.5 -4t32.5 -11t29.5 -17t22.5 -23h2q0 2 0.5 8t1 13.5t1 14t1.5 9.5h123
v-510zM369 383q-14 17 -37 25t-43 8q-51 0 -78.5 -34t-27.5 -115q0 -41 7.5 -69.5t20 -46t30.5 -25t39 -7.5q24 0 47 10t42 24v230z" />
    <glyph glyph-name="Hbar" unicode="&#x126;" horiz-adv-x="658" 
d="M444 0v285h-232v-285h-145v511h-44v69h44v106h145v-106h232v106h145v-106h45v-69h-45v-511h-145zM444 406v105h-232v-105h232z" />
    <glyph glyph-name="hbar" unicode="&#x127;" horiz-adv-x="568" 
d="M369 0v307q0 61 -17.5 85t-52.5 24q-23 0 -49 -13.5t-43 -29.5v-373h-142v579h-74v66h74v94h142v-94h108v-66h-108v-94h2q18 20 47 35.5t67 15.5q39 0 73 -14.5t59.5 -42t40.5 -68.5t15 -94v-317h-142z" />
    <glyph glyph-name="Iogonek" unicode="&#x12e;" horiz-adv-x="282" 
d="M214 0q-48 -29 -75 -53.5t-27 -52.5q0 -14 7.5 -20t19.5 -6q14 0 26 3.5t24 9.5l25 -67q-17 -8 -38.5 -15.5t-53.5 -7.5q-21 0 -40.5 6.5t-34.5 18.5t-23.5 29.5t-8.5 39.5q0 34 18.5 61.5t60.5 53.5h-25v686h145v-686v0z" />
    <glyph glyph-name="iogonek" unicode="&#x12f;" horiz-adv-x="316" 
d="M238 674q0 -37 -26 -61.5t-62 -24.5t-62 24.5t-26 61.5q0 18 7 33.5t19 27.5t27.5 19t33.5 7q37 0 63 -25.5t26 -61.5zM221 0q-48 -29 -75 -53.5t-27 -52.5q0 -26 28 -26q14 0 25.5 3.5t23.5 9.5l25 -67q-17 -8 -38.5 -15.5t-53.5 -7.5q-43 0 -74.5 24.5t-31.5 69.5
q0 33 18 61t60 54h-22v525h142v-525z" />
    <glyph glyph-name="Kcommaaccent" unicode="&#x136;" horiz-adv-x="609" 
d="M377 -110q0 -26 -10.5 -43.5t-28.5 -28.5t-41 -17t-48 -8l-17 57q27 6 42.5 15t15.5 26q0 14 -5.5 26.5t-22.5 32.5l70 24q20 -15 32.5 -35.5t12.5 -48.5zM436 0l-166 289l-57 -67v-222h-145v685h145v-272h2l195 272h174l-226 -285l241 -400h-163z" />
    <glyph glyph-name="kcommaaccent" unicode="&#x137;" horiz-adv-x="542" 
d="M343 -110q0 -26 -10.5 -43.5t-28.5 -28.5t-41 -17t-48 -8l-17 57q27 6 42.5 15t15.5 26q0 14 -5.5 26.5t-22.5 32.5l70 24q20 -15 32.5 -35.5t12.5 -48.5zM390 0l-113 223q-8 18 -19 18q-8 0 -18 -11l-33 -36v-194h-142v739h142v-374l132 160h179l-188 -197v-2q4 1 11 1
q20 0 32.5 -12.5t18.5 -23.5l152 -291h-154z" />
    <glyph glyph-name="Lacute" unicode="&#x139;" horiz-adv-x="506" 
d="M488 0h-420v686h145v-565h284zM256 911l-188 -152l-59 67l176 165z" />
    <glyph glyph-name="lacute" unicode="&#x13a;" horiz-adv-x="283" 
d="M236 -11q-53 0 -87 14.5t-53.5 38.5t-26.5 53.5t-7 59.5v584h142v-570q0 -32 10.5 -48t40.5 -16zM265 911l-188 -152l-59 67l176 165z" />
    <glyph glyph-name="Lcommaaccent" unicode="&#x13b;" horiz-adv-x="506" 
d="M355 -110q0 -26 -10.5 -43.5t-28.5 -28.5t-41 -17t-48 -8l-17 57q27 6 42.5 15t15.5 26q0 14 -5.5 26.5t-22.5 32.5l70 24q20 -15 32.5 -35.5t12.5 -48.5zM488 0h-420v686h145v-565h284z" />
    <glyph glyph-name="lcommaaccent" unicode="&#x13c;" horiz-adv-x="283" 
d="M224 -110q0 -26 -10.5 -43.5t-28.5 -28.5t-41 -17t-48 -8l-17 57q27 6 42.5 15t15.5 26q0 14 -5.5 26.5t-22.5 32.5l70 24q20 -15 32.5 -35.5t12.5 -48.5zM236 -11q-53 0 -87 14.5t-53.5 38.5t-26.5 53.5t-7 59.5v584h142v-570q0 -32 10.5 -48t40.5 -16z" />
    <glyph glyph-name="Lcaron" unicode="&#x13d;" horiz-adv-x="506" 
d="M488 0h-420v686h145v-565h284zM413 597q0 -26 -8 -46.5t-21.5 -36t-31 -25.5t-35.5 -16l-29 59q23 11 32 25.5t9 32.5q0 16 -5.5 33t-19.5 37l70 29q17 -18 28 -42t11 -50z" />
    <glyph glyph-name="lcaron" unicode="&#x13e;" horiz-adv-x="372" 
d="M235 -10q-53 0 -87 14.5t-53.5 38.5t-26.5 53.5t-7 59.5v584h142v-570q0 -32 10.5 -48t40.5 -16zM368 655q0 -26 -8 -46.5t-21.5 -36t-31 -25.5t-35.5 -16l-29 59q23 11 32 25.5t9 32.5q0 16 -5.5 33t-19.5 37l70 29q17 -18 28 -42t11 -50z" />
    <glyph glyph-name="Lslash" unicode="&#x141;" horiz-adv-x="507" 
d="M213 338v-217h284l-9 -121h-420v278l-76 -32v116l76 31v293h145v-233l97 40v-115z" />
    <glyph glyph-name="lslash" unicode="&#x142;" horiz-adv-x="284" 
d="M205 340v-171q0 -32 10.5 -48t40.5 -16l-19 -116q-53 0 -87 14.5t-53.5 38.5t-26.5 53.5t-7 59.5v123l-71 -32v116l71 31v346h142v-284l71 31v-115z" />
    <glyph glyph-name="Ncommaaccent" unicode="&#x145;" horiz-adv-x="664" 
d="M404 -110q0 -26 -10.5 -43.5t-28.5 -28.5t-41 -17t-48 -8l-17 57q27 6 42.5 15t15.5 26q0 14 -5.5 26.5t-22.5 32.5l70 24q20 -15 32.5 -35.5t12.5 -48.5zM475 0l-264 409h-2v-409h-145v674l134 12l254 -399h3v399h145v-686h-125z" />
    <glyph glyph-name="ncommaaccent" unicode="&#x146;" horiz-adv-x="567" 
d="M356 -110q0 -26 -10.5 -43.5t-28.5 -28.5t-41 -17t-48 -8l-17 57q27 6 42.5 15t15.5 26q0 14 -5.5 26.5t-22.5 32.5l70 24q20 -15 32.5 -35.5t12.5 -48.5zM367 0v310q0 60 -15.5 83t-47.5 23q-26 0 -53 -11.5t-47 -28.5v-376h-142v525h120q1 -4 2.5 -11.5t2.5 -15.5
t1.5 -15t0.5 -10h2q19 23 52 43t75 20q86 0 138.5 -55t52.5 -161v-320h-142z" />
    <glyph glyph-name="Rcommaaccent" unicode="&#x156;" horiz-adv-x="589" 
d="M367 -110q0 -26 -10.5 -43.5t-28.5 -28.5t-41 -17t-48 -8l-17 57q27 6 42.5 15t15.5 26q0 14 -5.5 26.5t-22.5 32.5l70 24q20 -15 32.5 -35.5t12.5 -48.5zM419 0l-92 195q-14 28 -30 48.5t-42 20.5h-42v-264h-145v685h228q58 0 101.5 -15t73 -42.5t44.5 -66t15 -84.5
q0 -59 -28 -107t-93 -76v-2q16 -6 24.5 -18t13.5 -23l132 -251h-160zM382 476q0 42 -18.5 65t-70.5 23h-80v-181h82q45 0 66 25.5t21 67.5z" />
    <glyph glyph-name="rcommaaccent" unicode="&#x157;" horiz-adv-x="384" 
d="M207 -110q0 -26 -10.5 -43.5t-28.5 -28.5t-41 -17t-48 -8l-17 57q27 6 42.5 15t15.5 26q0 14 -5.5 26.5t-22.5 32.5l70 24q20 -15 32.5 -35.5t12.5 -48.5zM358 409q-8 3 -17.5 5t-25.5 2q-20 0 -39.5 -10.5t-35.5 -26.5t-26 -35t-10 -36v-308h-142v525h122q1 -4 2.5 -15
t2.5 -23t1.5 -23t0.5 -14h3q5 11 16 25.5t27.5 28t38 23t48.5 9.5q23 0 37 -4.5t19 -8.5z" />
    <glyph glyph-name="Tcommaaccent" unicode="&#x162;" horiz-adv-x="514" 
d="M329 -110q0 -26 -10.5 -43.5t-28.5 -28.5t-41 -17t-48 -8l-17 57q27 6 42.5 15t15.5 26q0 14 -5.5 26.5t-22.5 32.5l70 24q20 -15 32.5 -35.5t12.5 -48.5zM496 565h-166v-565h-145v564h-175v122h495z" />
    <glyph glyph-name="tcommaaccent" unicode="&#x163;" horiz-adv-x="381" 
d="M263 -110q0 -26 -10.5 -43.5t-28.5 -28.5t-41 -17t-48 -8l-17 57q27 6 42.5 15t15.5 26q0 14 -5.5 26.5t-22.5 32.5l70 24q20 -15 32.5 -35.5t12.5 -48.5zM368 9q-20 -8 -48.5 -14t-61.5 -6q-39 0 -71 11t-55 33t-36 54.5t-13 75.5v258h-74v104h74l17 154l125 11v-165
h126l-11 -104h-115v-245q0 -38 16.5 -52.5t36.5 -14.5q15 0 29 2.5t30 7.5z" />
    <glyph glyph-name="tcaron" unicode="&#x165;" horiz-adv-x="400" 
d="M368 9q-20 -8 -48.5 -14t-61.5 -6q-39 0 -71 11t-55 33t-36 54.5t-13 75.5v258h-74v104h74l17 154l125 11v-165h126l-11 -104h-115v-245q0 -38 16.5 -52.5t36.5 -14.5q15 0 29 2.5t30 7.5zM414 665q0 -26 -8 -46.5t-21.5 -36t-31 -25.5t-35.5 -16l-29 59q23 11 32 25.5
t9 32.5q0 16 -5.5 33t-19.5 37l70 29q17 -18 28 -42t11 -50z" />
    <glyph glyph-name="Tbar" unicode="&#x166;" horiz-adv-x="514" 
d="M496 565h-166v-185h107v-70h-107v-310h-145v310h-107v70h107v184h-175v122h495z" />
    <glyph glyph-name="tbar" unicode="&#x167;" horiz-adv-x="381" 
d="M230 228v-51q0 -38 16.5 -52.5t36.5 -14.5q15 0 29 2.5t30 7.5l31 -110q-20 -8 -48.5 -14t-61.5 -6q-39 0 -71 11t-55 33t-36 54.5t-13 75.5v64h-79v67h79v127h-74v104h74l17 154l125 11v-165h126l-11 -104h-115v-127h87v-67h-87z" />
    <glyph glyph-name="Uogonek" unicode="&#x172;" horiz-adv-x="651" 
d="M383 -7q-43 -26 -67 -49t-24 -49q0 -27 28 -27q25 0 49 13l25 -66q-16 -9 -37.5 -16.5t-53.5 -7.5q-21 0 -40.5 6.5t-34.5 18.5t-23.5 29.5t-8.5 39.5q0 32 16.5 58t52.5 51q-98 17 -147.5 81.5t-49.5 166.5v443h145v-449q0 -57 25.5 -91.5t89.5 -34.5q63 0 88.5 34
t25.5 91v450h145v-442q0 -104 -51.5 -170t-152.5 -80z" />
    <glyph glyph-name="uogonek" unicode="&#x173;" horiz-adv-x="567" 
d="M509 0q-48 -29 -75.5 -53.5t-27.5 -52.5q0 -14 8 -20t20 -6q14 0 26 3.5t23 9.5l25 -67q-16 -8 -37.5 -15.5t-53.5 -7.5q-21 0 -40.5 6.5t-34.5 18.5t-23.5 29.5t-8.5 39.5q0 33 18.5 61t60.5 54q-1 4 -2.5 11.5t-2.5 15.5t-1.5 14.5t-0.5 9.5h-2q-17 -24 -51 -43
t-76 -19q-86 0 -138.5 55t-52.5 161v320h142v-310q0 -60 15.5 -83t47.5 -23q26 0 53 11.5t47 28.5v376h142v-525v0z" />
    <glyph glyph-name="nonbreakingspace" unicode="&#xa0;" horiz-adv-x="260" 
 />
    <glyph glyph-name="yacute" unicode="&#xfd;" horiz-adv-x="521" 
d="M296 -64q-8 -21 -22 -46.5t-36.5 -47t-56 -36t-79.5 -14.5q-25 0 -52.5 4.5t-46.5 12.5l20 114q11 -4 28 -7.5t38 -3.5q22 0 36 5.5t23 15t14.5 22t10.5 25.5l21 57l-191 488h145l81 -231q2 -8 7 -22q4 -12 11 -32.5t18 -51.5h2q10 31 16 51.5t10 32.5q4 14 7 22l73 231
h145zM384 711l-188 -152l-59 67l176 165z" />
    <glyph glyph-name="zero.onum" horiz-adv-x="622" 
d="M583 288q0 -59 -17 -113.5t-51.5 -95.5t-85.5 -65.5t-119 -24.5t-119 24.5t-84.5 65.5t-50.5 95.5t-17 113.5q0 61 17 115t50.5 94.5t84.5 63.5t119 23t119 -23t85.5 -63.5t51.5 -94.5t17 -115zM435 288q0 46 -10 79.5t-27 54.5t-39.5 31t-48.5 10q-25 0 -47.5 -10
t-39 -31t-26.5 -54t-10 -80t10 -80.5t26.5 -55.5t39 -32t47.5 -10q26 0 48.5 10t39.5 32t27 55.5t10 80.5z" />
    <glyph glyph-name="one.onum" horiz-adv-x="528" 
d="M86 0v121h142v319l-122 -36l-40 107l206 63h101v-453h113v-121h-400z" />
    <glyph glyph-name="two.onum" horiz-adv-x="599" 
d="M507 0h-442v64q0 55 22 94t55 67t71.5 48.5t71.5 38.5t55 36.5t22 44.5q0 35 -24.5 52.5t-58.5 17.5q-35 0 -68.5 -10.5t-72.5 -39.5l-64 92q39 33 91.5 56t112.5 23q51 0 93 -13t72.5 -37.5t47.5 -59t17 -77.5q0 -41 -20.5 -72.5t-51.5 -56.5t-67.5 -44t-67.5 -36
t-51.5 -33.5t-20.5 -34.5h286z" />
    <glyph glyph-name="three.onum" horiz-adv-x="529" 
d="M479 96q0 -45 -18 -85t-51 -70t-80.5 -47t-106.5 -17q-61 0 -107.5 17.5t-92.5 44.5l52 105q39 -21 76 -33.5t72 -12.5q25 0 45.5 8.5t34 22.5t21 32t7.5 38q0 19 -6 36t-18 30.5t-31 21.5t-44 8h-55v104h51q24 0 40.5 8t27 20t15 27.5t4.5 30.5q0 14 -4.5 28t-15 25
t-26.5 17.5t-38 6.5q-25 0 -53 -7.5t-69 -35.5l-65 94q40 32 90.5 51.5t96.5 19.5q56 0 99 -15.5t72.5 -42t45 -62t15.5 -76.5q0 -44 -26.5 -77t-68.5 -54v-2q54 -24 82.5 -64.5t28.5 -94.5z" />
    <glyph glyph-name="four.onum" 
d="M547 36h-109v-147l-134 -11v158h-261v63q0 24 3 47.5t10 55.5l81 372h123l-87 -397q-1 -4 -1.5 -10.5t-0.5 -10.5h133l11 239l123 14v-253h119z" />
    <glyph glyph-name="five.onum" 
d="M516 123q0 -49 -19 -93.5t-53.5 -78t-83 -53.5t-108.5 -20q-61 0 -114 22t-102 56l58 99q40 -28 77.5 -42t76.5 -14q52 0 86 33t34 90q0 50 -27.5 82.5t-81.5 32.5q-29 0 -55.5 -7t-60.5 -19q-12 -4 -23 -4t-19 4t-12.5 10t-6.5 13t-2 12v1l10 327h396l-5 -121h-268
l-5 -114h2q14 6 36 9.5t42 3.5q42 0 83 -15.5t73 -44.5t52 -71.5t20 -97.5z" />
    <glyph glyph-name="six.onum" horiz-adv-x="608" 
d="M207 324q-1 -10 -1 -19.5v-19.5q0 -24 4 -54.5t14.5 -57t30 -45t50.5 -18.5q28 0 47.5 10t31.5 26.5t17.5 39t5.5 46.5q0 23 -4.5 45t-16 39.5t-30 28.5t-45.5 11q-28 0 -55.5 -8.5t-48.5 -23.5zM554 231q0 -52 -17 -96t-49 -76.5t-78.5 -51t-104.5 -18.5
q-60 0 -106.5 24.5t-77.5 66.5t-47 97t-16 115q0 77 21 149.5t63 129t104 91t144 34.5q35 0 65 -6t62 -17l-29 -114q-17 7 -43.5 11.5t-52.5 4.5q-40 0 -69.5 -12t-50 -33t-33.5 -48.5t-20 -58.5q24 17 55.5 26t66.5 9q47 0 86 -17t67.5 -47t44 -71.5t15.5 -91.5z" />
    <glyph glyph-name="seven.onum" horiz-adv-x="555" 
d="M535 479q-53 -59 -90 -114t-59.5 -114t-32.5 -124.5t-10 -143.5v-94l-146 -11v115q0 133 40.5 249t133.5 208v3h-316l-14 121h466l28 -95v0z" />
    <glyph glyph-name="eight.onum" horiz-adv-x="594" 
d="M323 417q25 16 40 36.5t15 51.5q0 28 -21.5 49t-59.5 21t-59.5 -21t-21.5 -49q0 -17 8.5 -29.5t23 -22.5t34 -18.5t41.5 -17.5zM265 296q-32 -18 -52 -42.5t-20 -62.5q0 -13 6.5 -27.5t19.5 -26.5t32.5 -19.5t45.5 -7.5t45.5 7.5t32.5 19.5t19.5 26.5t6.5 27.5
q0 21 -11 36t-30 27t-43.5 22t-51.5 20zM546 191q0 -49 -22 -87t-57 -63.5t-79.5 -38.5t-90.5 -13t-90.5 13t-80 38.5t-57 63.5t-21.5 87q0 31 9 54.5t24.5 42t36 32.5t43.5 25q-38 24 -64 61.5t-26 97.5q0 44 17.5 79.5t48 60.5t71.5 38.5t89 13.5t89.5 -13.5t71.5 -38
t47.5 -60t17.5 -79.5q0 -50 -27 -80.5t-67 -52.5q24 -13 45.5 -29.5t37 -38t25 -49.5t9.5 -64z" />
    <glyph glyph-name="nine.onum" horiz-adv-x="602" 
d="M551 281q0 -77 -20 -149.5t-60 -129t-100.5 -91t-142.5 -34.5q-35 0 -65 6t-62 17l28 113q24 -8 47.5 -11.5t49.5 -3.5q41 0 70 12.5t48.5 34t31 50t17.5 60.5q-24 -18 -56.5 -29t-68.5 -11q-47 0 -86 17t-67.5 47t-44 71.5t-15.5 91.5q0 52 17 96t49 76.5t78 51
t105 18.5q60 0 106.5 -24.5t77.5 -66.5t47 -97t16 -115zM403 288q0 24 -4 54.5t-14.5 57t-30 45t-50.5 18.5q-29 0 -48.5 -10t-31.5 -26.5t-17 -39t-5 -46.5q0 -23 4.5 -45t16 -39.5t30 -28.5t45.5 -11q28 0 55 9t50 23v39z" />
    <glyph glyph-name="Yacute" unicode="&#xdd;" horiz-adv-x="599" 
d="M371 290v-290h-144v290l-217 395h161l76 -170q4 -8 11 -23q6 -13 15.5 -33.5t24.5 -52.5h3q14 32 23 52.5t14 33.5q6 15 10 23l80 170h161zM423 911l-188 -152l-59 67l176 165z" />
    <glyph glyph-name="Eth" unicode="&#xd0;" horiz-adv-x="750" 
d="M705 346q0 -72 -17 -135.5t-53 -110t-91.5 -73.5t-132.5 -27h-264v285h-113v121h113v279h264q77 0 132.5 -26t91.5 -71.5t53 -107.5t17 -134zM557 346q0 106 -37 162t-109 56h-119v-158h113v-121h-113v-164h119q72 0 109 59t37 166z" />
    <glyph glyph-name="eth" unicode="&#xf0;" horiz-adv-x="576" 
d="M538 262q0 -56 -16 -105.5t-47 -87t-78 -59t-108 -21.5q-62 0 -109 21.5t-78.5 59t-47.5 87.5t-16 106q0 60 16 110t48 86t78.5 56.5t108.5 20.5h10q-14 18 -29 34.5t-30 31.5l-106 -61l-33 57l90 52q-20 20 -37 35t-28 26l109 39q8 -7 22 -18t31 -26l105 60l32 -57
l-86 -50q34 -33 69 -75t64 -92.5t47.5 -108t18.5 -121.5zM393 264q0 75 -27 113.5t-77 38.5q-49 0 -77.5 -39t-28.5 -113q0 -75 29 -115t77 -40q46 0 75 40t29 115z" />
    <glyph glyph-name="Thorn" unicode="&#xde;" horiz-adv-x="578" 
d="M532 347q0 -47 -15 -86.5t-45 -68.5t-74.5 -45.5t-102.5 -16.5h-82v-130h-145v685h145v-121h82q58 0 102.5 -16t74.5 -45t45 -69t15 -87zM384 347q0 46 -21 70.5t-71 24.5h-79v-192h79q50 0 71 24t21 73z" />
    <glyph glyph-name="thorn" unicode="&#xfe;" horiz-adv-x="576" 
d="M538 258q0 -58 -17 -107.5t-46.5 -85.5t-70 -56t-86.5 -20q-29 0 -59.5 9t-51.5 27v-223h-142v937h142v-247q22 21 52 32.5t59 11.5q54 0 95 -21.5t68.5 -59t42 -88t14.5 -109.5zM393 257q0 85 -27.5 122t-78.5 37q-20 0 -43 -8.5t-37 -27.5v-243q18 -14 37 -21t43 -7
q45 0 75.5 36.5t30.5 111.5z" />
    <glyph glyph-name="brokenbar" unicode="&#xa6;" horiz-adv-x="293" 
d="M205 434h-117v337h117v-337zM205 -75h-117v337h117v-337z" />
    <glyph glyph-name="dollar" unicode="$" 
d="M325 574q-23 0 -38.5 -6t-25 -17t-14 -25t-4.5 -30q0 -27 17 -44t44 -30l27 152h-6zM310 110q42 2 63.5 27.5t21.5 59.5q0 21 -16.5 36t-42.5 28zM543 195q0 -48 -20 -86t-53.5 -64.5t-76.5 -41t-89 -14.5h-16l-13 -75l-58 11l12 72q-51 11 -93 32.5t-79 47.5l62 104
q32 -24 64.5 -40.5t66.5 -24.5l30 169q-12 5 -24 9t-23 9q-28 12 -53 29t-44 40.5t-30 54.5t-11 70q0 48 19 84.5t50.5 62t73 38.5t87.5 13h13.5t13.5 -1l14 79l59 -11l-14 -79q38 -10 70 -25.5t54 -31.5l-53 -103q-21 12 -44 23t-48 19l-29 -166q31 -12 63.5 -26.5t59 -37
t43 -56.5t16.5 -84z" />
    <glyph glyph-name="mu" unicode="&#xb5;" horiz-adv-x="567" 
d="M389 0q-1 4 -2.5 11.5t-2.5 15.5t-1.5 14.5t-0.5 9.5h-2q-17 -24 -51 -43t-76 -19q-13 0 -25.5 1t-23.5 4v-192h-142v723h142v-310q0 -60 15.5 -83t47.5 -23q26 0 53 11.5t47 28.5v376h142v-525h-120z" />
    <glyph glyph-name="summation" unicode="&#x2211;" horiz-adv-x="571" 
d="M82 -56l-41 73l185 298l-185 297l41 74h415v-121h-277l154 -250l-154 -250h277v-121h-415z" />
    <glyph glyph-name="product" unicode="&#x220f;" horiz-adv-x="805" 
d="M657 563v-621h-145v621h-203v-621h-145v621h-74v121h641v-121h-74z" />
    <glyph glyph-name="pi" unicode="&#x3c0;" horiz-adv-x="660" 
d="M553 421v-245q0 -38 16 -52t37 -14l-21 -120q-38 0 -70 11t-55 33t-36 54.5t-13 74.5v258h-161v-421h-142v421h-70v105h584v-105h-69z" />
    <glyph glyph-name="integral" unicode="&#x222b;" horiz-adv-x="371" 
d="M391 630q-15 6 -32 9t-31 3q-61 0 -68 -77l-54 -562q-4 -40 -20 -70t-40 -52t-54 -36t-63 -22l-44 98q52 19 74 40.5t25 59.5l54 561q4 38 19.5 70t40 55t57 35.5t69.5 12.5q57 0 114 -29z" />
    <glyph glyph-name="Omega" unicode="&#x3a9;" horiz-adv-x="722" 
d="M421 0v120q23 11 41 34t30 53.5t18.5 68t6.5 78.5q0 107 -40 169.5t-116 62.5q-77 0 -116.5 -62.5t-39.5 -168.5q0 -83 24 -147.5t72 -87.5v-120h-258v120h76q-32 48 -47 107.5t-15 126.5q0 76 18 140.5t55 111.5t94.5 74t136.5 27t136.5 -27t94.5 -74t55 -111.5
t18 -140.5q0 -67 -15 -126.5t-47 -107.5h76v-120h-258z" />
    <glyph glyph-name="radical" unicode="&#x221a;" horiz-adv-x="664" 
d="M426 0h-145l-142 416h-114v110h223l110 -369h3l190 583h132z" />
    <glyph glyph-name="Delta" unicode="&#x2206;" horiz-adv-x="673" 
d="M2 0l252 675l162 10l255 -685h-669zM330 532h-3l-148 -417h302z" />
    <glyph glyph-name="lozenge" unicode="&#x25ca;" horiz-adv-x="655" 
d="M400 0h-145l-205 371l205 371h145l205 -371zM329 636h-3l-144 -265l144 -266h3l144 266z" />
    <glyph glyph-name="sfthyphen" unicode="&#xad;" horiz-adv-x="442" 
d="M75 222v105h292v-105h-292z" />
    <glyph glyph-name="divide" unicode="&#xf7;" horiz-adv-x="548" 
d="M354 456q0 -34 -22.5 -59t-56.5 -25q-17 0 -32 6.5t-25.5 18t-16.5 26t-6 30.5q0 33 22.5 58.5t57.5 25.5q34 0 56.5 -24.5t22.5 -56.5zM46 196v119h456v-119h-456zM354 59q0 -33 -22.5 -58.5t-56.5 -25.5q-35 0 -57.5 24.5t-22.5 56.5q0 34 22.5 59t57.5 25
q17 0 31.5 -6.5t25 -18t16.5 -26t6 -30.5z" />
    <glyph glyph-name="uniF8FF" unicode="&#xf8ff;" horiz-adv-x="0" 
 />
    <glyph glyph-name="exclam" unicode="!" horiz-adv-x="369" 
d="M249 224h-128l-21 462h169zM271 77q0 -34 -24 -61t-62 -27q-19 0 -35 7.5t-27.5 19.5t-18 28t-6.5 33q0 35 24.5 61t61.5 26q38 0 62 -26t25 -61z" />
    <glyph glyph-name="currency" unicode="&#xa4;" 
d="M462 331q17 -37 17 -77.5t-17 -77.5l59 -59l-85 -85l-59 60q-37 -17 -77.5 -17t-77.5 17l-59 -60l-85 85l59 59q-17 37 -17 77.5t17 77.5l-60 60l85 85l59 -59q38 17 78.5 17t78.5 -17l59 59l85 -85zM366 188q13 14 20 31t7 35t-7 35t-20 31q-28 28 -66.5 28t-66.5 -28
q-14 -14 -20.5 -31t-6.5 -35t6.5 -35t20.5 -31q28 -27 66.5 -27t66.5 27z" />
    <glyph glyph-name="quotedbl" unicode="&#x22;" horiz-adv-x="407" 
d="M168 409h-102l-9 277h119zM341 409h-102l-8 277h119z" />
    <glyph glyph-name="numbersign" unicode="#" 
d="M444 195l-21 -195h-119l20 195h-77l-21 -195h-122l21 195h-91v105h102l9 86h-90v106h101l21 194h122l-21 -194h78l20 194h120l-20 -194h90v-106h-102l-9 -86h91v-105h-102zM336 300l9 86h-78l-9 -86h78z" />
    </font>
</defs>
</svg>
