<?xml version="1.0" encoding="UTF-8"?>
<svg width="1476px" height="1476px" viewBox="0 0 1476 1476" version="1.1" xmlns="http://www.w3.org/2000/svg" xmlns:xlink="http://www.w3.org/1999/xlink">
    <!-- Generator: Sketch 48.2 (47327) - http://www.bohemiancoding.com/sketch -->
    <title>discord</title>
    <desc>Created with Sketch.</desc>
    <defs></defs>
    <g id="Symbols" stroke="none" stroke-width="1" fill="none" fill-rule="evenodd">
        <g id="discord" fill="#000000">
            <g>
                <path d="M738,1476 C330.413855,1476 0,1145.58615 0,738 C0,330.413855 330.413855,0 738,0 C1145.58615,0 1476,330.413855 1476,738 C1476,1145.58615 1145.58615,1476 738,1476 Z M738,1378 C1091.46224,1378 1378,1091.46224 1378,738 C1378,384.53776 1091.46224,98 738,98 C384.53776,98 98,384.53776 98,738 C98,1091.46224 384.53776,1378 738,1378 Z" id="Combined-Shape"></path>
                <path d="M851.580361,371.257047 C852.949894,367.152572 854.054194,364.046645 854.893261,361.939267 C861.097324,346.436804 867.733315,341.687949 884.342928,343.297065 C928.830011,347.132573 972.605783,356.886492 1014.51046,372.300406 C1041.88338,383.306778 1068.68386,395.685206 1094.80988,409.388575 C1121.74651,422.81096 1140.3587,444.710641 1154.33747,471.202191 C1182.96255,525.598173 1203.85218,582.976907 1221.09005,641.729277 C1251.9533,746.164852 1272.13614,852.445024 1273,961.707949 C1272.91075,971.759085 1270.11676,981.600973 1264.91116,990.201082 C1242.05822,1027.09302 1209.11386,1053.50607 1171.61461,1074.38534 C1112.71528,1107.15637 1049.104,1125.4061 982.272887,1132.706 C972.691929,1133.76566 963.817762,1132.19579 957.81003,1124.11096 C943.556392,1105.07629 929.695415,1085.76689 914.617185,1065.24085 C920.310788,1063.51399 924.865669,1062.06186 929.420551,1060.72747 C984.393263,1044.63631 1036.85294,1022.50115 1083.30488,988.042511 C1085.77811,986.29339 1088.15093,984.406564 1090.41206,982.390981 C1100.20559,974.214857 1101.52343,959.655594 1093.35703,949.855433 C1085.59002,940.194109 1071.51001,938.535378 1061.70846,946.126993 C1000.45315,992.320406 930.362941,1017.24209 855.757118,1029.64406 C725.157661,1051.38675 597.935099,1041.14335 476.995133,983.332903 C456.3411,973.442724 437.375515,959.784859 418.095799,947.382889 C405.530608,939.18032 392.023027,939.533541 383.777121,950.326394 C375.531214,961.119248 377.533791,974.894854 389.509989,984.196331 C436.629456,1020.93128 490.85611,1043.73364 547.792133,1060.53124 C552.386281,1061.90488 556.980429,1063.31776 563.066693,1065.16236 C547.752867,1085.96313 533.774091,1106.05746 518.420998,1125.05288 C513.77047,1129.95998 507.234499,1132.63311 500.476335,1132.39202 C404.627485,1122.10938 315.571692,1094.63666 242.850647,1027.40699 C241.201466,1025.87637 239.670083,1024.14951 238.020902,1022.57964 C212.890519,998.639131 201.895977,971.284153 204.330483,934.745438 C213.723027,782.464815 250.056997,633.055211 311.64507,493.455093 C332.22057,446.947706 364.929334,414.961612 410.39962,393.92536 C466.754069,367.935008 526.867715,351.019876 588.511206,343.807273 C612.934796,340.785274 619.492256,346.593791 627.109903,375.518639 C613.170394,378.501391 599.230885,381.209416 585.409174,384.427649 C529.593017,396.810729 476.108796,418.008324 426.969966,447.222433 C415.190099,454.326093 410.438886,463.863051 413.069723,474.22419 C417.231942,490.707821 433.448892,495.77065 450.215569,487.685822 C481.628548,472.615074 512.138403,455.385755 544.925699,444.867628 C700.459207,394.945775 853.204813,402.284915 1001.6704,472.889801 C1009.83778,476.814475 1017.61249,481.484837 1025.46573,486.037459 C1041.17222,495.142702 1054.71907,493.376599 1062.17965,481.131616 C1069.64023,468.886633 1065.28168,455.581988 1048.90767,445.80955 C997.154785,414.883119 941.161152,394.788788 882.418883,382.190584 C872.837924,380.110507 863.178434,378.26591 853.558209,376.264327 C853.558209,376.264327 853.558209,376.264327 853.558209,376.264327 L853.558209,376.264327 C851.771096,375.296413 850.937081,373.184952 851.580362,371.257047 Z M530.789858,850.3257 C544.362964,866.463295 564.153587,876.081102 585.234721,876.784705 C606.315855,877.488308 626.704321,869.211517 641.324275,854.014894 C677.488466,817.94714 678.39159,753.190019 643.24832,716.062603 C611.481946,682.50664 563.498622,682.585133 532.007111,716.533563 C514.651441,735.568232 506.876729,758.331342 506.837463,771.518246 C506.680398,809.312857 514.965571,832.429187 530.789858,850.3257 Z M830.234073,846.832741 C863.021369,887.492363 919.132801,886.864415 951.134772,845.537598 C978.046605,809.156465 978.205614,759.522674 951.527435,722.970029 C918.700873,680.034095 859.68374,680.622796 827.838833,724.343665 C815.401516,741.25757 808.800498,761.753273 809.030313,782.742814 C808.305581,805.82936 815.814855,828.58229 830.234073,846.832741 Z" id="Shape" fill-rule="nonzero"></path>
            </g>
        </g>
    </g>
</svg>