<?xml version="1.0" encoding="UTF-8"?>
<svg width="1476px" height="1476px" viewBox="0 0 1476 1476" version="1.1" xmlns="http://www.w3.org/2000/svg" xmlns:xlink="http://www.w3.org/1999/xlink">
    <!-- Generator: Sketch 48.2 (47327) - http://www.bohemiancoding.com/sketch -->
    <title>git</title>
    <desc>Created with Sketch.</desc>
    <defs></defs>
    <g id="Symbols" stroke="none" stroke-width="1" fill="none" fill-rule="evenodd">
        <g id="git" fill="#000000">
            <g id="Combined-Shape">
                <path d="M558.901784,1352.6029 C558.880307,1342.0412 558.781273,1331.67605 558.655022,1318.30156 C558.493721,1301.28852 558.29168,1280.1498 558.124559,1255.91564 C375.941033,1288.98975 333.409322,1161.03975 331.663507,1155.5348 C302.674321,1082.25915 262.808075,1063.57823 262.692486,1063.52261 L261.196716,1062.68618 C169.373189,999.933566 271.916583,1001.23476 272.207599,1001.23561 L272.911831,1001.23561 C344.729587,1006.2908 382.97842,1072.50709 385.062838,1076.20709 L385.070321,1076.20293 C406.900751,1113.60638 433.759831,1132.05036 460.447287,1139.66978 C499.159464,1150.72135 538.197293,1139.54174 561.256832,1130.00923 C564.455405,1111.10213 569.724316,1094.75426 576.300195,1080.90565 C580.730975,1071.57519 585.770396,1063.34719 591.189744,1056.20336 C521.618458,1046.33162 451.897651,1026.17485 397.43245,980.326582 C337.00128,929.454522 296.043547,847.737574 296.043547,714.847272 L296.087614,714.847272 C296.093434,677.686617 302.525504,643.833436 314.263025,613.244366 C325.896629,582.925686 342.756695,555.762285 363.751527,531.714107 C359.734808,520.299997 354.156655,500.407634 352.395635,474.073213 C350.242186,441.866307 353.755878,399.842995 372.811814,351.663432 L373.251649,350.783759 C373.263289,350.760479 381.536174,343.714828 393.230459,343.1228 C400.944638,342.732851 412.587393,343.137766 428.300853,346.314726 C458.903087,352.502352 505.778428,369.472186 570.492547,412.675825 C596.060358,405.802256 622.448842,400.579088 649.215423,396.978978 C678.177224,393.084481 707.666924,391.086515 737.117906,390.95515 L737.206039,390.95515 C766.624287,391.086518 796.08076,393.085318 825.024047,396.977317 C851.803299,400.579144 878.216704,405.807268 903.832102,412.680007 C1033.91854,325.808821 1093.86616,344.968647 1094.04286,345.020177 L1099.28346,346.574149 L1101.30222,351.663432 C1120.43212,399.906492 1123.97908,441.889679 1121.84475,474.028864 C1120.09622,500.357441 1114.53965,520.241499 1110.53955,531.66476 C1131.52192,555.652819 1148.32961,582.782078 1159.93745,613.089425 C1171.69995,643.801406 1178.11455,677.711959 1178.11455,714.847201 C1178.11455,848.105674 1137.096,929.784467 1076.54684,980.475047 C1022.04222,1026.10649 952.237079,1045.9997 882.517821,1055.70348 C890.670143,1066.36597 897.998553,1079.48535 903.720532,1095.10574 C911.422251,1116.13387 916.249569,1141.74822 916.249569,1172.02719 C916.249569,1226.05376 915.850475,1282.26484 915.586907,1319.48308 C915.499565,1331.85099 915.431315,1341.38506 915.419206,1353.08884 C1182.57408,1276.16804 1378,1029.9061 1378,738 C1378,384.53776 1091.46224,98 738,98 C384.53776,98 98,384.53776 98,738 C98,1029.29424 292.607512,1275.13546 558.901784,1352.6029 Z M738,1476 C330.413855,1476 0,1145.58615 0,738 C0,330.413855 330.413855,0 738,0 C1145.58615,0 1476,330.413855 1476,738 C1476,1145.58615 1145.58615,1476 738,1476 Z"></path>
            </g>
        </g>
    </g>
</svg>