<svg class="blt-logo--whites" id="btlLogo2" data-name="Bitcoin Lightning" viewBox="0 0 408.2 132">
    <g class="blt-logo--chars">
        <path class="blt-logo--wh"
              d="M334.7,269.87v-25.2h11.7q4.35,0,6.59,2.23a5.82,5.82,0,0,1,1.73,4.28v0.07a5.92,5.92,0,0,1-3.31,5.44,8.34,8.34,0,0,1,3.53,2.34,5.87,5.87,0,0,1,1.19,3.85V263a5.89,5.89,0,0,1-2.52,5.15,11.88,11.88,0,0,1-6.91,1.76h-12Zm14.51-17.68v-0.07a2.22,2.22,0,0,0-.94-1.93,4.63,4.63,0,0,0-2.7-.67H340.1v5.33h5.11Q349.21,254.86,349.21,252.2Zm1.4,10q0-2.74-4.1-2.74H340.1V265h6.59q3.92,0,3.92-2.74v-0.07Z"
              transform="translate(-235.16 -188.29)"></path>
        <path class="blt-logo--wh" d="M360.23,248.45v-4.86H366v4.86h-5.76Zm0.14,21.42v-19.3h5.47v19.3h-5.47Z"
              transform="translate(-235.16 -188.29)"></path>
        <path class="blt-logo--wh"
              d="M377.51,270.2a6,6,0,0,1-4.16-1.31q-1.46-1.31-1.46-4.48v-9.14h-2.3v-4.68h2.3v-4.93h5.47v4.93h4.54v4.68h-4.54v8.24a1.61,1.61,0,0,0,1.76,1.87,5.58,5.58,0,0,0,2.7-.68v4.39A8.28,8.28,0,0,1,377.51,270.2Z"
              transform="translate(-235.16 -188.29)"></path>
        <path class="blt-logo--wh"
              d="M394.5,270.31a9.84,9.84,0,0,1-10-10v-0.07a10.32,10.32,0,0,1,17.82-6.8l-3.35,3.6a6,6,0,0,0-4.39-2.12,4.23,4.23,0,0,0-3.35,1.55,5.5,5.5,0,0,0-1.33,3.71v0.07a5.53,5.53,0,0,0,1.35,3.8,4.5,4.5,0,0,0,3.55,1.53,6.45,6.45,0,0,0,4.43-2.05l3.2,3.24a11.75,11.75,0,0,1-3.38,2.63A10,10,0,0,1,394.5,270.31Z"
              transform="translate(-235.16 -188.29)"></path>
        <path class="blt-logo--wh"
              d="M422.35,267.39a11,11,0,0,1-14.9,0,9.51,9.51,0,0,1-3-7.07v-0.07a9.55,9.55,0,0,1,3-7.13,11,11,0,0,1,14.9,0,9.51,9.51,0,0,1,3,7.07v0.07A9.55,9.55,0,0,1,422.35,267.39Zm-7.4-1.8a4.67,4.67,0,0,0,3.64-1.51,5.38,5.38,0,0,0,1.37-3.74v-0.07a5.4,5.4,0,0,0-1.42-3.76,5.09,5.09,0,0,0-7.29-.05,5.37,5.37,0,0,0-1.37,3.74v0.07a5.4,5.4,0,0,0,1.42,3.76A4.71,4.71,0,0,0,414.95,265.59Z"
              transform="translate(-235.16 -188.29)"></path>
        <path class="blt-logo--wh" d="M429.42,248.45v-4.86h5.76v4.86h-5.76Zm0.14,21.42v-19.3H435v19.3h-5.47Z"
              transform="translate(-235.16 -188.29)"></path>
        <path class="blt-logo--wh"
              d="M440.18,269.87v-19.3h5.47v2.74a7,7,0,0,1,5.65-3.1,6.18,6.18,0,0,1,4.82,1.91,7.55,7.55,0,0,1,1.73,5.26v12.49h-5.47V259.11a4.36,4.36,0,0,0-.86-2.92,3.05,3.05,0,0,0-2.45-1,3.22,3.22,0,0,0-2.5,1,4.19,4.19,0,0,0-.92,2.92v10.76h-5.47Z"
              transform="translate(-235.16 -188.29)"></path>
        <path class="blt-logo--wh" d="M474,269.87v-25.2h5.54v20.16h12.56v5H474Z"
              transform="translate(-235.16 -188.29)"></path>
        <path class="blt-logo--wh" d="M495.8,248.45v-4.86h5.76v4.86H495.8Zm0.14,21.42v-19.3h5.47v19.3h-5.47Z"
              transform="translate(-235.16 -188.29)"></path>
        <path class="blt-logo--wh"
              d="M515.2,275.71a18,18,0,0,1-8.53-2l1.87-4.1a13.1,13.1,0,0,0,6.52,1.76q5.51,0,5.51-5.26v-0.94a9.19,9.19,0,0,1-2.75,2.36,7.48,7.48,0,0,1-3.55.77,8.39,8.39,0,0,1-6.07-2.43,8.73,8.73,0,0,1-2.5-6.57v-0.07a8.7,8.7,0,0,1,2.52-6.57,8.4,8.4,0,0,1,6-2.43,8.16,8.16,0,0,1,6.23,2.88v-2.52H526v14.94q0,5.15-2.45,7.6T515.2,275.71Zm-2.7-13.19a5.13,5.13,0,0,0,6.71,0,4.19,4.19,0,0,0,1.35-3.2v-0.07a4.19,4.19,0,0,0-1.35-3.2,4.74,4.74,0,0,0-3.37-1.26A4.68,4.68,0,0,0,512.5,256a4.22,4.22,0,0,0-1.33,3.2v0.07A4.21,4.21,0,0,0,512.5,262.51Z"
              transform="translate(-235.16 -188.29)"></path>
        <path class="blt-logo--wh"
              d="M530.86,269.87V243.59h5.47v9.72a7,7,0,0,1,5.65-3.1,6.18,6.18,0,0,1,4.82,1.91,7.55,7.55,0,0,1,1.73,5.26v12.49h-5.47V259.11a4.36,4.36,0,0,0-.86-2.92,3.05,3.05,0,0,0-2.45-1,3.22,3.22,0,0,0-2.5,1,4.19,4.19,0,0,0-.92,2.92v10.76h-5.47Z"
              transform="translate(-235.16 -188.29)"></path>
        <path class="blt-logo--wh"
              d="M559.81,270.2a6,6,0,0,1-4.16-1.31q-1.46-1.31-1.46-4.48v-9.14h-2.3v-4.68h2.3v-4.93h5.47v4.93h4.54v4.68h-4.54v8.24a1.61,1.61,0,0,0,1.76,1.87,5.58,5.58,0,0,0,2.7-.68v4.39A8.27,8.27,0,0,1,559.81,270.2Z"
              transform="translate(-235.16 -188.29)"></path>
        <path class="blt-logo--wh"
              d="M568.23,269.87v-19.3h5.47v2.74a7,7,0,0,1,5.65-3.1,6.18,6.18,0,0,1,4.82,1.91,7.55,7.55,0,0,1,1.73,5.26v12.49h-5.47V259.11a4.36,4.36,0,0,0-.86-2.92,3.05,3.05,0,0,0-2.45-1,3.22,3.22,0,0,0-2.5,1,4.19,4.19,0,0,0-.92,2.92v10.76h-5.47Z"
              transform="translate(-235.16 -188.29)"></path>
        <path class="blt-logo--wh" d="M590.77,248.45v-4.86h5.76v4.86h-5.76Zm0.14,21.42v-19.3h5.47v19.3h-5.47Z"
              transform="translate(-235.16 -188.29)"></path>
        <path class="blt-logo--wh"
              d="M601.53,269.87v-19.3H607v2.74a7,7,0,0,1,5.65-3.1,6.18,6.18,0,0,1,4.82,1.91,7.55,7.55,0,0,1,1.73,5.26v12.49h-5.47V259.11a4.36,4.36,0,0,0-.86-2.92,3.05,3.05,0,0,0-2.45-1,3.22,3.22,0,0,0-2.5,1,4.19,4.19,0,0,0-.92,2.92v10.76h-5.47Z"
              transform="translate(-235.16 -188.29)"></path>
        <path class="blt-logo--wh"
              d="M632.6,275.71a18,18,0,0,1-8.53-2l1.87-4.1a13.1,13.1,0,0,0,6.52,1.76q5.51,0,5.51-5.26v-0.94a9.19,9.19,0,0,1-2.75,2.36,7.48,7.48,0,0,1-3.55.77,8.39,8.39,0,0,1-6.07-2.43,8.73,8.73,0,0,1-2.5-6.57v-0.07a8.7,8.7,0,0,1,2.52-6.57,8.4,8.4,0,0,1,6-2.43,8.16,8.16,0,0,1,6.23,2.88v-2.52h5.47v14.94q0,5.15-2.45,7.6T632.6,275.71Zm-2.7-13.19a5.13,5.13,0,0,0,6.71,0,4.19,4.19,0,0,0,1.35-3.2v-0.07a4.19,4.19,0,0,0-1.35-3.2,4.74,4.74,0,0,0-3.37-1.26A4.68,4.68,0,0,0,629.9,256a4.22,4.22,0,0,0-1.33,3.2v0.07A4.21,4.21,0,0,0,629.9,262.51Z"
              transform="translate(-235.16 -188.29)"></path>
    </g>
</svg>