<svg id="Layer_1" data-name="Layer 1" xmlns="http://www.w3.org/2000/svg" xmlns:xlink="http://www.w3.org/1999/xlink" viewBox="0 0 80.52 134.78"><defs><style>.cls-1{fill:url(#radial-gradient);}.cls-2{fill:#fff;}</style><radialGradient id="radial-gradient" cx="40.26" cy="67.39" r="50.48" gradientUnits="userSpaceOnUse"><stop offset="0" stop-color="#e3d50a"/><stop offset="1" stop-color="#f87c12"/></radialGradient></defs><title>bit</title><polygon class="cls-1" points="59.86 0 44.12 49 63.82 39.3 43.4 89.25 60.85 80.35 61.17 80.52 26.48 134.78 26.32 134.31 34.25 101.06 22.01 106.76 34.95 61.7 16.7 69.85 32.33 15.02 59.54 0 59.86 0 59.86 0"/><path class="cls-2" d="M235.18,252.64c0.27-1.54.32-3.11,0.62-4.65q3.72-19.11,20.75-28.51a37.32,37.32,0,0,1,20.57-4.66c15.11,0.93,26.41,8.11,33.83,21.29a37.26,37.26,0,0,1,4.6,15.86,5.37,5.37,0,0,0,.13.68v4.72c-0.27,1.54-.32,3.11-0.62,4.65q-3.71,19.11-20.75,28.51a37.31,37.31,0,0,1-20.57,4.66c-15.11-.93-26.41-8.11-33.83-21.29a35.71,35.71,0,0,1-3.2-7.73,38.27,38.27,0,0,1-.92-4c-0.25-1.45-.3-2.93-0.55-4.38a15.08,15.08,0,0,1-.07-2.49v-2.61c0.27-1.54,0,1.57,0,0C235.45,251.1,235.18,254.21,235.18,252.64Zm6.61,2.31a33.64,33.64,0,1,0,33.71-33.59A33.71,33.71,0,0,0,241.79,255h0Z" transform="translate(-235.16 -188.29)"/><path class="cls-2" d="M261.95,236.6c1.34,0,2.67,0,4,0,0.66,0,.9-0.12.88-0.85,0-1.63,0-3.27,0-4.9,0-.81,0-1.64,0-2.45a1.15,1.15,0,0,1,.24-0.74,1.25,1.25,0,0,1,.87-0.28c0.76,0,1.54,0,2.3,0a1,1,0,0,1,1.15.9c0.07,0.75,0,1.53,0,2.28s0,1.61,0,2.42,0,1.82,0,2.73a1.14,1.14,0,0,0,.12.7,0.74,0.74,0,0,0,.65.18,22.26,22.26,0,0,1,2.88,0,0.81,0.81,0,0,0,.92-0.27,1.53,1.53,0,0,0,0-.55q0-.38,0-0.76c0-2,0-4,0-6a2.33,2.33,0,0,1,.19-1.25,1.06,1.06,0,0,1,.85-0.37,14.44,14.44,0,0,1,2.65,0,0.93,0.93,0,0,1,.82.47,2.88,2.88,0,0,1,.15,1.22c0,1,0,1.9,0,2.86s0,2.2,0,3.3a2,2,0,0,0,.11,1.13,0.83,0.83,0,0,0,.76.21c6-.34,10.56,4.65,10.61,10.69a10.49,10.49,0,0,1-1.66,6,0.75,0.75,0,0,0,.2,1.2,10.57,10.57,0,0,1,3.46,10.73,9.89,9.89,0,0,1-7.5,7.95,11.29,11.29,0,0,1-2.73.26,17.91,17.91,0,0,0-3.2.09,24.47,24.47,0,0,0-.06,3.21c0,0.89,0,1.79,0,2.68q0,0.68,0,1.37a4.07,4.07,0,0,1-.08,1.26c-0.23.67-1.1,0.62-1.68,0.62s-0.87,0-1.3,0a3.94,3.94,0,0,1-.89-0.07,1,1,0,0,1-.66-1.18c0-2.13,0-4.26,0-6.4a3.12,3.12,0,0,0-.07-1.3,0.64,0.64,0,0,0-.66-0.29c-1.08,0-2.15,0-3.22,0a0.74,0.74,0,0,0-.5.11,0.71,0.71,0,0,0-.16.58c0,0.54,0,1.07,0,1.61,0,1.12,0,2.24,0,3.37q0,0.86,0,1.71a4.3,4.3,0,0,1-.07,1.22,0.89,0.89,0,0,1-.87.6,15.83,15.83,0,0,1-1.61,0c-0.72,0-1.85.18-2-.79a11.29,11.29,0,0,1,0-1.6q0-.86,0-1.71c0-1.11,0-2.22,0-3.32a5.39,5.39,0,0,0,0-1.4,0.8,0.8,0,0,0-1-.4c-2.54,0-5.07,0-7.61,0-1.16,0-1.43-.34-1.2-1.51,0.09-.46.19-0.91,0.26-1.37a4.38,4.38,0,0,1,.24-1.14c0.3-.66,1-0.61,1.58-0.77a3.94,3.94,0,0,0,2.64-2.15,4.88,4.88,0,0,0,.44-2q0-1.73,0-3.46,0-7.11,0-14.23a5,5,0,0,0-2.63-4.9,5.09,5.09,0,0,0-1.48-.53,2.63,2.63,0,0,1-1.28-.35,1.19,1.19,0,0,1-.36-0.92c0-.42,0-0.85,0-1.27,0-.76-0.25-2,0.76-2.22a4.64,4.64,0,0,1,1,0c0.54,0,1.08,0,1.62,0h2.12Zm14.72,20.74v0c-1.52,0-3,0-4.56,0a0.58,0.58,0,0,0-.73.56c0,0.44,0,.89,0,1.33q0,1.51,0,3t0,3c0,0.27,0,.54,0,0.81a1.36,1.36,0,0,0,0,.45,0.57,0.57,0,0,0,.63.3c2.19,0,4.38,0,6.57,0a14.8,14.8,0,0,0,3.11-.13,4.76,4.76,0,0,0,2.07-1,4.61,4.61,0,0,0,1.63-4.08,4.9,4.9,0,0,0-2.34-3.61,5.64,5.64,0,0,0-2.82-.62c-1.21,0-2.41,0-3.62,0h0.65a4.54,4.54,0,0,0-.65,0h0Zm-5.26-9.11c0,1,0,2.09,0,3.13a4.72,4.72,0,0,0,0,1.28c0.1,0.4.53,0.34,0.86,0.34,2.07,0,4.15,0,6.22,0a4.72,4.72,0,0,0,0-9.44c-2.17,0-4.35,0-6.52,0-0.53,0-.59.21-0.59,0.65,0,1.36,0,2.72,0,4.09s0-1.36,0,0C271.4,249.25,271.4,246.87,271.4,248.23Z" transform="translate(-235.16 -188.29)"/></svg>