<svg xmlns="http://www.w3.org/2000/svg" viewBox="0 0 128.6 160.84">
  <defs>
    <style>
      .a {
        fill: #fab505;
      }
    </style>
  </defs>
  <title>b-wallet</title>
  <g>
    <path class="a" d="M268.79,200.61A64.43,64.43,0,0,0,186.27,163a4.72,4.72,0,0,1-3.36.25c-2.73-1.05-3.26-5.56-3.57-7.4-2.94-17.12-26.45-27.42-28.45-28.19a7.94,7.94,0,0,0-1.82-.29,4.51,4.51,0,0,0-5,4.64c0,50.68,0,87.23-.06,93.55a40.81,40.81,0,0,0,.25,5.22c0.31,2.81.83,7.44,3,11.51,0.24,0.44,5,9.24,14.25,10.37,12.12,1.49,20.21-11.75,21.35-15.8a16.92,16.92,0,0,0-.12-9.7c-3.81-14.82,7.74-28.84,22.66-30.64,14.47-1.75,27.93,9.19,29.64,24.1,2,17.29-15.74,32.68-32.45,27.71A14.22,14.22,0,0,0,194,248C187.26,249.89,183.4,257,181.8,260c-1.86,3.46-2.63,5.2-2.86,7.63-0.86,9.39,10.95,16.1,11.84,16.6A25.73,25.73,0,0,0,198,287a49.16,49.16,0,0,0,21,0,52.34,52.34,0,0,0,10.06-3.48c19.58-8.4,28.71-19.61,28.71-19.61C271.63,248.29,276.84,222.63,268.79,200.61Z" transform="translate(-143.99 -127.3)"/>
    <path class="a" d="M208.35,237.9c7.91,0.09,15.1-7,15.2-14.92A14.93,14.93,0,1,0,208.35,237.9Z" transform="translate(-143.99 -127.3)"/>
  </g>
</svg>
