<svg id="Layer_1" data-name="Layer 1" xmlns="http://www.w3.org/2000/svg" viewBox="0 0 315.57 315.58"><title>B</title><path d="M367.17,260.59c1.05-6,1.24-12.19,2.42-18.23q14.56-74.9,81.34-111.76a146.26,146.26,0,0,1,80.61-18.27c59.21,3.65,103.52,31.79,132.58,83.46,10.8,19.2,16.5,40.13,18,62.14a21.06,21.06,0,0,0,.52,2.66v18.49c-1.05,6-1.24,12.19-2.42,18.23q-14.56,74.9-81.34,111.76a146.24,146.24,0,0,1-80.61,18.27c-59.21-3.65-103.52-31.78-132.58-83.46a140,140,0,0,1-12.55-30.28,150,150,0,0,1-3.59-15.84c-1-5.7-1.19-11.49-2.15-17.18-0.54-3.18-.28-6.53-0.28-9.75q0-5.11,0-10.23c1.05-6,0,6.16,0,0C368.22,254.55,367.17,266.75,367.17,260.59Zm25.91,9.07c-0.15,72.59,59.07,131.94,131.75,132,72.5,0.09,131.66-58.87,131.95-131.51S597.89,138.21,525.18,138c-72.56-.22-131.95,59-132.1,131.67h0Z" transform="translate(-367.1 -112.04)"/><path d="M472.09,197.72c5.24,0,10.48-.14,15.71.06,2.61,0.1,3.52-.47,3.46-3.31-0.14-6.4-.13-12.81-0.1-19.21,0-3.18-.16-6.42,0-9.6a4.49,4.49,0,0,1,1-2.92,4.88,4.88,0,0,1,3.4-1.09c3-.16,6-0.09,9,0,2.43,0.08,4.25.85,4.52,3.52,0.29,2.94.05,6,.06,9q0,4.75,0,9.49,0,5.34-.07,10.68a4.48,4.48,0,0,0,.46,2.76,2.91,2.91,0,0,0,2.56.72,87.24,87.24,0,0,1,11.28,0c1.21,0.1,3.06.36,3.6-1.05a6,6,0,0,0,.16-2.17q0-1.49,0-3c0-7.84-.08-15.69,0-23.53,0-1.54-.15-3.54.75-4.88a4.14,4.14,0,0,1,3.34-1.45,56.59,56.59,0,0,1,10.4.05,3.64,3.64,0,0,1,3.2,1.86,11.29,11.29,0,0,1,.57,4.76c-0.07,3.73-.07,7.46-0.06,11.2,0,4.31,0,8.63-.07,12.94,0,1.31-.39,3.27.42,4.44,0.65,0.93,2,.89,3,0.84,23.53-1.32,41.41,18.22,41.6,41.91a41.11,41.11,0,0,1-6.5,23.39c-1.37,2.07-1,3.06.8,4.69,12.71,11.32,17.1,25.7,13.56,42-3.47,16-13.23,26.79-29.39,31.14A44.25,44.25,0,0,1,558,342c-4.18.09-8.38-.49-12.54,0.34-0.61,4.18-.2,8.39-0.25,12.58,0,3.51,0,7,0,10.52q0,2.68,0,5.36a16,16,0,0,1-.32,4.93c-0.88,2.64-4.32,2.41-6.57,2.45-1.7,0-3.4,0-5.09-.08a15.46,15.46,0,0,1-3.49-.29c-2.2-.58-2.57-2.59-2.58-4.62,0-8.36,0-16.71,0-25.07,0-1.52.4-3.66-.29-5.08a2.51,2.51,0,0,0-2.59-1.14c-4.22.1-8.41,0.16-12.63,0a2.9,2.9,0,0,0-2,.42,2.79,2.79,0,0,0-.62,2.28c0,2.11,0,4.21,0,6.32,0,4.4,0,8.8,0,13.2q0,3.36,0,6.71a16.86,16.86,0,0,1-.29,4.8c-0.49,1.62-1.8,2.21-3.4,2.37a62,62,0,0,1-6.33.07c-2.84,0-7.25.7-7.81-3.08a44.26,44.26,0,0,1-.13-6.28q0-3.36,0-6.71c0-4.34,0-8.69,0-13,0-1.74.44-3.81,0-5.5s-2.32-1.58-3.81-1.56c-9.94.12-19.88,0.05-29.82,0-4.56,0-5.59-1.33-4.71-5.9,0.34-1.79.73-3.58,1-5.38a17.16,17.16,0,0,1,.92-4.47c1.18-2.59,3.83-2.4,6.2-3a15.44,15.44,0,0,0,10.33-8.43,19.12,19.12,0,0,0,1.71-7.68q0.14-6.77.14-13.55,0-27.88,0-55.77c0-8.26-2.59-15.12-10.31-19.21a19.94,19.94,0,0,0-5.81-2.08c-1.68-.29-3.63-0.24-5-1.37a4.66,4.66,0,0,1-1.42-3.61c-0.06-1.65.05-3.32,0-5,0-3-1-7.93,3-8.69a18.2,18.2,0,0,1,3.86-.1c2.11,0,4.22,0,6.33,0h8.32ZM529.77,279v-0.12c-6,0-11.9.08-17.85,0-1.61,0-2.74.44-2.84,2.21s0.05,3.5.07,5.22q0,5.93,0,11.86t0,11.86c0,1.05,0,2.11,0,3.16a5.32,5.32,0,0,0,.15,1.76c0.37,1.08,1.47,1.17,2.47,1.16,8.59-.06,17.18,0,25.76,0,4,0,8.24.36,12.2-.5a18.64,18.64,0,0,0,8.1-4.06,18.05,18.05,0,0,0,6.39-16A19.22,19.22,0,0,0,555,281.35c-3.4-1.95-7.19-2.4-11.05-2.43-4.73,0-9.45.1-14.18,0.1,0,0,2.31,0,2.55,0a17.81,17.81,0,0,0-2.55,0S535.51,279,529.77,279Zm-20.62-35.7c0,4.09.11,8.18,0,12.27,0,1.63-.4,3.4,0,5s2.08,1.35,3.38,1.34c8.12-.06,16.25.09,24.37-0.08a18.49,18.49,0,0,0,.06-37c-8.52-.18-17,0-25.57-0.1-2.06,0-2.33.81-2.3,2.54,0.09,5.34,0,10.68,0,16s0-5.34,0,0C509.14,247.29,509.14,238,509.14,243.31Z" transform="translate(-367.1 -112.04)"/></svg>