<svg id="btlLogo2" data-name="Bitcoin Lightning" xmlns="http://www.w3.org/2000/svg"
     viewBox="0 0 408.2 134.78">
    <g class="blt-logo--round">
        <path class="blt-logo--wh"
              d="M235.18,252.64c0.27-1.54.32-3.11,0.62-4.65q3.72-19.11,20.75-28.51a37.32,37.32,0,0,1,20.57-4.66c15.11,0.93,26.41,8.11,33.83,21.29a37.26,37.26,0,0,1,4.6,15.86,5.37,5.37,0,0,0,.13.68v4.72c-0.27,1.54-.32,3.11-0.62,4.65q-3.71,19.11-20.75,28.51a37.31,37.31,0,0,1-20.57,4.66c-15.11-.93-26.41-8.11-33.83-21.29a35.71,35.71,0,0,1-3.2-7.73,38.27,38.27,0,0,1-.92-4c-0.25-1.45-.3-2.93-0.55-4.38a15.08,15.08,0,0,1-.07-2.49v-2.61c0.27-1.54,0,1.57,0,0C235.45,251.1,235.18,254.21,235.18,252.64Zm6.61,2.31a33.64,33.64,0,1,0,33.71-33.59A33.71,33.71,0,0,0,241.79,255h0Z"
              transform="translate(-235.16 -188.29)"></path>
        <path class="blt-logo--wh"
              d="M261.95,236.6c1.34,0,2.67,0,4,0,0.66,0,.9-0.12.88-0.85,0-1.63,0-3.27,0-4.9,0-.81,0-1.64,0-2.45a1.15,1.15,0,0,1,.24-0.74,1.25,1.25,0,0,1,.87-0.28c0.76,0,1.54,0,2.3,0a1,1,0,0,1,1.15.9c0.07,0.75,0,1.53,0,2.28s0,1.61,0,2.42,0,1.82,0,2.73a1.14,1.14,0,0,0,.12.7,0.74,0.74,0,0,0,.65.18,22.26,22.26,0,0,1,2.88,0,0.81,0.81,0,0,0,.92-0.27,1.53,1.53,0,0,0,0-.55q0-.38,0-0.76c0-2,0-4,0-6a2.33,2.33,0,0,1,.19-1.25,1.06,1.06,0,0,1,.85-0.37,14.44,14.44,0,0,1,2.65,0,0.93,0.93,0,0,1,.82.47,2.88,2.88,0,0,1,.15,1.22c0,1,0,1.9,0,2.86s0,2.2,0,3.3a2,2,0,0,0,.11,1.13,0.83,0.83,0,0,0,.76.21c6-.34,10.56,4.65,10.61,10.69a10.49,10.49,0,0,1-1.66,6,0.75,0.75,0,0,0,.2,1.2,10.57,10.57,0,0,1,3.46,10.73,9.89,9.89,0,0,1-7.5,7.95,11.29,11.29,0,0,1-2.73.26,17.91,17.91,0,0,0-3.2.09,24.47,24.47,0,0,0-.06,3.21c0,0.89,0,1.79,0,2.68q0,0.68,0,1.37a4.07,4.07,0,0,1-.08,1.26c-0.23.67-1.1,0.62-1.68,0.62s-0.87,0-1.3,0a3.94,3.94,0,0,1-.89-0.07,1,1,0,0,1-.66-1.18c0-2.13,0-4.26,0-6.4a3.12,3.12,0,0,0-.07-1.3,0.64,0.64,0,0,0-.66-0.29c-1.08,0-2.15,0-3.22,0a0.74,0.74,0,0,0-.5.11,0.71,0.71,0,0,0-.16.58c0,0.54,0,1.07,0,1.61,0,1.12,0,2.24,0,3.37q0,0.86,0,1.71a4.3,4.3,0,0,1-.07,1.22,0.89,0.89,0,0,1-.87.6,15.83,15.83,0,0,1-1.61,0c-0.72,0-1.85.18-2-.79a11.29,11.29,0,0,1,0-1.6q0-.86,0-1.71c0-1.11,0-2.22,0-3.32a5.39,5.39,0,0,0,0-1.4,0.8,0.8,0,0,0-1-.4c-2.54,0-5.07,0-7.61,0-1.16,0-1.43-.34-1.2-1.51,0.09-.46.19-0.91,0.26-1.37a4.38,4.38,0,0,1,.24-1.14c0.3-.66,1-0.61,1.58-0.77a3.94,3.94,0,0,0,2.64-2.15,4.88,4.88,0,0,0,.44-2q0-1.73,0-3.46,0-7.11,0-14.23a5,5,0,0,0-2.63-4.9,5.09,5.09,0,0,0-1.48-.53,2.63,2.63,0,0,1-1.28-.35,1.19,1.19,0,0,1-.36-0.92c0-.42,0-0.85,0-1.27,0-.76-0.25-2,0.76-2.22a4.64,4.64,0,0,1,1,0c0.54,0,1.08,0,1.62,0h2.12Zm14.72,20.74v0c-1.52,0-3,0-4.56,0a0.58,0.58,0,0,0-.73.56c0,0.44,0,.89,0,1.33q0,1.51,0,3t0,3c0,0.27,0,.54,0,0.81a1.36,1.36,0,0,0,0,.45,0.57,0.57,0,0,0,.63.3c2.19,0,4.38,0,6.57,0a14.8,14.8,0,0,0,3.11-.13,4.76,4.76,0,0,0,2.07-1,4.61,4.61,0,0,0,1.63-4.08,4.9,4.9,0,0,0-2.34-3.61,5.64,5.64,0,0,0-2.82-.62c-1.21,0-2.41,0-3.62,0h0.65a4.54,4.54,0,0,0-.65,0h0Zm-5.26-9.11c0,1,0,2.09,0,3.13a4.72,4.72,0,0,0,0,1.28c0.1,0.4.53,0.34,0.86,0.34,2.07,0,4.15,0,6.22,0a4.72,4.72,0,0,0,0-9.44c-2.17,0-4.35,0-6.52,0-0.53,0-.59.21-0.59,0.65,0,1.36,0,2.72,0,4.09s0-1.36,0,0C271.4,249.25,271.4,246.87,271.4,248.23Z"
              transform="translate(-235.16 -188.29)"></path>
    </g>
    <g class="blt-logo--chars">
        <path class="blt-logo--wh"
              d="M334.7,269.87v-25.2h11.7q4.35,0,6.59,2.23a5.82,5.82,0,0,1,1.73,4.28v0.07a5.92,5.92,0,0,1-3.31,5.44,8.34,8.34,0,0,1,3.53,2.34,5.87,5.87,0,0,1,1.19,3.85V263a5.89,5.89,0,0,1-2.52,5.15,11.88,11.88,0,0,1-6.91,1.76h-12Zm14.51-17.68v-0.07a2.22,2.22,0,0,0-.94-1.93,4.63,4.63,0,0,0-2.7-.67H340.1v5.33h5.11Q349.21,254.86,349.21,252.2Zm1.4,10q0-2.74-4.1-2.74H340.1V265h6.59q3.92,0,3.92-2.74v-0.07Z"
              transform="translate(-235.16 -188.29)"></path>
        <path class="blt-logo--wh"
              d="M360.23,248.45v-4.86H366v4.86h-5.76Zm0.14,21.42v-19.3h5.47v19.3h-5.47Z"
              transform="translate(-235.16 -188.29)"></path>
        <path class="blt-logo--wh"
              d="M377.51,270.2a6,6,0,0,1-4.16-1.31q-1.46-1.31-1.46-4.48v-9.14h-2.3v-4.68h2.3v-4.93h5.47v4.93h4.54v4.68h-4.54v8.24a1.61,1.61,0,0,0,1.76,1.87,5.58,5.58,0,0,0,2.7-.68v4.39A8.28,8.28,0,0,1,377.51,270.2Z"
              transform="translate(-235.16 -188.29)"></path>
        <path class="blt-logo--wh"
              d="M394.5,270.31a9.84,9.84,0,0,1-10-10v-0.07a10.32,10.32,0,0,1,17.82-6.8l-3.35,3.6a6,6,0,0,0-4.39-2.12,4.23,4.23,0,0,0-3.35,1.55,5.5,5.5,0,0,0-1.33,3.71v0.07a5.53,5.53,0,0,0,1.35,3.8,4.5,4.5,0,0,0,3.55,1.53,6.45,6.45,0,0,0,4.43-2.05l3.2,3.24a11.75,11.75,0,0,1-3.38,2.63A10,10,0,0,1,394.5,270.31Z"
              transform="translate(-235.16 -188.29)"></path>
        <path class="blt-logo--wh"
              d="M422.35,267.39a11,11,0,0,1-14.9,0,9.51,9.51,0,0,1-3-7.07v-0.07a9.55,9.55,0,0,1,3-7.13,11,11,0,0,1,14.9,0,9.51,9.51,0,0,1,3,7.07v0.07A9.55,9.55,0,0,1,422.35,267.39Zm-7.4-1.8a4.67,4.67,0,0,0,3.64-1.51,5.38,5.38,0,0,0,1.37-3.74v-0.07a5.4,5.4,0,0,0-1.42-3.76,5.09,5.09,0,0,0-7.29-.05,5.37,5.37,0,0,0-1.37,3.74v0.07a5.4,5.4,0,0,0,1.42,3.76A4.71,4.71,0,0,0,414.95,265.59Z"
              transform="translate(-235.16 -188.29)"></path>
        <path class="blt-logo--wh"
              d="M429.42,248.45v-4.86h5.76v4.86h-5.76Zm0.14,21.42v-19.3H435v19.3h-5.47Z"
              transform="translate(-235.16 -188.29)"></path>
        <path class="blt-logo--wh"
              d="M440.18,269.87v-19.3h5.47v2.74a7,7,0,0,1,5.65-3.1,6.18,6.18,0,0,1,4.82,1.91,7.55,7.55,0,0,1,1.73,5.26v12.49h-5.47V259.11a4.36,4.36,0,0,0-.86-2.92,3.05,3.05,0,0,0-2.45-1,3.22,3.22,0,0,0-2.5,1,4.19,4.19,0,0,0-.92,2.92v10.76h-5.47Z"
              transform="translate(-235.16 -188.29)"></path>
        <path class="blt-logo--wh"
              d="M474,269.87v-25.2h5.54v20.16h12.56v5H474Z"
              transform="translate(-235.16 -188.29)"></path>
        <path class="blt-logo--wh"
              d="M495.8,248.45v-4.86h5.76v4.86H495.8Zm0.14,21.42v-19.3h5.47v19.3h-5.47Z"
              transform="translate(-235.16 -188.29)"></path>
        <path class="blt-logo--wh"
              d="M515.2,275.71a18,18,0,0,1-8.53-2l1.87-4.1a13.1,13.1,0,0,0,6.52,1.76q5.51,0,5.51-5.26v-0.94a9.19,9.19,0,0,1-2.75,2.36,7.48,7.48,0,0,1-3.55.77,8.39,8.39,0,0,1-6.07-2.43,8.73,8.73,0,0,1-2.5-6.57v-0.07a8.7,8.7,0,0,1,2.52-6.57,8.4,8.4,0,0,1,6-2.43,8.16,8.16,0,0,1,6.23,2.88v-2.52H526v14.94q0,5.15-2.45,7.6T515.2,275.71Zm-2.7-13.19a5.13,5.13,0,0,0,6.71,0,4.19,4.19,0,0,0,1.35-3.2v-0.07a4.19,4.19,0,0,0-1.35-3.2,4.74,4.74,0,0,0-3.37-1.26A4.68,4.68,0,0,0,512.5,256a4.22,4.22,0,0,0-1.33,3.2v0.07A4.21,4.21,0,0,0,512.5,262.51Z"
              transform="translate(-235.16 -188.29)"></path>
        <path class="blt-logo--wh"
              d="M530.86,269.87V243.59h5.47v9.72a7,7,0,0,1,5.65-3.1,6.18,6.18,0,0,1,4.82,1.91,7.55,7.55,0,0,1,1.73,5.26v12.49h-5.47V259.11a4.36,4.36,0,0,0-.86-2.92,3.05,3.05,0,0,0-2.45-1,3.22,3.22,0,0,0-2.5,1,4.19,4.19,0,0,0-.92,2.92v10.76h-5.47Z"
              transform="translate(-235.16 -188.29)"></path>
        <path class="blt-logo--wh"
              d="M559.81,270.2a6,6,0,0,1-4.16-1.31q-1.46-1.31-1.46-4.48v-9.14h-2.3v-4.68h2.3v-4.93h5.47v4.93h4.54v4.68h-4.54v8.24a1.61,1.61,0,0,0,1.76,1.87,5.58,5.58,0,0,0,2.7-.68v4.39A8.27,8.27,0,0,1,559.81,270.2Z"
              transform="translate(-235.16 -188.29)"></path>
        <path class="blt-logo--wh"
              d="M568.23,269.87v-19.3h5.47v2.74a7,7,0,0,1,5.65-3.1,6.18,6.18,0,0,1,4.82,1.91,7.55,7.55,0,0,1,1.73,5.26v12.49h-5.47V259.11a4.36,4.36,0,0,0-.86-2.92,3.05,3.05,0,0,0-2.45-1,3.22,3.22,0,0,0-2.5,1,4.19,4.19,0,0,0-.92,2.92v10.76h-5.47Z"
              transform="translate(-235.16 -188.29)"></path>
        <path class="blt-logo--wh"
              d="M590.77,248.45v-4.86h5.76v4.86h-5.76Zm0.14,21.42v-19.3h5.47v19.3h-5.47Z"
              transform="translate(-235.16 -188.29)"></path>
        <path class="blt-logo--wh"
              d="M601.53,269.87v-19.3H607v2.74a7,7,0,0,1,5.65-3.1,6.18,6.18,0,0,1,4.82,1.91,7.55,7.55,0,0,1,1.73,5.26v12.49h-5.47V259.11a4.36,4.36,0,0,0-.86-2.92,3.05,3.05,0,0,0-2.45-1,3.22,3.22,0,0,0-2.5,1,4.19,4.19,0,0,0-.92,2.92v10.76h-5.47Z"
              transform="translate(-235.16 -188.29)"></path>
        <path class="blt-logo--wh"
              d="M632.6,275.71a18,18,0,0,1-8.53-2l1.87-4.1a13.1,13.1,0,0,0,6.52,1.76q5.51,0,5.51-5.26v-0.94a9.19,9.19,0,0,1-2.75,2.36,7.48,7.48,0,0,1-3.55.77,8.39,8.39,0,0,1-6.07-2.43,8.73,8.73,0,0,1-2.5-6.57v-0.07a8.7,8.7,0,0,1,2.52-6.57,8.4,8.4,0,0,1,6-2.43,8.16,8.16,0,0,1,6.23,2.88v-2.52h5.47v14.94q0,5.15-2.45,7.6T632.6,275.71Zm-2.7-13.19a5.13,5.13,0,0,0,6.71,0,4.19,4.19,0,0,0,1.35-3.2v-0.07a4.19,4.19,0,0,0-1.35-3.2,4.74,4.74,0,0,0-3.37-1.26A4.68,4.68,0,0,0,629.9,256a4.22,4.22,0,0,0-1.33,3.2v0.07A4.21,4.21,0,0,0,629.9,262.51Z"
              transform="translate(-235.16 -188.29)"></path>
    </g>
</svg>