<?xml version="1.0" encoding="UTF-8"?>
<svg width="115px" height="167px" viewBox="0 0 115 167" version="1.1" xmlns="http://www.w3.org/2000/svg" xmlns:xlink="http://www.w3.org/1999/xlink">
    <!-- Generator: Sketch 48.2 (47327) - http://www.bohemiancoding.com/sketch -->
    <title>logo-b</title>
    <desc>Created with Sketch.</desc>
    <defs></defs>
    <g id="Symbols" stroke="none" stroke-width="1" fill="none" fill-rule="evenodd">
        <g id="logo-b" fill="#FFFFFF" fill-rule="nonzero">
            <g id="Shape">
                <path d="M16.85,28.8 C20.87,28.8 24.86,28.8 28.85,28.8 C30.83,28.8 31.55,28.44 31.49,26.25 C31.49,21.36 31.49,16.44 31.49,11.55 C31.49,9.12 31.49,6.63 31.49,4.2 C31.4648168,3.3988278 31.7193917,2.61388846 32.21,1.98 C32.9427781,1.38058203 33.8751582,1.08050568 34.82,1.14 C37.1,1.14 39.44,1.14 41.72,1.14 C42.5402794,1.01224765 43.3768253,1.23011078 44.0305868,1.7417502 C44.6843483,2.25338961 45.0968718,3.01305911 45.17,3.84 C45.38,6.09 45.17,8.43 45.17,10.68 C45.17,12.93 45.17,15.51 45.17,17.94 C45.17,20.37 45.17,23.4 45.17,26.13 C45.0633288,26.8504755 45.1894514,27.5861908 45.53,28.23 C46.0554168,28.7129726 46.7809878,28.9139 47.48,28.77 C50.3569806,28.5834974 53.2430194,28.5834974 56.12,28.77 C57.1181613,29.1319752 58.2357615,28.8039839 58.88,27.96 C58.9796678,27.4145153 58.9796678,26.8554847 58.88,26.31 C58.88,25.55 58.88,24.79 58.88,24.03 C58.88,18.03 58.88,12.03 58.88,6.03 C58.720734,4.7513562 58.9179974,3.45357098 59.45,2.28 C60.0845744,1.53822054 61.0246846,1.12899607 62,1.17 C64.6443983,0.926324639 67.3056017,0.926324639 69.95,1.17 C70.9655103,1.15723584 71.9077451,1.6972973 72.41,2.58 C72.8216343,3.75340176 72.9751299,5.00183215 72.86,6.24 C72.86,9.24 72.86,11.94 72.86,14.82 C72.86,17.7 72.86,21.42 72.86,24.72 C72.6402227,25.8581528 72.7548417,27.035602 73.19,28.11 C73.7953714,28.690629 74.6523992,28.9274393 75.47,28.74 C93.47,27.72 107.15,42.69 107.3,60.81 C107.499641,67.1756913 105.763155,73.4521488 102.32,78.81 C101.811157,79.3235749 101.580094,80.0503785 101.698949,80.7635084 C101.817804,81.4766384 102.272097,82.0892162 102.92,82.41 C112.291197,90.2451268 116.3288,102.766365 113.3,114.6 C111.272893,126.348466 102.410566,135.742533 90.8,138.45 C88.1118364,139.041826 85.3615525,139.303758 82.61,139.23 C79.4083559,139.033259 76.1955251,139.12362 73.01,139.5 C72.7392553,142.702599 72.6791259,145.919521 72.83,149.13 C72.83,151.8 72.83,154.5 72.83,157.17 C72.83,158.53 72.83,159.9 72.83,161.28 C72.9471063,162.544813 72.8661323,163.820154 72.59,165.06 C71.9,167.07 69.29,166.92 67.55,166.92 C65.81,166.92 64.94,166.92 63.65,166.92 C62.7549182,166.951382 61.8591696,166.88093 60.98,166.71 C59.5014392,166.222515 58.6414771,164.685007 59,163.17 C59,156.78 59,150.39 59,143.97 C59.205022,142.669696 59.1334644,141.34077 58.79,140.07 C58.371628,139.400514 57.5860961,139.055356 56.81,139.2 C53.57,139.2 50.36,139.2 47.15,139.2 C46.6266625,139.128029 46.0948119,139.245036 45.65,139.53 C45.2400113,140.010187 45.0641941,140.647524 45.17,141.27 C45.17,142.89 45.17,144.48 45.17,146.1 C45.17,149.46 45.17,152.82 45.17,156.21 C45.17,157.93 45.17,159.64 45.17,161.34 C45.2745953,162.563776 45.2038814,163.796218 44.96,165 C44.5789621,166.10751 43.5206276,166.837395 42.35,166.8 C40.7410422,166.881926 39.1289578,166.881926 37.52,166.8 C35.36,166.8 31.97,167.34 31.52,164.43 C31.4064827,162.832013 31.4064827,161.227987 31.52,159.63 C31.52,157.91 31.52,156.2 31.52,154.5 C31.52,151.17 31.52,147.84 31.52,144.54 C31.7025914,143.145954 31.7025914,141.734046 31.52,140.34 C30.9793285,139.225951 29.6798303,138.706152 28.52,139.14 C20.9,139.14 13.31,139.14 5.69,139.14 C2.21,139.14 1.4,138.12 2.09,134.61 C2.36,133.23 2.66,131.88 2.87,130.5 C2.9566448,129.333026 3.19878613,128.182854 3.59,127.08 C4.49,125.1 6.59,125.25 8.33,124.77 C11.8106392,123.930509 14.7231575,121.558572 16.25,118.32 C17.1094077,116.435869 17.5593122,114.390849 17.57,112.32 C17.57,108.86 17.57,105.4 17.57,101.94 C17.57,87.72 17.57,73.49 17.57,59.25 C18.1589207,53.2044658 15.0437473,47.4005307 9.68,44.55 C8.2912687,43.7932713 6.79340848,43.2568754 5.24,42.96 C3.8912922,42.9439793 2.56920931,42.5824723 1.4,41.91 C0.657078177,41.1899568 0.263063787,40.1830311 0.32,39.15 C0.32,37.89 0.32,36.6 0.32,35.34 C0.32,33.06 -0.43,29.34 2.6,28.68 C3.59708004,28.5719267 4.60291996,28.5719267 5.6,28.68 C7.22,28.68 8.84,28.68 10.46,28.68 L16.82,28.68 L16.85,28.8 Z M61.01,91.02 C56.45,91.02 52.01,91.02 47.33,91.02 C46.8076525,90.8801523 46.2499754,90.9911035 45.8209319,91.3202327 C45.3918885,91.6493619 45.1402497,92.1592558 45.14,92.7 C45.14,94.02 45.14,95.37 45.14,96.69 C45.14,99.71 45.14,102.71 45.14,105.69 C45.14,108.67 45.14,111.67 45.14,114.69 C45.14,115.5 45.14,116.31 45.14,117.12 C45.0650349,117.566878 45.0650349,118.023122 45.14,118.47 C45.4913199,119.165619 46.2685213,119.535715 47.03,119.37 C53.6,119.37 60.17,119.37 66.74,119.37 C69.8550629,119.568316 72.9823546,119.437593 76.07,118.98 C78.3540169,118.502391 80.4861971,117.472352 82.28,115.98 C85.8744239,112.989044 87.7140567,108.384319 87.17,103.74 C86.6245795,99.2408659 84.0343563,95.2448377 80.15,92.91 C77.539161,91.5664369 74.6236197,90.9254314 71.69,91.05 C68.06,91.05 64.46,91.05 60.83,91.05 L62.78,91.05 C62.1308349,91.0034094 61.4791651,91.0034094 60.83,91.05 L61.01,91.02 Z M45.23,63.69 C45.23,66.69 45.23,69.96 45.23,73.08 C45.0556355,74.3540619 45.0556355,75.6459381 45.23,76.92 C45.53,78.12 46.82,77.94 47.81,77.94 C54.02,77.94 60.26,77.94 66.47,77.94 C74.2903521,77.94 80.63,71.6003521 80.63,63.78 C80.63,55.9596479 74.2903521,49.62 66.47,49.62 C59.96,49.62 53.42,49.62 46.91,49.62 C45.32,49.62 45.14,50.25 45.14,51.57 C45.14,55.65 45.14,59.73 45.14,63.84 C45.14,67.95 45.14,59.76 45.14,63.84 C45.2,66.75 45.2,59.61 45.2,63.69 L45.23,63.69 Z"></path>
            </g>
        </g>
    </g>
</svg>