<?xml version="1.0" encoding="UTF-8"?>
<svg width="1476px" height="1476px" viewBox="0 0 1476 1476" version="1.1" xmlns="http://www.w3.org/2000/svg" xmlns:xlink="http://www.w3.org/1999/xlink">
    <!-- Generator: Sketch 48.2 (47327) - http://www.bohemiancoding.com/sketch -->
    <title>tw</title>
    <desc>Created with Sketch.</desc>
    <defs></defs>
    <g id="Symbols" stroke="none" stroke-width="1" fill="none" fill-rule="evenodd">
        <g id="tw" fill="#000000">
            <g>
                <path d="M738,1476 C330.413855,1476 0,1145.58615 0,738 C0,330.413855 330.413855,0 738,0 C1145.58615,0 1476,330.413855 1476,738 C1476,1145.58615 1145.58615,1476 738,1476 Z M738,1378 C1091.46224,1378 1378,1091.46224 1378,738 C1378,384.53776 1091.46224,98 738,98 C384.53776,98 98,384.53776 98,738 C98,1091.46224 384.53776,1378 738,1378 Z" id="Combined-Shape"></path>
                <g id="twitter-(1)" transform="translate(311.000000, 411.000000)" fill-rule="nonzero">
                    <g id="twitter-outline">
                        <path d="M858.533403,6.99625848 C846.383458,-1.27360443 830.375063,-1.14065939 818.36493,7.33032549 C792.191229,25.7858233 763.848748,40.6143079 733.869451,51.5567069 C701.042777,21.8758758 659.505177,4.12941812 614.663255,1.01032308 C561.712277,-2.67123171 510.519171,14.4752689 470.485394,49.2898236 C426.854034,87.2285867 401.98808,142.085458 402.206323,199.873937 C256.857116,186.904978 164.970392,94.9666695 100.265034,14.1156355 C92.4253701,4.32201798 79.9736381,-0.574790787 67.5594163,1.26769104 C55.1486047,3.10505959 44.6474109,11.3987844 39.9876021,23.0451103 C38.3712469,27.0828896 0.531826188,123.263509 10.2299574,239.604049 C18.3475387,336.982878 61.7725919,464.526594 214.898377,549.326777 C159.594477,574.477251 98.476472,586.720125 37.6568452,584.299844 C21.3296117,583.655572 6.71080428,594.286061 2.30163283,610.00255 C-2.10924364,625.719039 4.85404182,642.408755 19.128436,650.337733 C106.696354,698.968345 203.321318,724.8824 298.561808,725.272713 C299.298375,725.276122 300.029827,725.277826 300.768099,725.277826 C393.017991,725.276122 482.145999,701.521571 558.644953,656.528199 C631.786731,613.506845 692.34549,551.264707 733.775675,476.535962 C778.382304,396.076946 800.999342,303.110869 800.999342,200.10233 C800.980587,194.061853 800.682209,188.004332 800.112733,181.970672 C835.406565,142.96494 860.449841,95.7830883 872.949313,44.4799405 C876.430956,30.2002802 870.685052,15.264417 858.533403,6.99625848 Z M727.277473,152.674836 C719.196338,160.639777 715.62591,172.109817 717.754688,183.251202 C719.196338,190.790535 719.939355,198.497482 719.964013,206.049961 C719.964013,373.591421 647.013529,512.592529 519.81621,587.407426 C420.222311,645.988436 301.124209,659.601303 185.114889,628.582897 C186.313251,628.252599 187.513257,627.914085 188.706687,627.572285 C234.070191,614.615083 276.866011,594.616461 315.902362,568.128556 C326.306247,561.069059 331.962712,548.8464 330.608185,536.347672 C329.252014,523.850587 321.110058,513.121663 309.433838,508.453126 C177.346085,455.635072 104.698067,365.518024 93.5100688,240.598115 C89.3412819,194.037641 94.6722662,150.676617 101.344627,118.172693 C128.694894,147.602055 162.79807,179.346787 203.474976,205.934932 C273.783805,251.890682 352.510755,275.192282 437.469516,275.192282 C456.24714,275.192282 471.467486,259.975581 471.467486,241.206126 L471.467486,206.051604 C471.467486,205.977657 471.467486,205.902066 471.467486,205.826476 C471.227485,169.759937 486.702628,135.499355 513.926319,111.828019 C538.823972,90.1779083 570.655356,79.5130717 603.586472,81.8054364 C636.506081,84.0945146 666.563759,99.063081 688.22304,123.952082 C696.99952,134.038486 710.880134,138.046427 723.675812,134.188024 C733.086815,131.355023 742.374531,128.198297 751.524164,124.727706 C744.212348,134.616918 736.113131,143.963851 727.277473,152.674836 Z" id="Shape"></path>
                    </g>
                </g>
            </g>
        </g>
    </g>
</svg>