<?xml version="1.0" standalone="no"?>
<!DOCTYPE svg PUBLIC "-//W3C//DTD SVG 1.1//EN" "http://www.w3.org/Graphics/SVG/1.1/DTD/svg11.dtd" >
<svg xmlns="http://www.w3.org/2000/svg" xmlns:xlink="http://www.w3.org/1999/xlink" version="1.1">
<metadata>
Created by FontForge 20170910 at Wed Sep 27 22:19:01 2006
 By Jimmy Wärting
Copyright (c) 2006 by C.Dickinson. All rights reserved.
</metadata>
<defs>
<font id="Depot-Regular" horiz-adv-x="550" >
  <font-face 
    font-family="Depot Regular"
    font-weight="400"
    font-stretch="normal"
    units-per-em="1000"
    panose-1="2 0 5 3 4 0 0 2 0 4"
    ascent="770"
    descent="-230"
    x-height="509"
    cap-height="685"
    bbox="-93 -210 1208 952"
    underline-thickness="20"
    underline-position="-133"
    unicode-range="U+0020-FB04"
  />
<missing-glyph horiz-adv-x="500" 
d="M0 770h500v-770h-500v770zM60 60h380v650h-380v-650z" />
    <glyph glyph-name="fi" unicode="fi" horiz-adv-x="595" 
d="M422 0v436h-223v-436h-90v436h-95v73h95v80q0 35 11.5 64.5t33 51t52 33.5t68.5 12q29 0 51 -4.5t49 -14.5l-22 -75q-20 7 -39 11t-37 4q-77 0 -77 -90v-72h313v-509h-90zM526 660q0 -24 -17.5 -41t-41.5 -17q-26 0 -43 17t-17 41q0 23 17 40.5t42 17.5t42.5 -17.5
t17.5 -40.5z" />
    <glyph glyph-name="fl" unicode="fl" horiz-adv-x="609" 
d="M562 -11q-45 0 -74.5 13t-47 34.5t-25 48.5t-7.5 54v526q-26 3 -52 5t-40 2q-69 0 -93 -23t-24 -68v-72h123l-6 -73h-117v-436h-90v436h-95v73h95v80q0 35 12 64.5t37 51t63.5 33.5t92.5 12q16 0 41 -2.5t52 -5.5t51.5 -7t39.5 -7v-581q0 -15 3 -29.5t11 -26t22.5 -18
t38.5 -6.5z" />
    <glyph glyph-name="f_h" unicode="fh" horiz-adv-x="892" 
d="M732 0v303q0 69 -22.5 103.5t-75.5 34.5q-22 0 -42 -7t-37.5 -17.5t-32 -23.5t-24.5 -24v-369h-90v665q-28 3 -52.5 5.5t-39.5 2.5q-69 0 -93 -23.5t-24 -68.5v-72h123l-6 -73h-117v-436h-90v436h-95v73h95v80q0 35 12 64.5t37 51t63.5 33.5t92.5 12q16 0 41 -2
t51.5 -5.5t51.5 -7.5t40 -7v-280h2q11 12 26 24.5t34 23t41 17.5t46 7q36 0 68 -12.5t56 -38.5t37.5 -65t13.5 -91v-313h-90z" />
    <glyph glyph-name="f_b" unicode="fb" horiz-adv-x="895" 
d="M849 259q0 -58 -14 -107.5t-42 -85.5t-70 -56.5t-98 -20.5q-36 0 -71.5 17t-59.5 46h-2q0 -8 -2 -24.5t-6 -27.5h-76v665q-27 4 -52.5 5.5t-39.5 1.5q-69 0 -93 -23t-24 -68v-72h123l-6 -73h-117v-436h-90v436h-95v73h95v80q0 35 12 64.5t37 51t63.5 33.5t92.5 12
q16 0 41 -2t51.5 -5.5t51.5 -7.5t40 -7v-268h2q26 28 59 44t69 16q104 0 162.5 -67t58.5 -194zM756 259q0 95 -35 138.5t-98 43.5q-35 0 -69.5 -17.5t-55.5 -46.5v-251q21 -26 51 -42t73 -16q68 0 101 50.5t33 140.5z" />
    <glyph glyph-name="f_f" unicode="ff" horiz-adv-x="676" 
d="M690 656q-20 7 -39 11t-37 4q-77 0 -77 -90v-72h123l-6 -73h-117v-436h-90v436h-248v-436h-90v436h-95v73h95v80q0 35 11.5 64.5t33 51t52 33.5t68.5 12q26 0 49.5 -4.5t50.5 -14.5l-22 -75q-20 7 -39 11t-37 4q-77 0 -77 -90v-72h248v80q0 35 11.5 64.5t33 51t52 33.5
t68.5 12q26 0 49.5 -4.5t50.5 -14.5z" />
    <glyph glyph-name="f_f_i" unicode="ffi" horiz-adv-x="935" 
d="M865 660q0 -25 -17.5 -41.5t-41.5 -16.5q-26 0 -43 16.5t-17 41.5q0 23 17 40.5t42 17.5t42.5 -17.5t17.5 -40.5zM760 0v436h-223v-436h-90v436h-248v-436h-90v436h-95v73h95v80q0 35 11.5 64.5t33 51t52 33.5t68.5 12q26 0 49.5 -4.5t50.5 -14.5l-22 -75q-20 7 -39 11
t-37 4q-77 0 -77 -90v-72h248v80q0 35 11.5 64.5t33 51t52 33.5t68.5 12q26 0 49.5 -4.5t50.5 -14.5l-22 -75q-20 7 -39 11t-37 4q-77 0 -77 -90v-72h313v-509h-90z" />
    <glyph glyph-name="f_f_l" unicode="ffl" horiz-adv-x="947" 
d="M900 -11q-45 0 -74.5 13t-47 34.5t-25 48.5t-7.5 54v524q-26 4 -52 6t-40 2q-69 0 -93 -22.5t-24 -67.5v-72h123l-6 -73h-117v-436h-90v436h-248v-436h-90v436h-95v73h95v80q0 35 11.5 64.5t33 51t52 33.5t68.5 12q26 0 49.5 -4.5t50.5 -14.5l-22 -75q-20 7 -39 11t-37 4
q-77 0 -77 -90v-72h248v80q0 35 12 64.5t37 51t63.5 33.5t92.5 12q16 0 41 -2.5t52 -5.5t51.5 -7t39.5 -7v-581q0 -15 3 -29.5t11 -26t22.5 -18t38.5 -6.5z" />
    <glyph glyph-name="f_k" unicode="fk" horiz-adv-x="844" 
d="M739 0l-120 224q-11 20 -21.5 27t-18.5 7t-14 -3t-14 -11l-52 -56v-188h-90v665q-27 4 -53 5.5t-40 1.5q-69 0 -93 -23t-24 -68v-72h123l-6 -73h-117v-436h-90v436h-95v73h95v80q0 35 12 64.5t37 51t63.5 33.5t92.5 12q16 0 41 -2t52 -5.5t52 -7.5t40 -7v-427l184 208
h114l-178 -190v-2h8q23 0 38.5 -14t27.5 -37l143 -266h-97z" />
    <glyph glyph-name="f_t" unicode="ft" horiz-adv-x="703" 
d="M682 6q-20 -8 -41 -12.5t-50 -4.5q-71 0 -113.5 38t-42.5 118v291h-236v-436h-90v436h-95v73h95v80q0 35 11.5 64.5t33 51t52 33.5t68.5 12q26 0 49.5 -4.5t50.5 -14.5l-22 -75q-20 7 -39 11t-37 4q-77 0 -77 -90v-72h239l8 164l79 12v-176h140l-11 -73h-129v-280
q0 -50 19 -69t58 -19q17 0 31 2.5t31 7.5l18 -72v0z" />
    <glyph glyph-name="f_j" unicode="fj" horiz-adv-x="583" 
d="M513 -53q0 -71 -42 -113t-111 -42q-29 0 -54.5 6t-45.5 14l19 75q20 -7 39.5 -11.5t33.5 -4.5q31 0 51 20.5t20 69.5v475h-224v-436h-90v436h-95v73h95v80q0 35 11.5 64.5t33 51t52 33.5t68.5 12q26 0 49.5 -4.5t50.5 -14.5l-22 -75q-20 7 -39 11t-37 4q-77 0 -77 -90
v-72h314v-562zM528 660q0 -25 -17.5 -41.5t-41.5 -16.5q-25 0 -42.5 16.5t-17.5 41.5q0 23 17.5 40.5t41.5 17.5q25 0 42.5 -17.5t17.5 -40.5z" />
    <glyph glyph-name="f_y" unicode="fy" horiz-adv-x="820" 
d="M602 -61q-9 -23 -21.5 -49t-32.5 -48t-48 -36t-68 -14q-23 0 -45 4t-38 10l12 75q13 -5 31.5 -8t32.5 -3q22 0 37.5 8t26.5 21.5t19 30.5t14 34l21 56l-165 416h-179v-436h-90v436h-95v73h95v80q0 35 11.5 64.5t33 51t52 33.5t68.5 12q26 0 49.5 -4.5t50.5 -14.5l-22 -75
q-20 7 -39 11t-37 4q-77 0 -77 -90v-72h240l89 -237q3 -8 10 -27q6 -17 17.5 -46t29.5 -77h3q16 48 26 77t15 46q6 19 9 27l81 237h90z" />
    <glyph glyph-name=".notdef" horiz-adv-x="500" 
d="M0 770h500v-770h-500v770zM60 60h380v650h-380v-650z" />
    <glyph glyph-name=".null" horiz-adv-x="0" 
 />
    <glyph glyph-name="nonmarkingreturn" horiz-adv-x="260" 
 />
    <glyph glyph-name="space" unicode=" " horiz-adv-x="260" 
 />
    <glyph glyph-name="dollar" unicode="$" horiz-adv-x="600" 
d="M323 614q-60 0 -89 -28t-29 -75q0 -24 7.5 -42.5t20 -32t30 -23.5t37.5 -18l38 219h-15zM300 70q60 -1 93.5 31t33.5 84q0 20 -8 36t-21 28.5t-30 22.5t-35 18l-39 -220h6zM523 183q0 -44 -18 -79.5t-48.5 -61t-71 -39.5t-85.5 -14q-5 0 -10 0.5t-10 0.5l-13 -75l-50 9
l12 73q-50 11 -88 31t-64 38l38 71q32 -21 62.5 -37t65.5 -24l41 233q-11 5 -20.5 8t-17.5 7q-59 25 -98 71t-39 117q0 43 16.5 77t45.5 58t68 36.5t84 12.5q8 0 15 -0.5t14 -1.5l14 78l50 -9l-14 -78q32 -8 59.5 -20.5t49.5 -26.5l-34 -69q-23 11 -44.5 20.5t-44.5 15.5
l-40 -228q31 -12 62.5 -25.5t56.5 -35t40.5 -53.5t15.5 -80z" />
    <glyph glyph-name="percent" unicode="%" horiz-adv-x="868" 
d="M659 -11q-40 0 -71 14t-52 39t-31.5 58.5t-10.5 71.5q0 81 42.5 131.5t121.5 50.5q81 0 124 -50.5t43 -131.5q0 -38 -11 -71.5t-32 -58.5t-52 -39t-71 -14zM208 352q-41 0 -71.5 14t-51.5 39t-31.5 58t-10.5 72q0 40 11 73.5t32 57.5t51.5 37.5t69.5 13.5q40 0 71 -13.5
t52.5 -37.5t32.5 -57.5t11 -73.5q0 -39 -11 -72t-32 -58t-52 -39t-71 -14zM259 0l280 706h67l-280 -706h-67zM299 535q0 55 -22.5 87t-67.5 32q-48 0 -70 -31t-22 -88t22.5 -90t67.5 -33q46 0 69 33t23 90zM659 292q-47 0 -69 -31.5t-22 -88.5t22.5 -89.5t67.5 -32.5
q46 0 69 32.5t23 89.5t-22.5 88.5t-68.5 31.5z" />
    <glyph glyph-name="ampersand" unicode="&#x26;" horiz-adv-x="701" 
d="M658 320q-17 -54 -39.5 -103.5t-52.5 -91.5q26 -23 48.5 -42.5t41.5 -35.5l-53 -56q-19 17 -41 35.5t-46 41.5q-41 -37 -93 -58t-119 -21q-54 0 -100 13.5t-79 40t-52 66t-19 92.5q0 41 13 72.5t34.5 56.5t50 44.5t59.5 36.5q-27 46 -43 89.5t-16 84.5q0 38 14 69
t38.5 52.5t57 33.5t68.5 12t67.5 -11t54.5 -31.5t36.5 -49.5t13.5 -66q0 -39 -16.5 -68.5t-42.5 -53.5t-60 -44t-68 -39q40 -56 91 -110.5t103 -102.5q25 36 43 79.5t33 89.5zM459 121q-54 52 -109 111t-100 120q-45 -27 -75.5 -60t-30.5 -80q0 -69 45 -107t115 -38
q49 0 87 14t68 40zM278 445q28 14 54 29t46 32t31.5 38t11.5 47q0 42 -25 64t-64 22q-19 0 -37 -6.5t-31.5 -18.5t-21.5 -29t-8 -38q0 -33 12 -68.5t32 -71.5z" />
    <glyph glyph-name="quotesingle" unicode="'" horiz-adv-x="267" 
d="M164 449h-70v237h70v-237z" />
    <glyph glyph-name="parenleft" unicode="(" horiz-adv-x="360" 
d="M207 -114q-11 18 -32 56.5t-42 95t-36.5 130t-15.5 161.5t15.5 161t36.5 129.5t42 95.5t32 57h87q-14 -21 -35.5 -63t-42 -100t-35.5 -129.5t-15 -150.5q0 -80 15 -151.5t35.5 -129.5t42 -99.5t35.5 -62.5h-87z" />
    <glyph glyph-name="parenright" unicode=")" horiz-adv-x="360" 
d="M279 329q0 -88 -16 -161.5t-37 -130t-42 -95t-31 -56.5h-87q13 21 35 62.5t42.5 99.5t35.5 129.5t15 151.5q0 79 -15 150.5t-35.5 129.5t-42.5 100t-35 63h87q10 -18 31 -57t42 -95.5t37 -129.5t16 -161z" />
    <glyph glyph-name="asterisk" unicode="*" horiz-adv-x="458" 
d="M403 437q-10 -19 -30 -19q-8 0 -13 4l-109 77l12 -133q0 -14 -10.5 -22t-23.5 -8q-14 0 -24.5 8t-10.5 22l12 133l-109 -77q-5 -4 -13 -4q-14 0 -24.5 11.5t-10.5 27.5t13 25l122 56l-122 56q-7 4 -10 10.5t-3 13.5q0 16 10.5 27.5t24.5 11.5q7 0 13 -3l109 -77l-12 133
q0 14 10.5 22t24.5 8q13 0 23.5 -8t10.5 -22l-12 -133l109 77q6 3 13 3q15 0 25.5 -12.5t10.5 -26.5q0 -16 -14 -24l-121 -56l121 -56q14 -8 14 -25q0 -11 -6 -20z" />
    <glyph glyph-name="plus" unicode="+" horiz-adv-x="565" 
d="M322 213v-188h-80v188h-188v80h188v189h80v-189h189v-80h-189z" />
    <glyph glyph-name="comma" unicode="," horiz-adv-x="237" 
d="M179 36q0 -27 -11 -55.5t-26 -53t-30 -43t-22 -25.5l-39 19q5 6 13.5 20.5t17 31t14.5 33t6 27.5q-24 4 -39 22.5t-15 41.5q0 27 18.5 46.5t45.5 19.5q28 0 47.5 -22t19.5 -62z" />
    <glyph glyph-name="hyphen" unicode="-" horiz-adv-x="408" 
d="M73 235v73h262v-73h-262z" />
    <glyph glyph-name="period" unicode="." horiz-adv-x="244" 
d="M186 56q0 -27 -18.5 -47t-45.5 -20t-45.5 19.5t-18.5 45.5q0 27 18.5 47t45.5 20t45.5 -19.5t18.5 -45.5z" />
    <glyph glyph-name="slash" unicode="/" horiz-adv-x="371" 
d="M117 -121h-75l212 859h75z" />
    <glyph glyph-name="zero" unicode="0" horiz-adv-x="600" 
d="M558 344q0 -75 -15.5 -140t-48 -112.5t-81 -75t-114.5 -27.5t-114.5 27.5t-80 75t-47 112.5t-15.5 140q0 78 15.5 142.5t47 111t80 72.5t114.5 26t114.5 -26t81 -72.5t48 -111t15.5 -142.5zM462 344q0 60 -9.5 109.5t-29.5 85.5t-51 56t-73 20t-72.5 -20t-50 -56
t-29 -85.5t-9.5 -109.5t9.5 -110.5t29 -86.5t50 -56.5t72.5 -20.5t73 20.5t51 56.5t29.5 86.5t9.5 110.5z" />
    <glyph glyph-name="one" unicode="1" 
d="M88 0v81h162v518l-152 -50l-25 74l199 62h71v-604h134v-81h-389z" />
    <glyph glyph-name="two" unicode="2" horiz-adv-x="600" 
d="M76 0l-10 61q0 55 24 98.5t60.5 79.5t79 67t79 61.5t60.5 63.5t24 73q0 48 -28 79.5t-88 31.5q-52 0 -86.5 -26t-55.5 -65l-67 43q19 36 43 60.5t51 39.5t56.5 22t58.5 7q48 0 87 -14t66 -39.5t42 -60.5t15 -78q0 -47 -24 -86.5t-60 -74t-78.5 -66t-78.5 -63t-60 -64
t-24 -69.5h333v-81h-419z" />
    <glyph glyph-name="three" unicode="3" horiz-adv-x="600" 
d="M488 196q0 -42 -15 -80t-45 -66t-73.5 -44.5t-100.5 -16.5q-60 0 -108 18t-83 41l37 69q37 -22 76.5 -34.5t77.5 -12.5q67 0 102.5 37t35.5 92q0 28 -10 51t-27.5 39t-40.5 24.5t-48 8.5h-46v76h41q23 0 43.5 9t36.5 24t25 35.5t9 44.5q0 44 -29.5 74t-89.5 30
q-28 0 -57.5 -8.5t-69.5 -33.5l-40 65q44 29 86.5 43.5t80.5 14.5q54 0 94 -14.5t67 -39.5t40.5 -58t13.5 -70q0 -52 -29 -89t-76 -59v-2q54 -22 88 -63.5t34 -104.5z" />
    <glyph glyph-name="four" unicode="4" horiz-adv-x="600" 
d="M534 147h-119v-147l-89 -11v158h-270v34q0 25 2.5 49.5t10.5 55.5l99 399h86l-108 -419q-5 -17 -6 -26t-1 -13h187l6 268l83 14v-282h129z" />
    <glyph glyph-name="five" unicode="5" horiz-adv-x="600" 
d="M509 225q0 -47 -17.5 -89.5t-50 -75t-78 -52t-102.5 -19.5q-58 0 -108.5 20.5t-92.5 51.5l40 67q78 -57 161 -57q33 0 61 11.5t48 32t31.5 48.5t11.5 60q0 68 -37.5 105.5t-100.5 37.5q-30 0 -65 -7.5t-64 -16.5q-4 -1 -7 -1.5t-6 -0.5q-14 0 -20.5 9.5t-6.5 23.5v1
l9 312h362l-6 -82h-276l-6 -173h2q17 5 44.5 8.5t56.5 3.5q41 0 80 -14.5t69.5 -42t49 -68.5t18.5 -93z" />
    <glyph glyph-name="six" unicode="6" horiz-adv-x="600" 
d="M163 281q0 -36 6.5 -73.5t22 -68t42 -50t67.5 -19.5q36 0 62 12.5t42.5 34t24 49t7.5 57.5t-7.5 57.5t-23.5 48t-40.5 32.5t-58.5 12q-39 0 -77 -17.5t-67 -44.5v-30zM533 222q0 -49 -15.5 -91.5t-45.5 -74t-73 -49.5t-98 -18q-59 0 -103 25t-73 66t-43.5 95t-14.5 111
q0 75 19 148.5t58.5 131.5t101 94t145.5 36q26 0 49.5 -3.5t48.5 -10.5l-18 -77q-20 5 -39.5 7.5t-39.5 2.5q-52 0 -90 -18t-64.5 -49t-42 -71t-23.5 -84q26 23 65 38.5t90 15.5q45 0 83 -17.5t65.5 -48t42.5 -71.5t15 -88z" />
    <glyph glyph-name="seven" unicode="7" horiz-adv-x="600" 
d="M532 612q-55 -61 -93.5 -119.5t-63 -122.5t-35.5 -136.5t-11 -160.5v-73l-95 -11v95q0 160 47 287t147 230v3h-351l-9 81h447l17 -73v0z" />
    <glyph glyph-name="eight" unicode="8" horiz-adv-x="600" 
d="M534 178q0 -44 -19.5 -79t-52 -59.5t-74.5 -37.5t-88 -13t-88.5 13t-74.5 37.5t-51.5 59.5t-19.5 79q0 36 11.5 63t30.5 47.5t44 36t53 27.5q-24 12 -45 26.5t-36.5 34.5t-24.5 46t-9 60q0 39 15.5 72t43.5 56t66.5 36t84.5 13t85 -13t66.5 -36.5t43 -56t15.5 -71.5
q0 -29 -9 -52t-25 -41t-37.5 -32.5t-45.5 -26.5q28 -13 53.5 -29t45 -38.5t31 -52t11.5 -69.5zM417 519q0 22 -9.5 39.5t-25 30t-37 19.5t-45.5 7t-45 -7t-37 -19.5t-25.5 -30.5t-9.5 -39q0 -24 10.5 -42t29 -32t42.5 -25t51 -21q43 20 72 47t29 73zM441 178q0 30 -13 51.5
t-34.5 37.5t-50 28t-58.5 24q-26 -12 -49 -25.5t-40 -30t-27 -37.5t-10 -48q0 -23 10 -42.5t29 -34t44.5 -23t57.5 -8.5q63 0 102 30t39 78z" />
    <glyph glyph-name="nine" unicode="9" horiz-adv-x="600" 
d="M535 387q0 -72 -16.5 -143t-55 -128t-100.5 -92t-153 -35q-23 0 -40 2.5t-37 7.5l14 79q20 -4 33 -6t30 -2q58 0 98 19t66.5 51t40.5 74.5t20 89.5q-26 -26 -65.5 -46.5t-87.5 -20.5q-35 0 -73.5 12t-70.5 39.5t-52.5 72t-20.5 108.5q0 31 10.5 70.5t36.5 74.5t69.5 58.5
t109.5 23.5q60 0 106 -25t76.5 -68t46 -99t15.5 -117zM439 384q0 115 -41 173t-107 58q-41 0 -66.5 -15.5t-39.5 -38t-19 -48t-5 -44.5q0 -71 33.5 -114t91.5 -43q52 0 90.5 21t62.5 48v3z" />
    <glyph glyph-name="colon" unicode=":" horiz-adv-x="274" 
d="M206 386q0 -26 -18.5 -46t-45.5 -20t-45.5 19.5t-18.5 45.5q0 27 18.5 47t45.5 20t45.5 -20t18.5 -46zM206 56q0 -27 -18.5 -47t-45.5 -20t-45.5 19.5t-18.5 45.5q0 27 18.5 47t45.5 20t45.5 -19.5t18.5 -45.5z" />
    <glyph glyph-name="semicolon" unicode=";" horiz-adv-x="282" 
d="M209 36q0 -28 -11 -56.5t-26 -53t-30 -42.5t-22 -25l-39 19q5 6 14 20.5t17.5 31t14.5 33t6 27.5q-25 4 -40 22.5t-15 41.5q0 27 19 46.5t45 19.5q28 0 47.5 -22t19.5 -62zM206 386q0 -27 -18.5 -47t-45.5 -20t-45.5 19.5t-18.5 45.5q0 27 18.5 47t45.5 20t45.5 -19.5
t18.5 -45.5z" />
    <glyph glyph-name="less" unicode="&#x3c;" horiz-adv-x="478" 
d="M383 24l-334 267l334 268l46 -59l-260 -209l260 -208z" />
    <glyph glyph-name="equal" unicode="=" horiz-adv-x="565" 
d="M54 310v80h457v-80h-457zM54 120v79h457v-79h-457z" />
    <glyph glyph-name="greater" unicode="&#x3e;" horiz-adv-x="478" 
d="M309 291l-260 209l46 59l334 -268l-334 -267l-46 59z" />
    <glyph glyph-name="question" unicode="?" horiz-adv-x="459" 
d="M397 535q0 -36 -12 -61.5t-29.5 -45.5t-38.5 -37t-38.5 -35.5t-29.5 -41.5t-12 -54q0 -20 4 -39l-87 -14q-2 14 -3.5 27.5t-1.5 25.5q0 40 11.5 69t29 51t38 38.5t38 32.5t29 33.5t11.5 40.5q0 89 -95 89q-33 0 -64 -12t-59 -29l-34 70q28 18 67.5 34.5t99.5 16.5
q33 0 64.5 -10.5t56.5 -31t40 -50t15 -67.5zM201 114q25 0 43 -18.5t18 -43.5q0 -26 -17.5 -44.5t-43.5 -18.5t-43.5 18.5t-17.5 43.5q0 26 17.5 44.5t43.5 18.5z" />
    <glyph glyph-name="at" unicode="@" horiz-adv-x="782" 
d="M728 379q0 -34 -10.5 -73.5t-31.5 -73t-53.5 -56t-77.5 -22.5q-32 0 -60 21.5t-35 56.5q-20 -40 -49.5 -59t-65.5 -19q-30 0 -53.5 12.5t-39.5 33.5t-24.5 48t-8.5 56q0 50 15.5 92t42 72.5t63 47.5t78.5 17q19 -1 40 -6q18 -5 41 -14.5t48 -27.5l-36 -168q-4 -17 -4 -36
q0 -36 17 -52.5t39 -16.5q21 0 38.5 13.5t30.5 36.5t20.5 53t7.5 64q0 53 -16.5 98.5t-47.5 79.5t-76 53t-102 19q-70 0 -125 -26t-93 -69.5t-58 -100.5t-20 -120q0 -54 18 -101t51 -81.5t79.5 -54.5t104.5 -20q73 0 153 37l21 -64q-90 -40 -173 -40q-73 0 -132.5 24.5
t-101.5 68t-65 102.5t-23 128q0 77 25 146t72 121t114.5 82.5t152.5 30.5q73 0 131 -24.5t97.5 -67.5t60.5 -100t21 -121zM474 457q-29 15 -60 15q-26 0 -48.5 -12.5t-39.5 -35t-27 -53t-10 -67.5q0 -17 3.5 -33t11.5 -28.5t21 -20t31 -7.5q15 0 29 6.5t26 23t23 44.5t20 71
z" />
    <glyph glyph-name="A" unicode="A" horiz-adv-x="629" 
d="M518 0l-60 171h-290l-60 -171h-90l240 674l110 12l244 -686h-94zM385 378q-3 8 -12 34q-8 22 -22 63t-37 112h-3q-24 -71 -37.5 -112t-21.5 -63q-9 -26 -12 -34l-47 -135h240z" />
    <glyph glyph-name="B" unicode="B" horiz-adv-x="563" 
d="M525 199q0 -41 -13.5 -77t-42 -63t-74.5 -43t-110 -16h-209v685h207q43 0 80.5 -12t65.5 -34.5t44 -56.5t16 -77q0 -44 -21.5 -81t-69.5 -58v-2q127 -44 127 -165zM429 199q0 37 -10.5 60t-28.5 36.5t-41.5 18.5t-49.5 5h-130v-238h125q26 0 50.5 4t43 17t30 36t11.5 61z
M393 503q0 51 -32.5 76t-86.5 25h-105v-210h119q26 0 46 9t33 24t19.5 35t6.5 41z" />
    <glyph glyph-name="C" unicode="C" horiz-adv-x="628" 
d="M590 85q-45 -42 -107.5 -69t-130.5 -27q-78 0 -134 25t-92.5 71t-54 111.5t-17.5 145.5q0 79 19 144t56.5 111.5t94.5 72.5t132 26q57 0 115.5 -23t104.5 -62l-50 -63q-37 29 -78.5 48t-91.5 19q-103 0 -154.5 -71.5t-51.5 -200.5t50.5 -201t157.5 -72q51 0 100 22.5
t85 55.5l47 -63v0z" />
    <glyph glyph-name="D" unicode="D" horiz-adv-x="662" 
d="M608 346q0 -75 -17 -138.5t-51.5 -109.5t-87.5 -72t-125 -26h-251v686h251q72 0 125 -25t87.5 -70t51.5 -107.5t17 -137.5zM512 346q0 60 -11 107.5t-33.5 81t-57.5 51.5t-83 18h-158v-523h158q48 0 83 19t57.5 54t33.5 84t11 108z" />
    <glyph glyph-name="E" unicode="E" horiz-adv-x="523" 
d="M477 0h-401v685h393v-81h-300v-218h265v-81h-265v-224h317z" />
    <glyph glyph-name="F" unicode="F" horiz-adv-x="496" 
d="M169 604v-218h259v-81h-259v-305h-93v685h382v-81h-289z" />
    <glyph glyph-name="G" unicode="G" horiz-adv-x="689" 
d="M618 71q-42 -30 -105 -56t-141 -26q-79 0 -138.5 27t-99.5 74.5t-60 112t-20 139.5q0 79 23.5 144.5t66 112t103 72t134.5 25.5q64 0 115 -17.5t101 -52.5l-46 -64q-49 32 -88 42.5t-82 10.5q-51 0 -93 -20.5t-73 -56.5t-48 -85.5t-17 -107.5q0 -59 14 -109t41.5 -87
t69 -58t97.5 -21q22 0 45.5 3.5t45 9.5t40 14t30.5 17v158h-105v69h190v-270v0z" />
    <glyph glyph-name="H" unicode="H" horiz-adv-x="646" 
d="M477 0v305h-308v-305h-93v685h93v-299h308v299h93v-685h-93z" />
    <glyph glyph-name="I" unicode="I" horiz-adv-x="245" 
d="M76 0v685h93v-685h-93z" />
    <glyph glyph-name="J" unicode="J" horiz-adv-x="253" 
d="M177 -4q0 -41 -10 -77.5t-31.5 -63.5t-56 -43t-83.5 -16q-20 0 -44 4t-45 9l13 81q17 -5 37 -8.5t36 -3.5q31 0 49 12t27.5 30.5t12 41t2.5 44.5v679h93v-689v0z" />
    <glyph glyph-name="K" unicode="K" horiz-adv-x="566" 
d="M441 0l-202 302l-70 -93v-209h-93v685h93v-342h2l246 342h109l-232 -310l254 -375h-107z" />
    <glyph glyph-name="L" unicode="L" horiz-adv-x="492" 
d="M466 0h-390v685h93v-604h306z" />
    <glyph glyph-name="M" unicode="M" horiz-adv-x="817" 
d="M692 0l-31 303q-2 13 -5 45q-3 27 -7 75t-12 129h-3q-31 -81 -49 -129t-29 -75q-12 -32 -17 -45l-78 -204h-106l-80 204q-5 12 -16 44q-10 26 -28.5 75t-48.5 130h-3q-8 -81 -12 -129t-6 -75q-3 -32 -3 -45l-28 -303h-92l59 685h118l99 -264q4 -11 15 -40q9 -25 26 -70.5
t46 -121.5h3q27 76 43.5 121.5t25.5 70.5q11 29 15 40l101 264h118l73 -685h-88z" />
    <glyph glyph-name="N" unicode="N" horiz-adv-x="639" 
d="M479 0l-312 513h-3v-513h-93v673l95 12l306 -505h3v505h93v-685h-89z" />
    <glyph glyph-name="O" unicode="O" horiz-adv-x="692" 
d="M638 343q0 -75 -17.5 -139.5t-53.5 -112.5t-91 -75t-130 -27t-130 27t-91 75t-53.5 112.5t-17.5 139.5q0 79 17.5 144t53.5 111.5t91 72t130 25.5t130 -25.5t91 -72t53.5 -111.5t17.5 -144zM542 344q0 59 -11.5 109t-35.5 86t-61 56t-88 20t-88 -20t-61 -56t-35.5 -86
t-11.5 -109t11.5 -109.5t35.5 -87t61 -57t88 -20.5q50 0 87 20.5t61 57.5t36 87t12 109z" />
    <glyph glyph-name="P" unicode="P" horiz-adv-x="562" 
d="M508 481q0 -45 -13.5 -83t-41.5 -65.5t-69.5 -42.5t-96.5 -15h-118v-275h-93v685h211q55 0 96.5 -15t69.5 -42t41.5 -64.5t13.5 -82.5zM412 481q0 60 -30 91.5t-98 31.5h-115v-250h115q68 0 98 32.5t30 94.5z" />
    <glyph glyph-name="Q" unicode="Q" horiz-adv-x="692" 
d="M638 343q0 -69 -14.5 -129.5t-44.5 -107t-76 -76.5t-109 -38q3 -17 14.5 -33.5t32 -29t50 -20.5t69.5 -8l-19 -102q-44 0 -83.5 15t-70 41.5t-49.5 61t-22 73.5q-68 5 -117 34t-81.5 76t-48 109t-15.5 133q0 79 17.5 144.5t53.5 112t91 72t130 25.5t130 -25.5t91 -72
t53.5 -111.5t17.5 -144zM542 344q0 59 -12 108.5t-36 85.5t-61 56.5t-87 20.5q-51 0 -88 -20t-61 -56t-35.5 -86t-11.5 -109t11.5 -109.5t35.5 -87.5t61 -57.5t88 -20.5q50 0 87 20.5t61 57.5t36 87.5t12 109.5z" />
    <glyph glyph-name="R" unicode="R" horiz-adv-x="562" 
d="M443 0l-100 194q-9 18 -19.5 34.5t-23 29.5t-27 21t-32.5 8h-72v-287h-93v685h212q56 0 97 -14.5t68 -40t40 -62t13 -79.5q0 -66 -33 -115.5t-105 -71.5v-2q17 -13 29 -30t21 -34l126 -236h-101zM410 488q0 57 -28 86.5t-97 29.5h-116v-237h118q63 0 93 32t30 89z" />
    <glyph glyph-name="S" unicode="S" horiz-adv-x="510" 
d="M467 183q0 -42 -18 -77.5t-49.5 -61.5t-74 -40.5t-90.5 -14.5q-36 0 -67 6.5t-57.5 17t-49 23.5t-40.5 26l38 71q45 -29 87.5 -46t88.5 -17q66 0 101 31.5t35 83.5q0 33 -23 54.5t-58 38.5t-75 34t-75 42t-58 61.5t-23 93.5q0 43 16.5 77.5t45.5 59t68 37.5t84 13
q56 0 104.5 -16.5t83.5 -38.5l-34 -69q-38 19 -73.5 31t-80.5 12q-56 0 -87 -27t-31 -74q0 -44 23 -69t58 -42.5t75 -32t75 -36.5t58 -57.5t23 -93.5z" />
    <glyph glyph-name="T" unicode="T" horiz-adv-x="503" 
d="M477 604h-179v-604h-93v603h-187v82h468z" />
    <glyph glyph-name="U" unicode="U" horiz-adv-x="638" 
d="M567 235q0 -116 -61 -181t-184 -65q-124 0 -185 65t-61 180v451h93v-458q0 -72 35 -114.5t118 -42.5q82 0 117 42.5t35 113.5v459h93v-450v0z" />
    <glyph glyph-name="V" unicode="V" horiz-adv-x="609" 
d="M358 0h-107l-233 685h98l145 -422q4 -14 10 -34q5 -18 14 -45.5t21 -68.5h6q12 41 20.5 69t13.5 45q6 20 11 33l140 423h95z" />
    <glyph glyph-name="W" unicode="W" horiz-adv-x="842" 
d="M672 0h-108l-106 348q-4 12 -9 30q-5 16 -12 40t-16 57h-3q-10 -33 -16.5 -57t-11.5 -40q-5 -18 -9 -30l-106 -348h-109l-148 685h94l68 -319q3 -16 10 -48q6 -27 15.5 -74t25.5 -121h3q22 74 36.5 121t22.5 74q10 32 14 48l63 207l103 7l67 -214l15 -48q8 -27 22.5 -74
t37.5 -121h3q14 74 24 121t15 74q6 32 10 48l63 319h94z" />
    <glyph glyph-name="X" unicode="X" horiz-adv-x="593" 
d="M465 0l-168 284h-2l-172 -284h-105l226 358l-197 327h108l142 -253h2l143 253h103l-197 -324l227 -361h-110z" />
    <glyph glyph-name="Y" unicode="Y" horiz-adv-x="558" 
d="M326 295v-295h-93v295l-215 390h101l111 -220q4 -8 11 -21q12 -23 37 -71h3q11 25 20 42.5t14 28.5q6 13 10 21l114 220h101z" />
    <glyph glyph-name="Z" unicode="Z" horiz-adv-x="530" 
d="M484 0h-439l-7 55l326 549h-307v81h399l27 -49l-329 -552v-3h339z" />
    <glyph glyph-name="bracketleft" unicode="[" horiz-adv-x="360" 
d="M94 -116v886h171v-70h-86v-746h86v-70h-171z" />
    <glyph glyph-name="backslash" unicode="\" horiz-adv-x="371" 
d="M117 738l212 -859h-75l-212 859h75z" />
    <glyph glyph-name="bracketright" unicode="]" horiz-adv-x="360" 
d="M95 -46h86v746h-86v70h171v-886h-171v70z" />
    <glyph glyph-name="asciicircum" unicode="^" horiz-adv-x="553" 
d="M437 337l-162 301l-161 -301l-65 36l196 355h61l199 -355z" />
    <glyph glyph-name="underscore" unicode="_" horiz-adv-x="512" 
d="M0 -137v57h512v-57h-512z" />
    <glyph glyph-name="grave" unicode="`" horiz-adv-x="390" 
d="M95 697l49 55l151 -142l-38 -43z" />
    <glyph glyph-name="a" unicode="a" horiz-adv-x="507" 
d="M363 0q-5 12 -7 30t-2 28h-1q-25 -32 -64.5 -50.5t-84.5 -18.5q-36 0 -65 11t-49.5 30.5t-32 46.5t-11.5 58q0 46 20.5 75.5t52.5 46t71.5 22.5t77.5 6q23 0 44 -1.5t39 -3.5v42q0 119 -100 119q-32 0 -68.5 -12.5t-66.5 -33.5l-43 64q35 26 80 43.5t101 17.5
q39 0 73.5 -12.5t59.5 -38t39.5 -63.5t14.5 -90v-316h-78zM351 218q-13 2 -31 3.5t-39 1.5q-24 0 -49.5 -3.5t-46 -12.5t-33.5 -25t-13 -41q0 -28 19.5 -52t63.5 -24q37 0 71.5 15.5t57.5 41.5v96z" />
    <glyph glyph-name="b" unicode="b" horiz-adv-x="557" 
d="M511 259q0 -58 -14 -107.5t-42 -85.5t-70 -56.5t-98 -20.5q-36 0 -71.5 17t-59.5 46h-2q0 -8 -2 -24.5t-6 -27.5h-76v738l90 11v-289h2q26 28 59 44t69 16q104 0 162.5 -67t58.5 -194zM418 259q0 95 -35 138.5t-98 43.5q-35 0 -69.5 -17.5t-55.5 -46.5v-251
q21 -26 51 -42t73 -16q68 0 101 50.5t33 140.5z" />
    <glyph glyph-name="c" unicode="c" horiz-adv-x="518" 
d="M470 44q-83 -55 -184 -55q-57 0 -102 19t-75.5 53.5t-46.5 83.5t-16 110q0 59 16 108t46.5 84t75.5 54t102 19q51 0 97 -16.5t82 -44.5l-43 -64q-32 22 -66.5 34t-66.5 12q-73 0 -111.5 -46t-38.5 -140t39.5 -140.5t110.5 -46.5q37 0 73.5 11t73.5 34l34 -69v0z" />
    <glyph glyph-name="d" unicode="d" horiz-adv-x="557" 
d="M411 0q-4 11 -6 28.5t-2 25.5h-2q-23 -31 -60.5 -48t-73.5 -17q-55 0 -96.5 19.5t-69 55.5t-41.5 85.5t-14 109.5q0 59 16.5 107t45.5 82.5t70 53t89 18.5q36 0 71 -11.5t57 -34.5h2v264h90v-738h-76zM397 388q-21 25 -51 39t-74 14q-59 0 -96 -47.5t-37 -134.5
q0 -94 33 -142.5t101 -48.5q43 0 73 16t51 45v259z" />
    <glyph glyph-name="e" unicode="e" horiz-adv-x="542" 
d="M494 271q0 -7 -1 -19.5t-3 -18.5h-351q3 -50 17.5 -82t36.5 -50.5t48.5 -25.5t52.5 -7q43 0 79 13.5t75 34.5l34 -68q-45 -28 -92.5 -43.5t-101.5 -15.5q-60 0 -105.5 20t-76 55t-45.5 84t-15 106q0 58 15 107t44 84t72 55t100 20q55 0 96 -19.5t68 -53t40 -79t13 -97.5z
M402 303q0 67 -34.5 103t-90.5 36q-16 0 -37 -4.5t-41.5 -19.5t-36 -42.5t-21.5 -72.5h261z" />
    <glyph glyph-name="f" unicode="f" horiz-adv-x="338" 
d="M352 656q-20 7 -39 11t-37 4q-77 0 -77 -90v-72h123l-6 -73h-117v-436h-90v436h-95v73h95v80q0 35 11.5 64.5t33 51t52 33.5t68.5 12q26 0 49.5 -4.5t50.5 -14.5z" />
    <glyph glyph-name="g" unicode="g" horiz-adv-x="552" 
d="M486 3q0 -46 -14 -85t-42.5 -67t-72 -44t-101.5 -16q-38 0 -79 9t-79 25l23 77q32 -14 67.5 -23t67.5 -9q75 0 107.5 37t32.5 95v58h-2q-26 -28 -59 -44t-71 -16q-102 0 -160 67t-58 194q0 57 14 105t42 82t69.5 53t97.5 19q36 0 72 -17t59 -46h2q0 8 2 24.5t6 27.5h76
v-506zM396 383q-20 26 -50.5 42t-73.5 16q-67 0 -100 -45.5t-33 -134.5q0 -95 34.5 -138.5t97.5 -43.5q35 0 69.5 17.5t55.5 46.5v240z" />
    <glyph glyph-name="h" unicode="h" horiz-adv-x="553" 
d="M397 0v303q0 69 -22.5 103.5t-75.5 34.5q-22 0 -42 -7t-37.5 -17.5t-32 -23.5t-24.5 -24v-369h-90v739h90v-291h2q11 12 26 24.5t34 23t41 17.5t46 7q36 0 68 -12.5t56 -38.5t37.5 -65t13.5 -91v-313h-90z" />
    <glyph glyph-name="i" unicode="i" horiz-adv-x="259" 
d="M84 0v509h90v-509h-90zM189 660q0 -25 -17.5 -41.5t-41.5 -16.5q-25 0 -42.5 16.5t-17.5 41.5q0 23 17.5 40.5t41.5 17.5q25 0 42.5 -17.5t17.5 -40.5z" />
    <glyph glyph-name="j" unicode="j" horiz-adv-x="245" 
d="M175 -54q0 -71 -42 -113t-111 -42q-29 0 -54.5 6t-45.5 14l19 75q20 -7 39.5 -11.5t33.5 -4.5q31 0 51 20.5t20 69.5v549h90v-563zM190 660q0 -25 -17.5 -41.5t-41.5 -16.5q-25 0 -42.5 16.5t-17.5 41.5q0 23 17.5 40.5t41.5 17.5q25 0 42.5 -17.5t17.5 -40.5z" />
    <glyph glyph-name="k" unicode="k" horiz-adv-x="506" 
d="M403 0l-120 224q-11 20 -21.5 27t-18.5 7t-14 -3t-14 -11l-52 -56v-188h-90v739h90v-438l184 208h114l-178 -190v-2h8q23 0 38.5 -14t27.5 -37l143 -266h-97z" />
    <glyph glyph-name="l" unicode="l" horiz-adv-x="271" 
d="M224 -11q-45 0 -74.5 13t-47 34.5t-25 48.5t-7.5 54v599h90v-591q0 -15 3 -29.5t11 -26t22.5 -18t38.5 -6.5z" />
    <glyph glyph-name="m" unicode="m" horiz-adv-x="826" 
d="M670 0v306q0 69 -18.5 102t-70.5 33q-17 0 -34 -7t-33.5 -18t-31 -24t-25.5 -26q3 -24 3 -50v-316h-90v306q0 69 -18.5 102t-70.5 33q-15 0 -32 -6.5t-33 -16.5t-30.5 -23t-25.5 -26v-369h-90v509h76q2 -6 3.5 -15t3 -18.5t2 -18.5t0.5 -14h2q9 12 23 25.5t32 25t39 19
t44 7.5q50 0 86.5 -21.5t56.5 -66.5q10 12 26.5 27.5t36.5 29t44 22.5t50 9q75 0 120 -50.5t45 -153.5v-316h-90z" />
    <glyph glyph-name="n" unicode="n" 
d="M394 0v306q0 69 -21.5 102t-69.5 33q-43 0 -80 -22t-63 -50v-369h-90v509h75q2 -6 3.5 -15t3 -18.5t2.5 -18.5t1 -14h2q10 12 25.5 25.5t35.5 25t43.5 19t49.5 7.5q78 0 125.5 -50.5t47.5 -153.5v-316h-90z" />
    <glyph glyph-name="o" unicode="o" horiz-adv-x="563" 
d="M517 255q0 -56 -15.5 -104.5t-45 -84.5t-73.5 -56.5t-101 -20.5t-101 20.5t-74 56.5t-45.5 84.5t-15.5 104.5q0 60 15.5 108.5t45.5 83.5t74 54t101 19q59 0 103 -19t73.5 -54t44 -83.5t14.5 -108.5zM424 256q0 87 -35 136t-107 49q-70 0 -106.5 -49.5t-36.5 -135.5
q0 -87 37 -137.5t106 -50.5q68 0 105 51t37 137z" />
    <glyph glyph-name="p" unicode="p" horiz-adv-x="560" 
d="M514 250q0 -59 -16.5 -107t-45.5 -82.5t-69.5 -53t-89.5 -18.5q-36 0 -70.5 11.5t-57.5 33.5h-2v-232h-90v707h76q5 -11 6.5 -29t1.5 -26h2q23 32 61 49t73 17q55 0 96.5 -19.5t69 -55.5t41.5 -85.5t14 -109.5zM421 250q0 94 -33 142.5t-101 48.5q-43 0 -73 -16t-51 -45
v-259q22 -24 52 -38.5t73 -14.5q60 0 96.5 47.5t36.5 134.5z" />
    <glyph glyph-name="q" unicode="q" horiz-adv-x="557" 
d="M397 -209v257h-2q-26 -28 -59.5 -44t-71.5 -16q-102 0 -160 67t-58 194q0 58 14 107.5t42 85.5t70 56.5t98 20.5q36 0 71.5 -16.5t59.5 -45.5h2q0 8 2 24.5t6 27.5h76v-707zM397 383q-21 26 -51 41.5t-73 15.5q-68 0 -101 -50.5t-33 -140.5q0 -95 35 -138.5t98 -43.5
q35 0 69.5 18t55.5 47v251z" />
    <glyph glyph-name="r" unicode="r" horiz-adv-x="352" 
d="M331 435q-13 4 -22.5 5t-20.5 1q-20 0 -42 -12t-41.5 -30.5t-32 -42t-12.5 -46.5v-310h-90v509h76q1 -7 3 -18.5t3 -24t2 -24.5t1 -19h3q6 14 19 31t30.5 31.5t38 24.5t43.5 10q17 0 30.5 -2.5t27.5 -7.5z" />
    <glyph glyph-name="s" unicode="s" horiz-adv-x="420" 
d="M379 144q0 -38 -16 -67t-42 -48.5t-59 -29.5t-67 -10q-46 0 -91 16.5t-81 43.5l41 66q32 -23 64.5 -35t66.5 -12q18 0 34 4t29 12.5t20.5 22.5t7.5 34q0 27 -17 43t-43 28t-55.5 23t-55.5 28.5t-43 45.5t-17 73q0 33 15 58.5t39 43t54.5 27t61.5 9.5q81 0 152 -46
l-35 -68q-27 16 -56.5 25.5t-57.5 9.5q-32 0 -55.5 -13t-23.5 -48q0 -26 17 -41.5t42.5 -27.5t55.5 -23t55.5 -28.5t42.5 -44.5t17 -71z" />
    <glyph glyph-name="t" unicode="t" horiz-adv-x="364" 
d="M343 6q-20 -8 -41 -12.5t-50 -4.5q-71 0 -113.5 38t-42.5 118v291h-79v73h79l11 164l79 12v-176h140l-11 -73h-129v-280q0 -50 19 -69t58 -19q17 0 31 2.5t31 7.5l18 -72v0z" />
    <glyph glyph-name="u" unicode="u" 
d="M409 0q-2 6 -3.5 15t-3 18.5t-2.5 18.5t-1 14h-2q-10 -12 -25.5 -25.5t-35.5 -25t-43.5 -19t-49.5 -7.5q-78 0 -125.5 50.5t-47.5 153.5v316h90v-306q0 -69 21.5 -102t69.5 -33q43 0 80 22.5t63 49.5v369h90v-509h-75z" />
    <glyph glyph-name="v" unicode="v" horiz-adv-x="490" 
d="M292 0h-100l-181 509h92l139 -406h3l145 406h90z" />
    <glyph glyph-name="w" unicode="w" horiz-adv-x="750" 
d="M585 0h-101l-107 390h-2l-106 -390h-101l-147 509h91l76 -272q2 -7 6 -24q4 -14 10 -39t17 -64h3q11 39 17.5 64t10.5 39q4 17 7 24l68 264l102 8l70 -272q3 -7 7 -24q4 -14 10.5 -39t17.5 -64h3q9 39 15 64t10 39q4 17 6 24l74 272h88z" />
    <glyph glyph-name="x" unicode="x" horiz-adv-x="471" 
d="M360 0l-122 193h-3l-122 -193h-102l172 264l-158 245h104l107 -173h3l110 173h100l-158 -244l169 -265h-100z" />
    <glyph glyph-name="y" unicode="y" horiz-adv-x="482" 
d="M264 -62q-9 -23 -21.5 -49t-32.5 -48t-48 -36t-68 -14q-23 0 -45 4t-38 10l12 75q13 -5 31.5 -8t32.5 -3q22 0 37.5 8t26.5 21.5t19 30.5t14 34l21 57l-194 489h90l89 -237q3 -8 10 -27q6 -17 17.5 -46t29.5 -77h3q16 48 26 77t15 46q6 19 9 27l81 237h90z" />
    <glyph glyph-name="z" unicode="z" horiz-adv-x="456" 
d="M409 0h-359l-15 61l254 367v2h-233l-8 79h340l18 -61l-254 -366v-3h266z" />
    <glyph glyph-name="braceleft" unicode="{" horiz-adv-x="360" 
d="M283 -115q-83 0 -127 38t-44 105q0 4 0.5 7.5t0.5 7.5l11 164q0 40 -19.5 63t-57.5 23h-19v69h19q38 0 57.5 22.5t19.5 63.5v9t-0.5 12.5t-3 43t-7.5 99.5q0 4 -0.5 7.5t-0.5 7.5q0 67 44 105t127 38v-75q-47 0 -67.5 -17.5t-20.5 -55.5q0 -3 0.5 -6t0.5 -6l11 -164
q0 -38 -22.5 -68.5t-60.5 -48.5v-2q38 -19 60.5 -50t22.5 -69l-11 -163q0 -3 -0.5 -6t-0.5 -6q0 -39 20.5 -56t67.5 -17v-75v0z" />
    <glyph glyph-name="bar" unicode="|" horiz-adv-x="271" 
d="M175 -75h-79v845h79v-845z" />
    <glyph glyph-name="braceright" unicode="}" horiz-adv-x="362" 
d="M77 -40q46 0 66.5 17t20.5 56v12l-11 163q0 38 22.5 69t60.5 50v2q-38 18 -60.5 48.5t-22.5 68.5v9l11 167q0 38 -20.5 55.5t-66.5 17.5v75q83 0 126.5 -38t43.5 -105v-15q-4 -59 -6.5 -89.5t-3.5 -45t-1.5 -17.5t-0.5 -6q0 -44 18 -68t60 -24h19v-69h-19q-38 0 -58 -23
t-20 -63q0 -3 0.5 -6t0.5 -6l11 -167q0 -67 -43.5 -105t-126.5 -38v75z" />
    <glyph glyph-name="asciitilde" unicode="~" horiz-adv-x="533" 
d="M468 210q-19 -11 -38 -16.5t-35 -8.5q-18 -4 -36 -4q-26 0 -51.5 9t-49 19.5t-45 19.5t-39.5 9q-33 0 -59.5 -8.5t-49.5 -19.5v68q18 11 37.5 16t35.5 8q18 3 36 4q26 0 51.5 -9t49 -19.5t45 -19t39.5 -8.5q33 0 59 8.5t50 19.5v-68v0z" />
    <glyph glyph-name="dotlessi" unicode="&#x131;" horiz-adv-x="251" 
d="M80 0v510h91v-510h-91z" />
    <glyph glyph-name="circumflex" unicode="&#x2c6;" horiz-adv-x="467" 
d="M350 574l-114 93h-3l-114 -93l-41 55l157 117l155 -117z" />
    <glyph glyph-name="tilde" unicode="&#x2dc;" horiz-adv-x="459" 
d="M369 669q-5 -10 -12.5 -21t-18 -20t-24.5 -15t-31 -6q-19 0 -34 6t-27.5 13t-23 13t-21.5 6q-17 0 -38 -29l-49 35q4 9 12 20t19 20t25 15t31 6q19 0 33.5 -6t27 -12.5t23.5 -12.5t22 -6q17 0 37 27l49 -33v0z" />
    <glyph glyph-name="macron" unicode="&#xaf;" horiz-adv-x="422" 
d="M80 625v73h262v-73h-262z" />
    <glyph glyph-name="breve" unicode="&#x2d8;" horiz-adv-x="442" 
d="M362 690q-26 -43 -64 -67t-78 -24q-41 0 -77.5 24t-62.5 67l49 41q28 -38 48.5 -52t42.5 -14t43.5 14t49.5 52l49 -41v0z" />
    <glyph glyph-name="dotaccent" unicode="&#x2d9;" horiz-adv-x="232" 
d="M174 660q0 -24 -17 -42t-41 -18t-41 18t-17 41q0 24 17 42t41 18t41 -18t17 -41z" />
    <glyph glyph-name="ring" unicode="&#x2da;" horiz-adv-x="328" 
d="M250 660q0 -18 -7 -33.5t-18.5 -27.5t-27 -18.5t-33.5 -6.5t-33.5 6.5t-27 18.5t-18.5 27.5t-7 33.5t7 33.5t18.5 27t27 18.5t33.5 7t33.5 -7t27 -18.5t18.5 -27t7 -33.5zM204 660q0 17 -11.5 29t-28.5 12t-28.5 -12t-11.5 -29t11.5 -29.5t28.5 -12.5t28.5 12.5
t11.5 29.5z" />
    <glyph glyph-name="cedilla" unicode="&#xb8;" horiz-adv-x="431" 
d="M332 -117q0 -37 -26.5 -64.5t-74.5 -27.5q-18 0 -38 4.5t-45 18.5l16 51q30 -16 57 -16q29 0 37.5 12t8.5 23q0 4 -1.5 9.5t-5.5 10.5t-11.5 8.5t-18.5 3.5t-23 -1.5t-29 -6.5l17 113h51l-8 -56h7q38 0 62.5 -22t24.5 -60z" />
    <glyph glyph-name="hungarumlaut" unicode="&#x2dd;" horiz-adv-x="526" 
d="M326 568l-41 39l138 145l54 -51zM119 568l-41 39l137 145l54 -51z" />
    <glyph glyph-name="ogonek" unicode="&#x2db;" horiz-adv-x="247" 
d="M209 -192q-14 -7 -31.5 -11.5t-41.5 -4.5q-38 0 -63.5 22t-25.5 63q0 36 24.5 67t62.5 56h75q-51 -35 -72 -64t-21 -55q0 -32 31 -32q9 0 21 2.5t25 8.5l16 -52v0z" />
    <glyph glyph-name="caron" unicode="&#x2c7;" horiz-adv-x="467" 
d="M118 746l114 -93h3l114 93l41 -55l-157 -117l-155 117z" />
    <glyph glyph-name="acute" unicode="&#xb4;" horiz-adv-x="390" 
d="M133 567l-38 43l151 142l49 -55z" />
    <glyph glyph-name="dieresis" unicode="&#xa8;" horiz-adv-x="507" 
d="M402 660q0 -23 -15.5 -38.5t-37.5 -15.5t-38 15.5t-16 38.5q0 22 16 37.5t38 15.5t37.5 -15.5t15.5 -37.5zM213 660q0 -23 -16 -38t-38 -15t-38 15t-16 38q0 22 16 37.5t38 15.5t38 -15.5t16 -37.5z" />
    <glyph glyph-name="Adieresis" unicode="&#xc4;" horiz-adv-x="629" 
d="M518 0l-60 171h-290l-60 -171h-90l240 674l110 12l244 -686h-94zM385 378q-3 8 -12 34q-8 22 -22 63t-37 112h-3q-24 -71 -37.5 -112t-21.5 -63q-9 -26 -12 -34l-47 -135h240zM463 860q0 -23 -15.5 -38.5t-37.5 -15.5t-38 15.5t-16 38.5q0 22 16 37.5t38 15.5t37.5 -15.5
t15.5 -37.5zM274 860q0 -23 -16 -38t-38 -15t-38 15t-16 38q0 22 16 37.5t38 15.5t38 -15.5t16 -37.5z" />
    <glyph glyph-name="Aring" unicode="&#xc5;" horiz-adv-x="629" 
d="M518 0l-60 171h-290l-60 -171h-90l240 674l110 12l244 -686h-94zM385 378q-3 8 -12 34q-8 22 -22 63t-37 112h-3q-24 -71 -37.5 -112t-21.5 -63q-9 -26 -12 -34l-47 -135h240zM399 860q0 -18 -7 -33.5t-18.5 -27.5t-27 -18.5t-33.5 -6.5t-33.5 6.5t-27 18.5t-18.5 27.5
t-7 33.5t7 33.5t18.5 27t27 18.5t33.5 7t33.5 -7t27 -18.5t18.5 -27t7 -33.5zM353 860q0 17 -11.5 29t-28.5 12t-28.5 -12t-11.5 -29t11.5 -29.5t28.5 -12.5t28.5 12.5t11.5 29.5z" />
    <glyph glyph-name="Ccedilla" unicode="&#xc7;" horiz-adv-x="628" 
d="M446 -117q0 -37 -26.5 -64.5t-74.5 -27.5q-18 0 -38 4.5t-45 18.5l16 51q30 -16 57 -16q29 0 37.5 12t8.5 23q0 4 -1.5 9.5t-5.5 10.5t-11.5 8.5t-18.5 3.5t-23 -1.5t-29 -6.5l12 84q-65 7 -112 35t-78 73.5t-45.5 106.5t-14.5 135q0 79 19 144t56.5 111.5t94.5 72.5
t132 26q57 0 115.5 -23t104.5 -62l-50 -63q-37 29 -78.5 48t-91.5 19q-103 0 -154.5 -71.5t-51.5 -200.5t50.5 -201t157.5 -72q51 0 100 22.5t85 55.5l47 -63q-45 -42 -106.5 -68.5t-128.5 -27.5l-3 -24h7q38 0 62.5 -22t24.5 -60z" />
    <glyph glyph-name="Eacute" unicode="&#xc9;" horiz-adv-x="523" 
d="M477 0h-401v685h393v-81h-300v-218h265v-81h-265v-224h317zM209 767l-38 43l151 142l49 -55z" />
    <glyph glyph-name="Ntilde" unicode="&#xd1;" horiz-adv-x="639" 
d="M479 0l-312 513h-3v-513h-93v673l95 12l306 -505h3v505h93v-685h-89zM459 869q-5 -10 -12.5 -21t-18 -20t-24.5 -15t-31 -6q-19 0 -34 6t-27.5 13t-23 13t-21.5 6q-17 0 -38 -29l-49 35q4 9 12 20t19 20t25 15t31 6q19 0 33.5 -6t27 -12.5t23.5 -12.5t22 -6q17 0 37 27
l49 -33v0z" />
    <glyph glyph-name="Odieresis" unicode="&#xd6;" horiz-adv-x="692" 
d="M638 343q0 -75 -17.5 -139.5t-53.5 -112.5t-91 -75t-130 -27t-130 27t-91 75t-53.5 112.5t-17.5 139.5q0 79 17.5 144t53.5 111.5t91 72t130 25.5t130 -25.5t91 -72t53.5 -111.5t17.5 -144zM542 344q0 59 -11.5 109t-35.5 86t-61 56t-88 20t-88 -20t-61 -56t-35.5 -86
t-11.5 -109t11.5 -109.5t35.5 -87t61 -57t88 -20.5q50 0 87 20.5t61 57.5t36 87t12 109zM495 860q0 -23 -15.5 -38.5t-37.5 -15.5t-38 15.5t-16 38.5q0 22 16 37.5t38 15.5t37.5 -15.5t15.5 -37.5zM306 860q0 -23 -16 -38t-38 -15t-38 15t-16 38q0 22 16 37.5t38 15.5
t38 -15.5t16 -37.5z" />
    <glyph glyph-name="Udieresis" unicode="&#xdc;" horiz-adv-x="638" 
d="M567 235q0 -116 -61 -181t-184 -65q-124 0 -185 65t-61 180v451h93v-458q0 -72 35 -114.5t118 -42.5q82 0 117 42.5t35 113.5v459h93v-450v0zM468 860q0 -23 -15.5 -38.5t-37.5 -15.5t-38 15.5t-16 38.5q0 22 16 37.5t38 15.5t37.5 -15.5t15.5 -37.5zM279 860
q0 -23 -16 -38t-38 -15t-38 15t-16 38q0 22 16 37.5t38 15.5t38 -15.5t16 -37.5z" />
    <glyph glyph-name="aacute" unicode="&#xe1;" horiz-adv-x="507" 
d="M363 0q-5 12 -7 30t-2 28h-1q-25 -32 -64.5 -50.5t-84.5 -18.5q-36 0 -65 11t-49.5 30.5t-32 46.5t-11.5 58q0 46 20.5 75.5t52.5 46t71.5 22.5t77.5 6q23 0 44 -1.5t39 -3.5v42q0 119 -100 119q-32 0 -68.5 -12.5t-66.5 -33.5l-43 64q35 26 80 43.5t101 17.5
q39 0 73.5 -12.5t59.5 -38t39.5 -63.5t14.5 -90v-316h-78zM351 218q-13 2 -31 3.5t-39 1.5q-24 0 -49.5 -3.5t-46 -12.5t-33.5 -25t-13 -41q0 -28 19.5 -52t63.5 -24q37 0 71.5 15.5t57.5 41.5v96zM191 567l-38 43l151 142l49 -55z" />
    <glyph glyph-name="agrave" unicode="&#xe0;" horiz-adv-x="507" 
d="M363 0q-5 12 -7 30t-2 28h-1q-25 -32 -64.5 -50.5t-84.5 -18.5q-36 0 -65 11t-49.5 30.5t-32 46.5t-11.5 58q0 46 20.5 75.5t52.5 46t71.5 22.5t77.5 6q23 0 44 -1.5t39 -3.5v42q0 119 -100 119q-32 0 -68.5 -12.5t-66.5 -33.5l-43 64q35 26 80 43.5t101 17.5
q39 0 73.5 -12.5t59.5 -38t39.5 -63.5t14.5 -90v-316h-78zM351 218q-13 2 -31 3.5t-39 1.5q-24 0 -49.5 -3.5t-46 -12.5t-33.5 -25t-13 -41q0 -28 19.5 -52t63.5 -24q37 0 71.5 15.5t57.5 41.5v96zM153 697l49 55l151 -142l-38 -43z" />
    <glyph glyph-name="acircumflex" unicode="&#xe2;" horiz-adv-x="507" 
d="M363 0q-5 12 -7 30t-2 28h-1q-25 -32 -64.5 -50.5t-84.5 -18.5q-36 0 -65 11t-49.5 30.5t-32 46.5t-11.5 58q0 46 20.5 75.5t52.5 46t71.5 22.5t77.5 6q23 0 44 -1.5t39 -3.5v42q0 119 -100 119q-32 0 -68.5 -12.5t-66.5 -33.5l-43 64q35 26 80 43.5t101 17.5
q39 0 73.5 -12.5t59.5 -38t39.5 -63.5t14.5 -90v-316h-78zM351 218q-13 2 -31 3.5t-39 1.5q-24 0 -49.5 -3.5t-46 -12.5t-33.5 -25t-13 -41q0 -28 19.5 -52t63.5 -24q37 0 71.5 15.5t57.5 41.5v96zM369 574l-114 93h-3l-114 -93l-41 55l157 117l155 -117z" />
    <glyph glyph-name="adieresis" unicode="&#xe4;" horiz-adv-x="507" 
d="M363 0q-5 12 -7 30t-2 28h-1q-25 -32 -64.5 -50.5t-84.5 -18.5q-36 0 -65 11t-49.5 30.5t-32 46.5t-11.5 58q0 46 20.5 75.5t52.5 46t71.5 22.5t77.5 6q23 0 44 -1.5t39 -3.5v42q0 119 -100 119q-32 0 -68.5 -12.5t-66.5 -33.5l-43 64q35 26 80 43.5t101 17.5
q39 0 73.5 -12.5t59.5 -38t39.5 -63.5t14.5 -90v-316h-78zM351 218q-13 2 -31 3.5t-39 1.5q-24 0 -49.5 -3.5t-46 -12.5t-33.5 -25t-13 -41q0 -28 19.5 -52t63.5 -24q37 0 71.5 15.5t57.5 41.5v96zM402 660q0 -23 -15.5 -38.5t-37.5 -15.5t-38 15.5t-16 38.5q0 22 16 37.5
t38 15.5t37.5 -15.5t15.5 -37.5zM213 660q0 -23 -16 -38t-38 -15t-38 15t-16 38q0 22 16 37.5t38 15.5t38 -15.5t16 -37.5z" />
    <glyph glyph-name="atilde" unicode="&#xe3;" horiz-adv-x="507" 
d="M363 0q-5 12 -7 30t-2 28h-1q-25 -32 -64.5 -50.5t-84.5 -18.5q-36 0 -65 11t-49.5 30.5t-32 46.5t-11.5 58q0 46 20.5 75.5t52.5 46t71.5 22.5t77.5 6q23 0 44 -1.5t39 -3.5v42q0 119 -100 119q-32 0 -68.5 -12.5t-66.5 -33.5l-43 64q35 26 80 43.5t101 17.5
q39 0 73.5 -12.5t59.5 -38t39.5 -63.5t14.5 -90v-316h-78zM351 218q-13 2 -31 3.5t-39 1.5q-24 0 -49.5 -3.5t-46 -12.5t-33.5 -25t-13 -41q0 -28 19.5 -52t63.5 -24q37 0 71.5 15.5t57.5 41.5v96zM393 669q-5 -10 -12.5 -21t-18 -20t-24.5 -15t-31 -6q-19 0 -34 6t-27.5 13
t-23 13t-21.5 6q-17 0 -38 -29l-49 35q4 9 12 20t19 20t25 15t31 6q19 0 33.5 -6t27 -12.5t23.5 -12.5t22 -6q17 0 37 27l49 -33v0z" />
    <glyph glyph-name="aring" unicode="&#xe5;" horiz-adv-x="507" 
d="M363 0q-5 12 -7 30t-2 28h-1q-25 -32 -64.5 -50.5t-84.5 -18.5q-36 0 -65 11t-49.5 30.5t-32 46.5t-11.5 58q0 46 20.5 75.5t52.5 46t71.5 22.5t77.5 6q23 0 44 -1.5t39 -3.5v42q0 119 -100 119q-32 0 -68.5 -12.5t-66.5 -33.5l-43 64q35 26 80 43.5t101 17.5
q39 0 73.5 -12.5t59.5 -38t39.5 -63.5t14.5 -90v-316h-78zM351 218q-13 2 -31 3.5t-39 1.5q-24 0 -49.5 -3.5t-46 -12.5t-33.5 -25t-13 -41q0 -28 19.5 -52t63.5 -24q37 0 71.5 15.5t57.5 41.5v96zM339 660q0 -18 -7 -33.5t-18.5 -27.5t-27 -18.5t-33.5 -6.5t-33.5 6.5
t-27 18.5t-18.5 27.5t-7 33.5t7 33.5t18.5 27t27 18.5t33.5 7t33.5 -7t27 -18.5t18.5 -27t7 -33.5zM293 660q0 17 -11.5 29t-28.5 12t-28.5 -12t-11.5 -29t11.5 -29.5t28.5 -12.5t28.5 12.5t11.5 29.5z" />
    <glyph glyph-name="ccedilla" unicode="&#xe7;" horiz-adv-x="518" 
d="M381 -117q0 -37 -26.5 -64.5t-74.5 -27.5q-18 0 -38 4.5t-45 18.5l16 51q30 -16 57 -16q29 0 37.5 12t8.5 23q0 4 -1.5 9.5t-5.5 10.5t-11.5 8.5t-18.5 3.5t-23 -1.5t-29 -6.5l12 85q-94 14 -143.5 83.5t-49.5 178.5q0 59 16 108t46.5 84t75.5 54t102 19q51 0 97 -16.5
t82 -44.5l-43 -64q-32 22 -66.5 34t-66.5 12q-73 0 -111.5 -46t-38.5 -140t39.5 -140.5t110.5 -46.5q37 0 73.5 11t73.5 34l34 -69q-81 -54 -180 -55l-3 -24h7q38 0 62.5 -22t24.5 -60z" />
    <glyph glyph-name="eacute" unicode="&#xe9;" horiz-adv-x="542" 
d="M494 271q0 -7 -1 -19.5t-3 -18.5h-351q3 -50 17.5 -82t36.5 -50.5t48.5 -25.5t52.5 -7q43 0 79 13.5t75 34.5l34 -68q-45 -28 -92.5 -43.5t-101.5 -15.5q-60 0 -105.5 20t-76 55t-45.5 84t-15 106q0 58 15 107t44 84t72 55t100 20q55 0 96 -19.5t68 -53t40 -79t13 -97.5z
M402 303q0 67 -34.5 103t-90.5 36q-16 0 -37 -4.5t-41.5 -19.5t-36 -42.5t-21.5 -72.5h261zM209 567l-38 43l151 142l49 -55z" />
    <glyph glyph-name="egrave" unicode="&#xe8;" horiz-adv-x="542" 
d="M494 271q0 -7 -1 -19.5t-3 -18.5h-351q3 -50 17.5 -82t36.5 -50.5t48.5 -25.5t52.5 -7q43 0 79 13.5t75 34.5l34 -68q-45 -28 -92.5 -43.5t-101.5 -15.5q-60 0 -105.5 20t-76 55t-45.5 84t-15 106q0 58 15 107t44 84t72 55t100 20q55 0 96 -19.5t68 -53t40 -79t13 -97.5z
M402 303q0 67 -34.5 103t-90.5 36q-16 0 -37 -4.5t-41.5 -19.5t-36 -42.5t-21.5 -72.5h261zM171 697l49 55l151 -142l-38 -43z" />
    <glyph glyph-name="ecircumflex" unicode="&#xea;" horiz-adv-x="542" 
d="M494 271q0 -7 -1 -19.5t-3 -18.5h-351q3 -50 17.5 -82t36.5 -50.5t48.5 -25.5t52.5 -7q43 0 79 13.5t75 34.5l34 -68q-45 -28 -92.5 -43.5t-101.5 -15.5q-60 0 -105.5 20t-76 55t-45.5 84t-15 106q0 58 15 107t44 84t72 55t100 20q55 0 96 -19.5t68 -53t40 -79t13 -97.5z
M402 303q0 67 -34.5 103t-90.5 36q-16 0 -37 -4.5t-41.5 -19.5t-36 -42.5t-21.5 -72.5h261zM387 574l-114 93h-3l-114 -93l-41 55l157 117l155 -117z" />
    <glyph glyph-name="edieresis" unicode="&#xeb;" horiz-adv-x="542" 
d="M494 271q0 -7 -1 -19.5t-3 -18.5h-351q3 -50 17.5 -82t36.5 -50.5t48.5 -25.5t52.5 -7q43 0 79 13.5t75 34.5l34 -68q-45 -28 -92.5 -43.5t-101.5 -15.5q-60 0 -105.5 20t-76 55t-45.5 84t-15 106q0 58 15 107t44 84t72 55t100 20q55 0 96 -19.5t68 -53t40 -79t13 -97.5z
M402 303q0 67 -34.5 103t-90.5 36q-16 0 -37 -4.5t-41.5 -19.5t-36 -42.5t-21.5 -72.5h261zM420 660q0 -23 -15.5 -38.5t-37.5 -15.5t-38 15.5t-16 38.5q0 22 16 37.5t38 15.5t37.5 -15.5t15.5 -37.5zM231 660q0 -23 -16 -38t-38 -15t-38 15t-16 38q0 22 16 37.5t38 15.5
t38 -15.5t16 -37.5z" />
    <glyph glyph-name="iacute" unicode="&#xed;" horiz-adv-x="251" 
d="M80 0v510h91v-510h-91zM64 567l-38 43l151 142l49 -55z" />
    <glyph glyph-name="igrave" unicode="&#xec;" horiz-adv-x="251" 
d="M80 0v510h91v-510h-91zM26 697l49 55l151 -142l-38 -43z" />
    <glyph glyph-name="icircumflex" unicode="&#xee;" horiz-adv-x="251" 
d="M80 0v510h91v-510h-91zM242 574l-114 93h-3l-114 -93l-41 55l157 117l155 -117z" />
    <glyph glyph-name="idieresis" unicode="&#xef;" horiz-adv-x="251" 
d="M80 0v510h91v-510h-91zM275 660q0 -23 -15.5 -38.5t-37.5 -15.5t-38 15.5t-16 38.5q0 22 16 37.5t38 15.5t37.5 -15.5t15.5 -37.5zM86 660q0 -23 -16 -38t-38 -15t-38 15t-16 38q0 22 16 37.5t38 15.5t38 -15.5t16 -37.5z" />
    <glyph glyph-name="ntilde" unicode="&#xf1;" 
d="M394 0v306q0 69 -21.5 102t-69.5 33q-43 0 -80 -22t-63 -50v-369h-90v509h75q2 -6 3.5 -15t3 -18.5t2.5 -18.5t1 -14h2q10 12 25.5 25.5t35.5 25t43.5 19t49.5 7.5q78 0 125.5 -50.5t47.5 -153.5v-316h-90zM415 669q-5 -10 -12.5 -21t-18 -20t-24.5 -15t-31 -6
q-19 0 -34 6t-27.5 13t-23 13t-21.5 6q-17 0 -38 -29l-49 35q4 9 12 20t19 20t25 15t31 6q19 0 33.5 -6t27 -12.5t23.5 -12.5t22 -6q17 0 37 27l49 -33v0z" />
    <glyph glyph-name="oacute" unicode="&#xf3;" horiz-adv-x="563" 
d="M517 255q0 -56 -15.5 -104.5t-45 -84.5t-73.5 -56.5t-101 -20.5t-101 20.5t-74 56.5t-45.5 84.5t-15.5 104.5q0 60 15.5 108.5t45.5 83.5t74 54t101 19q59 0 103 -19t73.5 -54t44 -83.5t14.5 -108.5zM424 256q0 87 -35 136t-107 49q-70 0 -106.5 -49.5t-36.5 -135.5
q0 -87 37 -137.5t106 -50.5q68 0 105 51t37 137zM219 567l-38 43l151 142l49 -55z" />
    <glyph glyph-name="ograve" unicode="&#xf2;" horiz-adv-x="563" 
d="M517 255q0 -56 -15.5 -104.5t-45 -84.5t-73.5 -56.5t-101 -20.5t-101 20.5t-74 56.5t-45.5 84.5t-15.5 104.5q0 60 15.5 108.5t45.5 83.5t74 54t101 19q59 0 103 -19t73.5 -54t44 -83.5t14.5 -108.5zM424 256q0 87 -35 136t-107 49q-70 0 -106.5 -49.5t-36.5 -135.5
q0 -87 37 -137.5t106 -50.5q68 0 105 51t37 137zM181 697l49 55l151 -142l-38 -43z" />
    <glyph glyph-name="ocircumflex" unicode="&#xf4;" horiz-adv-x="563" 
d="M517 255q0 -56 -15.5 -104.5t-45 -84.5t-73.5 -56.5t-101 -20.5t-101 20.5t-74 56.5t-45.5 84.5t-15.5 104.5q0 60 15.5 108.5t45.5 83.5t74 54t101 19q59 0 103 -19t73.5 -54t44 -83.5t14.5 -108.5zM424 256q0 87 -35 136t-107 49q-70 0 -106.5 -49.5t-36.5 -135.5
q0 -87 37 -137.5t106 -50.5q68 0 105 51t37 137zM397 574l-114 93h-3l-114 -93l-41 55l157 117l155 -117z" />
    <glyph glyph-name="odieresis" unicode="&#xf6;" horiz-adv-x="563" 
d="M517 255q0 -56 -15.5 -104.5t-45 -84.5t-73.5 -56.5t-101 -20.5t-101 20.5t-74 56.5t-45.5 84.5t-15.5 104.5q0 60 15.5 108.5t45.5 83.5t74 54t101 19q59 0 103 -19t73.5 -54t44 -83.5t14.5 -108.5zM424 256q0 87 -35 136t-107 49q-70 0 -106.5 -49.5t-36.5 -135.5
q0 -87 37 -137.5t106 -50.5q68 0 105 51t37 137zM430 660q0 -23 -15.5 -38.5t-37.5 -15.5t-38 15.5t-16 38.5q0 22 16 37.5t38 15.5t37.5 -15.5t15.5 -37.5zM241 660q0 -23 -16 -38t-38 -15t-38 15t-16 38q0 22 16 37.5t38 15.5t38 -15.5t16 -37.5z" />
    <glyph glyph-name="otilde" unicode="&#xf5;" horiz-adv-x="563" 
d="M517 255q0 -56 -15.5 -104.5t-45 -84.5t-73.5 -56.5t-101 -20.5t-101 20.5t-74 56.5t-45.5 84.5t-15.5 104.5q0 60 15.5 108.5t45.5 83.5t74 54t101 19q59 0 103 -19t73.5 -54t44 -83.5t14.5 -108.5zM424 256q0 87 -35 136t-107 49q-70 0 -106.5 -49.5t-36.5 -135.5
q0 -87 37 -137.5t106 -50.5q68 0 105 51t37 137zM421 669q-5 -10 -12.5 -21t-18 -20t-24.5 -15t-31 -6q-19 0 -34 6t-27.5 13t-23 13t-21.5 6q-17 0 -38 -29l-49 35q4 9 12 20t19 20t25 15t31 6q19 0 33.5 -6t27 -12.5t23.5 -12.5t22 -6q17 0 37 27l49 -33v0z" />
    <glyph glyph-name="uacute" unicode="&#xfa;" 
d="M409 0q-2 6 -3.5 15t-3 18.5t-2.5 18.5t-1 14h-2q-10 -12 -25.5 -25.5t-35.5 -25t-43.5 -19t-49.5 -7.5q-78 0 -125.5 50.5t-47.5 153.5v316h90v-306q0 -69 21.5 -102t69.5 -33q43 0 80 22.5t63 49.5v369h90v-509h-75zM213 567l-38 43l151 142l49 -55z" />
    <glyph glyph-name="ugrave" unicode="&#xf9;" 
d="M409 0q-2 6 -3.5 15t-3 18.5t-2.5 18.5t-1 14h-2q-10 -12 -25.5 -25.5t-35.5 -25t-43.5 -19t-49.5 -7.5q-78 0 -125.5 50.5t-47.5 153.5v316h90v-306q0 -69 21.5 -102t69.5 -33q43 0 80 22.5t63 49.5v369h90v-509h-75zM175 697l49 55l151 -142l-38 -43z" />
    <glyph glyph-name="ucircumflex" unicode="&#xfb;" 
d="M409 0q-2 6 -3.5 15t-3 18.5t-2.5 18.5t-1 14h-2q-10 -12 -25.5 -25.5t-35.5 -25t-43.5 -19t-49.5 -7.5q-78 0 -125.5 50.5t-47.5 153.5v316h90v-306q0 -69 21.5 -102t69.5 -33q43 0 80 22.5t63 49.5v369h90v-509h-75zM391 574l-114 93h-3l-114 -93l-41 55l157 117
l155 -117z" />
    <glyph glyph-name="udieresis" unicode="&#xfc;" 
d="M409 0q-2 6 -3.5 15t-3 18.5t-2.5 18.5t-1 14h-2q-10 -12 -25.5 -25.5t-35.5 -25t-43.5 -19t-49.5 -7.5q-78 0 -125.5 50.5t-47.5 153.5v316h90v-306q0 -69 21.5 -102t69.5 -33q43 0 80 22.5t63 49.5v369h90v-509h-75zM424 660q0 -23 -15.5 -38.5t-37.5 -15.5t-38 15.5
t-16 38.5q0 22 16 37.5t38 15.5t37.5 -15.5t15.5 -37.5zM235 660q0 -23 -16 -38t-38 -15t-38 15t-16 38q0 22 16 37.5t38 15.5t38 -15.5t16 -37.5z" />
    <glyph glyph-name="Acircumflex" unicode="&#xc2;" horiz-adv-x="629" 
d="M518 0l-60 171h-290l-60 -171h-90l240 674l110 12l244 -686h-94zM385 378q-3 8 -12 34q-8 22 -22 63t-37 112h-3q-24 -71 -37.5 -112t-21.5 -63q-9 -26 -12 -34l-47 -135h240zM430 774l-114 93h-3l-114 -93l-41 55l157 117l155 -117z" />
    <glyph glyph-name="Ecircumflex" unicode="&#xca;" horiz-adv-x="523" 
d="M477 0h-401v685h393v-81h-300v-218h265v-81h-265v-224h317zM390 774l-114 93h-3l-114 -93l-41 55l157 117l155 -117z" />
    <glyph glyph-name="Aacute" unicode="&#xc1;" horiz-adv-x="629" 
d="M518 0l-60 171h-290l-60 -171h-90l240 674l110 12l244 -686h-94zM385 378q-3 8 -12 34q-8 22 -22 63t-37 112h-3q-24 -71 -37.5 -112t-21.5 -63q-9 -26 -12 -34l-47 -135h240zM252 767l-38 43l151 142l49 -55z" />
    <glyph glyph-name="Edieresis" unicode="&#xcb;" horiz-adv-x="523" 
d="M477 0h-401v685h393v-81h-300v-218h265v-81h-265v-224h317zM420 860q0 -23 -15.5 -38.5t-37.5 -15.5t-38 15.5t-16 38.5q0 22 16 37.5t38 15.5t37.5 -15.5t15.5 -37.5zM231 860q0 -23 -16 -38t-38 -15t-38 15t-16 38q0 22 16 37.5t38 15.5t38 -15.5t16 -37.5z" />
    <glyph glyph-name="Egrave" unicode="&#xc8;" horiz-adv-x="523" 
d="M477 0h-401v685h393v-81h-300v-218h265v-81h-265v-224h317zM171 897l49 55l151 -142l-38 -43z" />
    <glyph glyph-name="Iacute" unicode="&#xcd;" horiz-adv-x="245" 
d="M76 0v685h93v-685h-93zM61 767l-38 43l151 142l49 -55z" />
    <glyph glyph-name="Icircumflex" unicode="&#xce;" horiz-adv-x="245" 
d="M76 0v685h93v-685h-93zM239 774l-114 93h-3l-114 -93l-41 55l157 117l155 -117z" />
    <glyph glyph-name="Idieresis" unicode="&#xcf;" horiz-adv-x="245" 
d="M76 0v685h93v-685h-93zM272 860q0 -23 -15.5 -38.5t-37.5 -15.5t-38 15.5t-16 38.5q0 22 16 37.5t38 15.5t37.5 -15.5t15.5 -37.5zM83 860q0 -23 -16 -38t-38 -15t-38 15t-16 38q0 22 16 37.5t38 15.5t38 -15.5t16 -37.5z" />
    <glyph glyph-name="Igrave" unicode="&#xcc;" horiz-adv-x="245" 
d="M76 0v685h93v-685h-93zM23 897l49 55l151 -142l-38 -43z" />
    <glyph glyph-name="Oacute" unicode="&#xd3;" horiz-adv-x="692" 
d="M638 343q0 -75 -17.5 -139.5t-53.5 -112.5t-91 -75t-130 -27t-130 27t-91 75t-53.5 112.5t-17.5 139.5q0 79 17.5 144t53.5 111.5t91 72t130 25.5t130 -25.5t91 -72t53.5 -111.5t17.5 -144zM542 344q0 59 -11.5 109t-35.5 86t-61 56t-88 20t-88 -20t-61 -56t-35.5 -86
t-11.5 -109t11.5 -109.5t35.5 -87t61 -57t88 -20.5q50 0 87 20.5t61 57.5t36 87t12 109zM284 767l-38 43l151 142l49 -55z" />
    <glyph glyph-name="Ocircumflex" unicode="&#xd4;" horiz-adv-x="692" 
d="M638 343q0 -75 -17.5 -139.5t-53.5 -112.5t-91 -75t-130 -27t-130 27t-91 75t-53.5 112.5t-17.5 139.5q0 79 17.5 144t53.5 111.5t91 72t130 25.5t130 -25.5t91 -72t53.5 -111.5t17.5 -144zM542 344q0 59 -11.5 109t-35.5 86t-61 56t-88 20t-88 -20t-61 -56t-35.5 -86
t-11.5 -109t11.5 -109.5t35.5 -87t61 -57t88 -20.5q50 0 87 20.5t61 57.5t36 87t12 109zM462 774l-114 93h-3l-114 -93l-41 55l157 117l155 -117z" />
    <glyph glyph-name="Agrave" unicode="&#xc0;" horiz-adv-x="629" 
d="M518 0l-60 171h-290l-60 -171h-90l240 674l110 12l244 -686h-94zM385 378q-3 8 -12 34q-8 22 -22 63t-37 112h-3q-24 -71 -37.5 -112t-21.5 -63q-9 -26 -12 -34l-47 -135h240zM214 897l49 55l151 -142l-38 -43z" />
    <glyph glyph-name="Atilde" unicode="&#xc3;" horiz-adv-x="629" 
d="M518 0l-60 171h-290l-60 -171h-90l240 674l110 12l244 -686h-94zM385 378q-3 8 -12 34q-8 22 -22 63t-37 112h-3q-24 -71 -37.5 -112t-21.5 -63q-9 -26 -12 -34l-47 -135h240zM454 869q-5 -10 -12.5 -21t-18 -20t-24.5 -15t-31 -6q-19 0 -34 6t-27.5 13t-23 13t-21.5 6
q-17 0 -38 -29l-49 35q4 9 12 20t19 20t25 15t31 6q19 0 33.5 -6t27 -12.5t23.5 -12.5t22 -6q17 0 37 27l49 -33v0z" />
    <glyph glyph-name="Otilde" unicode="&#xd5;" horiz-adv-x="692" 
d="M638 343q0 -75 -17.5 -139.5t-53.5 -112.5t-91 -75t-130 -27t-130 27t-91 75t-53.5 112.5t-17.5 139.5q0 79 17.5 144t53.5 111.5t91 72t130 25.5t130 -25.5t91 -72t53.5 -111.5t17.5 -144zM542 344q0 59 -11.5 109t-35.5 86t-61 56t-88 20t-88 -20t-61 -56t-35.5 -86
t-11.5 -109t11.5 -109.5t35.5 -87t61 -57t88 -20.5q50 0 87 20.5t61 57.5t36 87t12 109zM486 869q-5 -10 -12.5 -21t-18 -20t-24.5 -15t-31 -6q-19 0 -34 6t-27.5 13t-23 13t-21.5 6q-17 0 -38 -29l-49 35q4 9 12 20t19 20t25 15t31 6q19 0 33.5 -6t27 -12.5t23.5 -12.5
t22 -6q17 0 37 27l49 -33v0z" />
    <glyph glyph-name="Ograve" unicode="&#xd2;" horiz-adv-x="692" 
d="M638 343q0 -75 -17.5 -139.5t-53.5 -112.5t-91 -75t-130 -27t-130 27t-91 75t-53.5 112.5t-17.5 139.5q0 79 17.5 144t53.5 111.5t91 72t130 25.5t130 -25.5t91 -72t53.5 -111.5t17.5 -144zM542 344q0 59 -11.5 109t-35.5 86t-61 56t-88 20t-88 -20t-61 -56t-35.5 -86
t-11.5 -109t11.5 -109.5t35.5 -87t61 -57t88 -20.5q50 0 87 20.5t61 57.5t36 87t12 109zM246 897l49 55l151 -142l-38 -43z" />
    <glyph glyph-name="Uacute" unicode="&#xda;" horiz-adv-x="638" 
d="M567 235q0 -116 -61 -181t-184 -65q-124 0 -185 65t-61 180v451h93v-458q0 -72 35 -114.5t118 -42.5q82 0 117 42.5t35 113.5v459h93v-450v0zM257 767l-38 43l151 142l49 -55z" />
    <glyph glyph-name="Ucircumflex" unicode="&#xdb;" horiz-adv-x="638" 
d="M567 235q0 -116 -61 -181t-184 -65q-124 0 -185 65t-61 180v451h93v-458q0 -72 35 -114.5t118 -42.5q82 0 117 42.5t35 113.5v459h93v-450v0zM435 774l-114 93h-3l-114 -93l-41 55l157 117l155 -117z" />
    <glyph glyph-name="Ugrave" unicode="&#xd9;" horiz-adv-x="638" 
d="M567 235q0 -116 -61 -181t-184 -65q-124 0 -185 65t-61 180v451h93v-458q0 -72 35 -114.5t118 -42.5q82 0 117 42.5t35 113.5v459h93v-450v0zM219 897l49 55l151 -142l-38 -43z" />
    <glyph glyph-name="dagger" unicode="&#x2020;" horiz-adv-x="449" 
d="M262 431l4 -431h-82l3 431l-133 -3v77l133 -3l-3 183h82l-4 -183l133 3v-77z" />
    <glyph glyph-name="degree" unicode="&#xb0;" horiz-adv-x="326" 
d="M277 635q0 -24 -9 -45t-24.5 -36t-36 -24t-44.5 -9t-44.5 9t-36 24t-24.5 36t-9 45t9 44.5t24.5 36.5t36 25t44.5 9t44.5 -9t36 -25t24.5 -36.5t9 -44.5zM228 635q0 26 -19.5 45.5t-45.5 19.5t-45 -19.5t-19 -45.5q0 -27 19 -45.5t45 -18.5t45.5 18.5t19.5 45.5z" />
    <glyph glyph-name="cent" unicode="&#xa2;" horiz-adv-x="600" 
d="M297 439q-57 -9 -86.5 -54.5t-29.5 -129.5t30.5 -129.5t85.5 -54.5v368zM514 51q-36 -24 -77.5 -40.5t-86.5 -20.5v-87h-53v88q-50 4 -89 25t-66 55t-41 80.5t-14 103.5q0 55 14 101.5t41 81t66 55t89 25.5v88h53v-88q48 -5 88 -24t72 -43l-48 -62q-26 18 -54.5 31.5
t-57.5 18.5v-369q33 4 64.5 17t63.5 33z" />
    <glyph glyph-name="sterling" unicode="&#xa3;" horiz-adv-x="600" 
d="M423 310h-153q6 -29 6 -58q0 -39 -15 -81t-48 -88v-2h300v-81h-380l-18 76q75 85 75 161q0 18 -2.5 36.5t-6.5 36.5h-88v59h73q-9 33 -16.5 67.5t-7.5 72.5q0 46 17 80.5t45.5 58t66 35.5t77.5 12q43 0 79.5 -9t70.5 -26l-37 -70q-26 11 -53 17.5t-60 6.5q-23 0 -44 -6.5
t-36.5 -20t-24.5 -33t-9 -45.5q0 -36 8 -70.5t16 -69.5h173z" />
    <glyph glyph-name="section" unicode="&#xa7;" horiz-adv-x="502" 
d="M277 697q45 0 82 -12t72 -32l-29 -68q-34 16 -63.5 25.5t-61.5 9.5q-42 0 -65 -20t-23 -56q0 -32 19 -50.5t47 -31.5t61 -24.5t61 -31t47 -50.5t19 -82q0 -35 -13.5 -63.5t-36.5 -50.5q13 -18 20 -41.5t7 -53.5q0 -37 -15 -67t-40 -51t-58.5 -32.5t-69.5 -11.5
q-57 0 -102 20.5t-75 41.5l37 67q27 -19 64.5 -35t75.5 -16q42 0 69.5 22t27.5 64q0 27 -16 46t-38 32t-43.5 21t-33.5 13q-26 10 -48 23.5t-38.5 32.5t-26 43t-9.5 56q0 37 14 66.5t39 50.5q-14 17 -21.5 40t-7.5 53q0 36 13 64t36.5 48t55 30.5t67.5 10.5zM202 399
q-35 -19 -35 -65q0 -31 20 -50.5t46.5 -32.5t54 -21.5t42.5 -17.5q12 11 19.5 26.5t7.5 36.5q0 33 -15.5 52.5t-39 31.5t-50.5 20.5t-50 19.5z" />
    <glyph glyph-name="bullet" unicode="&#x2022;" horiz-adv-x="448" 
d="M368 345q0 -30 -11.5 -56t-31 -45.5t-45.5 -31t-56 -11.5t-56 11.5t-45.5 31t-31 45.5t-11.5 56t11.5 56.5t31 46t45.5 31t56 11.5t56 -11.5t45.5 -31t31 -46t11.5 -56.5z" />
    <glyph glyph-name="paragraph" unicode="&#xb6;" horiz-adv-x="613" 
d="M299 -121v360h-14q-48 0 -90 17.5t-73.5 48t-49.5 71t-18 86.5t18 86.5t49.5 71t73.5 48t90 17.5h282v-806h-96v737h-76v-737h-96z" />
    <glyph glyph-name="germandbls" unicode="&#xdf;" horiz-adv-x="584" 
d="M543 145q0 -38 -13.5 -67.5t-37 -49t-55 -29.5t-67.5 -10q-32 0 -62.5 10t-59.5 25l30 74q20 -10 44.5 -20t47.5 -10q38 0 60.5 20t22.5 57q0 26 -13.5 43.5t-33.5 32t-44 28t-44 31.5t-33.5 43.5t-13.5 64.5q0 37 16 61t34.5 44.5t34.5 42t16 52.5q0 39 -25 60.5
t-60 21.5q-38 0 -63 -21.5t-25 -72.5v-576h-90v436h-95v73h95v72q0 38 13 69t36.5 53t55 34t67.5 12q37 0 69 -12t56 -33t37.5 -50.5t13.5 -63.5q0 -36 -15 -61.5t-33 -47t-33 -42t-15 -45.5q0 -26 13.5 -43t33.5 -31t44 -27t44 -32t33.5 -46.5t13.5 -69.5z" />
    <glyph glyph-name="registered" unicode="&#xae;" horiz-adv-x="604" 
d="M558 426q0 -69 -21.5 -120t-57 -85.5t-82 -51.5t-96.5 -17t-96.5 17t-81.5 51.5t-56 85.5t-21 120t21 120t56 85t81 50.5t96 16.5q51 0 97.5 -16.5t82 -50.5t57 -85t21.5 -120zM504 426q0 53 -15 94t-41.5 69t-64 42.5t-82.5 14.5q-93 0 -147 -56.5t-54 -163.5
q0 -108 54 -165t146 -57q46 0 83.5 14.5t64.5 43t41.5 69.5t14.5 95zM359 284l-44 79l-14 22t-18 11h-22v-112h-54v283h94q48 0 71.5 -23.5t23.5 -61.5q0 -26 -11.5 -45.5t-37.5 -30.5q4 -5 7 -9.5t6 -9.5l56 -103h-57zM342 482q0 19 -8.5 29t-32.5 10h-41v-80h41
q41 0 41 41z" />
    <glyph glyph-name="copyright" unicode="&#xa9;" horiz-adv-x="694" 
d="M648 313q0 -82 -25 -143t-67 -101.5t-96.5 -60.5t-114.5 -20t-114 20t-95 60.5t-65.5 101.5t-24.5 143q0 81 24.5 141.5t65.5 100t95 59.5t114 20t114.5 -19.5t96.5 -59.5t67 -100.5t25 -141.5zM594 313q0 63 -19 113t-52.5 84.5t-79 53t-98.5 18.5t-98 -18.5t-77.5 -53
t-51 -84.5t-18.5 -113q0 -64 18.5 -114.5t51.5 -86t77.5 -54t97.5 -18.5t98.5 18.5t79 54t52.5 86t19 114.5zM488 203q-32 -38 -65.5 -54t-80.5 -16q-40 0 -70.5 14t-51 38t-31 57t-10.5 71q0 39 11 72t31.5 57t51 37t69.5 13q47 0 83 -19.5t63 -64.5l-49 -24
q-18 31 -42 43.5t-55 12.5q-51 0 -79 -35t-28 -92t28 -92.5t79 -35.5q41 0 65 15t43 37z" />
    <glyph glyph-name="trademark" unicode="&#x2122;" horiz-adv-x="900" 
d="M759 278l-18 296h-2l-85 -241h-77l-85 237h-2l-19 -292h-76l30 409h98l90 -263h2l93 263h97l29 -409h-75zM252 625v-347h-79v347h-103v62h285v-62h-103z" />
    <glyph glyph-name="notequal" unicode="&#x2260;" horiz-adv-x="565" 
d="M285 118l-23 -95l-66 16l18 79h-160v80h180l26 110h-206v80h226l23 95l66 -16l-19 -79h161v-80h-180l-26 -110h206v-80h-226z" />
    <glyph glyph-name="AE" unicode="&#xc6;" horiz-adv-x="908" 
d="M525 0l-28 171h-301l-81 -171h-97l326 686h434l15 -81h-274l36 -219h229l14 -81h-230l37 -224h285v-81h-365zM426 605h-26l-171 -362h257z" />
    <glyph glyph-name="Oslash" unicode="&#xd8;" horiz-adv-x="692" 
d="M638 343q0 -75 -17.5 -139.5t-53.5 -112.5t-91 -75t-130 -27q-45 0 -82 10t-68 28l-51 -89l-49 28l55 95q-50 48 -73.5 121t-23.5 161q0 79 17.5 144t53.5 111.5t91 72t130 25.5q45 0 82.5 -9.5t68.5 -26.5l50 87l49 -28l-54 -93q49 -47 72.5 -119t23.5 -164zM542 344
q0 60 -12 110.5t-37 86.5l-253 -438q44 -33 106 -33q50 0 87 20.5t61 57.5t36 87t12 109zM452 583q-43 32 -106 32q-51 0 -88 -20t-61 -56t-35.5 -86t-11.5 -109q0 -61 12 -111.5t37 -87.5z" />
    <glyph glyph-name="plusminus" unicode="&#xb1;" horiz-adv-x="565" 
d="M322 214v-157h-80v157h-188v80h188v158h80v-158h189v-80h-189zM54 -84v76h457v-76h-457z" />
    <glyph glyph-name="lessequal" unicode="&#x2264;" horiz-adv-x="463" 
d="M371 57l-322 234l323 232l42 -62l-242 -170l242 -172zM49 -83v75h365v-75h-365z" />
    <glyph glyph-name="greaterequal" unicode="&#x2265;" horiz-adv-x="463" 
d="M291 291l-242 170l42 62l323 -232l-322 -234l-43 62zM49 -8h365v-75h-365v75z" />
    <glyph glyph-name="yen" unicode="&#xa5;" horiz-adv-x="600" 
d="M346 187v-187h-91v187h-160v63h160v41l-14 25h-146v63h113l-163 306h101l150 -318h6l151 318h102l-164 -306h112v-63h-144l-14 -25v-41h158v-63h-157z" />
    <glyph glyph-name="ordfeminine" unicode="&#xaa;" horiz-adv-x="388" 
d="M265 365q-18 -20 -45 -31.5t-57 -11.5q-51 0 -82.5 29.5t-31.5 74.5q0 33 14.5 53.5t37.5 32.5t51 16.5t55 4.5q15 0 29 -1t26 -3v27q0 40 -15.5 57.5t-48.5 17.5q-22 0 -47 -8.5t-48 -24.5l-35 50q28 20 60.5 32.5t71.5 12.5q28 0 52.5 -9t42.5 -25.5t28 -41t10 -55.5
v-184q0 -4 1 -11q1 -6 2 -15t3 -22h-68q-3 8 -4.5 17.5t-1.5 17.5zM262 479q-8 1 -20 2t-25 1q-17 0 -33.5 -2t-30.5 -8t-22.5 -16t-8.5 -26q0 -17 12.5 -32.5t41.5 -15.5q24 0 47 9.5t39 23.5v64z" />
    <glyph glyph-name="ordmasculine" unicode="&#xba;" horiz-adv-x="434" 
d="M218 322q-41 0 -72.5 14.5t-53 39.5t-32.5 59t-11 73q0 83 43 134t126 51q42 0 73.5 -13.5t52 -38t31 -58.5t10.5 -75q0 -39 -11 -73t-32 -59t-52.5 -39.5t-71.5 -14.5zM218 631q-47 0 -71.5 -32.5t-24.5 -90.5t25 -91t71 -33q45 0 69.5 33.5t24.5 90.5q0 59 -23 91
t-71 32z" />
    <glyph glyph-name="ae" unicode="&#xe6;" horiz-adv-x="847" 
d="M799 271q0 -7 -1 -19.5t-3 -18.5h-351q3 -50 17.5 -82t36.5 -50.5t48.5 -25.5t52.5 -7q43 0 79 13.5t75 34.5l34 -68q-45 -28 -92.5 -43.5t-101.5 -15.5q-63 0 -109.5 21.5t-76.5 59.5q-14 -13 -33.5 -27.5t-44.5 -26.5t-53.5 -19.5t-60.5 -7.5q-80 0 -124.5 42.5
t-44.5 109.5q0 44 20 72t52 44t71.5 22t77.5 6q23 0 44.5 -1.5t39.5 -3.5v45q0 60 -24.5 88t-75.5 28q-32 0 -68.5 -12.5t-66.5 -33.5l-43 64q35 26 80 43.5t101 17.5q51 0 90.5 -20.5t63.5 -58.5q29 37 72.5 57t101.5 20q55 0 96 -19t68 -52.5t40 -78.5t13 -97zM373 129
q-16 40 -21 89h-1q-12 1 -28.5 2.5t-36.5 1.5q-25 0 -51 -3.5t-47.5 -12.5t-35 -24.5t-13.5 -40.5q0 -28 19.5 -52t63.5 -24q51 0 89 21t62 43zM707 303q0 67 -34.5 102t-90.5 35q-16 0 -37 -4.5t-41.5 -18.5t-36 -41.5t-21.5 -72.5h261z" />
    <glyph glyph-name="oslash" unicode="&#xf8;" horiz-adv-x="563" 
d="M517 255q0 -56 -15.5 -104.5t-45 -84.5t-73.5 -56.5t-101 -20.5q-60 0 -108 23l-39 -68l-49 28l41 72q-40 36 -60.5 90.5t-20.5 120.5q0 60 15.5 108.5t45.5 83.5t74 54t101 19q61 0 108 -21l38 66l49 -28l-40 -69q41 -35 60.5 -89.5t19.5 -123.5zM424 256q0 85 -33 132
l-175 -304q26 -16 66 -16q68 0 105 51t37 137zM348 426q-27 15 -66 15q-70 0 -106.5 -49.5t-36.5 -135.5q0 -84 34 -133z" />
    <glyph glyph-name="questiondown" unicode="&#xbf;" horiz-adv-x="459" 
d="M54 93q0 36 12 61.5t29.5 45.5t38.5 37t38.5 35.5t29.5 41t12 54.5q0 20 -4 39l87 14q2 -14 3.5 -27.5t1.5 -25.5q0 -40 -11.5 -69t-29 -51t-38 -38.5t-38 -32.5t-29 -33.5t-11.5 -40.5q0 -89 95 -89q33 0 64 12t59 29l34 -70q-28 -18 -67.5 -34.5t-99.5 -16.5
q-33 0 -64.5 10.5t-56.5 30.5t-40 50t-15 68zM250 514q-26 0 -43.5 18t-17.5 44t17.5 44.5t43.5 18.5t43.5 -18.5t17.5 -43.5q0 -26 -17.5 -44.5t-43.5 -18.5z" />
    <glyph glyph-name="exclamdown" unicode="&#xa1;" horiz-adv-x="334" 
d="M106 574q0 25 17.5 43.5t43.5 18.5t43.5 -18.5t17.5 -43.5q0 -26 -17.5 -44.5t-43.5 -18.5t-43.5 18.5t-17.5 44.5zM123 426h87l11 -486h-109z" />
    <glyph glyph-name="logicalnot" unicode="&#xac;" horiz-adv-x="591" 
d="M457 49v173h-403v74h483v-247h-80z" />
    <glyph glyph-name="florin" unicode="&#x192;" horiz-adv-x="572" 
d="M498 645q-23 11 -45 18.5t-44 7.5q-35 0 -58.5 -20t-31.5 -77l-16 -112h137l-11 -73h-136l-61 -432q-5 -38 -20 -66t-36.5 -48.5t-47.5 -33.5t-53 -19l-36 73q20 7 37.5 15.5t31 20.5t23 29t12.5 42l60 419h-102l11 73h101l17 124q11 79 57 121.5t120 42.5q34 0 64 -9.5
t57 -26.5z" />
    <glyph glyph-name="approxequal" unicode="&#x2248;" horiz-adv-x="533" 
d="M468 304q-19 -11 -38 -17t-35 -8q-18 -4 -36 -3q-26 0 -51 8.5t-49 19t-45.5 19.5t-39.5 9q-33 0 -59 -8.5t-50 -19.5v68q19 11 38 16.5t35 8.5q18 4 36 4q26 0 51.5 -9t49 -19.5t45 -19.5t39.5 -9q34 0 60 8.5t49 19.5v-68zM468 119q-19 -11 -38 -17t-35 -8
q-18 -4 -36 -3q-26 0 -51 8.5t-49 19t-45.5 19.5t-39.5 9q-33 0 -59 -8t-50 -20v69q19 11 38 16t35 8q18 3 36 4q26 0 51.5 -9t49 -19.5t45 -19.5t39.5 -9q34 0 60 8.5t49 20.5v-69z" />
    <glyph glyph-name="guillemotleft" unicode="&#xab;" horiz-adv-x="552" 
d="M249 59l-200 229l200 229l57 -50l-159 -179l159 -179zM446 59l-200 229l200 229l57 -50l-159 -179l159 -179z" />
    <glyph glyph-name="guillemotright" unicode="&#xbb;" horiz-adv-x="552" 
d="M405 288l-159 179l57 50l200 -229l-200 -229l-57 50zM208 288l-159 179l57 50l200 -229l-200 -229l-57 50z" />
    <glyph glyph-name="ellipsis" unicode="&#x2026;" horiz-adv-x="751" 
d="M188 55q0 -27 -18.5 -46.5t-45.5 -19.5t-45.5 19.5t-18.5 45.5q0 27 18.5 46.5t45.5 19.5t45.5 -19.5t18.5 -45.5zM439 55q0 -27 -18.5 -46.5t-45.5 -19.5q-26 0 -45 19.5t-19 45.5q0 27 19 46.5t45 19.5q27 0 45.5 -19.5t18.5 -45.5zM691 55q0 -27 -19 -46.5t-45 -19.5
q-27 0 -45.5 19.5t-18.5 45.5q0 27 18.5 46.5t45.5 19.5q26 0 45 -19.5t19 -45.5z" />
    <glyph glyph-name="OE" unicode="&#x152;" horiz-adv-x="980" 
d="M934 0h-386v68q-35 -38 -85.5 -58.5t-116.5 -20.5q-75 0 -130 27t-91 75t-53.5 112.5t-17.5 139.5q0 79 17.5 144t53.5 111.5t91 72t130 25.5q66 0 116.5 -19.5t85.5 -55.5v64h386v-81h-293v-218h250v-81h-250v-224h301zM542 344q0 59 -11.5 109t-35.5 86t-61 56t-88 20
t-88 -20t-61 -56t-35.5 -86t-11.5 -109t11.5 -109.5t35.5 -87t61 -57t88 -20.5q50 0 87 20.5t61 57.5t36 87t12 109z" />
    <glyph glyph-name="oe" unicode="&#x153;" horiz-adv-x="928" 
d="M880 271q0 -7 -1 -19.5t-3 -18.5h-351q3 -50 17.5 -82t36.5 -50.5t48.5 -25.5t52.5 -7q43 0 79 13.5t75 34.5l34 -68q-45 -28 -92.5 -43.5t-101.5 -15.5q-72 0 -122 27t-79 75q-29 -48 -76.5 -75t-114.5 -27q-57 0 -101 20.5t-74 56.5t-45.5 84.5t-15.5 104.5
q0 60 15.5 108.5t45.5 83.5t74 54t101 19q69 0 116.5 -25.5t76.5 -72.5q29 45 75.5 70.5t112.5 25.5q55 0 96 -19t68 -52.5t40 -78.5t13 -97zM427 256q0 87 -36.5 136t-108.5 49q-70 0 -106.5 -49.5t-36.5 -135.5q0 -87 37 -137.5t106 -50.5q68 0 106.5 51t38.5 137z
M788 303q0 67 -34.5 102t-90.5 35q-16 0 -37 -4.5t-41.5 -18.5t-36 -41.5t-21.5 -72.5h261z" />
    <glyph glyph-name="endash" unicode="&#x2013;" horiz-adv-x="500" 
d="M0 239v80h500v-80h-500z" />
    <glyph glyph-name="emdash" unicode="&#x2014;" horiz-adv-x="1000" 
d="M0 239v80h1000v-80h-1000z" />
    <glyph glyph-name="quotedblleft" unicode="&#x201c;" horiz-adv-x="406" 
d="M227 521q0 27 11.5 55.5t26.5 53t30 42.5t22 25l38 -18q-5 -6 -14 -20.5t-17 -31.5t-14 -33.5t-6 -26.5q25 -4 39.5 -22.5t14.5 -41.5q0 -27 -18.5 -46.5t-45.5 -19.5t-47 22t-20 62zM58 521q0 27 11 55.5t26 53t30 42.5t22 25l39 -18q-5 -6 -14 -20.5t-17.5 -31.5
t-14.5 -33.5t-6 -26.5q25 -4 40 -22.5t15 -41.5q0 -27 -18.5 -46.5t-45.5 -19.5q-28 0 -47.5 22t-19.5 62z" />
    <glyph glyph-name="quotedblright" unicode="&#x201d;" horiz-adv-x="406" 
d="M179 613q0 -27 -11 -55.5t-26 -53t-30 -42.5t-22 -25l-39 18q5 6 13.5 20.5t17 31.5t14.5 33.5t6 26.5q-24 5 -39 23t-15 41q0 27 18.5 46.5t45.5 19.5q28 0 47.5 -22t19.5 -62zM348 613q0 -27 -11 -55.5t-26 -53t-30 -42.5t-22 -25l-39 18q5 6 14 20.5t17.5 31.5
t14.5 33.5t6 26.5q-25 5 -40 23t-15 41q0 27 19 46.5t45 19.5q28 0 47.5 -22t19.5 -62z" />
    <glyph glyph-name="quoteleft" unicode="&#x2018;" horiz-adv-x="237" 
d="M58 521q0 27 11 55.5t26 53t30 42.5t22 25l39 -18q-5 -6 -14 -20.5t-17.5 -31.5t-14.5 -33.5t-6 -26.5q25 -4 40 -22.5t15 -41.5q0 -27 -18.5 -46.5t-45.5 -19.5q-28 0 -47.5 22t-19.5 62z" />
    <glyph glyph-name="quoteright" unicode="&#x2019;" horiz-adv-x="237" 
d="M179 613q0 -27 -11 -55.5t-26 -53t-30 -42.5t-22 -25l-39 18q5 6 13.5 20.5t17 31.5t14.5 33.5t6 26.5q-24 5 -39 23t-15 41q0 27 18.5 46.5t45.5 19.5q28 0 47.5 -22t19.5 -62z" />
    <glyph glyph-name="ydieresis" unicode="&#xff;" horiz-adv-x="482" 
d="M264 -62q-9 -23 -21.5 -49t-32.5 -48t-48 -36t-68 -14q-23 0 -45 4t-38 10l12 75q13 -5 31.5 -8t32.5 -3q22 0 37.5 8t26.5 21.5t19 30.5t14 34l21 57l-194 489h90l89 -237q3 -8 10 -27q6 -17 17.5 -46t29.5 -77h3q16 48 26 77t15 46q6 19 9 27l81 237h90zM391 660
q0 -23 -15.5 -38.5t-37.5 -15.5t-38 15.5t-16 38.5q0 22 16 37.5t38 15.5t37.5 -15.5t15.5 -37.5zM202 660q0 -23 -16 -38t-38 -15t-38 15t-16 38q0 22 16 37.5t38 15.5t38 -15.5t16 -37.5z" />
    <glyph glyph-name="Ydieresis" unicode="&#x178;" horiz-adv-x="558" 
d="M326 295v-295h-93v295l-215 390h101l111 -220q4 -8 11 -21q12 -23 37 -71h3q11 25 20 42.5t14 28.5q6 13 10 21l114 220h101zM428 837q0 -23 -15.5 -38.5t-37.5 -15.5t-38 15.5t-16 38.5q0 22 16 37.5t38 15.5t37.5 -15.5t15.5 -37.5zM239 837q0 -23 -16 -38t-38 -15
t-38 15t-16 38q0 22 16 37.5t38 15.5t38 -15.5t16 -37.5z" />
    <glyph glyph-name="fraction" unicode="&#x2044;" horiz-adv-x="280" 
d="M70 -44h-71l212 859h71z" />
    <glyph glyph-name="Euro" unicode="&#x20ac;" horiz-adv-x="600" 
d="M446 232h-240q16 -78 60 -120t122 -42q42 0 82.5 17.5t72.5 44.5l48 -64q-42 -35 -94 -57t-109 -22q-120 0 -189 65t-90 178h-94v55h87q-2 13 -2 27v28t0.5 28t1.5 28h-87v54h95q21 111 89 177t184 66q61 0 108.5 -18.5t87.5 -53.5l-54 -61q-31 25 -65.5 38.5t-76.5 13.5
q-75 0 -118 -42t-59 -120h248l-8 -54h-248q-2 -14 -2 -27.5v-27.5v-29t2 -27h256z" />
    <glyph glyph-name="guilsinglleft" unicode="&#x2039;" horiz-adv-x="355" 
d="M249 59l-200 229l200 229l57 -50l-159 -179l159 -179z" />
    <glyph glyph-name="guilsinglright" unicode="&#x203a;" horiz-adv-x="355" 
d="M208 288l-159 179l57 50l200 -229l-200 -229l-57 50z" />
    <glyph glyph-name="daggerdbl" unicode="&#x2021;" horiz-adv-x="449" 
d="M262 197l4 -197h-82l3 197l-133 -6v77h133v160h-133v78l133 -7l-3 186h82l-4 -186l133 7v-78h-133v-160h133v-77z" />
    <glyph glyph-name="periodcentered" unicode="&#xb7;" horiz-adv-x="232" 
d="M180 291q0 -27 -18.5 -46.5t-45.5 -19.5t-45.5 19.5t-18.5 45.5q0 27 18.5 46.5t45.5 19.5t45.5 -19.5t18.5 -45.5z" />
    <glyph glyph-name="quotesinglbase" unicode="&#x201a;" horiz-adv-x="237" 
d="M179 36q0 -27 -11 -55.5t-26 -53t-30 -43t-22 -25.5l-39 19q5 6 13.5 20.5t17 31t14.5 33t6 27.5q-24 4 -39 22.5t-15 41.5q0 27 18.5 46.5t45.5 19.5q28 0 47.5 -22t19.5 -62z" />
    <glyph glyph-name="quotedblbase" unicode="&#x201e;" horiz-adv-x="406" 
d="M179 36q0 -27 -11 -55.5t-26 -53t-30 -43t-22 -25.5l-39 19q5 6 13.5 20.5t17 31t14.5 33t6 27.5q-24 4 -39 22.5t-15 41.5q0 27 18.5 46.5t45.5 19.5q28 0 47.5 -22t19.5 -62zM348 36q0 -27 -11 -55.5t-26 -53t-30 -43t-22 -25.5l-39 19q5 6 14 20.5t17.5 31t14.5 33
t6 27.5q-25 4 -40 22.5t-15 41.5q0 27 19 46.5t45 19.5q28 0 47.5 -22t19.5 -62z" />
    <glyph glyph-name="perthousand" unicode="&#x2030;" horiz-adv-x="1251" 
d="M1046 -11q-41 0 -71.5 14t-50.5 39t-30.5 58.5t-10.5 71.5q0 40 10.5 73.5t31 57.5t50.5 37.5t70 13.5t70.5 -13.5t51 -37.5t31 -57.5t10.5 -73.5q0 -38 -10.5 -71.5t-30.5 -58.5t-50.5 -39t-70.5 -14zM651 -11q-41 0 -71.5 14t-50.5 39t-30.5 58.5t-10.5 71.5
q0 40 10.5 73.5t31 57.5t50.5 37.5t70 13.5t70.5 -13.5t51 -37.5t31 -57.5t10.5 -73.5q0 -38 -10.5 -71.5t-30.5 -58.5t-50.5 -39t-70.5 -14zM205 352q-40 0 -70.5 14t-50.5 39t-30.5 58.5t-10.5 71.5q0 40 10.5 73.5t30.5 57.5t50.5 37.5t69.5 13.5q40 0 70.5 -13.5
t51.5 -37.5t31.5 -57.5t10.5 -73.5q0 -38 -10.5 -71.5t-31 -58.5t-51 -39t-70.5 -14zM252 0l280 706h69l-280 -706h-69zM651 292q-48 0 -70 -31.5t-22 -88.5t22.5 -89.5t68.5 -32.5t68.5 32.5t22.5 89.5t-22 88.5t-68 31.5zM1046 292q-48 0 -70 -31.5t-22 -88.5t22.5 -89.5
t68.5 -32.5t68.5 32.5t22.5 89.5t-22 88.5t-68 31.5zM205 654q-47 0 -69 -31t-22 -88t22.5 -90t67.5 -33q46 0 69 33t23 90t-22.5 88t-68.5 31z" />
    <glyph glyph-name="nonbreakingspace" unicode="&#xa0;" horiz-adv-x="260" 
 />
    <glyph glyph-name="Amacron" unicode="&#x100;" horiz-adv-x="629" 
d="M518 0l-60 171h-290l-60 -171h-90l240 674l110 12l244 -686h-94zM385 378q-3 8 -12 34q-8 22 -22 63t-37 112h-3q-24 -71 -37.5 -112t-21.5 -63q-9 -26 -12 -34l-47 -135h240zM183 825v73h262v-73h-262z" />
    <glyph glyph-name="amacron" unicode="&#x101;" horiz-adv-x="507" 
d="M363 0q-5 12 -7 30t-2 28h-1q-25 -32 -64.5 -50.5t-84.5 -18.5q-36 0 -65 11t-49.5 30.5t-32 46.5t-11.5 58q0 46 20.5 75.5t52.5 46t71.5 22.5t77.5 6q23 0 44 -1.5t39 -3.5v42q0 119 -100 119q-32 0 -68.5 -12.5t-66.5 -33.5l-43 64q35 26 80 43.5t101 17.5
q39 0 73.5 -12.5t59.5 -38t39.5 -63.5t14.5 -90v-316h-78zM351 218q-13 2 -31 3.5t-39 1.5q-24 0 -49.5 -3.5t-46 -12.5t-33.5 -25t-13 -41q0 -28 19.5 -52t63.5 -24q37 0 71.5 15.5t57.5 41.5v96zM122 625v73h262v-73h-262z" />
    <glyph glyph-name="Abreve" unicode="&#x102;" horiz-adv-x="629" 
d="M518 0l-60 171h-290l-60 -171h-90l240 674l110 12l244 -686h-94zM385 378q-3 8 -12 34q-8 22 -22 63t-37 112h-3q-24 -71 -37.5 -112t-21.5 -63q-9 -26 -12 -34l-47 -135h240zM455 890q-26 -43 -64 -67t-78 -24q-41 0 -77.5 24t-62.5 67l49 41q28 -38 48.5 -52t42.5 -14
t43.5 14t49.5 52l49 -41v0z" />
    <glyph glyph-name="abreve" unicode="&#x103;" horiz-adv-x="507" 
d="M363 0q-5 12 -7 30t-2 28h-1q-25 -32 -64.5 -50.5t-84.5 -18.5q-36 0 -65 11t-49.5 30.5t-32 46.5t-11.5 58q0 46 20.5 75.5t52.5 46t71.5 22.5t77.5 6q23 0 44 -1.5t39 -3.5v42q0 119 -100 119q-32 0 -68.5 -12.5t-66.5 -33.5l-43 64q35 26 80 43.5t101 17.5
q39 0 73.5 -12.5t59.5 -38t39.5 -63.5t14.5 -90v-316h-78zM351 218q-13 2 -31 3.5t-39 1.5q-24 0 -49.5 -3.5t-46 -12.5t-33.5 -25t-13 -41q0 -28 19.5 -52t63.5 -24q37 0 71.5 15.5t57.5 41.5v96zM394 690q-26 -43 -64 -67t-78 -24q-41 0 -77.5 24t-62.5 67l49 41
q28 -38 48.5 -52t42.5 -14t43.5 14t49.5 52l49 -41v0z" />
    <glyph glyph-name="Cacute" unicode="&#x106;" horiz-adv-x="628" 
d="M590 85q-45 -42 -107.5 -69t-130.5 -27q-78 0 -134 25t-92.5 71t-54 111.5t-17.5 145.5q0 79 19 144t56.5 111.5t94.5 72.5t132 26q57 0 115.5 -23t104.5 -62l-50 -63q-37 29 -78.5 48t-91.5 19q-103 0 -154.5 -71.5t-51.5 -200.5t50.5 -201t157.5 -72q51 0 100 22.5
t85 55.5l47 -63v0zM282 767l-38 43l151 142l49 -55z" />
    <glyph glyph-name="cacute" unicode="&#x107;" horiz-adv-x="518" 
d="M470 44q-83 -55 -184 -55q-57 0 -102 19t-75.5 53.5t-46.5 83.5t-16 110q0 59 16 108t46.5 84t75.5 54t102 19q51 0 97 -16.5t82 -44.5l-43 -64q-32 22 -66.5 34t-66.5 12q-73 0 -111.5 -46t-38.5 -140t39.5 -140.5t110.5 -46.5q37 0 73.5 11t73.5 34l34 -69v0zM217 567
l-38 43l151 142l49 -55z" />
    <glyph glyph-name="Ccircumflex" unicode="&#x108;" horiz-adv-x="628" 
d="M590 85q-45 -42 -107.5 -69t-130.5 -27q-78 0 -134 25t-92.5 71t-54 111.5t-17.5 145.5q0 79 19 144t56.5 111.5t94.5 72.5t132 26q57 0 115.5 -23t104.5 -62l-50 -63q-37 29 -78.5 48t-91.5 19q-103 0 -154.5 -71.5t-51.5 -200.5t50.5 -201t157.5 -72q51 0 100 22.5
t85 55.5l47 -63v0zM460 774l-114 93h-3l-114 -93l-41 55l157 117l155 -117z" />
    <glyph glyph-name="ccircumflex" unicode="&#x109;" horiz-adv-x="518" 
d="M470 44q-83 -55 -184 -55q-57 0 -102 19t-75.5 53.5t-46.5 83.5t-16 110q0 59 16 108t46.5 84t75.5 54t102 19q51 0 97 -16.5t82 -44.5l-43 -64q-32 22 -66.5 34t-66.5 12q-73 0 -111.5 -46t-38.5 -140t39.5 -140.5t110.5 -46.5q37 0 73.5 11t73.5 34l34 -69v0zM395 574
l-114 93h-3l-114 -93l-41 55l157 117l155 -117z" />
    <glyph glyph-name="Cdotaccent" unicode="&#x10a;" horiz-adv-x="628" 
d="M590 85q-45 -42 -107.5 -69t-130.5 -27q-78 0 -134 25t-92.5 71t-54 111.5t-17.5 145.5q0 79 19 144t56.5 111.5t94.5 72.5t132 26q57 0 115.5 -23t104.5 -62l-50 -63q-37 29 -78.5 48t-91.5 19q-103 0 -154.5 -71.5t-51.5 -200.5t50.5 -201t157.5 -72q51 0 100 22.5
t85 55.5l47 -63v0zM402 860q0 -24 -17 -42t-41 -18t-41 18t-17 41q0 24 17 42t41 18t41 -18t17 -41z" />
    <glyph glyph-name="cdotaccent" unicode="&#x10b;" horiz-adv-x="518" 
d="M470 44q-83 -55 -184 -55q-57 0 -102 19t-75.5 53.5t-46.5 83.5t-16 110q0 59 16 108t46.5 84t75.5 54t102 19q51 0 97 -16.5t82 -44.5l-43 -64q-32 22 -66.5 34t-66.5 12q-73 0 -111.5 -46t-38.5 -140t39.5 -140.5t110.5 -46.5q37 0 73.5 11t73.5 34l34 -69v0zM337 660
q0 -24 -17 -42t-41 -18t-41 18t-17 41q0 24 17 42t41 18t41 -18t17 -41z" />
    <glyph glyph-name="Ccaron" unicode="&#x10c;" horiz-adv-x="628" 
d="M590 85q-45 -42 -107.5 -69t-130.5 -27q-78 0 -134 25t-92.5 71t-54 111.5t-17.5 145.5q0 79 19 144t56.5 111.5t94.5 72.5t132 26q57 0 115.5 -23t104.5 -62l-50 -63q-37 29 -78.5 48t-91.5 19q-103 0 -154.5 -71.5t-51.5 -200.5t50.5 -201t157.5 -72q51 0 100 22.5
t85 55.5l47 -63v0zM228 946l114 -93h3l114 93l41 -55l-157 -117l-155 117z" />
    <glyph glyph-name="ccaron" unicode="&#x10d;" horiz-adv-x="518" 
d="M470 44q-83 -55 -184 -55q-57 0 -102 19t-75.5 53.5t-46.5 83.5t-16 110q0 59 16 108t46.5 84t75.5 54t102 19q51 0 97 -16.5t82 -44.5l-43 -64q-32 22 -66.5 34t-66.5 12q-73 0 -111.5 -46t-38.5 -140t39.5 -140.5t110.5 -46.5q37 0 73.5 11t73.5 34l34 -69v0zM163 746
l114 -93h3l114 93l41 -55l-157 -117l-155 117z" />
    <glyph glyph-name="Dcaron" unicode="&#x10e;" horiz-adv-x="662" 
d="M608 346q0 -75 -17 -138.5t-51.5 -109.5t-87.5 -72t-125 -26h-251v686h251q72 0 125 -25t87.5 -70t51.5 -107.5t17 -137.5zM512 346q0 60 -11 107.5t-33.5 81t-57.5 51.5t-83 18h-158v-523h158q48 0 83 19t57.5 54t33.5 84t11 108zM165 946l114 -93h3l114 93l41 -55
l-157 -117l-155 117z" />
    <glyph glyph-name="Emacron" unicode="&#x112;" horiz-adv-x="523" 
d="M477 0h-401v685h393v-81h-300v-218h265v-81h-265v-224h317zM140 825v73h262v-73h-262z" />
    <glyph glyph-name="emacron" unicode="&#x113;" horiz-adv-x="542" 
d="M494 271q0 -7 -1 -19.5t-3 -18.5h-351q3 -50 17.5 -82t36.5 -50.5t48.5 -25.5t52.5 -7q43 0 79 13.5t75 34.5l34 -68q-45 -28 -92.5 -43.5t-101.5 -15.5q-60 0 -105.5 20t-76 55t-45.5 84t-15 106q0 58 15 107t44 84t72 55t100 20q55 0 96 -19.5t68 -53t40 -79t13 -97.5z
M402 303q0 67 -34.5 103t-90.5 36q-16 0 -37 -4.5t-41.5 -19.5t-36 -42.5t-21.5 -72.5h261zM150 625v73h262v-73h-262z" />
    <glyph glyph-name="Ebreve" unicode="&#x114;" horiz-adv-x="523" 
d="M477 0h-401v685h393v-81h-300v-218h265v-81h-265v-224h317zM412 890q-26 -43 -64 -67t-78 -24q-41 0 -77.5 24t-62.5 67l49 41q28 -38 48.5 -52t42.5 -14t43.5 14t49.5 52l49 -41v0z" />
    <glyph glyph-name="ebreve" unicode="&#x115;" horiz-adv-x="542" 
d="M494 271q0 -7 -1 -19.5t-3 -18.5h-351q3 -50 17.5 -82t36.5 -50.5t48.5 -25.5t52.5 -7q43 0 79 13.5t75 34.5l34 -68q-45 -28 -92.5 -43.5t-101.5 -15.5q-60 0 -105.5 20t-76 55t-45.5 84t-15 106q0 58 15 107t44 84t72 55t100 20q55 0 96 -19.5t68 -53t40 -79t13 -97.5z
M402 303q0 67 -34.5 103t-90.5 36q-16 0 -37 -4.5t-41.5 -19.5t-36 -42.5t-21.5 -72.5h261zM422 690q-26 -43 -64 -67t-78 -24q-41 0 -77.5 24t-62.5 67l49 41q28 -38 48.5 -52t42.5 -14t43.5 14t49.5 52l49 -41v0z" />
    <glyph glyph-name="Edotaccent" unicode="&#x116;" horiz-adv-x="523" 
d="M477 0h-401v685h393v-81h-300v-218h265v-81h-265v-224h317zM329 860q0 -24 -17 -42t-41 -18t-41 18t-17 41q0 24 17 42t41 18t41 -18t17 -41z" />
    <glyph glyph-name="edotaccent" unicode="&#x117;" horiz-adv-x="542" 
d="M494 271q0 -7 -1 -19.5t-3 -18.5h-351q3 -50 17.5 -82t36.5 -50.5t48.5 -25.5t52.5 -7q43 0 79 13.5t75 34.5l34 -68q-45 -28 -92.5 -43.5t-101.5 -15.5q-60 0 -105.5 20t-76 55t-45.5 84t-15 106q0 58 15 107t44 84t72 55t100 20q55 0 96 -19.5t68 -53t40 -79t13 -97.5z
M402 303q0 67 -34.5 103t-90.5 36q-16 0 -37 -4.5t-41.5 -19.5t-36 -42.5t-21.5 -72.5h261zM336 660q0 -24 -17 -42t-41 -18t-41 18t-17 41q0 24 17 42t41 18t41 -18t17 -41z" />
    <glyph glyph-name="Ecaron" unicode="&#x11a;" horiz-adv-x="523" 
d="M477 0h-401v685h393v-81h-300v-218h265v-81h-265v-224h317zM162 946l114 -93h3l114 93l41 -55l-157 -117l-155 117z" />
    <glyph glyph-name="ecaron" unicode="&#x11b;" horiz-adv-x="542" 
d="M494 271q0 -7 -1 -19.5t-3 -18.5h-351q3 -50 17.5 -82t36.5 -50.5t48.5 -25.5t52.5 -7q43 0 79 13.5t75 34.5l34 -68q-45 -28 -92.5 -43.5t-101.5 -15.5q-60 0 -105.5 20t-76 55t-45.5 84t-15 106q0 58 15 107t44 84t72 55t100 20q55 0 96 -19.5t68 -53t40 -79t13 -97.5z
M402 303q0 67 -34.5 103t-90.5 36q-16 0 -37 -4.5t-41.5 -19.5t-36 -42.5t-21.5 -72.5h261zM165 746l114 -93h3l114 93l41 -55l-157 -117l-155 117z" />
    <glyph glyph-name="Gcircumflex" unicode="&#x11c;" horiz-adv-x="689" 
d="M618 71q-42 -30 -105 -56t-141 -26q-79 0 -138.5 27t-99.5 74.5t-60 112t-20 139.5q0 79 23.5 144.5t66 112t103 72t134.5 25.5q64 0 115 -17.5t101 -52.5l-46 -64q-49 32 -88 42.5t-82 10.5q-51 0 -93 -20.5t-73 -56.5t-48 -85.5t-17 -107.5q0 -59 14 -109t41.5 -87
t69 -58t97.5 -21q22 0 45.5 3.5t45 9.5t40 14t30.5 17v158h-105v69h190v-270v0zM485 774l-114 93h-3l-114 -93l-41 55l157 117l155 -117z" />
    <glyph glyph-name="gcircumflex" unicode="&#x11d;" horiz-adv-x="552" 
d="M852 3q0 -46 -14 -85t-42.5 -67t-72 -44t-101.5 -16q-38 0 -79 9t-79 25l23 77q32 -14 67.5 -23t67.5 -9q75 0 107.5 37t32.5 95v58h-2q-26 -28 -59 -44t-71 -16q-102 0 -160 67t-58 194q0 57 14 105t42 82t69.5 53t97.5 19q36 0 72 -17t59 -46h2q0 8 2 24.5t6 27.5h76
v-506zM762 383q-20 26 -50.5 42t-73.5 16q-67 0 -100 -45.5t-33 -134.5q0 -95 34.5 -138.5t97.5 -43.5q35 0 69.5 17.5t55.5 46.5v240zM392 574l-114 93h-3l-114 -93l-41 55l157 117l155 -117z" />
    <glyph glyph-name="Gbreve" unicode="&#x11e;" horiz-adv-x="689" 
d="M618 71q-42 -30 -105 -56t-141 -26q-79 0 -138.5 27t-99.5 74.5t-60 112t-20 139.5q0 79 23.5 144.5t66 112t103 72t134.5 25.5q64 0 115 -17.5t101 -52.5l-46 -64q-49 32 -88 42.5t-82 10.5q-51 0 -93 -20.5t-73 -56.5t-48 -85.5t-17 -107.5q0 -59 14 -109t41.5 -87
t69 -58t97.5 -21q22 0 45.5 3.5t45 9.5t40 14t30.5 17v158h-105v69h190v-270v0zM515 890q-26 -43 -64 -67t-78 -24q-41 0 -77.5 24t-62.5 67l49 41q28 -38 48.5 -52t42.5 -14t43.5 14t49.5 52l49 -41v0z" />
    <glyph glyph-name="gbreve" unicode="&#x11f;" horiz-adv-x="552" 
d="M852 3q0 -46 -14 -85t-42.5 -67t-72 -44t-101.5 -16q-38 0 -79 9t-79 25l23 77q32 -14 67.5 -23t67.5 -9q75 0 107.5 37t32.5 95v58h-2q-26 -28 -59 -44t-71 -16q-102 0 -160 67t-58 194q0 57 14 105t42 82t69.5 53t97.5 19q36 0 72 -17t59 -46h2q0 8 2 24.5t6 27.5h76
v-506zM762 383q-20 26 -50.5 42t-73.5 16q-67 0 -100 -45.5t-33 -134.5q0 -95 34.5 -138.5t97.5 -43.5q35 0 69.5 17.5t55.5 46.5v240zM417 690q-26 -43 -64 -67t-78 -24q-41 0 -77.5 24t-62.5 67l49 41q28 -38 48.5 -52t42.5 -14t43.5 14t49.5 52l49 -41v0z" />
    <glyph glyph-name="Gdotaccent" unicode="&#x120;" horiz-adv-x="689" 
d="M618 71q-42 -30 -105 -56t-141 -26q-79 0 -138.5 27t-99.5 74.5t-60 112t-20 139.5q0 79 23.5 144.5t66 112t103 72t134.5 25.5q64 0 115 -17.5t101 -52.5l-46 -64q-49 32 -88 42.5t-82 10.5q-51 0 -93 -20.5t-73 -56.5t-48 -85.5t-17 -107.5q0 -59 14 -109t41.5 -87
t69 -58t97.5 -21q22 0 45.5 3.5t45 9.5t40 14t30.5 17v158h-105v69h190v-270v0zM427 860q0 -24 -17 -42t-41 -18t-41 18t-17 41q0 24 17 42t41 18t41 -18t17 -41z" />
    <glyph glyph-name="gdotaccent" unicode="&#x121;" horiz-adv-x="552" 
d="M852 3q0 -46 -14 -85t-42.5 -67t-72 -44t-101.5 -16q-38 0 -79 9t-79 25l23 77q32 -14 67.5 -23t67.5 -9q75 0 107.5 37t32.5 95v58h-2q-26 -28 -59 -44t-71 -16q-102 0 -160 67t-58 194q0 57 14 105t42 82t69.5 53t97.5 19q36 0 72 -17t59 -46h2q0 8 2 24.5t6 27.5h76
v-506zM762 383q-20 26 -50.5 42t-73.5 16q-67 0 -100 -45.5t-33 -134.5q0 -95 34.5 -138.5t97.5 -43.5q35 0 69.5 17.5t55.5 46.5v240zM334 660q0 -24 -17 -42t-41 -18t-41 18t-17 41q0 24 17 42t41 18t41 -18t17 -41z" />
    <glyph glyph-name="Hcircumflex" unicode="&#x124;" horiz-adv-x="646" 
d="M477 0v305h-308v-305h-93v685h93v-299h308v299h93v-685h-93zM439 774l-114 93h-3l-114 -93l-41 55l157 117l155 -117z" />
    <glyph glyph-name="hcircumflex" unicode="&#x125;" horiz-adv-x="553" 
d="M397 0v303q0 69 -22.5 103.5t-75.5 34.5q-22 0 -42 -7t-37.5 -17.5t-32 -23.5t-24.5 -24v-369h-90v739h90v-291h2q11 12 26 24.5t34 23t41 17.5t46 7q36 0 68 -12.5t56 -38.5t37.5 -65t13.5 -91v-313h-90zM233 774l-114 93h-3l-114 -93l-41 55l157 117l155 -117z" />
    <glyph glyph-name="Itilde" unicode="&#x128;" horiz-adv-x="245" 
d="M76 0v685h93v-685h-93zM263 869q-5 -10 -12.5 -21t-18 -20t-24.5 -15t-31 -6q-19 0 -34 6t-27.5 13t-23 13t-21.5 6q-17 0 -38 -29l-49 35q4 9 12 20t19 20t25 15t31 6q19 0 33.5 -6t27 -12.5t23.5 -12.5t22 -6q17 0 37 27l49 -33v0z" />
    <glyph glyph-name="itilde" unicode="&#x129;" horiz-adv-x="251" 
d="M80 0v510h91v-510h-91zM266 669q-5 -10 -12.5 -21t-18 -20t-24.5 -15t-31 -6q-19 0 -34 6t-27.5 13t-23 13t-21.5 6q-17 0 -38 -29l-49 35q4 9 12 20t19 20t25 15t31 6q19 0 33.5 -6t27 -12.5t23.5 -12.5t22 -6q17 0 37 27l49 -33v0z" />
    <glyph glyph-name="Imacron" unicode="&#x12a;" horiz-adv-x="245" 
d="M76 0v685h93v-685h-93zM-8 825v73h262v-73h-262z" />
    <glyph glyph-name="imacron" unicode="&#x12b;" horiz-adv-x="251" 
d="M80 0v510h91v-510h-91zM-5 625v73h262v-73h-262z" />
    <glyph glyph-name="Ibreve" unicode="&#x12c;" horiz-adv-x="245" 
d="M76 0v685h93v-685h-93zM264 890q-26 -43 -64 -67t-78 -24q-41 0 -77.5 24t-62.5 67l49 41q28 -38 48.5 -52t42.5 -14t43.5 14t49.5 52l49 -41v0z" />
    <glyph glyph-name="ibreve" unicode="&#x12d;" horiz-adv-x="251" 
d="M80 0v510h91v-510h-91zM267 690q-26 -43 -64 -67t-78 -24q-41 0 -77.5 24t-62.5 67l49 41q28 -38 48.5 -52t42.5 -14t43.5 14t49.5 52l49 -41v0z" />
    <glyph glyph-name="Idotaccent" unicode="&#x130;" horiz-adv-x="245" 
d="M76 0v685h93v-685h-93zM180 860q0 -24 -17 -42t-41 -18t-41 18t-17 41q0 24 17 42t41 18t41 -18t17 -41z" />
    <glyph glyph-name="IJ" unicode="&#x132;" horiz-adv-x="498" 
d="M76 0v685h93v-685h-93zM422 -4q0 -41 -10 -77.5t-31.5 -63.5t-56 -43t-83.5 -16q-20 0 -44 4t-45 9l13 81q17 -5 37 -8.5t36 -3.5q31 0 49 12t27.5 30.5t12 41t2.5 44.5v679h93v-689v0z" />
    <glyph glyph-name="ij" unicode="&#x133;" horiz-adv-x="491" 
d="M84 0v509h90v-509h-90zM189 660q0 -25 -17.5 -41.5t-41.5 -16.5q-25 0 -42.5 16.5t-17.5 41.5q0 23 17.5 40.5t41.5 17.5q25 0 42.5 -17.5t17.5 -40.5zM421 -54q0 -71 -42 -113t-111 -42q-29 0 -54.5 6t-45.5 14l19 75q20 -7 39.5 -11.5t33.5 -4.5q31 0 51 20.5t20 69.5
v549h90v-563zM436 660q0 -25 -17.5 -41.5t-41.5 -16.5q-25 0 -42.5 16.5t-17.5 41.5q0 23 17.5 40.5t41.5 17.5q25 0 42.5 -17.5t17.5 -40.5z" />
    <glyph glyph-name="Jcircumflex" unicode="&#x134;" horiz-adv-x="253" 
d="M177 -4q0 -41 -10 -77.5t-31.5 -63.5t-56 -43t-83.5 -16q-20 0 -44 4t-45 9l13 81q17 -5 37 -8.5t36 -3.5q31 0 49 12t27.5 30.5t12 41t2.5 44.5v679h93v-689v0zM247 774l-114 93h-3l-114 -93l-41 55l157 117l155 -117z" />
    <glyph glyph-name="jcircumflex" unicode="&#x135;" horiz-adv-x="232" 
d="M162 -53q0 -71 -42 -113t-111 -42q-29 0 -54.5 6t-45.5 14l19 75q20 -7 39.5 -11.5t33.5 -4.5q31 0 51 20.5t20 69.5v548h90v-562zM231 574l-114 93h-3l-114 -93l-41 55l157 117l155 -117z" />
    <glyph glyph-name="Lacute" unicode="&#x139;" horiz-adv-x="492" 
d="M715 0h-390v685h93v-604h306zM55 767l-38 43l151 142l49 -55z" />
    <glyph glyph-name="lacute" unicode="&#x13a;" horiz-adv-x="271" 
d="M224 -11q-45 0 -74.5 13t-47 34.5t-25 48.5t-7.5 54v599h90v-591q0 -15 3 -29.5t11 -26t22.5 -18t38.5 -6.5zM45 767l-38 43l151 142l49 -55z" />
    <glyph glyph-name="Lcaron" unicode="&#x13d;" horiz-adv-x="492" 
d="M376 608q0 -30 -7.5 -51t-19.5 -35t-27 -22t-30 -13l-26 45q23 12 32.5 27t9.5 41q0 17 -6.5 34.5t-17.5 30.5l62 21q13 -16 21.5 -36t8.5 -42zM715 0h-390v685h93v-604h306z" />
    <glyph glyph-name="lcaron" unicode="&#x13e;" horiz-adv-x="271" 
d="M336 668q0 -30 -7.5 -51t-19.5 -35t-27 -22t-30 -13l-26 45q23 12 32.5 27t9.5 41q0 17 -6.5 34.5t-17.5 30.5l62 21q13 -16 21.5 -36t8.5 -42zM224 -11q-45 0 -74.5 13t-47 34.5t-25 48.5t-7.5 54v599h90v-591q0 -15 3 -29.5t11 -26t22.5 -18t38.5 -6.5z" />
    <glyph glyph-name="Ldot" unicode="&#x13f;" horiz-adv-x="492" 
d="M715 0h-390v685h93v-604h306zM370 291q0 -27 -18.5 -46.5t-45.5 -19.5t-45.5 19.5t-18.5 45.5q0 27 18.5 46.5t45.5 19.5t45.5 -19.5t18.5 -45.5z" />
    <glyph glyph-name="ldot" unicode="&#x140;" horiz-adv-x="305" 
d="M224 -11q-45 0 -74.5 13t-47 34.5t-25 48.5t-7.5 54v599h90v-591q0 -15 3 -29.5t11 -26t22.5 -18t38.5 -6.5zM338 291q0 -27 -18.5 -46.5t-45.5 -19.5t-45.5 19.5t-18.5 45.5q0 27 18.5 46.5t45.5 19.5t45.5 -19.5t18.5 -45.5z" />
    <glyph glyph-name="Nacute" unicode="&#x143;" horiz-adv-x="639" 
d="M479 0l-312 513h-3v-513h-93v673l95 12l306 -505h3v505h93v-685h-89zM257 767l-38 43l151 142l49 -55z" />
    <glyph glyph-name="nacute" unicode="&#x144;" 
d="M394 0v306q0 69 -21.5 102t-69.5 33q-43 0 -80 -22t-63 -50v-369h-90v509h75q2 -6 3.5 -15t3 -18.5t2.5 -18.5t1 -14h2q10 12 25.5 25.5t35.5 25t43.5 19t49.5 7.5q78 0 125.5 -50.5t47.5 -153.5v-316h-90zM213 567l-38 43l151 142l49 -55z" />
    <glyph glyph-name="Ncaron" unicode="&#x147;" horiz-adv-x="639" 
d="M479 0l-312 513h-3v-513h-93v673l95 12l306 -505h3v505h93v-685h-89zM203 946l114 -93h3l114 93l41 -55l-157 -117l-155 117z" />
    <glyph glyph-name="ncaron" unicode="&#x148;" 
d="M394 0v306q0 69 -21.5 102t-69.5 33q-43 0 -80 -22t-63 -50v-369h-90v509h75q2 -6 3.5 -15t3 -18.5t2.5 -18.5t1 -14h2q10 12 25.5 25.5t35.5 25t43.5 19t49.5 7.5q78 0 125.5 -50.5t47.5 -153.5v-316h-90zM159 746l114 -93h3l114 93l41 -55l-157 -117l-155 117z" />
    <glyph glyph-name="Omacron" unicode="&#x14c;" horiz-adv-x="692" 
d="M638 343q0 -75 -17.5 -139.5t-53.5 -112.5t-91 -75t-130 -27t-130 27t-91 75t-53.5 112.5t-17.5 139.5q0 79 17.5 144t53.5 111.5t91 72t130 25.5t130 -25.5t91 -72t53.5 -111.5t17.5 -144zM542 344q0 59 -11.5 109t-35.5 86t-61 56t-88 20t-88 -20t-61 -56t-35.5 -86
t-11.5 -109t11.5 -109.5t35.5 -87t61 -57t88 -20.5q50 0 87 20.5t61 57.5t36 87t12 109zM215 825v73h262v-73h-262z" />
    <glyph glyph-name="omacron" unicode="&#x14d;" horiz-adv-x="563" 
d="M517 255q0 -56 -15.5 -104.5t-45 -84.5t-73.5 -56.5t-101 -20.5t-101 20.5t-74 56.5t-45.5 84.5t-15.5 104.5q0 60 15.5 108.5t45.5 83.5t74 54t101 19q59 0 103 -19t73.5 -54t44 -83.5t14.5 -108.5zM424 256q0 87 -35 136t-107 49q-70 0 -106.5 -49.5t-36.5 -135.5
q0 -87 37 -137.5t106 -50.5q68 0 105 51t37 137zM150 625v73h262v-73h-262z" />
    <glyph glyph-name="Obreve" unicode="&#x14e;" horiz-adv-x="692" 
d="M638 343q0 -75 -17.5 -139.5t-53.5 -112.5t-91 -75t-130 -27t-130 27t-91 75t-53.5 112.5t-17.5 139.5q0 79 17.5 144t53.5 111.5t91 72t130 25.5t130 -25.5t91 -72t53.5 -111.5t17.5 -144zM542 344q0 59 -11.5 109t-35.5 86t-61 56t-88 20t-88 -20t-61 -56t-35.5 -86
t-11.5 -109t11.5 -109.5t35.5 -87t61 -57t88 -20.5q50 0 87 20.5t61 57.5t36 87t12 109zM487 890q-26 -43 -64 -67t-78 -24q-41 0 -77.5 24t-62.5 67l49 41q28 -38 48.5 -52t42.5 -14t43.5 14t49.5 52l49 -41v0z" />
    <glyph glyph-name="obreve" unicode="&#x14f;" horiz-adv-x="563" 
d="M517 255q0 -56 -15.5 -104.5t-45 -84.5t-73.5 -56.5t-101 -20.5t-101 20.5t-74 56.5t-45.5 84.5t-15.5 104.5q0 60 15.5 108.5t45.5 83.5t74 54t101 19q59 0 103 -19t73.5 -54t44 -83.5t14.5 -108.5zM424 256q0 87 -35 136t-107 49q-70 0 -106.5 -49.5t-36.5 -135.5
q0 -87 37 -137.5t106 -50.5q68 0 105 51t37 137zM422 690q-26 -43 -64 -67t-78 -24q-41 0 -77.5 24t-62.5 67l49 41q28 -38 48.5 -52t42.5 -14t43.5 14t49.5 52l49 -41v0z" />
    <glyph glyph-name="Ohungarumlaut" unicode="&#x150;" horiz-adv-x="692" 
d="M638 343q0 -75 -17.5 -139.5t-53.5 -112.5t-91 -75t-130 -27t-130 27t-91 75t-53.5 112.5t-17.5 139.5q0 79 17.5 144t53.5 111.5t91 72t130 25.5t130 -25.5t91 -72t53.5 -111.5t17.5 -144zM542 344q0 59 -11.5 109t-35.5 86t-61 56t-88 20t-88 -20t-61 -56t-35.5 -86
t-11.5 -109t11.5 -109.5t35.5 -87t61 -57t88 -20.5q50 0 87 20.5t61 57.5t36 87t12 109zM454 768l-41 39l138 145l54 -51zM247 768l-41 39l137 145l54 -51z" />
    <glyph glyph-name="ohungarumlaut" unicode="&#x151;" horiz-adv-x="563" 
d="M517 255q0 -56 -15.5 -104.5t-45 -84.5t-73.5 -56.5t-101 -20.5t-101 20.5t-74 56.5t-45.5 84.5t-15.5 104.5q0 60 15.5 108.5t45.5 83.5t74 54t101 19q59 0 103 -19t73.5 -54t44 -83.5t14.5 -108.5zM424 256q0 87 -35 136t-107 49q-70 0 -106.5 -49.5t-36.5 -135.5
q0 -87 37 -137.5t106 -50.5q68 0 105 51t37 137zM390 568l-41 39l138 145l54 -51zM183 568l-41 39l137 145l54 -51z" />
    <glyph glyph-name="Racute" unicode="&#x154;" horiz-adv-x="562" 
d="M443 0l-100 194q-9 18 -19.5 34.5t-23 29.5t-27 21t-32.5 8h-72v-287h-93v685h212q56 0 97 -14.5t68 -40t40 -62t13 -79.5q0 -66 -33 -115.5t-105 -71.5v-2q17 -13 29 -30t21 -34l126 -236h-101zM410 488q0 57 -28 86.5t-97 29.5h-116v-237h118q63 0 93 32t30 89z
M219 767l-38 43l151 142l49 -55z" />
    <glyph glyph-name="racute" unicode="&#x155;" horiz-adv-x="352" 
d="M331 435q-13 4 -22.5 5t-20.5 1q-20 0 -42 -12t-41.5 -30.5t-32 -42t-12.5 -46.5v-310h-90v509h76q1 -7 3 -18.5t3 -24t2 -24.5t1 -19h3q6 14 19 31t30.5 31.5t38 24.5t43.5 10q17 0 30.5 -2.5t27.5 -7.5zM144 567l-38 43l151 142l49 -55z" />
    <glyph glyph-name="Rcaron" unicode="&#x158;" horiz-adv-x="562" 
d="M443 0l-100 194q-9 18 -19.5 34.5t-23 29.5t-27 21t-32.5 8h-72v-287h-93v685h212q56 0 97 -14.5t68 -40t40 -62t13 -79.5q0 -66 -33 -115.5t-105 -71.5v-2q17 -13 29 -30t21 -34l126 -236h-101zM410 488q0 57 -28 86.5t-97 29.5h-116v-237h118q63 0 93 32t30 89z
M155 946l114 -93h3l114 93l41 -55l-157 -117l-155 117z" />
    <glyph glyph-name="rcaron" unicode="&#x159;" horiz-adv-x="352" 
d="M331 435q-13 4 -22.5 5t-20.5 1q-20 0 -42 -12t-41.5 -30.5t-32 -42t-12.5 -46.5v-310h-90v509h76q1 -7 3 -18.5t3 -24t2 -24.5t1 -19h3q6 14 19 31t30.5 31.5t38 24.5t43.5 10q17 0 30.5 -2.5t27.5 -7.5zM94 746l114 -93h3l114 93l41 -55l-157 -117l-155 117z" />
    <glyph glyph-name="Sacute" unicode="&#x15a;" horiz-adv-x="510" 
d="M467 183q0 -42 -18 -77.5t-49.5 -61.5t-74 -40.5t-90.5 -14.5q-36 0 -67 6.5t-57.5 17t-49 23.5t-40.5 26l38 71q45 -29 87.5 -46t88.5 -17q66 0 101 31.5t35 83.5q0 33 -23 54.5t-58 38.5t-75 34t-75 42t-58 61.5t-23 93.5q0 43 16.5 77.5t45.5 59t68 37.5t84 13
q56 0 104.5 -16.5t83.5 -38.5l-34 -69q-38 19 -73.5 31t-80.5 12q-56 0 -87 -27t-31 -74q0 -44 23 -69t58 -42.5t75 -32t75 -36.5t58 -57.5t23 -93.5zM193 767l-38 43l151 142l49 -55z" />
    <glyph glyph-name="sacute" unicode="&#x15b;" horiz-adv-x="420" 
d="M379 144q0 -38 -16 -67t-42 -48.5t-59 -29.5t-67 -10q-46 0 -91 16.5t-81 43.5l41 66q32 -23 64.5 -35t66.5 -12q18 0 34 4t29 12.5t20.5 22.5t7.5 34q0 27 -17 43t-43 28t-55.5 23t-55.5 28.5t-43 45.5t-17 73q0 33 15 58.5t39 43t54.5 27t61.5 9.5q81 0 152 -46
l-35 -68q-27 16 -56.5 25.5t-57.5 9.5q-32 0 -55.5 -13t-23.5 -48q0 -26 17 -41.5t42.5 -27.5t55.5 -23t55.5 -28.5t42.5 -44.5t17 -71zM148 567l-38 43l151 142l49 -55z" />
    <glyph glyph-name="Scircumflex" unicode="&#x15c;" horiz-adv-x="510" 
d="M467 183q0 -42 -18 -77.5t-49.5 -61.5t-74 -40.5t-90.5 -14.5q-36 0 -67 6.5t-57.5 17t-49 23.5t-40.5 26l38 71q45 -29 87.5 -46t88.5 -17q66 0 101 31.5t35 83.5q0 33 -23 54.5t-58 38.5t-75 34t-75 42t-58 61.5t-23 93.5q0 43 16.5 77.5t45.5 59t68 37.5t84 13
q56 0 104.5 -16.5t83.5 -38.5l-34 -69q-38 19 -73.5 31t-80.5 12q-56 0 -87 -27t-31 -74q0 -44 23 -69t58 -42.5t75 -32t75 -36.5t58 -57.5t23 -93.5zM381 774l-114 93h-3l-114 -93l-41 55l157 117l155 -117z" />
    <glyph glyph-name="scircumflex" unicode="&#x15d;" horiz-adv-x="420" 
d="M379 144q0 -38 -16 -67t-42 -48.5t-59 -29.5t-67 -10q-46 0 -91 16.5t-81 43.5l41 66q32 -23 64.5 -35t66.5 -12q18 0 34 4t29 12.5t20.5 22.5t7.5 34q0 27 -17 43t-43 28t-55.5 23t-55.5 28.5t-43 45.5t-17 73q0 33 15 58.5t39 43t54.5 27t61.5 9.5q81 0 152 -46
l-35 -68q-27 16 -56.5 25.5t-57.5 9.5q-32 0 -55.5 -13t-23.5 -48q0 -26 17 -41.5t42.5 -27.5t55.5 -23t55.5 -28.5t42.5 -44.5t17 -71zM337 574l-114 93h-3l-114 -93l-41 55l157 117l155 -117z" />
    <glyph glyph-name="Scedilla" unicode="&#x15e;" horiz-adv-x="510" 
d="M347 -117q0 -37 -26.5 -64.5t-74.5 -27.5q-18 0 -38 4.5t-45 18.5l16 51q30 -16 57 -16q29 0 37.5 12t8.5 23q0 4 -1.5 9.5t-5.5 10.5t-11.5 8.5t-18.5 3.5t-23 -1.5t-29 -6.5l12 82q-60 5 -106 27t-78 45l38 71q45 -29 87.5 -46t88.5 -17q66 0 101 31.5t35 83.5
q0 33 -23 54.5t-58 38.5t-75 34t-75 42t-58 61.5t-23 93.5q0 43 16.5 77.5t45.5 59t68 37.5t84 13q56 0 104.5 -16.5t83.5 -38.5l-34 -69q-38 19 -73.5 31t-80.5 12q-56 0 -87 -27t-31 -74q0 -44 23 -69t58 -42.5t75 -32t75 -36.5t58 -57.5t23 -93.5q0 -39 -16 -73
t-44.5 -59.5t-67 -41.5t-83.5 -19l-3 -25h7q38 0 62.5 -22t24.5 -60z" />
    <glyph glyph-name="scedilla" unicode="&#x15f;" horiz-adv-x="420" 
d="M310 -117q0 -37 -26.5 -64.5t-74.5 -27.5q-18 0 -38 4.5t-45 18.5l16 51q30 -16 57 -16q29 0 37.5 12t8.5 23q0 4 -1.5 9.5t-5.5 10.5t-11.5 8.5t-18.5 3.5t-23 -1.5t-29 -6.5l12 83q-39 4 -76.5 19.5t-68.5 38.5l41 66q32 -23 64.5 -35t66.5 -12q18 0 34 4t29 12.5
t20.5 22.5t7.5 34q0 27 -17 43t-43 28t-55.5 23t-55.5 28.5t-43 45.5t-17 73q0 33 15 58.5t39 43t54.5 27t61.5 9.5q81 0 152 -46l-35 -68q-27 16 -56.5 25.5t-57.5 9.5q-32 0 -55.5 -13t-23.5 -48q0 -26 17 -41.5t42.5 -27.5t55.5 -23t55.5 -28.5t42.5 -44.5t17 -71
q0 -35 -13.5 -62t-36 -46.5t-51 -30.5t-59.5 -14l-3 -26h7q38 0 62.5 -22t24.5 -60z" />
    <glyph glyph-name="Scaron" unicode="&#x160;" horiz-adv-x="510" 
d="M467 183q0 -42 -18 -77.5t-49.5 -61.5t-74 -40.5t-90.5 -14.5q-36 0 -67 6.5t-57.5 17t-49 23.5t-40.5 26l38 71q45 -29 87.5 -46t88.5 -17q66 0 101 31.5t35 83.5q0 33 -23 54.5t-58 38.5t-75 34t-75 42t-58 61.5t-23 93.5q0 43 16.5 77.5t45.5 59t68 37.5t84 13
q56 0 104.5 -16.5t83.5 -38.5l-34 -69q-38 19 -73.5 31t-80.5 12q-56 0 -87 -27t-31 -74q0 -44 23 -69t58 -42.5t75 -32t75 -36.5t58 -57.5t23 -93.5zM149 946l114 -93h3l114 93l41 -55l-157 -117l-155 117z" />
    <glyph glyph-name="scaron" unicode="&#x161;" horiz-adv-x="420" 
d="M379 144q0 -38 -16 -67t-42 -48.5t-59 -29.5t-67 -10q-46 0 -91 16.5t-81 43.5l41 66q32 -23 64.5 -35t66.5 -12q18 0 34 4t29 12.5t20.5 22.5t7.5 34q0 27 -17 43t-43 28t-55.5 23t-55.5 28.5t-43 45.5t-17 73q0 33 15 58.5t39 43t54.5 27t61.5 9.5q81 0 152 -46
l-35 -68q-27 16 -56.5 25.5t-57.5 9.5q-32 0 -55.5 -13t-23.5 -48q0 -26 17 -41.5t42.5 -27.5t55.5 -23t55.5 -28.5t42.5 -44.5t17 -71zM105 746l114 -93h3l114 93l41 -55l-157 -117l-155 117z" />
    <glyph glyph-name="Tcaron" unicode="&#x164;" horiz-adv-x="503" 
d="M477 604h-179v-604h-93v603h-187v82h468zM135 946l114 -93h3l114 93l41 -55l-157 -117l-155 117z" />
    <glyph glyph-name="Utilde" unicode="&#x168;" horiz-adv-x="638" 
d="M567 235q0 -116 -61 -181t-184 -65q-124 0 -185 65t-61 180v451h93v-458q0 -72 35 -114.5t118 -42.5q82 0 117 42.5t35 113.5v459h93v-450v0zM459 869q-5 -10 -12.5 -21t-18 -20t-24.5 -15t-31 -6q-19 0 -34 6t-27.5 13t-23 13t-21.5 6q-17 0 -38 -29l-49 35q4 9 12 20
t19 20t25 15t31 6q19 0 33.5 -6t27 -12.5t23.5 -12.5t22 -6q17 0 37 27l49 -33v0z" />
    <glyph glyph-name="utilde" unicode="&#x169;" 
d="M409 0q-2 6 -3.5 15t-3 18.5t-2.5 18.5t-1 14h-2q-10 -12 -25.5 -25.5t-35.5 -25t-43.5 -19t-49.5 -7.5q-78 0 -125.5 50.5t-47.5 153.5v316h90v-306q0 -69 21.5 -102t69.5 -33q43 0 80 22.5t63 49.5v369h90v-509h-75zM415 669q-5 -10 -12.5 -21t-18 -20t-24.5 -15
t-31 -6q-19 0 -34 6t-27.5 13t-23 13t-21.5 6q-17 0 -38 -29l-49 35q4 9 12 20t19 20t25 15t31 6q19 0 33.5 -6t27 -12.5t23.5 -12.5t22 -6q17 0 37 27l49 -33v0z" />
    <glyph glyph-name="Umacron" unicode="&#x16a;" horiz-adv-x="638" 
d="M567 235q0 -116 -61 -181t-184 -65q-124 0 -185 65t-61 180v451h93v-458q0 -72 35 -114.5t118 -42.5q82 0 117 42.5t35 113.5v459h93v-450v0zM188 825v73h262v-73h-262z" />
    <glyph glyph-name="umacron" unicode="&#x16b;" 
d="M409 0q-2 6 -3.5 15t-3 18.5t-2.5 18.5t-1 14h-2q-10 -12 -25.5 -25.5t-35.5 -25t-43.5 -19t-49.5 -7.5q-78 0 -125.5 50.5t-47.5 153.5v316h90v-306q0 -69 21.5 -102t69.5 -33q43 0 80 22.5t63 49.5v369h90v-509h-75zM144 625v73h262v-73h-262z" />
    <glyph glyph-name="Ubreve" unicode="&#x16c;" horiz-adv-x="638" 
d="M567 235q0 -116 -61 -181t-184 -65q-124 0 -185 65t-61 180v451h93v-458q0 -72 35 -114.5t118 -42.5q82 0 117 42.5t35 113.5v459h93v-450v0zM460 890q-26 -43 -64 -67t-78 -24q-41 0 -77.5 24t-62.5 67l49 41q28 -38 48.5 -52t42.5 -14t43.5 14t49.5 52l49 -41v0z" />
    <glyph glyph-name="ubreve" unicode="&#x16d;" 
d="M409 0q-2 6 -3.5 15t-3 18.5t-2.5 18.5t-1 14h-2q-10 -12 -25.5 -25.5t-35.5 -25t-43.5 -19t-49.5 -7.5q-78 0 -125.5 50.5t-47.5 153.5v316h90v-306q0 -69 21.5 -102t69.5 -33q43 0 80 22.5t63 49.5v369h90v-509h-75zM416 690q-26 -43 -64 -67t-78 -24q-41 0 -77.5 24
t-62.5 67l49 41q28 -38 48.5 -52t42.5 -14t43.5 14t49.5 52l49 -41v0z" />
    <glyph glyph-name="Uring" unicode="&#x16e;" horiz-adv-x="638" 
d="M567 235q0 -116 -61 -181t-184 -65q-124 0 -185 65t-61 180v451h93v-458q0 -72 35 -114.5t118 -42.5q82 0 117 42.5t35 113.5v459h93v-450v0zM405 860q0 -18 -7 -33.5t-18.5 -27.5t-27 -18.5t-33.5 -6.5t-33.5 6.5t-27 18.5t-18.5 27.5t-7 33.5t7 33.5t18.5 27t27 18.5
t33.5 7t33.5 -7t27 -18.5t18.5 -27t7 -33.5zM359 860q0 17 -11.5 29t-28.5 12t-28.5 -12t-11.5 -29t11.5 -29.5t28.5 -12.5t28.5 12.5t11.5 29.5z" />
    <glyph glyph-name="uring" unicode="&#x16f;" 
d="M409 0q-2 6 -3.5 15t-3 18.5t-2.5 18.5t-1 14h-2q-10 -12 -25.5 -25.5t-35.5 -25t-43.5 -19t-49.5 -7.5q-78 0 -125.5 50.5t-47.5 153.5v316h90v-306q0 -69 21.5 -102t69.5 -33q43 0 80 22.5t63 49.5v369h90v-509h-75zM361 660q0 -18 -7 -33.5t-18.5 -27.5t-27 -18.5
t-33.5 -6.5t-33.5 6.5t-27 18.5t-18.5 27.5t-7 33.5t7 33.5t18.5 27t27 18.5t33.5 7t33.5 -7t27 -18.5t18.5 -27t7 -33.5zM315 660q0 17 -11.5 29t-28.5 12t-28.5 -12t-11.5 -29t11.5 -29.5t28.5 -12.5t28.5 12.5t11.5 29.5z" />
    <glyph glyph-name="Uhungarumlaut" unicode="&#x170;" horiz-adv-x="638" 
d="M567 235q0 -116 -61 -181t-184 -65q-124 0 -185 65t-61 180v451h93v-458q0 -72 35 -114.5t118 -42.5q82 0 117 42.5t35 113.5v459h93v-450v0zM417 768l-41 39l138 145l54 -51zM210 768l-41 39l137 145l54 -51z" />
    <glyph glyph-name="uhungarumlaut" unicode="&#x171;" 
d="M409 0q-2 6 -3.5 15t-3 18.5t-2.5 18.5t-1 14h-2q-10 -12 -25.5 -25.5t-35.5 -25t-43.5 -19t-49.5 -7.5q-78 0 -125.5 50.5t-47.5 153.5v316h90v-306q0 -69 21.5 -102t69.5 -33q43 0 80 22.5t63 49.5v369h90v-509h-75zM364 568l-41 39l138 145l54 -51zM157 568l-41 39
l137 145l54 -51z" />
    <glyph glyph-name="Wcircumflex" unicode="&#x174;" horiz-adv-x="839" 
d="M672 0h-108l-106 348q-4 12 -9 30q-5 16 -12 40t-16 57h-3q-10 -33 -16.5 -57t-11.5 -40q-5 -18 -9 -30l-106 -348h-109l-148 685h94l68 -319q3 -16 10 -48q6 -27 15.5 -74t25.5 -121h3q22 74 36.5 121t22.5 74q10 32 14 48l63 207l103 7l67 -214l15 -48q8 -27 22.5 -74
t37.5 -121h3q14 74 24 121t15 74q6 32 10 48l63 319h94zM535 774l-114 93h-3l-114 -93l-41 55l157 117l155 -117z" />
    <glyph glyph-name="wcircumflex" unicode="&#x175;" horiz-adv-x="750" 
d="M585 0h-101l-107 390h-2l-106 -390h-101l-147 509h91l76 -272q2 -7 6 -24q4 -14 10 -39t17 -64h3q11 39 17.5 64t10.5 39q4 17 7 24l68 264l102 8l70 -272q3 -7 7 -24q4 -14 10.5 -39t17.5 -64h3q9 39 15 64t10 39q4 17 6 24l74 272h88zM491 574l-114 93h-3l-114 -93
l-41 55l157 117l155 -117z" />
    <glyph glyph-name="Ycircumflex" unicode="&#x176;" horiz-adv-x="558" 
d="M326 295v-295h-93v295l-215 390h101l111 -220q4 -8 11 -21q12 -23 37 -71h3q11 25 20 42.5t14 28.5q6 13 10 21l114 220h101zM395 774l-114 93h-3l-114 -93l-41 55l157 117l155 -117z" />
    <glyph glyph-name="ycircumflex" unicode="&#x177;" horiz-adv-x="482" 
d="M264 -62q-9 -23 -21.5 -49t-32.5 -48t-48 -36t-68 -14q-23 0 -45 4t-38 10l12 75q13 -5 31.5 -8t32.5 -3q22 0 37.5 8t26.5 21.5t19 30.5t14 34l21 57l-194 489h90l89 -237q3 -8 10 -27q6 -17 17.5 -46t29.5 -77h3q16 48 26 77t15 46q6 19 9 27l81 237h90zM357 574
l-114 93h-3l-114 -93l-41 55l157 117l155 -117z" />
    <glyph glyph-name="Zacute" unicode="&#x179;" horiz-adv-x="530" 
d="M484 0h-439l-7 55l326 549h-307v81h399l27 -49l-329 -552v-3h339zM203 767l-38 43l151 142l49 -55z" />
    <glyph glyph-name="zacute" unicode="&#x17a;" horiz-adv-x="456" 
d="M409 0h-359l-15 61l254 367v2h-233l-8 79h340l18 -61l-254 -366v-3h266zM166 567l-38 43l151 142l49 -55z" />
    <glyph glyph-name="Zdotaccent" unicode="&#x17b;" horiz-adv-x="530" 
d="M484 0h-439l-7 55l326 549h-307v81h399l27 -49l-329 -552v-3h339zM326 860q0 -24 -17 -42t-41 -18t-41 18t-17 41q0 24 17 42t41 18t41 -18t17 -41z" />
    <glyph glyph-name="zdotaccent" unicode="&#x17c;" horiz-adv-x="456" 
d="M409 0h-359l-15 61l254 367v2h-233l-8 79h340l18 -61l-254 -366v-3h266zM281 660q0 -24 -17 -42t-41 -18t-41 18t-17 41q0 24 17 42t41 18t41 -18t17 -41z" />
    <glyph glyph-name="Zcaron" unicode="&#x17d;" horiz-adv-x="530" 
d="M484 0h-439l-7 55l326 549h-307v81h399l27 -49l-329 -552v-3h339zM159 946l114 -93h3l114 93l41 -55l-157 -117l-155 117z" />
    <glyph glyph-name="zcaron" unicode="&#x17e;" horiz-adv-x="456" 
d="M409 0h-359l-15 61l254 367v2h-233l-8 79h340l18 -61l-254 -366v-3h266zM113 746l114 -93h3l114 93l41 -55l-157 -117l-155 117z" />
    <glyph glyph-name="Aogonek" unicode="&#x104;" horiz-adv-x="629" 
d="M612 -192q-14 -7 -31.5 -11.5t-41.5 -4.5q-38 0 -63.5 22t-25.5 63q0 36 24.5 67t62.5 56h75q-51 -35 -72 -64t-21 -55q0 -32 31 -32q9 0 21 2.5t25 8.5zM518 0l-60 171h-290l-60 -171h-90l240 674l110 12l244 -686h-94zM385 378q-3 8 -12 34q-8 22 -22 63t-37 112h-3
q-24 -71 -37.5 -112t-21.5 -63q-9 -26 -12 -34l-47 -135h240z" />
    <glyph glyph-name="aogonek" unicode="&#x105;" horiz-adv-x="507" 
d="M441 0q-51 -35 -72 -64t-21 -55q0 -33 31 -33q19 0 46 11l16 -51q-14 -7 -31.5 -11.5t-41.5 -4.5q-38 0 -63.5 22t-25.5 63q0 36 23 67t61 56q-5 12 -7 30t-2 28h-1q-25 -32 -64.5 -50.5t-84.5 -18.5q-36 0 -65 11t-49.5 30.5t-32 46.5t-11.5 58q0 46 20.5 75.5t52.5 46
t71.5 22.5t77.5 6q23 0 44 -1.5t39 -3.5v42q0 119 -100 119q-32 0 -68.5 -12.5t-66.5 -33.5l-43 64q35 26 80 43.5t101 17.5q39 0 73.5 -12.5t59.5 -38t39.5 -63.5t14.5 -90v-316zM351 218q-13 2 -31 3.5t-39 1.5q-24 0 -49.5 -3.5t-46 -12.5t-33.5 -25t-13 -41
q0 -28 19.5 -52t63.5 -24q37 0 71.5 15.5t57.5 41.5v96z" />
    <glyph glyph-name="dcaron" unicode="&#x10f;" horiz-adv-x="622" 
d="M411 1q-4 11 -6 28.5t-2 25.5h-2q-23 -31 -60.5 -48t-73.5 -17q-55 0 -96.5 19.5t-69 55.5t-41.5 85.5t-14 109.5q0 59 16.5 107t45.5 82.5t70 53t89 18.5q36 0 71 -11.5t57 -34.5h2v264h90v-738h-76zM397 389q-21 25 -51 39t-74 14q-59 0 -96 -47.5t-37 -134.5
q0 -94 33 -142.5t101 -48.5q43 0 73 16t51 45v259zM636 668q0 -30 -7.5 -51t-19.5 -35t-27 -22t-30 -13l-26 45q23 12 32.5 27t9.5 41q0 17 -6.5 34.5t-17.5 30.5l62 21q13 -16 21.5 -36t8.5 -42z" />
    <glyph glyph-name="Dcroat" unicode="&#x110;" horiz-adv-x="725" 
d="M671 346q0 -75 -17 -138.5t-51.5 -109.5t-87.5 -72t-125 -26h-251v305h-101v81h101v299h251q72 0 125 -24.5t87.5 -69.5t51.5 -107.5t17 -137.5zM575 346q0 60 -11 107.5t-33.5 81t-57.5 51.5t-83 18h-158v-218h163v-81h-163v-224h158q48 0 83 19t57.5 54t33.5 84t11 108
z" />
    <glyph glyph-name="dcroat" unicode="&#x111;" horiz-adv-x="557" 
d="M411 0q-4 11 -6 28.5t-2 25.5h-2q-23 -31 -60.5 -48t-73.5 -17q-55 0 -96.5 19.5t-69 55.5t-41.5 85.5t-14 109.5q0 59 16.5 107t45.5 82.5t70 53t89 18.5q36 0 71 -11.5t57 -34.5h2v110h-160v56h160v98h90v-98h74v-56h-74v-584h-76zM397 388q-21 25 -51 39t-74 14
q-59 0 -96 -47.5t-37 -134.5q0 -94 33 -142.5t101 -48.5q43 0 73 16t51 45v259z" />
    <glyph glyph-name="Eogonek" unicode="&#x118;" horiz-adv-x="523" 
d="M477 0q-51 -35 -72 -64t-21 -55q0 -32 31 -32q9 0 21.5 2.5t24.5 8.5l16 -52q-14 -7 -31.5 -11.5t-41.5 -4.5q-38 0 -63.5 22t-25.5 63q0 36 24.5 67t62.5 56h-326v686h393v-81h-300v-219h265v-81h-265v-224h317z" />
    <glyph glyph-name="eogonek" unicode="&#x119;" horiz-adv-x="542" 
d="M494 271q0 -7 -1 -19.5t-3 -18.5h-351q3 -50 17.5 -82t36.5 -50.5t48.5 -25.5t52.5 -7q43 0 79 13.5t75 34.5l34 -68q-34 -22 -57.5 -46.5t-37.5 -47t-20.5 -41.5t-6.5 -31q0 -33 31 -33q9 0 21.5 2.5t24.5 8.5l16 -52q-14 -8 -31.5 -12.5t-41.5 -4.5q-38 0 -63.5 23
t-25.5 63q0 58 54 117q-14 -2 -28.5 -3.5t-28.5 -1.5q-60 0 -105.5 20t-76 55t-45.5 84t-15 106q0 58 15 106.5t44 83.5t72 54.5t100 19.5q55 0 96 -19t68 -52.5t40 -78.5t13 -97zM402 303q0 67 -34.5 102t-90.5 35q-16 0 -37 -4.5t-41.5 -18.5t-36 -41.5t-21.5 -72.5h261z
" />
    <glyph glyph-name="Gcommaaccent" unicode="&#x122;" horiz-adv-x="689" 
d="M421 -111q0 -25 -11 -42.5t-28 -29t-38 -17.5t-41 -8l-15 46q27 6 46 15.5t19 33.5q0 14 -7.5 27t-21.5 28l61 17q17 -13 26.5 -29.5t9.5 -40.5zM618 71q-42 -30 -105 -56t-141 -26q-79 0 -138.5 27t-99.5 74.5t-60 112t-20 139.5q0 79 23.5 144.5t66 112t103 72
t134.5 25.5q64 0 115 -17.5t101 -52.5l-46 -64q-49 32 -88 42.5t-82 10.5q-51 0 -93 -20.5t-73 -56.5t-48 -85.5t-17 -107.5q0 -59 14 -109t41.5 -87t69 -58t97.5 -21q22 0 45.5 3.5t45 9.5t40 14t30.5 17v158h-105v69h190v-270z" />
    <glyph glyph-name="gcommaaccent" unicode="&#x123;" horiz-adv-x="552" 
d="M209 655q0 25 11 42.5t28 29t38 17.5t41 8l15 -46q-27 -6 -46 -15.5t-19 -33.5q0 -14 7.5 -27t21.5 -28l-61 -17q-17 13 -26.5 29.5t-9.5 40.5zM486 3q0 -46 -14 -85t-42.5 -67t-72 -44t-101.5 -16q-38 0 -79 9t-79 25l23 77q32 -14 67.5 -23t67.5 -9q75 0 107.5 37
t32.5 95v57h-2q-26 -28 -59 -44t-71 -16q-102 0 -160 67t-58 194q0 57 14 104.5t42 81.5t69.5 53t97.5 19q36 0 72 -17t59 -46h2q0 8 2 24.5t6 27.5h76v-504zM396 381q-20 26 -50.5 42t-73.5 16q-133 0 -133 -179q0 -95 34.5 -138.5t97.5 -43.5q35 0 69.5 17.5t55.5 46.5
v239z" />
    <glyph glyph-name="Hbar" unicode="&#x126;" horiz-adv-x="646" 
d="M477 0v305h-308v-305h-93v516h-47v58h47v112h93v-112h308v112h93v-112h47v-58h-47v-516h-93zM477 386v130h-308v-130h308z" />
    <glyph glyph-name="hbar" unicode="&#x127;" horiz-adv-x="552" 
d="M396 0v303q0 69 -22.5 103.5t-75.5 34.5q-22 0 -42 -7t-37.5 -17.5t-32 -23.5t-24.5 -24v-369h-90v584h-76v56h76v99h90v-99h158v-56h-158v-136h2q11 12 26 24.5t34 23t41 17.5t46 7q36 0 68 -12.5t56 -38.5t37.5 -65t13.5 -91v-313h-90z" />
    <glyph glyph-name="Iogonek" unicode="&#x12e;" horiz-adv-x="245" 
d="M169 -192q-14 -7 -32 -11.5t-42 -4.5q-38 0 -63.5 22t-25.5 63q0 36 24.5 67t63.5 56h-18v686h93l-1 -686q-51 -35 -72 -64t-21 -55q0 -32 32 -32q9 0 21 2.5t25 8.5l16 -52v0z" />
    <glyph glyph-name="iogonek" unicode="&#x12f;" horiz-adv-x="244" 
d="M174 660q-1 -25 -18 -41.5t-41 -16.5q-25 0 -42.5 16.5t-17.5 41.5q0 23 17.5 40.5t41.5 17.5q25 0 42.5 -17.5t17.5 -40.5zM159 -193q-14 -6 -32 -10.5t-42 -4.5q-38 0 -63.5 22t-25.5 63q0 36 23 67t62 56h-12v509h90l-1 -509q-51 -35 -72 -64t-21 -55q0 -33 32 -33
q19 0 46 11z" />
    <glyph glyph-name="Kcommaaccent" unicode="&#x136;" horiz-adv-x="566" 
d="M349 -111q0 -25 -11 -42.5t-28 -29t-38 -17.5t-41 -8l-15 46q27 6 46 15.5t19 33.5q0 14 -7.5 27t-21.5 28l61 17q17 -13 26.5 -29.5t9.5 -40.5zM441 0l-202 302l-70 -93v-209h-93v685h93v-342h2l246 342h109l-232 -310l254 -375h-107z" />
    <glyph glyph-name="kcommaaccent" unicode="&#x137;" horiz-adv-x="506" 
d="M319 -111q0 -25 -11 -42.5t-28 -29t-38 -17.5t-41 -8l-15 46q27 6 46 15.5t19 33.5q0 14 -7.5 27t-21.5 28l61 17q17 -13 26.5 -29.5t9.5 -40.5zM403 0l-120 224q-11 20 -21.5 27t-18.5 7t-14 -3t-14 -11l-52 -56v-188h-90v739h90v-438l184 208h114l-178 -190v-2h8
q23 0 38.5 -14t27.5 -37l143 -266h-97z" />
    <glyph glyph-name="Lcommaaccent" unicode="&#x13b;" horiz-adv-x="492" 
d="M332 -111q0 -25 -11 -42.5t-28 -29t-38 -17.5t-41 -8l-15 46q27 6 46 15.5t19 33.5q0 14 -7.5 27t-21.5 28l61 17q17 -13 26.5 -29.5t9.5 -40.5zM466 0h-390v686h93v-605h306z" />
    <glyph glyph-name="lcommaaccent" unicode="&#x13c;" horiz-adv-x="271" 
d="M202 -111q0 -25 -11 -42.5t-28 -29t-38 -17.5t-41 -8l-15 46q27 6 46 15.5t19 33.5q0 14 -7.5 27t-21.5 28l61 17q17 -13 26.5 -29.5t9.5 -40.5zM224 -11q-45 0 -74.5 13t-47 34.5t-25 48.5t-7.5 54v599h90v-591q0 -15 3 -29.5t11 -26t22.5 -18t38.5 -6.5z" />
    <glyph glyph-name="Lslash" unicode="&#x141;" horiz-adv-x="493" 
d="M169 340v-259h306l-9 -81h-390v302l-76 -30v76l76 31v307h93v-270l126 51v-76z" />
    <glyph glyph-name="lslash" unicode="&#x142;" horiz-adv-x="272" 
d="M161 347v-200q0 -15 3 -29.5t11 -26t22.5 -18t38.5 -6.5l-11 -78q-45 0 -74.5 13t-47 34.5t-25 48.5t-7.5 54v170l-71 -30v77l71 30v352h90v-315l71 30v-76z" />
    <glyph glyph-name="Ncommaaccent" unicode="&#x145;" horiz-adv-x="639" 
d="M386 -111q0 -25 -11 -42.5t-28 -29t-38 -17.5t-41 -8l-15 46q27 6 46 15.5t19 33.5q0 14 -7.5 27t-21.5 28l61 17q17 -13 26.5 -29.5t9.5 -40.5zM479 0l-312 513h-3v-513h-93v674l95 12l306 -506h3v506h93v-686h-89z" />
    <glyph glyph-name="ncommaaccent" unicode="&#x146;" 
d="M341 -111q0 -25 -11 -42.5t-28 -29t-38 -17.5t-41 -8l-15 46q27 6 46 15.5t19 33.5q0 14 -7.5 27t-21.5 28l61 17q17 -13 26.5 -29.5t9.5 -40.5zM394 0v306q0 69 -21.5 102t-69.5 33q-43 0 -80 -22t-63 -50v-369h-90v509h75q2 -6 3.5 -15t3 -18.5t2.5 -18.5t1 -14h2
q10 12 25.5 25.5t35.5 25t43.5 19t49.5 7.5q78 0 125.5 -50.5t47.5 -153.5v-316h-90z" />
    <glyph glyph-name="Rcommaaccent" unicode="&#x156;" horiz-adv-x="562" 
d="M347 -111q0 -25 -11 -42.5t-28 -29t-38 -17.5t-41 -8l-15 46q27 6 46 15.5t19 33.5q0 14 -7.5 27t-21.5 28l61 17q17 -13 26.5 -29.5t9.5 -40.5zM443 0l-100 194q-9 18 -19.5 34.5t-23 29.5t-27 21t-32.5 8h-72v-287h-93v685h212q56 0 97 -14.5t68 -40t40 -62t13 -79.5
q0 -66 -33 -115.5t-105 -71.5v-2q17 -13 29 -30t21 -34l126 -236h-101zM410 488q0 57 -28 86.5t-97 29.5h-116v-237h118q63 0 93 32t30 89z" />
    <glyph glyph-name="rcommaaccent" unicode="&#x157;" horiz-adv-x="352" 
d="M182 -111q0 -25 -11 -42.5t-28 -29t-38 -17.5t-41 -8l-15 46q27 6 46 15.5t19 33.5q0 14 -7.5 27t-21.5 28l61 17q17 -13 26.5 -29.5t9.5 -40.5zM331 435q-13 4 -22.5 5t-20.5 1q-20 0 -42 -12t-41.5 -30.5t-32 -42t-12.5 -46.5v-310h-90v509h76q1 -7 3 -18.5t3 -24
t2 -24.5t1 -19h3q6 14 19 31t30.5 31.5t38 24.5t43.5 10q17 0 30.5 -2.5t27.5 -7.5z" />
    <glyph glyph-name="Tcommaaccent" unicode="&#x162;" horiz-adv-x="503" 
d="M318 -111q0 -25 -11 -42.5t-28 -29t-38 -17.5t-41 -8l-15 46q27 6 46 15.5t19 33.5q0 14 -7.5 27t-21.5 28l61 17q17 -13 26.5 -29.5t9.5 -40.5zM477 605h-179v-605h-93v604h-187v82h468z" />
    <glyph glyph-name="tcommaaccent" unicode="&#x163;" horiz-adv-x="364" 
d="M258 -111q0 -25 -11 -42.5t-28 -29t-38 -17.5t-41 -8l-15 46q27 6 46 15.5t19 33.5q0 14 -7.5 27t-21.5 28l61 17q17 -13 26.5 -29.5t9.5 -40.5zM343 6q-20 -8 -41 -12.5t-50 -4.5q-71 0 -113.5 38t-42.5 118v291h-79v73h79l11 164l79 12v-176h140l-11 -73h-129v-280
q0 -50 19 -69t58 -19q17 0 31 2.5t31 7.5z" />
    <glyph glyph-name="tcaron" unicode="&#x165;" horiz-adv-x="364" 
d="M343 6q-20 -8 -41 -12.5t-50 -4.5q-71 0 -113.5 38t-42.5 118v291h-79v73h79l11 164l79 12v-176h140l-11 -73h-129v-280q0 -50 19 -69t58 -19q17 0 31 2.5t31 7.5zM376 668q0 -30 -7.5 -51t-19.5 -35t-27 -22t-30 -13l-26 45q23 12 32.5 27t9.5 41q0 17 -6.5 34.5
t-17.5 30.5l62 21q13 -16 21.5 -36t8.5 -42z" />
    <glyph glyph-name="Tbar" unicode="&#x166;" horiz-adv-x="503" 
d="M477 605h-179v-231h127v-59h-127v-315h-93v315h-126v59h126v230h-187v82h468z" />
    <glyph glyph-name="tbar" unicode="&#x167;" horiz-adv-x="364" 
d="M186 233v-77q0 -50 19 -69t58 -19q17 0 31 2.5t31 7.5l18 -72q-20 -8 -41 -12.5t-50 -4.5q-71 0 -113.5 38t-42.5 118v88h-72v56h72v147h-79v73h79l11 164l79 12v-176h140l-11 -73h-129v-147h101v-56h-101z" />
    <glyph glyph-name="Uogonek" unicode="&#x172;" horiz-adv-x="638" 
d="M567 235q0 -107 -52 -170.5t-157 -73.5q-45 -32 -63 -59t-18 -51q0 -32 31 -32q9 0 21.5 2.5t24.5 8.5l16 -52q-14 -7 -31.5 -11.5t-41.5 -4.5q-38 0 -63.5 22t-25.5 63q0 33 20.5 62t54.5 52q-104 11 -155.5 74t-51.5 169v451h93v-458q0 -72 35 -114.5t118 -42.5
q82 0 117 42.5t35 113.5v459h93v-450v0z" />
    <glyph glyph-name="uogonek" unicode="&#x173;" 
d="M484 -193q-14 -6 -31.5 -10.5t-41.5 -4.5q-38 0 -63.5 22t-25.5 63q0 36 24.5 67t62.5 56q-2 6 -3.5 15t-3 18.5t-2.5 18.5t-1 14h-2q-10 -12 -25.5 -25.5t-35.5 -25t-43.5 -19t-49.5 -7.5q-78 0 -125.5 50.5t-47.5 153.5v316h90v-306q0 -69 21.5 -102t69.5 -33
q43 0 80 22.5t63 49.5v369h90v-509q-51 -35 -72 -64t-21 -55q0 -33 31 -33q19 0 46 11l16 -52v0z" />
    <glyph glyph-name="yacute" unicode="&#xfd;" horiz-adv-x="482" 
d="M264 -62q-9 -23 -21.5 -49t-32.5 -48t-48 -36t-68 -14q-23 0 -45 4t-38 10l12 75q13 -5 31.5 -8t32.5 -3q22 0 37.5 8t26.5 21.5t19 30.5t14 34l21 57l-194 489h90l89 -237q3 -8 10 -27q6 -17 17.5 -46t29.5 -77h3q16 48 26 77t15 46q6 19 9 27l81 237h90zM179 567
l-38 43l151 142l49 -55z" />
    <glyph glyph-name="zero.onum" horiz-adv-x="606" 
d="M561 288q0 -63 -17 -117.5t-50 -95t-81 -63.5t-111 -23t-111 23t-80.5 63.5t-49 95t-16.5 117.5q0 66 16.5 120.5t49 93.5t80.5 61t111 22t111 -22t81 -61t50 -93.5t17 -120.5zM465 288q0 101 -42.5 158.5t-120.5 57.5t-119.5 -57.5t-41.5 -158.5q0 -102 41.5 -160
t119.5 -58t120.5 58t42.5 160z" />
    <glyph glyph-name="one.onum" horiz-adv-x="528" 
d="M89 0v81h162v407l-152 -50l-25 74l199 62h71v-493h134v-81h-389z" />
    <glyph glyph-name="two.onum" horiz-adv-x="575" 
d="M475 0h-402v44q0 58 23 98t57 69.5t74.5 51.5t74.5 43t57 45t23 57q0 48 -28.5 72t-77.5 24q-38 0 -76 -15t-68 -36l-40 66q38 29 86 47.5t98 18.5q97 0 149 -49t52 -127q0 -42 -22 -74.5t-55.5 -59t-72 -49t-72 -45t-55.5 -47t-22 -53.5h305z" />
    <glyph glyph-name="three.onum" horiz-adv-x="520" 
d="M462 85q0 -42 -16 -80t-47 -66t-75.5 -44.5t-101.5 -16.5q-60 0 -108 18t-83 41l37 69q37 -22 76.5 -34.5t77.5 -12.5q67 0 105.5 37t38.5 92q0 28 -10 51t-27.5 39t-40.5 24.5t-48 8.5h-47v76h42q23 0 43.5 9t36.5 24t25 35.5t9 44.5q0 44 -29.5 74t-89.5 30
q-28 0 -57.5 -8.5t-69.5 -33.5l-41 65q44 29 87 43.5t81 14.5q54 0 94 -14.5t67 -39.5t40.5 -58t13.5 -70q0 -52 -29 -89t-77 -59v-2q54 -23 88.5 -64t34.5 -104z" />
    <glyph glyph-name="four.onum" horiz-adv-x="600" 
d="M534 36h-119v-147l-89 -11v158h-270v34q0 25 2.5 49.5t10.5 55.5l99 399h86l-108 -419q-5 -17 -6 -26t-1 -13h187l6 268l83 14v-282h129z" />
    <glyph glyph-name="five.onum" horiz-adv-x="600" 
d="M509 113q0 -47 -17.5 -89.5t-50 -75t-78 -52t-102.5 -19.5q-58 0 -108.5 20.5t-92.5 51.5l40 67q78 -57 161 -57q33 0 61 11.5t48 32t31.5 48.5t11.5 60q0 68 -37.5 105.5t-100.5 37.5q-30 0 -65 -7.5t-64 -16.5q-4 -1 -7 -1.5t-6 -0.5q-14 0 -20.5 9.5t-6.5 23.5v1
l9 312h362l-6 -82h-276l-6 -173h2q17 5 44.5 8.5t56.5 3.5q41 0 80 -14.5t69.5 -42t49 -68.5t18.5 -93z" />
    <glyph glyph-name="six.onum" horiz-adv-x="594" 
d="M162 281q0 -36 6.5 -73.5t22 -68t42 -50t67.5 -19.5q36 0 62 12.5t42.5 34t24 49t7.5 57.5t-7.5 57.5t-23.5 48t-40.5 32.5t-58.5 12q-39 0 -77 -17.5t-67 -44.5v-30zM532 222q0 -49 -15.5 -91.5t-45.5 -74t-73 -49.5t-98 -18q-59 0 -103 25t-73 66t-43.5 95t-14.5 111
q0 75 19 148.5t58.5 131.5t101 94t145.5 36q26 0 49.5 -3.5t48.5 -10.5l-18 -77q-20 5 -39.5 7.5t-39.5 2.5q-52 0 -90 -18t-64.5 -49t-42 -71t-23.5 -84q26 23 65 38.5t90 15.5q45 0 83 -17.5t65.5 -48t42.5 -71.5t15 -88z" />
    <glyph glyph-name="seven.onum" horiz-adv-x="540" 
d="M512 501q-55 -61 -93.5 -119.5t-62.5 -122.5t-35 -136.5t-11 -160.5v-73l-95 -11v95q0 160 47 287t147 230v3h-351l-9 81h446l17 -73v0z" />
    <glyph glyph-name="eight.onum" horiz-adv-x="580" 
d="M524 178q0 -44 -19.5 -79t-52 -59.5t-74.5 -37.5t-88 -13t-88.5 13t-74.5 37.5t-51.5 59.5t-19.5 79q0 36 11.5 63t30.5 47.5t44 36t53 27.5q-24 12 -45 26.5t-36.5 34.5t-24.5 46t-9 60q0 39 15.5 72t43.5 56t66.5 36t84.5 13t85 -13t66.5 -36.5t43 -56t15.5 -71.5
q0 -29 -9 -52t-25 -41t-37.5 -32.5t-45.5 -26.5q28 -13 53.5 -29t45 -38.5t31 -52t11.5 -69.5zM407 519q0 22 -9.5 39.5t-25 30t-37 19.5t-45.5 7t-45 -7t-37 -19.5t-25.5 -30.5t-9.5 -39q0 -24 10.5 -42t29 -32t42.5 -25t51 -21q43 20 72 47t29 73zM431 178q0 30 -13 51.5
t-34.5 37.5t-50 28t-58.5 24q-26 -12 -49 -25.5t-40 -30t-27 -37.5t-10 -48q0 -23 10 -42.5t29 -34t44.5 -23t57.5 -8.5q63 0 102 30t39 78z" />
    <glyph glyph-name="nine.onum" horiz-adv-x="589" 
d="M530 288q0 -75 -17.5 -148.5t-56 -131.5t-98.5 -94t-144 -36q-26 0 -49.5 3.5t-48.5 10.5l18 77q20 -5 39.5 -7.5t39.5 -2.5q52 0 89.5 18.5t62.5 49.5t39.5 71.5t21.5 84.5q-25 -22 -65 -39t-92 -17q-45 0 -83 17.5t-65 48t-42.5 71.5t-15.5 88q0 49 15.5 91.5t45.5 74
t73.5 49.5t98.5 18q59 0 103 -25t73 -66t43.5 -95t14.5 -111zM433 263q1 8 1 15v15q0 36 -6.5 73.5t-22.5 68t-42.5 50t-66.5 19.5q-37 0 -63 -12.5t-42.5 -34t-24 -49t-7.5 -57.5t7.5 -57.5t23.5 -48t41 -32.5t59 -12q39 0 77 17.5t66 44.5z" />
    <glyph glyph-name="Yacute" unicode="&#xdd;" horiz-adv-x="558" 
d="M326 295v-295h-93v295l-215 390h101l111 -220q4 -8 11 -21q12 -23 37 -71h3q11 25 20 42.5t14 28.5q6 13 10 21l114 220h101zM217 767l-38 43l151 142l49 -55z" />
    <glyph glyph-name="Eth" unicode="&#xd0;" horiz-adv-x="725" 
d="M671 346q0 -75 -17 -138.5t-51.5 -109.5t-87.5 -72t-125 -26h-251v305h-101v81h101v299h251q72 0 125 -24.5t87.5 -69.5t51.5 -107.5t17 -137.5zM575 346q0 60 -11 107.5t-33.5 81t-57.5 51.5t-83 18h-158v-218h163v-81h-163v-224h158q48 0 83 19t57.5 54t33.5 84t11 108
z" />
    <glyph glyph-name="eth" unicode="&#xf0;" horiz-adv-x="563" 
d="M517 254q0 -56 -15.5 -104.5t-45 -84t-73.5 -56t-101 -20.5t-101 20.5t-74 56.5t-45.5 84.5t-15.5 104.5q0 60 15.5 108.5t45.5 83.5t74 54t101 19q14 0 27.5 -1.5t25.5 -3.5q-18 26 -37.5 49.5t-38.5 43.5l-107 -61l-27 46l94 55q-21 21 -38 37t-28 26l65 39
q11 -9 29.5 -24.5t41.5 -36.5l108 62l27 -47l-94 -55q32 -33 65.5 -75.5t60.5 -92.5t44 -107t17 -120zM424 256q0 87 -35 136t-107 49q-70 0 -106.5 -49.5t-36.5 -135.5q0 -87 37 -137.5t106 -50.5q68 0 105 51t37 137z" />
    <glyph glyph-name="Thorn" unicode="&#xde;" horiz-adv-x="560" 
d="M514 250q0 -59 -16.5 -107t-45.5 -82.5t-70 -53t-89 -18.5q-36 0 -71 11.5t-57 33.5h-2v-232h-90v936h90v-278q23 29 59 44.5t71 15.5q55 0 96 -19.5t69 -55.5t42 -85.5t14 -109.5zM421 250q0 94 -33 142.5t-101 48.5q-43 0 -73 -16t-51 -45v-259q21 -24 51 -38.5
t74 -14.5q59 0 96 47.5t37 134.5z" />
    <glyph glyph-name="thorn" unicode="&#xfe;" horiz-adv-x="562" 
d="M508 359q0 -45 -13.5 -83t-41.5 -65.5t-69.5 -42.5t-96.5 -15h-118v-153h-93v685h93v-121h118q55 0 96.5 -15t69.5 -42.5t41.5 -65t13.5 -82.5zM412 359q0 60 -30 91.5t-98 31.5h-115v-250h115q68 0 98 32.5t30 94.5z" />
    <glyph glyph-name="brokenbar" unicode="&#xa6;" horiz-adv-x="271" 
d="M175 -75h-79v308h79v-308zM175 462h-79v308h79v-308z" />
    <glyph glyph-name="numbersign" unicode="#" horiz-adv-x="600" 
d="M426 207l-20 -207h-77l21 207h-123l-20 -207h-77l20 207h-87v73h93l13 126h-85v74h91l19 206h78l-20 -206h122l20 206h76l-20 -206h87v-74h-93l-13 -126h84v-73h-89zM356 280l12 126h-122l-13 -126h123z" />
    <glyph glyph-name="mu" unicode="&#xb5;" 
d="M409 0q-2 6 -3.5 15t-3 18.5t-2.5 18.5t-1 14h-2q-10 -12 -25.5 -25.5t-35.5 -25t-43.5 -19t-49.5 -7.5q-47 0 -83 18v-204h-90v707h90v-306q0 -69 21.5 -102.5t69.5 -33.5q43 0 80 22.5t63 50.5v369h90v-510h-75z" />
    <glyph glyph-name="summation" unicode="&#x2211;" horiz-adv-x="545" 
d="M61 -43l-27 49l201 315l-201 315l27 49h403v-81h-317l181 -283l-181 -283h317v-81h-403z" />
    <glyph glyph-name="product" unicode="&#x220f;" horiz-adv-x="706" 
d="M586 602v-646h-93v646h-280v-646h-93v646h-55v82h576v-82h-55z" />
    <glyph glyph-name="pi" unicode="&#x3c0;" horiz-adv-x="622" 
d="M575 -11q-71 0 -113.5 38.5t-42.5 117.5v291h-213v-436h-90v436h-70v73h532v-73h-69v-280q0 -50 19 -69t58 -19z" />
    <glyph glyph-name="integral" unicode="&#x222b;" horiz-adv-x="313" 
d="M383 684q-17 7 -33 11t-33 4q-18 0 -33 -4.5t-26.5 -15.5t-19 -29.5t-10.5 -47.5l-57 -585q-4 -38 -19 -66t-36.5 -48.5t-48 -33.5t-53.5 -19l-36 73q20 7 38 15t31.5 20t22.5 29.5t12 42.5l57 584q8 80 55.5 122t121.5 42q26 0 50.5 -6t47.5 -17z" />
    <glyph glyph-name="Omega" unicode="&#x3a9;" horiz-adv-x="714" 
d="M418 0v79q34 11 59.5 37t42.5 63t25 82t8 94q0 59 -11.5 109t-35.5 86t-61 56t-88 20t-88 -20t-61 -56t-35.5 -86t-11.5 -109q0 -50 8 -95t25 -81.5t42.5 -62.5t60.5 -37v-79h-246v79h105q-47 48 -69 119t-22 156q0 79 17.5 144t53.5 111.5t91 72t130 25.5t130 -25.5
t91 -72t53.5 -111.5t17.5 -144q0 -85 -22 -156t-69 -119h105v-79h-245z" />
    <glyph glyph-name="radical" unicode="&#x221a;" horiz-adv-x="625" 
d="M373 0h-100l-156 440h-101v69h168l139 -407h3l229 636h89z" />
    <glyph glyph-name="Delta" unicode="&#x2206;" horiz-adv-x="636" 
d="M10 0l252 675l109 10l255 -685h-616zM317 586h-3l-183 -503h371z" />
    <glyph glyph-name="lozenge" unicode="&#x25ca;" horiz-adv-x="632" 
d="M365 0h-99l-210 371l210 371h99l211 -371zM317 662h-3l-170 -291l170 -291h3l169 291z" />
    <glyph glyph-name="sfthyphen" unicode="&#xad;" horiz-adv-x="408" 
d="M73 235v73h262v-73h-262z" />
    <glyph glyph-name="divide" unicode="&#xf7;" horiz-adv-x="565" 
d="M340 453q0 -24 -17 -42t-41 -18t-40.5 18t-16.5 41q0 24 16.5 41.5t40.5 17.5t41 -17.5t17 -40.5zM54 214v80h457v-80h-457zM340 56q0 -24 -17 -41.5t-41 -17.5t-40.5 17.5t-16.5 40.5q0 25 16.5 42.5t40.5 17.5t41 -17.5t17 -41.5z" />
    <glyph glyph-name="uniF8FF" unicode="&#xf8ff;" horiz-adv-x="0" 
 />
    <glyph glyph-name="currency" unicode="&#xa4;" horiz-adv-x="600" 
d="M453 345q27 -45 27 -96t-28 -96l56 -55l-57 -57l-55 56q-45 -28 -96 -28t-95 28l-56 -56l-57 56l56 56q-28 44 -28 95.5t27 96.5l-55 55l56 57l56 -55q44 28 96 27.5t96 -28.5l56 56l56 -57zM380 169q16 16 24.5 37t8.5 43t-8.5 42.5t-24.5 37.5q-17 17 -37.5 25.5
t-42.5 8.5t-43 -8.5t-37 -25.5q-17 -17 -25.5 -37.5t-8.5 -42.5t8.5 -43t25.5 -37q16 -17 37 -25t43 -8t42.5 8t37.5 25z" />
    <glyph glyph-name="exclam" unicode="!" horiz-adv-x="334" 
d="M228 51q0 -25 -17.5 -43.5t-43.5 -18.5t-43.5 18.5t-17.5 43.5q0 26 17.5 44.5t43.5 18.5t43.5 -18.5t17.5 -44.5zM211 199h-87l-11 486h109z" />
    <glyph glyph-name="quotedbl" unicode="&#x22;" horiz-adv-x="442" 
d="M184 449h-61l-9 237h79zM320 449h-62l-9 237h79z" />
    </font>
</defs>
</svg>
