<?xml version="1.0" standalone="no"?>
<!DOCTYPE svg PUBLIC "-//W3C//DTD SVG 1.1//EN" "http://www.w3.org/Graphics/SVG/1.1/DTD/svg11.dtd" >
<svg xmlns="http://www.w3.org/2000/svg" xmlns:xlink="http://www.w3.org/1999/xlink" version="1.1">
<metadata>
Created by FontForge 20170910 at Wed Sep 27 22:08:53 2006
 By Jimmy Wärting
Copyright (c) 2006 by C.Dickinson. All rights reserved.
</metadata>
<defs>
<font id="Depot-Light" horiz-adv-x="600" >
  <font-face 
    font-family="Depot Light"
    font-weight="400"
    font-stretch="normal"
    units-per-em="1000"
    panose-1="2 0 5 3 3 0 0 2 0 4"
    ascent="770"
    descent="-230"
    x-height="501"
    cap-height="686"
    bbox="-89 -210 1151 931"
    underline-thickness="20"
    underline-position="-133"
    unicode-range="U+0020-FB04"
  />
<missing-glyph horiz-adv-x="500" 
d="M0 770h500v-770h-500v770zM60 60h380v650h-380v-650z" />
    <glyph glyph-name="fi" unicode="fi" horiz-adv-x="574" 
d="M423 0v444h-243v-444h-63v444h-99v57h99v96q0 69 41 111t114 42q25 0 49 -5t43 -13l-17 -55q-17 6 -36 11t-45 5q-86 0 -86 -102v-90h306v-501h-63zM504 659q0 -20 -15 -34.5t-35 -14.5t-35 14.5t-15 34.5t15 34t35 14t35 -14t15 -34z" />
    <glyph glyph-name="fl" unicode="fl" horiz-adv-x="596" 
d="M548 -11q-39 0 -66 12t-44 32t-24.5 45.5t-7.5 52.5v552q-25 4 -52.5 7t-50.5 3q-72 0 -97.5 -25.5t-25.5 -76.5v-90h134l-5 -57h-129v-444h-63v444h-99v57h99v96q0 34 11 62t33 48t55.5 31.5t78.5 11.5q24 0 49.5 -2t48.5 -5.5t42.5 -7.5t33.5 -7v-592q0 -17 4 -33.5
t13.5 -29t26.5 -20t43 -7.5z" />
    <glyph glyph-name="f_b" unicode="fb" horiz-adv-x="882" 
d="M832 255q0 -59 -14.5 -107.5t-42 -84t-67 -55t-88.5 -19.5q-23 0 -46 6t-43 16.5t-36 23.5t-26 27h-2q0 -10 -2 -29t-6 -33h-52v683q-25 4 -53 7t-51 3q-72 0 -97.5 -25.5t-25.5 -76.5v-90h134l-5 -57h-129v-444h-63v444h-99v57h99v96q0 68 43.5 110.5t133.5 42.5
q24 0 49.5 -2t49 -5.5t43.5 -7.5t34 -7v-278h2q26 23 63.5 42.5t84.5 19.5q99 0 155.5 -64.5t56.5 -192.5zM766 255q0 102 -38.5 151t-113.5 49q-21 0 -42 -6.5t-40 -17.5t-34.5 -24.5t-27.5 -26.5v-255q11 -15 26 -29t34 -25t40 -18t44 -7q37 0 65.5 15t47.5 42.5t29 66
t10 85.5z" />
    <glyph glyph-name="f_h" unicode="fh" horiz-adv-x="874" 
d="M742 0v301q0 74 -25.5 114t-87.5 40q-27 0 -51.5 -11.5t-45 -27t-36 -31.5t-24.5 -26v-359h-63v683q-20 4 -51 7t-56 3q-71 0 -96.5 -26t-25.5 -76v-90h134l-5 -57h-129v-444h-63v444h-99v57h99v96q0 68 43.5 110.5t133.5 42.5q24 0 50 -2t50 -5.5t44 -7.5t34 -7v-304h2
q8 12 23.5 27t36.5 28.5t46.5 23t55.5 9.5q35 0 66 -12t54 -36.5t36 -62.5t13 -90v-311h-63z" />
    <glyph glyph-name="f_f" unicode="ff" horiz-adv-x="664" 
d="M679 677q-17 6 -36 11t-45 5q-86 0 -86 -102v-90h134l-5 -57h-129v-444h-63v444h-269v-444h-63v444h-99v57h99v96q0 68 41 110.5t114 42.5q25 0 49 -5t43 -13l-17 -55q-17 6 -36 11t-45 5q-86 0 -86 -102v-90h269v96q0 68 41 110.5t114 42.5q25 0 49 -5t43 -13z" />
    <glyph glyph-name="f_f_i" unicode="ffi" horiz-adv-x="906" 
d="M836 659q0 -20 -15 -34.5t-35 -14.5t-35 14.5t-15 34.5t15 34t35 14t35 -14t15 -34zM755 0v444h-243v-444h-63v444h-269v-444h-63v444h-99v57h99v96q0 68 41 110.5t114 42.5q25 0 49 -5t43 -13l-17 -55q-17 6 -36 11t-45 5q-86 0 -86 -102v-90h269v96q0 69 41 111t114 42
q25 0 49 -5t43 -13l-17 -55q-17 6 -36 11t-45 5q-86 0 -86 -102v-90h306v-501h-63z" />
    <glyph glyph-name="f_f_l" unicode="ffl" horiz-adv-x="928" 
d="M880 -11q-39 0 -66 12t-44 32t-24.5 45.5t-7.5 52.5v552q-25 4 -52.5 7t-50.5 3q-72 0 -97.5 -25.5t-25.5 -76.5v-90h134l-5 -57h-129v-444h-63v444h-269v-444h-63v444h-99v57h99v96q0 68 41 110.5t114 42.5q25 0 49 -5t43 -13l-17 -55q-17 6 -36 11t-45 5
q-86 0 -86 -102v-90h269v96q0 34 11 62t33 48t55.5 31.5t78.5 11.5q24 0 49.5 -2t48.5 -5.5t42.5 -7.5t33.5 -7v-592q0 -17 4 -33.5t13.5 -29t26.5 -20t43 -7.5z" />
    <glyph glyph-name="f_k" unicode="fk" horiz-adv-x="819" 
d="M740 0l-121 225q-11 20 -22.5 31.5t-26.5 11.5q-22 0 -38 -18l-59 -65v-185h-63v683q-26 4 -54.5 7t-52.5 3q-72 0 -97.5 -25.5t-25.5 -76.5v-90h134l-5 -57h-129v-444h-63v444h-99v57h99v96q0 34 11 62t33 48t55.5 31.5t78.5 11.5q24 0 50 -2t50 -5.5t44 -7.5t34 -7
v-459l213 232h77l-173 -186v-2h8q26 0 41 -14t32 -44l138 -255h-69z" />
    <glyph glyph-name="f_t" unicode="ft" horiz-adv-x="691" 
d="M666 5q-19 -8 -42.5 -12t-43.5 -4q-63 0 -104.5 36t-41.5 115v304h-254v-444h-63v444h-99v57h99v96q0 68 41 110.5t114 42.5q25 0 49 -5t43 -13l-17 -55q-17 6 -36 11t-45 5q-86 0 -86 -102v-90h254l9 170l54 11v-181h149l-11 -57h-138v-296q0 -54 21 -78t65 -24
q35 0 67 11l16 -52v0z" />
    <glyph glyph-name="f_j" unicode="fj" horiz-adv-x="561" 
d="M487 -58q0 -75 -39 -112.5t-104 -37.5q-25 0 -49 5t-43 13l14 54q17 -6 37 -10.5t41 -4.5q36 0 58 25t22 80v490h-244v-444h-63v444h-99v57h99v96q0 68 41 110.5t114 42.5q25 0 49 -5t43 -13l-17 -55q-17 6 -36 11t-45 5q-86 0 -86 -102v-90h307v-559zM506 659
q0 -20 -15 -34.5t-35 -14.5t-35 14.5t-15 34.5t15 34t35 14t35 -14t15 -34z" />
    <glyph glyph-name="f_y" unicode="fy" horiz-adv-x="794" 
d="M578 -67q-9 -24 -21 -49.5t-30 -45.5t-43.5 -33t-61.5 -13q-22 0 -43.5 4.5t-31.5 7.5l8 56q10 -4 29 -7.5t34 -3.5q21 0 37 9t28.5 23.5t21.5 33.5t17 39l18 50l-171 440h-189v-444h-63v444h-99v57h99v96q0 68 41 110.5t114 42.5q25 0 49 -5t43 -13l-17 -55
q-17 6 -36 11t-45 5q-86 0 -86 -102v-90h231l96 -251q3 -9 11 -30q7 -18 19 -51.5t33 -89.5h3q19 56 30.5 89.5t17.5 51.5l10 30l86 251h63z" />
    <glyph glyph-name=".notdef" horiz-adv-x="500" 
d="M0 770h500v-770h-500v770zM60 60h380v650h-380v-650z" />
    <glyph glyph-name=".null" horiz-adv-x="0" 
 />
    <glyph glyph-name="nonmarkingreturn" horiz-adv-x="280" 
 />
    <glyph glyph-name="space" unicode=" " horiz-adv-x="280" 
 />
    <glyph glyph-name="percent" unicode="%" horiz-adv-x="826" 
d="M622 -10q-37 0 -66 13t-48.5 36.5t-30 55t-10.5 68.5q0 78 40 125.5t115 47.5t116 -47.5t41 -125.5q0 -37 -10.5 -68.5t-30.5 -55t-49.5 -36.5t-66.5 -13zM359 546q0 -37 -10.5 -69t-30.5 -55t-49 -36.5t-66 -13.5q-38 0 -67 13.5t-48.5 36.5t-30 55t-10.5 69
q0 78 40 125t115 47t116 -47t41 -125zM622 289q-53 0 -77 -33.5t-24 -92.5t24.5 -93t76.5 -34t77 34.5t25 92.5q0 59 -24.5 92.5t-77.5 33.5zM304 546q0 57 -24.5 91t-76.5 34q-54 0 -78 -33.5t-24 -91.5q0 -59 24.5 -93.5t76.5 -34.5t77 35t25 93zM237 0l296 707h56
l-296 -707h-56z" />
    <glyph glyph-name="ampersand" unicode="&#x26;" horiz-adv-x="703" 
d="M615 -10q-20 18 -44.5 39.5t-51.5 46.5q-42 -41 -96 -64t-123 -23q-53 0 -97.5 13t-76.5 38.5t-50 64t-18 89.5q0 42 13.5 74t36 57.5t52 45.5t61.5 37q-29 48 -46.5 94t-17.5 89q0 36 13.5 65.5t36.5 50t53.5 32t65.5 11.5q34 0 63.5 -11t52 -31.5t35.5 -49t13 -64.5
q0 -38 -16.5 -67.5t-43 -54t-60.5 -45t-69 -39.5q45 -61 102 -120.5t113 -110.5q25 35 42.5 77.5t30.5 90.5l51 -19q-13 -51 -33.5 -98.5t-49.5 -87.5l99 -87zM478 114q-59 55 -118.5 118t-107.5 129q-27 -15 -50.5 -31.5t-41 -35.5t-28 -41.5t-10.5 -49.5q0 -39 13.5 -68.5
t37 -49t56 -29.5t71.5 -10q57 0 100.5 18t77.5 50zM270 434q31 16 60.5 31.5t52 34t36 40.5t13.5 51q0 47 -30 74.5t-74 27.5q-48 0 -80.5 -24t-32.5 -78q0 -37 14.5 -76t40.5 -81z" />
    <glyph glyph-name="quotesingle" unicode="'" horiz-adv-x="259" 
d="M151 468h-51v217h51v-217z" />
    <glyph glyph-name="parenleft" unicode="(" horiz-adv-x="292" 
d="M208 -115q-19 36 -41 79t-40.5 97t-31 120t-12.5 147t12.5 146.5t31 119.5t40.5 97.5t41 79.5h64q-10 -16 -30.5 -56.5t-41.5 -99t-36.5 -132t-15.5 -155.5q0 -83 15.5 -156.5t36.5 -132t41.5 -98.5t30.5 -56h-64z" />
    <glyph glyph-name="parenright" unicode=")" horiz-adv-x="292" 
d="M84 771q19 -36 40.5 -79.5t40.5 -97.5t31.5 -120t12.5 -147t-12.5 -146.5t-31.5 -119t-40.5 -97t-40.5 -79.5h-64q10 16 30.5 56t41.5 98.5t36.5 131.5t15.5 156t-15.5 156.5t-36.5 132t-41.5 99t-30.5 56.5h64z" />
    <glyph glyph-name="asterisk" unicode="*" horiz-adv-x="440" 
d="M388 449q-7 -13 -21 -13q-6 0 -10 3l-120 76l7 -143q0 -9 -7.5 -14.5t-16.5 -5.5q-10 0 -17.5 6t-7.5 14l7 143l-119 -76q-5 -3 -10 -3q-10 0 -17.5 8t-7.5 19q0 12 10 18l126 65l-125 65q-11 6 -11 18q0 11 7.5 19t18.5 8q6 0 9 -2l119 -77l-7 142q0 9 7.5 15t17.5 6
q9 0 16.5 -6t7.5 -14l-7 -143l120 77q3 2 9 2q11 0 18 -7.5t7 -18.5q0 -13 -10 -19l-126 -65l126 -65q10 -6 10 -19q0 -7 -3 -13z" />
    <glyph glyph-name="plus" unicode="+" horiz-adv-x="571" 
d="M316 226v-198h-60v198h-199v60h199v199h60v-199h198v-60h-198z" />
    <glyph glyph-name="comma" unicode="," horiz-adv-x="218" 
d="M158 24q0 -25 -9 -50t-21 -46t-24.5 -37.5t-19.5 -23.5l-31 16q5 6 13 19.5t16 29.5t14 31t6 26q-21 0 -36.5 16t-15.5 38t15.5 38t36.5 16q22 0 39 -18.5t17 -54.5z" />
    <glyph glyph-name="hyphen" unicode="-" horiz-adv-x="396" 
d="M77 242v57h242v-57h-242z" />
    <glyph glyph-name="period" unicode="." horiz-adv-x="224" 
d="M165 43q0 -22 -15.5 -38t-37.5 -16t-37 16t-15 38t15 38t37 16t37.5 -16t15.5 -38z" />
    <glyph glyph-name="slash" unicode="/" horiz-adv-x="351" 
d="M100 -119h-55l206 860h55z" />
    <glyph glyph-name="zero" unicode="0" 
d="M551 344q0 -77 -16 -142.5t-47.5 -112.5t-78.5 -73.5t-110 -26.5t-110 26.5t-78 73.5t-46.5 112.5t-15.5 142.5q0 80 15.5 145t46.5 111t78 71t110 25t110 -25t78.5 -71t47.5 -111t16 -145zM483 344q0 62 -10.5 115.5t-32.5 92.5t-57 61.5t-84 22.5t-83.5 -22.5
t-56.5 -61.5t-32 -92.5t-10 -115.5q0 -63 10 -116.5t32 -93.5t56.5 -62.5t83.5 -22.5t84 22.5t57 62.5t32.5 93.5t10.5 116.5z" />
    <glyph glyph-name="one" unicode="1" horiz-adv-x="550" 
d="M89 0v60h169v562l-162 -51l-17 54l190 60h54v-625h149v-60h-383z" />
    <glyph glyph-name="two" unicode="2" 
d="M92 0l-9 53q0 54 25 97t62 79t80.5 68t80.5 64.5t62 68.5t25 80q0 57 -33 91.5t-99 34.5q-57 0 -91 -23.5t-60 -68.5l-48 32q32 62 83.5 91t115.5 29q46 0 82.5 -13.5t62 -38.5t39.5 -59t14 -75q0 -50 -25.5 -91.5t-63 -77.5t-82 -68.5t-82 -65.5t-63 -69t-25.5 -78h350
v-60h-401z" />
    <glyph glyph-name="three" unicode="3" 
d="M489 190q0 -41 -14.5 -77t-43 -64t-71 -44t-98.5 -16q-58 0 -106 17.5t-77 37.5l28 51q31 -20 72 -33t83 -13q75 0 117 40t42 104q0 34 -13 60t-33.5 43.5t-46.5 26.5t-52 9h-38v58h33q23 0 47 9t43 26t31 40.5t12 52.5q0 54 -36.5 86t-102.5 32q-62 0 -129 -41l-28 50
q36 24 78.5 37.5t78.5 13.5q52 0 91 -14t64.5 -38t38 -56t12.5 -67q0 -28 -9 -52.5t-25 -44t-36.5 -34.5t-43.5 -25v-2q27 -11 51 -26.5t42 -36.5t28.5 -48.5t10.5 -61.5z" />
    <glyph glyph-name="four" unicode="4" 
d="M527 156h-124v-156l-64 -11v167h-277v14q0 26 3 51.5t11 55.5l109 408h66l-114 -423q-5 -20 -6.5 -29.5t-1.5 -17.5h210l3 272l61 14v-286h135z" />
    <glyph glyph-name="five" unicode="5" 
d="M496 221q0 -46 -17 -88t-48.5 -74t-75.5 -51t-99 -19q-57 0 -106.5 20.5t-84.5 46.5l29 49q32 -23 73 -39.5t89 -16.5q37 0 69 13t54.5 35.5t35.5 53.5t13 67q0 75 -43 116t-112 41q-33 0 -71 -7.5t-63 -15.5q-2 -1 -4 -1h-4q-10 0 -15.5 6.5t-5.5 16.5v1q0 8 1 44
q1 31 3 93.5t5 173.5h344l-5 -60h-281l-4 -209h2q16 7 45 11.5t61 4.5q42 0 81 -14.5t68.5 -41.5t47.5 -66.5t18 -89.5z" />
    <glyph glyph-name="six" unicode="6" 
d="M143 280q0 -41 7.5 -82t26 -74t49 -54t75.5 -21q40 0 69.5 13.5t49 36.5t29 53t9.5 64t-9.5 64t-28.5 52.5t-47 35.5t-65 13q-47 0 -91.5 -22t-73.5 -57v-22zM525 217q0 -48 -15 -89.5t-43.5 -72t-70 -48.5t-95.5 -18q-58 0 -100.5 25t-70.5 66.5t-41.5 94t-13.5 108.5
q0 75 18 149t56.5 132.5t99 95t146.5 36.5q22 0 43 -2.5t39 -7.5l-12 -58q-17 5 -34.5 6.5t-36.5 1.5q-62 0 -105.5 -22t-73 -59t-45.5 -85t-22 -100q29 30 71.5 48.5t96.5 18.5q45 0 83.5 -16.5t66.5 -45.5t43.5 -69.5t15.5 -88.5z" />
    <glyph glyph-name="seven" unicode="7" 
d="M524 628q-56 -62 -95 -124t-64.5 -129.5t-37 -145t-11.5 -171.5v-58l-68 -11v80q0 92 13 169.5t38 144t61.5 125.5t84.5 115v2h-363l-6 60h436l12 -57v0z" />
    <glyph glyph-name="eight" unicode="8" 
d="M305 388q27 10 51 22.5t42 28.5t28.5 37.5t10.5 50.5q0 27 -12 47t-31 34t-44 21t-50 7q-26 0 -50.5 -7t-43.5 -21t-31 -34t-12 -47q0 -29 11.5 -50t31 -37t45 -28.5t54.5 -23.5zM285 332q-29 -12 -56 -25.5t-47 -32t-32 -44t-12 -59.5q0 -29 13 -51.5t34.5 -38t51 -24
t62.5 -8.5q34 0 63.5 8.5t51.5 24t35 38t13 51.5q0 36 -15 60.5t-40 42.5t-57 31.5t-65 26.5zM527 171q0 -42 -18.5 -75.5t-49.5 -57t-72 -36.5t-87 -13t-87.5 13t-72.5 36.5t-49 57t-18 75.5q0 40 12.5 69.5t34 51.5t49 37.5t57.5 27.5q-26 12 -49.5 27t-41 35t-27.5 46.5
t-10 61.5q0 37 14.5 68t40.5 53.5t63.5 35t83.5 12.5t83.5 -12.5t64 -35t40.5 -53.5t14 -68q0 -34 -11 -59.5t-30 -44.5t-43.5 -33t-52.5 -26q31 -13 60.5 -29t52 -38.5t36 -53t13.5 -72.5z" />
    <glyph glyph-name="nine" unicode="9" 
d="M528 389q0 -74 -16.5 -145.5t-54.5 -128t-99.5 -91.5t-150.5 -35q-22 0 -37.5 2.5t-24.5 4.5l9 58q10 -2 22.5 -3.5t30.5 -1.5q70 0 116.5 23.5t75 63t42 90.5t17.5 105q-13 -15 -29.5 -30t-38 -27t-48 -19.5t-58.5 -7.5q-35 0 -72.5 12t-68.5 38.5t-51 70t-20 106.5
q0 32 10.5 70.5t36 72.5t67.5 56.5t105 22.5q58 0 102 -24.5t74 -66t45.5 -97.5t15.5 -119zM460 391q-1 117 -46 181t-123 64q-48 0 -77.5 -18t-46 -43.5t-22 -53t-5.5 -47.5q0 -39 11 -70.5t30 -54t45.5 -34.5t58.5 -12q30 0 56.5 7.5t49 20t40 28t29.5 32.5z" />
    <glyph glyph-name="colon" unicode=":" horiz-adv-x="258" 
d="M185 43q0 -22 -15.5 -38t-37.5 -16t-37 16t-15 38t15 38t37 16t37.5 -16t15.5 -38zM185 366q0 -22 -15.5 -38t-37.5 -16t-37 16t-15 38t15 38t37 16t37.5 -16t15.5 -38z" />
    <glyph glyph-name="semicolon" unicode=";" horiz-adv-x="262" 
d="M188 24q0 -25 -9.5 -50t-21.5 -46t-24.5 -37.5t-18.5 -23.5l-31 16q5 6 13 19.5t16 29.5t14 31t6 26q-21 0 -36.5 16t-15.5 38t15.5 38t36.5 16q22 0 39 -18.5t17 -54.5zM185 365q0 -22 -15.5 -37.5t-37.5 -15.5q-21 0 -36.5 15.5t-15.5 37.5q0 23 15.5 38.5t36.5 15.5
q22 0 37.5 -15.5t15.5 -38.5z" />
    <glyph glyph-name="less" unicode="&#x3c;" horiz-adv-x="453" 
d="M367 36l-315 253l315 254l35 -43l-263 -211l263 -210z" />
    <glyph glyph-name="equal" unicode="=" horiz-adv-x="571" 
d="M57 321v60h457v-60h-457zM57 131v60h457v-60h-457z" />
    <glyph glyph-name="greater" unicode="&#x3e;" horiz-adv-x="453" 
d="M314 289l-262 211l34 43l316 -254l-315 -253l-35 43z" />
    <glyph glyph-name="question" unicode="?" horiz-adv-x="441" 
d="M375 541q0 -35 -11.5 -60.5t-29.5 -47t-38 -40.5t-38 -40t-29.5 -46t-11.5 -59q0 -9 1 -19t3 -21l-64 -14q-6 30 -6 56q0 39 12 68.5t29.5 53t38 43t38 38.5t29.5 39t12 45q0 46 -27.5 72t-76.5 26q-42 0 -71.5 -11.5t-52.5 -25.5l-24 52q23 16 58.5 30.5t92.5 14.5
q33 0 63 -10.5t53 -30t36.5 -48t13.5 -65.5zM195 90q20 0 34.5 -15t14.5 -35q0 -21 -14.5 -36t-34.5 -15q-21 0 -35 15t-14 35q0 21 14 36t35 15z" />
    <glyph glyph-name="at" unicode="@" horiz-adv-x="776" 
d="M718 370q0 -33 -9 -70.5t-28.5 -69.5t-50.5 -53t-76 -21q-39 0 -62 25t-28 57q-17 -40 -48 -61t-71 -21q-29 0 -51 12.5t-37 32t-23 44.5t-8 50q0 48 14.5 88.5t40 70.5t60 46.5t73.5 16.5q30 0 63 -11.5t62 -34.5l-34 -161q-4 -19 -4 -38q0 -35 17 -52.5t46 -17.5
q21 0 39 14t31 37.5t20 53.5t7 63q0 54 -17.5 101t-50 81.5t-78 54.5t-100.5 20q-72 0 -128 -26.5t-94.5 -71t-58 -103t-19.5 -122.5q0 -56 18 -103t51.5 -81.5t81 -53.5t106.5 -19q38 0 77.5 9t77.5 27l17 -54q-42 -19 -85.5 -29t-86.5 -10q-71 0 -129 23.5t-99 65.5
t-63.5 99.5t-22.5 125.5q0 75 25 144t71.5 121t112.5 83t148 31q68 0 124 -25.5t95.5 -68t61.5 -99.5t22 -120zM486 451q-18 10 -37.5 14.5t-39.5 4.5q-27 0 -51 -13t-42 -36.5t-29 -55.5t-11 -70q0 -36 19 -64.5t58 -28.5q18 0 34.5 7t31 24t26 45.5t20.5 71.5z" />
    <glyph glyph-name="A" unicode="A" horiz-adv-x="613" 
d="M526 0l-63 180h-311l-63 -180h-67l240 674l86 12l243 -686h-65zM308 623h-3l-134 -387h272z" />
    <glyph glyph-name="B" unicode="B" horiz-adv-x="553" 
d="M513 194q0 -40 -12.5 -75t-39 -61.5t-68.5 -42t-101 -15.5h-212v685h209q39 0 73 -11.5t59.5 -33.5t40 -54.5t14.5 -73.5q0 -49 -25 -89t-67 -59v-2q60 -18 94.5 -60t34.5 -108zM444 195q0 40 -15 66t-38.5 41t-53 21t-59.5 6h-132v-269h154q22 0 47.5 4.5t47 18.5
t35.5 41t14 71zM407 509q0 31 -10.5 53.5t-28.5 36.5t-41 20.5t-47 6.5h-134v-239h126q37 0 63 10t42 26.5t23 39t7 46.5z" />
    <glyph glyph-name="C" unicode="C" horiz-adv-x="618" 
d="M578 79q-18 -18 -43.5 -34t-55.5 -28.5t-62.5 -20t-65.5 -7.5q-76 0 -131.5 24.5t-91.5 70t-53 111t-17 147.5q0 80 18.5 145.5t56 112t92.5 71.5t129 25q71 0 123 -24.5t90 -56.5l-39 -44q-32 27 -75.5 46t-98.5 19q-58 0 -100.5 -20t-70.5 -58t-42 -92.5t-14 -122.5
q0 -69 13.5 -123.5t41.5 -92.5t71.5 -58t103.5 -20q28 0 55 7t51.5 17.5t45.5 24t36 27.5l33 -46v0z" />
    <glyph glyph-name="D" unicode="D" horiz-adv-x="656" 
d="M599 346q0 -77 -16.5 -141t-50.5 -109.5t-86 -70.5t-122 -25h-244v686h243q70 0 122 -24t86 -68.5t51 -107.5t17 -140zM530 346q0 63 -12 115t-37 88.5t-64 56.5t-93 20h-178v-566h177q54 0 93.5 21t64.5 59t37 90.5t12 115.5z" />
    <glyph glyph-name="E" unicode="E" horiz-adv-x="515" 
d="M467 0h-387v686h378v-60h-312v-250h274v-60h-274v-256h329z" />
    <glyph glyph-name="F" unicode="F" horiz-adv-x="484" 
d="M146 626v-251h268v-60h-268v-315h-66v686h365v-60h-299z" />
    <glyph glyph-name="G" unicode="G" horiz-adv-x="688" 
d="M613 70q-17 -13 -41 -27.5t-54.5 -26.5t-67.5 -19.5t-79 -7.5q-77 0 -135.5 26.5t-98 74t-59.5 112t-20 140.5q0 80 23 145.5t65.5 112t102 71.5t131.5 25q63 0 113 -18t92 -50l-35 -47q-46 30 -84.5 42.5t-85.5 12.5q-57 0 -103.5 -22t-79.5 -61t-51.5 -92.5
t-18.5 -115.5q0 -63 15 -117t45.5 -93.5t76 -62.5t107.5 -23q57 0 103.5 15t75.5 35v181h-113v53h176v-263v0z" />
    <glyph glyph-name="H" unicode="H" horiz-adv-x="640" 
d="M495 0v315h-349v-315h-66v686h66v-311h348v311h67v-686h-66z" />
    <glyph glyph-name="I" unicode="I" horiz-adv-x="226" 
d="M80 0v686h66v-686h-66z" />
    <glyph glyph-name="J" unicode="J" horiz-adv-x="225" 
d="M145 -8q0 -38 -9.5 -72t-30 -60t-53 -41.5t-79.5 -15.5q-14 0 -31 2.5t-31 5.5l9 59q12 -3 25.5 -5t27.5 -2q36 0 57.5 13t32 33.5t13.5 45t3 47.5v684h66v-694v0z" />
    <glyph glyph-name="K" unicode="K" horiz-adv-x="551" 
d="M447 0l-224 310l-77 -105v-205h-66v685h66v-379h2l273 379h74l-232 -320l266 -365h-82z" />
    <glyph glyph-name="L" unicode="L" horiz-adv-x="484" 
d="M454 0h-374v686h66v-626h317z" />
    <glyph glyph-name="M" unicode="M" horiz-adv-x="805" 
d="M703 0l-30 267l-37 329h-3q-42 -110 -67 -174.5t-38 -99.5q-16 -40 -21 -55l-63 -163h-86l-66 163l-126 329h-3l-32 -329l-26 -267h-65l63 686h93l90 -235l110 -288h3q37 97 58.5 154.5t32.5 86.5q13 34 17 46l90 236h93l75 -686h-62z" />
    <glyph glyph-name="N" unicode="N" horiz-adv-x="627" 
d="M481 0l-337 569h-3v-569h-66v674l75 12l333 -565h3v565h66v-686h-71z" />
    <glyph glyph-name="O" unicode="O" horiz-adv-x="688" 
d="M630 343q0 -77 -17.5 -141.5t-52.5 -112t-89 -74t-127 -26.5q-74 0 -127.5 26.5t-89 74t-52.5 112t-17 141.5q0 81 17 146t52.5 111t89 71t127.5 25q73 0 127 -25t89 -71t52.5 -111t17.5 -146zM561 345q0 62 -12.5 115.5t-39 92.5t-67.5 61t-98 22t-98 -22t-67.5 -61
t-39 -92.5t-12.5 -115.5q0 -63 12.5 -117t39 -94t67.5 -62.5t98 -22.5t98 23t67 63t38.5 94t12.5 116h1z" />
    <glyph glyph-name="P" unicode="P" horiz-adv-x="553" 
d="M496 487q0 -45 -13 -82t-39.5 -64t-66.5 -42t-94 -15h-137v-284h-66v685h203q54 0 94 -14.5t66.5 -40.5t39.5 -62.5t13 -80.5zM426 487q0 68 -34.5 103.5t-111.5 35.5h-134v-284h134q77 0 111.5 38t34.5 107z" />
    <glyph glyph-name="Q" unicode="Q" horiz-adv-x="688" 
d="M630 343q0 -71 -15 -132.5t-45.5 -108t-77.5 -75.5t-110 -36q3 -19 16 -38.5t34.5 -35t51 -25t66.5 -9.5l-18 -75q-38 0 -74.5 15.5t-65 40.5t-47 57.5t-21.5 67.5q-68 4 -118 32t-83 75t-49 110t-16 137q0 81 17 146t52.5 111t89 71t127.5 25q73 0 127 -25t89 -71
t52.5 -111t17.5 -146zM344 49q56 0 97 22.5t67.5 62.5t39.5 93.5t13 116.5t-12.5 116.5t-39 92.5t-67.5 61t-98 22t-98 -22t-67.5 -61t-39 -92.5t-12.5 -115.5q0 -63 12.5 -117t39 -94t67.5 -62.5t98 -22.5z" />
    <glyph glyph-name="R" unicode="R" horiz-adv-x="548" 
d="M455 0l-106 195q-9 16 -20.5 34t-26.5 34t-32.5 26.5t-37.5 10.5h-86v-300h-66v685h203q55 0 94.5 -14t65.5 -38.5t38.5 -59.5t12.5 -77q0 -71 -38.5 -122t-118.5 -67v-2q12 -6 23 -17.5t20 -24t15 -23t9 -15.5l122 -225h-71zM424 495q0 63 -32.5 97t-110.5 34h-135v-268
h136q71 0 106.5 35.5t35.5 101.5z" />
    <glyph glyph-name="S" unicode="S" horiz-adv-x="498" 
d="M451 182q0 -44 -17 -79.5t-47 -61t-71 -39t-88 -13.5q-63 0 -114.5 20.5t-88.5 46.5l26 53q15 -11 35 -21.5t43 -19t48 -14t51 -5.5q72 0 113 33.5t41 95.5q0 42 -24 67.5t-59.5 44t-77.5 34.5t-77.5 39.5t-59.5 59.5t-24 94q0 41 15.5 74t43 56.5t65 36t81.5 12.5
q27 0 53.5 -5t50 -12.5t43 -17t32.5 -17.5l-26 -51q-25 12 -63.5 27.5t-89.5 15.5q-66 0 -101 -32t-35 -88q0 -43 24 -69.5t59.5 -45.5t77.5 -35t77.5 -39t59.5 -57t24 -88z" />
    <glyph glyph-name="T" unicode="T" horiz-adv-x="496" 
d="M466 626h-186v-626h-66v625h-192v61h453z" />
    <glyph glyph-name="U" unicode="U" horiz-adv-x="632" 
d="M557 231q0 -115 -59 -178.5t-179 -63.5q-121 0 -180 63t-59 177v456h66v-463q0 -80 40 -126.5t133 -46.5q92 0 132 46t40 126v464h66v-454v0z" />
    <glyph glyph-name="V" unicode="V" horiz-adv-x="590" 
d="M338 0h-85l-231 686h68l154 -463q5 -13 12 -34q6 -18 14.5 -46t21.5 -69h6q13 41 22 69t15 46q7 21 11 34l154 463h69z" />
    <glyph glyph-name="W" unicode="W" horiz-adv-x="833" 
d="M661 0h-87l-121 387q-4 11 -9 29l-27 90h-3l-27 -90q-5 -18 -9 -29l-120 -387h-86l-150 685h67l71 -319q3 -16 11 -52q7 -31 19 -85.5t32 -142.5h3q27 88 43.5 142.5t26.5 85.5q11 36 17 52l64 205l83 6l67 -211q6 -16 17 -52q10 -31 27 -85.5t46 -142.5h2
q19 88 31 142.5t19 85.5q8 36 11 52l67 319h65z" />
    <glyph glyph-name="X" unicode="X" horiz-adv-x="577" 
d="M477 0l-188 303h-2l-187 -303h-78l226 356l-200 329h78l161 -275h2l162 275h79l-201 -328l226 -357h-78z" />
    <glyph glyph-name="Y" unicode="Y" horiz-adv-x="538" 
d="M301 293v-293h-63v293l-216 392h70l176 -333h3l175 333h70z" />
    <glyph glyph-name="Z" unicode="Z" horiz-adv-x="521" 
d="M472 0h-426l-6 39l342 586h-322v60h390l20 -36l-343 -586v-3h354z" />
    <glyph glyph-name="bracketleft" unicode="[" horiz-adv-x="286" 
d="M96 770h151v-59h-87v-767h87v-59h-151v885z" />
    <glyph glyph-name="backslash" unicode="\" horiz-adv-x="351" 
d="M100 741l206 -860h-55l-206 860h55z" />
    <glyph glyph-name="bracketright" unicode="]" horiz-adv-x="286" 
d="M40 -115v59h86v767h-86v59h151v-885h-151z" />
    <glyph glyph-name="asciicircum" unicode="^" horiz-adv-x="544" 
d="M440 340l-170 319l-168 -319l-50 26l194 360h49l198 -360z" />
    <glyph glyph-name="underscore" unicode="_" horiz-adv-x="512" 
d="M0 -137v57h512v-57h-512z" />
    <glyph glyph-name="grave" unicode="`" horiz-adv-x="357" 
d="M271 602l-29 -33l-147 116l41 46z" />
    <glyph glyph-name="a" unicode="a" horiz-adv-x="498" 
d="M374 0q-5 14 -7 32t-2 29h-2q-8 -12 -24 -25t-37 -23.5t-45.5 -17t-49.5 -6.5q-37 0 -66 11t-49.5 30t-31 45t-10.5 55q0 46 21 74.5t53.5 45t72.5 22.5t78 6q26 0 49.5 -2t40.5 -4v51q0 68 -30.5 100t-84.5 32q-38 0 -73.5 -14t-64.5 -36l-32 46q12 9 29 19.5t38.5 19.5
t47.5 15.5t55 6.5q36 0 68 -11.5t56.5 -35.5t39 -60.5t14.5 -87.5v-317h-54zM365 222q-14 2 -37 3.5t-50 1.5q-28 0 -56.5 -3.5t-52 -13.5t-38.5 -28t-15 -46q0 -17 6 -33.5t18 -29t30 -20t43 -7.5q45 0 85 22.5t67 54.5v99z" />
    <glyph glyph-name="b" unicode="b" horiz-adv-x="549" 
d="M499 255q0 -59 -14.5 -107.5t-42 -84t-67 -55t-88.5 -19.5q-23 0 -46 6t-43 16.5t-36 23.5t-26 27h-2q0 -10 -2 -29t-6 -33h-52v739l63 11v-300h2q26 23 63.5 42.5t84.5 19.5q99 0 155.5 -64.5t56.5 -192.5zM433 255q0 102 -38.5 151t-113.5 49q-21 0 -42 -6.5t-40 -17.5
t-34.5 -24.5t-27.5 -26.5v-255q11 -15 26 -29t34 -25t40 -18t44 -7q37 0 65.5 15t47.5 42.5t29 66t10 85.5z" />
    <glyph glyph-name="c" unicode="c" horiz-adv-x="508" 
d="M456 44q-32 -22 -77 -38.5t-96 -16.5q-112 0 -172.5 70t-60.5 191q0 60 15.5 108t45 82.5t72.5 53t97 18.5t98.5 -20t71.5 -41l-32 -46q-25 17 -61 33.5t-77 16.5q-80 0 -122 -51t-42 -153t43.5 -153.5t123.5 -51.5q42 0 81 15t67 32l25 -49v0z" />
    <glyph glyph-name="d" unicode="d" horiz-adv-x="545" 
d="M423 0q-4 14 -6 34.5t-2 30.5h-2q-20 -30 -62 -53t-89 -23q-49 0 -88.5 19t-67 53.5t-42 83.5t-14.5 110q0 59 16 106.5t44.5 81t67 51.5t84.5 18q47 0 85.5 -14t62.5 -34h2v275h63v-739h-52zM412 394q-23 26 -60.5 43.5t-83.5 17.5q-70 0 -111 -53t-41 -147
q0 -100 38.5 -154.5t113.5 -54.5q46 0 84 25t60 57v266z" />
    <glyph glyph-name="e" unicode="e" horiz-adv-x="534" 
d="M482 279q0 -7 -1 -19t-3 -18h-362q1 -57 16 -95t39 -60.5t54.5 -31.5t62.5 -9q46 0 86.5 15.5t69.5 32.5l25 -49q-37 -23 -84 -39.5t-100 -16.5q-59 0 -103 19.5t-73 54t-44 82.5t-15 105q0 58 14.5 106t43 82.5t70 53t95.5 18.5q53 0 92 -18t65 -49t39 -73t13 -91z
M418 295q-2 74 -38 116.5t-107 42.5q-26 0 -51.5 -7t-47 -25t-36.5 -49t-20 -78h300z" />
    <glyph glyph-name="f" unicode="f" horiz-adv-x="332" 
d="M347 677q-17 6 -36 11t-45 5q-86 0 -86 -102v-90h134l-5 -57h-129v-444h-63v444h-99v57h99v96q0 68 41 110.5t114 42.5q25 0 49 -5t43 -13z" />
    <glyph glyph-name="g" unicode="g" horiz-adv-x="545" 
d="M475 -3q0 -45 -13 -82.5t-40.5 -64.5t-69.5 -42.5t-99 -15.5q-38 0 -79 10t-70 22l16 56q10 -5 25.5 -10t33.5 -10t37 -8t37 -3q83 0 121 40t38 107v64h-2q-26 -22 -63.5 -41t-84.5 -19q-99 0 -155.5 63t-56.5 188q0 57 14.5 105t42 82.5t67 54t88.5 19.5q23 0 46 -6
t43 -16t36 -23t26 -27h2q0 10 2 28.5t6 32.5h52v-504zM412 378q-22 29 -60 53t-84 24q-37 0 -65.5 -14.5t-47.5 -41.5t-29 -64.5t-10 -83.5q0 -100 38.5 -147t113.5 -47q21 0 42 6t39.5 16.5t34.5 23t28 26.5v249z" />
    <glyph glyph-name="h" unicode="h" horiz-adv-x="543" 
d="M411 0v301q0 74 -25.5 114t-87.5 40q-27 0 -51.5 -11.5t-45 -27t-36 -31.5t-24.5 -26v-359h-63v739h63v-315h2q8 12 23.5 27t36.5 28.5t46.5 23t55.5 9.5q35 0 66 -12t54 -36.5t36 -62.5t13 -90v-311h-63z" />
    <glyph glyph-name="i" unicode="i" horiz-adv-x="243" 
d="M92 0v501h63v-501h-63zM173 659q0 -20 -14.5 -34.5t-34.5 -14.5q-21 0 -35.5 14.5t-14.5 34.5t14.5 34t35.5 14q20 0 34.5 -14t14.5 -34z" />
    <glyph glyph-name="j" unicode="j" horiz-adv-x="229" 
d="M155 -58q0 -75 -39 -112.5t-104 -37.5q-25 0 -49 5t-43 13l14 54q17 -6 37 -10.5t41 -4.5q36 0 58 25t22 80v547h63v-559zM174 659q0 -20 -15 -34.5t-35 -14.5t-35 14.5t-15 34.5t15 34t35 14t35 -14t15 -34z" />
    <glyph glyph-name="k" unicode="k" horiz-adv-x="487" 
d="M408 0l-121 225q-11 20 -22.5 31.5t-26.5 11.5q-22 0 -38 -18l-59 -65v-185h-63v739h63v-470l213 232h77l-173 -186v-2h8q26 0 41 -14t32 -44l138 -255h-69z" />
    <glyph glyph-name="l" unicode="l" horiz-adv-x="264" 
d="M216 -11q-39 0 -66 12t-44 32t-24.5 45.5t-7.5 52.5v608h63v-603q0 -17 4 -33.5t13.5 -29t26.5 -20t43 -7.5z" />
    <glyph glyph-name="m" unicode="m" horiz-adv-x="826" 
d="M692 0v303q0 73 -22.5 112.5t-83.5 39.5q-21 0 -41.5 -10.5t-39 -26t-34.5 -33t-26 -30.5q1 -10 1.5 -20.5t0.5 -21.5v-313h-64v303q0 73 -22.5 112.5t-83.5 39.5q-20 0 -40 -10t-38 -25t-33.5 -31.5t-27.5 -29.5v-359h-64v501h53q2 -6 3.5 -17t2.5 -23t1.5 -22.5
t0.5 -16.5h2q10 13 25 29t34 29.5t41.5 22.5t47.5 9q54 0 92 -25t56 -77q10 15 25.5 32.5t36 33t45.5 26t54 10.5q75 0 118.5 -48.5t43.5 -150.5v-313h-64z" />
    <glyph glyph-name="n" unicode="n" horiz-adv-x="541" 
d="M408 0v303q0 74 -24.5 113t-82.5 39q-27 0 -52 -10t-46 -24.5t-37.5 -31t-28.5 -30.5v-359h-63v501h52q1 -6 2.5 -17t3 -23t2 -22.5t0.5 -16.5h2q11 13 27 29t37.5 29.5t48 22.5t58.5 9q37 0 67 -12t51.5 -37t33.5 -62t12 -88v-313h-63z" />
    <glyph glyph-name="o" unicode="o" horiz-adv-x="556" 
d="M506 251q0 -57 -15 -105t-44 -83t-71.5 -54.5t-97.5 -19.5t-97.5 19.5t-71.5 54.5t-44 83t-15 105q0 60 15 108t44 82t71.5 52.5t97.5 18.5q57 0 99.5 -18.5t71 -52.5t43 -82t14.5 -108zM439 252q0 92 -39 147.5t-122 55.5q-81 0 -121.5 -55t-40.5 -148t41 -149.5
t121 -56.5q39 0 69.5 15t50.5 42t30.5 65t10.5 84z" />
    <glyph glyph-name="p" unicode="p" horiz-adv-x="552" 
d="M503 245q0 -59 -16 -106.5t-44.5 -80.5t-67.5 -51t-85 -18q-47 0 -85.5 13.5t-61.5 33.5h-2v-234h-63v698h51q5 -13 7 -34t2 -31h2q20 30 61.5 53t88.5 23q49 0 88.5 -19t67.5 -53.5t42.5 -83.5t14.5 -110zM437 245q0 100 -38.5 154.5t-113.5 54.5q-46 0 -84.5 -25
t-59.5 -57v-266q23 -25 60.5 -42.5t83.5 -17.5q70 0 111 52.5t41 146.5z" />
    <glyph glyph-name="q" unicode="q" horiz-adv-x="545" 
d="M412 -209v259h-2q-26 -23 -63.5 -42.5t-84.5 -19.5q-99 0 -155.5 64.5t-56.5 192.5q0 58 14.5 107t42 84.5t67 55t88.5 19.5q23 0 46 -6t43 -16.5t36 -23.5t26 -27h2q0 10 2 29t6 33h52v-698zM412 375q-11 15 -26 29t-34 25t-40 18t-44 7q-37 0 -65.5 -15t-47.5 -42.5
t-29 -66t-10 -85.5q0 -102 38.5 -151t113.5 -49q21 0 42 6.5t39.5 17.5t34.5 24t28 27v255z" />
    <glyph glyph-name="r" unicode="r" horiz-adv-x="339" 
d="M317 449q-7 2 -17.5 4t-22.5 2q-23 0 -47.5 -14t-45 -37t-34 -51.5t-13.5 -58.5v-294h-63v501h52q1 -8 2.5 -19.5t3 -24t2 -25t0.5 -22.5h3q6 13 19.5 30.5t32.5 33.5t42 27t47 11q17 0 29.5 -2.5t21.5 -5.5z" />
    <glyph glyph-name="s" unicode="s" horiz-adv-x="406" 
d="M361 138q0 -38 -15.5 -65.5t-40.5 -46.5t-56.5 -28t-63.5 -9q-42 0 -84 16t-74 40l28 48q29 -21 64.5 -34t65.5 -13q21 0 41 5t35 15.5t24.5 26.5t9.5 38q0 30 -18 48t-44.5 31t-57.5 25t-57.5 29t-44.5 43t-18 67q0 34 14 59.5t36.5 42.5t51 26t58.5 9q40 0 74 -11.5
t67 -31.5l-27 -49q-25 15 -54 25t-60 10q-38 0 -66 -18t-28 -57q0 -30 18 -48.5t44.5 -32t57.5 -25t57.5 -28.5t44.5 -42t18 -65z" />
    <glyph glyph-name="t" unicode="t" horiz-adv-x="359" 
d="M334 5q-19 -8 -42.5 -12t-43.5 -4q-63 0 -104.5 36t-41.5 115v304h-81v57h81l9 170l54 11v-181h149l-11 -57h-138v-296q0 -54 21 -78t65 -24q35 0 67 11l16 -52v0z" />
    <glyph glyph-name="u" unicode="u" horiz-adv-x="541" 
d="M419 0q-2 6 -3 17t-2.5 23t-2 22.5t-0.5 16.5h-2q-11 -13 -27 -29t-37.5 -29.5t-48.5 -22.5t-58 -9q-74 0 -119 48.5t-45 149.5v314h63v-304q0 -74 24.5 -112.5t82.5 -38.5q27 0 52 10t46 24.5t37.5 31t28.5 30.5v359h63v-501h-52z" />
    <glyph glyph-name="v" unicode="v" horiz-adv-x="470" 
d="M267 0h-70l-182 501h63l153 -423h2l159 423h63z" />
    <glyph glyph-name="w" unicode="w" horiz-adv-x="718" 
d="M551 0h-74l-117 422h-2l-115 -422h-73l-145 501h63l80 -286q2 -9 7 -27q5 -16 12 -44t20 -74h3q13 46 20.5 74t12.5 44q5 18 8 27l70 280l77 6l74 -286q3 -9 8 -27q5 -16 12.5 -44t20.5 -74h3q12 46 19 74t12 44q4 18 7 27l79 286h60z" />
    <glyph glyph-name="x" unicode="x" horiz-adv-x="446" 
d="M361 0l-136 215h-3l-138 -215h-69l173 262l-159 239h74l119 -192h3l123 192h68l-157 -239l172 -262h-70z" />
    <glyph glyph-name="y" unicode="y" horiz-adv-x="462" 
d="M246 -67q-9 -24 -21 -49.5t-30 -45.5t-43.5 -33t-61.5 -13q-22 0 -43.5 4.5t-31.5 7.5l8 56q10 -4 29 -7.5t34 -3.5q21 0 37 9t28.5 23.5t21.5 33.5t17 39l18 50l-193 497h66l94 -251q3 -8 11 -29q7 -18 19 -51t33 -89h3q19 56 30.5 89t17.5 51q7 21 10 29l84 251h65z
" />
    <glyph glyph-name="z" unicode="z" horiz-adv-x="446" 
d="M399 0h-349l-11 46l270 395v3h-250l-6 57h326l14 -46l-269 -395v-3h280z" />
    <glyph glyph-name="braceleft" unicode="{" horiz-adv-x="300" 
d="M268 -116q-78 0 -117 40t-34 111l12 156q4 49 -17.5 78t-69.5 29h-12v57h12q48 0 69.5 28.5t17.5 78.5l-12 156q-5 71 34 111t117 40v-60q-49 0 -70 -21.5t-17 -72.5l12 -158q1 -21 -4.5 -40.5t-16.5 -36t-26 -30t-31 -22.5v-2q16 -9 31 -22.5t26 -30t16.5 -36.5t4.5 -41
l-12 -157q-4 -51 17 -73t70 -22v-60v0z" />
    <glyph glyph-name="bar" unicode="|" horiz-adv-x="249" 
d="M149 -75h-49v845h49v-845z" />
    <glyph glyph-name="braceright" unicode="}" horiz-adv-x="300" 
d="M258 298q-48 0 -69.5 -29t-17.5 -78l12 -156q5 -71 -34 -111t-117 -40v60q49 0 70 22t17 73l-11 157q-2 21 4 41t17 36.5t25.5 30t30.5 22.5v2q-32 19 -56 52t-21 77l11 158q4 51 -17 72.5t-70 21.5v60q78 0 117 -40t34 -111l-12 -156q-4 -50 17.5 -78.5t69.5 -28.5h12
v-57h-12z" />
    <glyph glyph-name="asciitilde" unicode="~" horiz-adv-x="508" 
d="M443 221q-19 -11 -38 -17t-35 -8q-18 -4 -36 -3q-26 0 -47.5 8.5t-40.5 19t-36.5 19.5t-35.5 9q-33 0 -58 -7t-51 -21v52q18 11 37.5 16t35.5 8q18 3 36 4q26 0 47.5 -9t40.5 -19.5t36.5 -19t35.5 -8.5q33 0 58 7t51 21v-52v0z" />
    <glyph glyph-name="dagger" unicode="&#x2020;" horiz-adv-x="445" 
d="M252 443l3 -443h-65l3 443l-136 -3v60l136 -3l-3 189h65l-3 -189l136 3v-59z" />
    <glyph glyph-name="degree" unicode="&#xb0;" horiz-adv-x="322" 
d="M271 641q0 -23 -8.5 -42.5t-23.5 -34.5t-35 -23.5t-42 -8.5q-23 0 -43 8.5t-35 23.5t-23.5 34.5t-8.5 42.5t8.5 43t23.5 35t34.5 23.5t42.5 8.5t43 -8.5t35 -23.5t23.5 -35t8.5 -43zM231 641q0 29 -20 49.5t-49 20.5t-49.5 -20.5t-20.5 -49.5t20 -49t49 -20t49 20t20 49
h1z" />
    <glyph glyph-name="cent" unicode="&#xa2;" 
d="M503 55q-30 -20 -70 -35.5t-86 -18.5v-92h-48v93q-97 10 -149.5 78t-52.5 181q0 112 52.5 181t149.5 79v92h48v-91q48 -4 86.5 -22.5t63.5 -37.5l-32 -46q-22 15 -52.5 29.5t-65.5 18.5v-406q38 3 71.5 16t59.5 30zM299 464q-66 -9 -101 -59.5t-35 -142.5t35.5 -142.5
t100.5 -60.5v405z" />
    <glyph glyph-name="sterling" unicode="&#xa3;" 
d="M413 314h-160q8 -38 8 -75q0 -43 -16.5 -87t-51.5 -90v-2h309v-60h-364l-14 60q40 45 57.5 87t17.5 84q0 21 -3 42t-8 41h-91v48h79q-10 38 -18 75.5t-8 78.5q0 44 16 77.5t43 56t62.5 34t74.5 11.5q40 0 75.5 -8.5t63.5 -21.5l-23 -54q-22 9 -51 16.5t-65 7.5
q-27 0 -50.5 -7t-41.5 -21.5t-28.5 -37t-10.5 -53.5q0 -38 9 -76t19 -78h179z" />
    <glyph glyph-name="section" unicode="&#xa7;" horiz-adv-x="481" 
d="M102 552q0 33 12 59.5t34 45t51.5 29t65.5 10.5q44 0 80 -12t62 -26l-20 -44q-26 12 -56 22t-65 10q-48 0 -77 -24.5t-29 -69.5q0 -38 19.5 -59t48.5 -35.5t62.5 -26t62.5 -30.5t48.5 -49t19.5 -80q0 -36 -15.5 -65.5t-42.5 -49.5q16 -18 25 -42.5t9 -59.5q0 -34 -14 -62
t-37.5 -48.5t-55 -31.5t-66.5 -11q-27 0 -52.5 6t-46.5 14.5t-38 18t-27 17.5l24 43q9 -6 24 -14.5t34 -16t40 -12.5t42 -5q24 0 44.5 7t36.5 20t25 32.5t9 44.5q0 34 -19 57t-43.5 38t-48 23.5t-33.5 12.5q-26 10 -47.5 23.5t-37 31t-24 40.5t-8.5 52q0 39 17 69t46 49
q-17 17 -28 41t-11 58zM226 402q-9 4 -18.5 8t-20.5 9q-24 -11 -37.5 -32t-13.5 -52q0 -36 18 -56.5t45.5 -34.5t60 -25t61.5 -28q19 13 30.5 33.5t11.5 48.5q0 33 -11.5 53.5t-30.5 34t-44 22t-51 19.5z" />
    <glyph glyph-name="bullet" unicode="&#x2022;" horiz-adv-x="448" 
d="M369 343q0 -30 -11.5 -56.5t-31 -46t-45.5 -30.5t-56 -11t-56.5 11t-46 30.5t-31 46t-11.5 56.5t11.5 56.5t31 46t45.5 31t56 11.5t56.5 -11.5t46 -31t31 -46t11.5 -56.5z" />
    <glyph glyph-name="paragraph" unicode="&#xb6;" 
d="M293 255q-5 -1 -9.5 -1h-9.5q-45 0 -84 17t-68.5 46t-46.5 68.5t-17 84.5t17 84t46.5 68.5t68.5 46.5t84 17h246v-806h-64v746h-98v-746h-65v375z" />
    <glyph glyph-name="germandbls" unicode="&#xdf;" horiz-adv-x="574" 
d="M529 136q0 -36 -13 -63.5t-35.5 -46t-52 -28t-63.5 -9.5q-30 0 -59.5 9.5t-56.5 23.5l23 53q21 -12 44.5 -20.5t48.5 -8.5q44 0 72.5 22t28.5 68q0 30 -14 50.5t-35.5 36t-46.5 30t-46.5 32.5t-35.5 42.5t-14 62.5q0 41 18 65t39 43.5t39 41t18 57.5q0 22 -8.5 40
t-22.5 30.5t-32.5 19t-39.5 6.5q-53 0 -79 -29t-26 -80v-584h-63v444h-99v57h99v89q0 35 12 64.5t33.5 50.5t51.5 33t65 12q33 0 63 -10.5t53 -30t36.5 -47.5t13.5 -62q0 -40 -17 -66t-37 -47t-37 -41.5t-17 -50.5t14 -50t35.5 -35t46.5 -28.5t46.5 -32t35.5 -45.5t14 -68z
" />
    <glyph glyph-name="registered" unicode="&#xae;" horiz-adv-x="596" 
d="M546 431q0 -67 -20.5 -117t-54.5 -83t-79.5 -49.5t-94.5 -16.5q-50 0 -95 16.5t-79 49.5t-53.5 83t-19.5 117t20 116.5t53.5 82.5t78 49t94.5 16t95.5 -16t80 -49t54.5 -82.5t20 -116.5zM501 431q0 55 -15.5 96.5t-43 69t-65 41t-80.5 13.5q-44 0 -81 -14t-64 -41.5
t-42 -68.5t-15 -96t15 -97t42 -70t64 -42t80 -14q44 0 81.5 14.5t65 42.5t43 69.5t15.5 96.5zM359 292l-45 79q-7 11 -16 23.5t-23 12.5h-28v-115h-43v276h90q47 0 69.5 -22.5t22.5 -57.5q0 -26 -13.5 -46t-40.5 -29q6 -6 10.5 -13.5t6.5 -10.5l55 -97h-45zM342 494
q0 18 -10.5 27t-36.5 9h-49v-87h48q48 0 48 49v2z" />
    <glyph glyph-name="copyright" unicode="&#xa9;" horiz-adv-x="687" 
d="M637 306q0 -80 -24 -140t-64.5 -99.5t-94 -59t-112.5 -19.5t-112 19.5t-93 59t-63.5 99.5t-23.5 140t23.5 139t63 98t92.5 58t113 19q59 0 112.5 -19t94 -58t64.5 -98t24 -139zM592 306q0 64 -20 114.5t-54 85t-79.5 52.5t-96.5 18t-96 -18t-78.5 -52.5t-53 -85
t-19.5 -114.5q0 -66 19.5 -117t53 -86t78.5 -53.5t96 -18.5t96.5 18.5t79.5 53.5t54 86t20 117zM474 191q-27 -35 -58.5 -50t-76.5 -15q-38 0 -67 13.5t-48.5 37.5t-30 57t-10.5 72q0 40 10.5 73t30 56.5t48.5 36.5t67 13q91 0 135 -77l-36 -18q-33 55 -99 55
q-55 0 -84.5 -39.5t-29.5 -99.5q0 -62 29.5 -101t84.5 -39q42 0 67.5 15.5t40.5 34.5z" />
    <glyph glyph-name="trademark" unicode="&#x2122;" horiz-adv-x="886" 
d="M762 276l-29 334h-2l-96 -276h-61l-96 276h-2l-29 -334h-54l36 409h78l96 -282h2l97 282h78l36 -409h-54zM242 638v-362h-57v362h-111v47h278v-47h-110z" />
    <glyph glyph-name="acute" unicode="&#xb4;" horiz-adv-x="280" 
d="M81 566l-29 33l136 129l40 -46z" />
    <glyph glyph-name="dieresis" unicode="&#xa8;" horiz-adv-x="382" 
d="M144 646q0 -19 -13 -32t-33 -13q-19 0 -32.5 13t-13.5 32q0 20 13.5 32.5t32.5 12.5q20 0 33 -12.5t13 -32.5zM330 646q0 -19 -13 -32t-33 -13q-19 0 -32.5 13t-13.5 32q0 20 13.5 32.5t32.5 12.5q20 0 33 -12.5t13 -32.5z" />
    <glyph glyph-name="notequal" unicode="&#x2260;" horiz-adv-x="571" 
d="M280 131l-22 -93l-47 11l19 82h-173v60h188l31 130h-219v60h234l22 93l47 -11l-19 -82h173v-60h-188l-31 -130h219v-60h-234z" />
    <glyph glyph-name="AE" unicode="&#xc6;" horiz-adv-x="904" 
d="M534 0l-29 180h-332l-84 -180h-67l322 686h426l10 -60h-281l40 -250h236l10 -60h-236l41 -256h293v-60h-349zM434 626h-53l-182 -390h297z" />
    <glyph glyph-name="Oslash" unicode="&#xd8;" horiz-adv-x="688" 
d="M630 344q0 -77 -17.5 -142t-52.5 -112t-89 -74t-127 -27q-45 0 -83 10.5t-69 30.5l-52 -90l-44 25l56 97q-48 48 -71 120.5t-23 161.5q0 81 17 146t52.5 110.5t89 70.5t127.5 25q90 0 152 -38l51 88l44 -26l-54 -93q48 -46 70.5 -117.5t22.5 -165.5zM561 345
q0 67 -14.5 123t-45.5 96l-277 -479q23 -17 53.5 -26.5t66.5 -9.5q57 0 98 23t67.5 63t39 94t12.5 116zM463 601q-24 17 -53 26.5t-66 9.5q-57 0 -98 -22.5t-67.5 -61.5t-39 -92.5t-12.5 -115.5q0 -69 14.5 -125.5t45.5 -97.5z" />
    <glyph glyph-name="plusminus" unicode="&#xb1;" horiz-adv-x="571" 
d="M316 225v-157h-60v157h-199v60h199v157h60v-157h198v-60h-198zM57 -71v60h457v-60h-457z" />
    <glyph glyph-name="lessequal" unicode="&#x2264;" horiz-adv-x="445" 
d="M362 70l-310 219l310 218l31 -44l-253 -174l253 -175zM52 -68v59h341v-59h-341z" />
    <glyph glyph-name="greaterequal" unicode="&#x2265;" horiz-adv-x="445" 
d="M305 289l-253 174l31 44l310 -218l-310 -219l-31 44zM52 -9h341v-59h-341v59z" />
    <glyph glyph-name="yen" unicode="&#xa5;" 
d="M332 195v-195h-63v195h-168v49h168v49l-16 31h-152v49h125l-168 312h70l169 -331h5l169 331h71l-168 -312h125v-49h-150l-18 -31v-49h168v-49h-167z" />
    <glyph glyph-name="ordfeminine" unicode="&#xaa;" horiz-adv-x="383" 
d="M272 376q-14 -16 -41 -30t-61 -14q-57 0 -87.5 29t-30.5 71q0 33 15.5 53.5t39 32t52.5 15.5t56 4q34 0 57 -3v30q0 45 -19 65.5t-54 20.5q-26 0 -50 -9.5t-47 -25.5l-27 38q19 14 51 29t74 15q25 0 48 -8.5t39.5 -24.5t26.5 -40t10 -54v-182q0 -6 1 -13q1 -6 2 -15
t4 -20h-52q-3 8 -4.5 18t-2.5 18zM272 491q-11 2 -26.5 3t-33.5 1q-19 0 -38 -2.5t-34 -9t-24.5 -18t-9.5 -29.5q0 -22 15.5 -39.5t48.5 -17.5q29 0 57 14t45 30v68z" />
    <glyph glyph-name="ordmasculine" unicode="&#xba;" horiz-adv-x="430" 
d="M215 332q-40 0 -70.5 14t-51 38.5t-31 58t-10.5 72.5q0 83 42 132.5t121 49.5q81 0 122 -49.5t41 -132.5q0 -39 -10.5 -72.5t-31.5 -58t-51.5 -38.5t-69.5 -14zM215 650q-54 0 -81.5 -36t-27.5 -98q0 -63 27.5 -100t81.5 -37q53 0 80.5 37t27.5 100q0 62 -26 98t-82 36z
" />
    <glyph glyph-name="ae" unicode="&#xe6;" horiz-adv-x="849" 
d="M797 279q0 -7 -1 -19t-3 -18h-362q1 -57 16 -95t39 -60.5t54.5 -31.5t62.5 -9q46 0 86.5 15.5t69.5 32.5l25 -49q-37 -23 -84 -39.5t-100 -16.5q-67 0 -115 24.5t-77 69.5q-8 -11 -25 -27t-42.5 -31t-57.5 -25.5t-70 -10.5q-39 0 -69.5 11t-51.5 30.5t-31.5 46
t-10.5 56.5q0 45 21 73t53.5 44t72 22t77.5 6q26 0 49.5 -2t41.5 -4v51q0 68 -30.5 100t-84.5 32q-38 0 -73.5 -14t-64.5 -36l-32 46q12 9 29 19.5t38.5 19.5t47.5 15.5t55 6.5q52 0 93.5 -25t62.5 -72q28 45 73.5 70t108.5 25q53 0 92 -18t65 -49t39 -73t13 -91zM384 131
q-15 40 -18 91h-1q-14 1 -37.5 3t-49.5 2q-28 0 -57 -3.5t-52 -13.5t-38 -28t-15 -46q0 -17 6 -33.5t18 -29t30 -20t43 -7.5q32 0 59 8.5t49 21t37.5 27.5t25.5 28zM733 295q-2 74 -38 116.5t-107 42.5q-26 0 -51.5 -7t-47 -25t-36.5 -49t-20 -78h300z" />
    <glyph glyph-name="oslash" unicode="&#xf8;" horiz-adv-x="556" 
d="M506 252q0 -57 -15 -105t-44 -83t-71.5 -54.5t-97.5 -19.5q-62 0 -107 24l-42 -72l-44 25l44 76q-38 35 -58.5 89t-20.5 120q0 60 15 108t44 81.5t71.5 52t97.5 18.5q65 0 109 -22l40 70l44 -25l-42 -73q38 -34 57.5 -87.5t19.5 -122.5zM357 438q-34 17 -79 17
q-81 0 -121.5 -54.5t-40.5 -147.5q0 -49 11 -88.5t34 -66.5zM440 253q0 100 -43 152l-197 -340q33 -18 78 -18q39 0 69.5 15t51 42t31 65t10.5 84z" />
    <glyph glyph-name="questiondown" unicode="&#xbf;" horiz-adv-x="441" 
d="M58 88q0 35 11.5 60.5t29.5 47t38 40.5t38 40t29.5 46t11.5 59q0 9 -1 19t-3 21l64 14q6 -30 6 -56q0 -39 -12 -68.5t-29.5 -53t-38 -43t-38 -38.5t-29.5 -39t-12 -45q0 -46 27.5 -72t76.5 -26q42 0 71.5 11.5t52.5 25.5l24 -52q-23 -16 -58.5 -30.5t-92.5 -14.5
q-33 0 -63 10.5t-53 30t-36.5 48t-13.5 65.5zM238 539q-20 0 -34.5 14.5t-14.5 35.5t14.5 36t34.5 15q21 0 35 -15t14 -35q0 -21 -14 -36t-35 -15z" />
    <glyph glyph-name="exclamdown" unicode="&#xa1;" horiz-adv-x="319" 
d="M127 439h64l9 -500h-81zM110 585q0 20 14.5 35.5t34.5 15.5q21 0 35.5 -15.5t14.5 -35.5t-14.5 -35.5t-34.5 -15.5q-21 0 -35.5 15.5t-14.5 35.5z" />
    <glyph glyph-name="logicalnot" unicode="&#xac;" horiz-adv-x="576" 
d="M459 44v180h-402v60h462v-240h-60z" />
    <glyph glyph-name="florin" unicode="&#x192;" horiz-adv-x="557" 
d="M486 670q-16 8 -37 16t-49 8q-41 0 -68 -22.5t-35 -86.5l-18 -132h148l-11 -57h-145l-63 -449q-5 -36 -19 -63t-33.5 -46.5t-41.5 -31t-44 -16.5l-27 53q16 5 32.5 12.5t30.5 20.5t25 32t15 48l62 440h-109l11 57h106l19 141q11 77 54.5 117t112.5 40q32 0 60.5 -10
t48.5 -21z" />
    <glyph glyph-name="guillemotleft" unicode="&#xab;" horiz-adv-x="525" 
d="M429 66l-188 225l188 225l45 -38l-158 -188l158 -187zM240 66l-188 225l188 225l45 -38l-158 -188l157 -187z" />
    <glyph glyph-name="guillemotright" unicode="&#xbb;" horiz-adv-x="525" 
d="M399 290l-158 188l44 38l189 -225l-188 -225l-45 37zM209 290l-157 188l44 38l188 -225l-187 -225l-45 37z" />
    <glyph glyph-name="ellipsis" unicode="&#x2026;" horiz-adv-x="714" 
d="M410 43q0 -22 -15.5 -38t-37.5 -16t-37.5 16t-15.5 38t15.5 38t37.5 16t37.5 -16t15.5 -38zM655 43q0 -22 -15.5 -38t-37.5 -16t-37.5 16t-15.5 38t15.5 38t37.5 16t37.5 -16t15.5 -38zM165 43q0 -22 -15.5 -38t-37.5 -16t-37 16t-15 38t15 38t37 16t37.5 -16t15.5 -38z
" />
    <glyph glyph-name="approxequal" unicode="&#x2248;" horiz-adv-x="509" 
d="M444 311q-19 -11 -38 -16.5t-35 -8.5q-18 -4 -36 -4q-26 0 -47.5 9t-40.5 19.5t-36.5 19.5t-35.5 9q-33 0 -58 -7.5t-51 -20.5v51q19 11 38 16.5t35 8.5q18 4 36 4q26 0 47.5 -9t40.5 -19.5t36.5 -19.5t35.5 -9q33 0 58 7.5t51 20.5v-51zM443 126q-19 -11 -37.5 -17
t-34.5 -8q-18 -4 -36 -3q-26 0 -47.5 9t-41 19.5t-37 19.5t-35.5 9q-33 0 -58 -7.5t-51 -21.5v52q19 11 38 16.5t35 8.5q18 4 36 4q26 0 47.5 -9t41 -19.5t37 -19.5t35.5 -9q33 0 57.5 7.5t50.5 20.5v-52z" />
    <glyph glyph-name="endash" unicode="&#x2013;" horiz-adv-x="500" 
d="M0 249v60h500v-60h-500z" />
    <glyph glyph-name="emdash" unicode="&#x2014;" horiz-adv-x="1000" 
d="M0 249v60h1000v-60h-1000z" />
    <glyph glyph-name="quotedblleft" unicode="&#x201c;" horiz-adv-x="357" 
d="M60 541q0 25 9 50t21 46.5t24.5 37t18.5 23.5l31 -16q-5 -6 -13 -19t-16 -29t-14 -31.5t-6 -26.5q22 0 37.5 -15.5t15.5 -38.5q0 -22 -15.5 -37.5t-37.5 -15.5t-38.5 18t-16.5 54zM200 541q0 25 9 50t21 46.5t24 37t19 23.5l31 -16q-5 -6 -13 -19t-16 -29t-14 -31.5
t-6 -26.5q22 0 37 -15.5t15 -38.5q0 -22 -15 -37.5t-37 -15.5t-38.5 18t-16.5 54z" />
    <glyph glyph-name="quotedblright" unicode="&#x201d;" horiz-adv-x="357" 
d="M158 626q0 -26 -9 -50.5t-21 -46t-24.5 -37.5t-19.5 -23l-31 16q5 6 13 19t16 29t14 31.5t6 26.5q-21 0 -36.5 15.5t-15.5 38.5q0 22 15.5 37.5t36.5 15.5q22 0 39 -18t17 -54zM297 626q0 -26 -9 -50.5t-21 -46t-24 -37.5t-19 -23l-31 16q4 6 12.5 19t16.5 29t14 31.5
t6 26.5q-22 0 -37 15.5t-15 38.5q0 22 15 37.5t37 15.5t38.5 -18t16.5 -54z" />
    <glyph glyph-name="quoteleft" unicode="&#x2018;" horiz-adv-x="218" 
d="M60 541q0 25 9 50t21 46.5t24.5 37t18.5 23.5l31 -16q-5 -6 -13 -19t-16 -29t-14 -31.5t-6 -26.5q22 0 37.5 -15.5t15.5 -38.5q0 -22 -15.5 -37.5t-37.5 -15.5t-38.5 18t-16.5 54z" />
    <glyph glyph-name="quoteright" unicode="&#x2019;" horiz-adv-x="218" 
d="M158 626q0 -26 -9 -50.5t-21 -46t-24.5 -37.5t-19.5 -23l-31 16q5 6 13 19t16 29t14 31.5t6 26.5q-21 0 -36.5 15.5t-15.5 38.5q0 22 15.5 37.5t36.5 15.5q22 0 39 -18t17 -54z" />
    <glyph glyph-name="fraction" unicode="&#x2044;" horiz-adv-x="280" 
d="M63 -44h-51l206 860h51z" />
    <glyph glyph-name="Euro" unicode="&#x20ac;" 
d="M465 235h-266q17 -89 66.5 -137.5t139.5 -48.5q44 0 85.5 17.5t71.5 40.5l32 -47q-36 -29 -85.5 -50t-103.5 -21q-120 0 -187.5 65t-87.5 181h-96v49h90q-3 27 -3 58t3 58h-90v49h96q21 114 88 180t181 66q59 0 103.5 -17.5t79.5 -46.5l-38 -44q-28 21 -64 34.5t-81 13.5
q-86 0 -134.5 -48.5t-65.5 -137.5h274l-8 -49h-272q-3 -27 -3 -57q0 -31 3 -59h280z" />
    <glyph glyph-name="guilsinglleft" unicode="&#x2039;" horiz-adv-x="336" 
d="M240 66l-188 225l188 225l45 -38l-158 -188l158 -187z" />
    <glyph glyph-name="guilsinglright" unicode="&#x203a;" horiz-adv-x="336" 
d="M210 290l-158 188l44 38l189 -225l-188 -225l-45 37z" />
    <glyph glyph-name="daggerdbl" unicode="&#x2021;" horiz-adv-x="445" 
d="M252 202l3 -202h-65l3 202l-136 -6v60h136v184h-136v60l136 -6l-3 192h65l-3 -192l136 6v-59h-136v-185h136v-59z" />
    <glyph glyph-name="periodcentered" unicode="&#xb7;" horiz-adv-x="148" 
d="M127 290q0 -22 -15.5 -38t-37.5 -16t-37 16t-15 38q0 23 15 38.5t37 15.5t37.5 -15.5t15.5 -38.5z" />
    <glyph glyph-name="quotesinglbase" unicode="&#x201a;" horiz-adv-x="218" 
d="M158 24q0 -25 -9 -50t-21 -46t-24.5 -37.5t-19.5 -23.5l-31 16q5 6 13 19.5t16 29.5t14 31t6 26q-21 0 -36.5 16t-15.5 38t15.5 38t36.5 16q22 0 39 -18.5t17 -54.5z" />
    <glyph glyph-name="quotedblbase" unicode="&#x201e;" horiz-adv-x="357" 
d="M158 24q0 -25 -9 -50t-21 -46t-24.5 -37.5t-19.5 -23.5l-31 16q5 6 13 19.5t16 29.5t14 31t6 26q-21 0 -36.5 16t-15.5 38t15.5 38t36.5 16q22 0 39 -18.5t17 -54.5zM297 24q0 -25 -9 -50t-21 -46t-24 -37.5t-19 -23.5l-31 16q4 6 12.5 19.5t16.5 29.5t14 31t6 26
q-22 0 -37 16t-15 38t15 38t37 16t38.5 -18.5t16.5 -54.5z" />
    <glyph glyph-name="perthousand" unicode="&#x2030;" horiz-adv-x="1198" 
d="M997 -11q-37 0 -65.5 13t-47.5 36.5t-29 55t-10 68.5q0 78 38.5 125.5t113.5 47.5t114.5 -47.5t39.5 -125.5q0 -37 -10 -68.5t-29.5 -55t-48.5 -36.5t-66 -13zM616 -11q-37 0 -65.5 13t-47.5 36.5t-29 55t-10 68.5q0 78 38.5 125.5t113.5 47.5t114.5 -47.5t39.5 -125.5
q0 -37 -10 -68.5t-29.5 -55t-48.5 -36.5t-66 -13zM353 545q0 -37 -10 -69t-29.5 -55t-48 -36.5t-65.5 -13.5q-38 0 -66.5 13.5t-47.5 36.5t-29 55t-10 69q0 78 38.5 125t113.5 47t114.5 -47t39.5 -125zM997 288q-53 0 -77 -33.5t-24 -92.5t24.5 -93t76.5 -34t77 34.5
t25 92.5q0 59 -24.5 92.5t-77.5 33.5zM616 288q-53 0 -77 -33.5t-24 -92.5t24.5 -93t76.5 -34t77 34.5t25 92.5q0 59 -24.5 92.5t-77.5 33.5zM199 670q-54 -1 -77.5 -34.5t-23.5 -90.5q0 -59 24.5 -93.5t76.5 -34.5t77 35t25 93t-24.5 91.5t-77.5 33.5zM233 -1l295 707h57
l-296 -707h-56z" />
    <glyph glyph-name="dotlessi" unicode="&#x131;" horiz-adv-x="247" 
d="M92 0v501h63v-501h-63z" />
    <glyph glyph-name="circumflex" unicode="&#x2c6;" horiz-adv-x="445" 
d="M334 569l-110 92h-3l-111 -92l-32 43l145 111l144 -111z" />
    <glyph glyph-name="tilde" unicode="&#x2dc;" horiz-adv-x="422" 
d="M342 658q-3 -7 -9.5 -16.5t-15.5 -17.5t-21 -14t-28 -6q-18 0 -32.5 6t-27 12.5t-23.5 12.5t-21 6q-13 0 -21.5 -8.5t-16.5 -19.5l-36 22q3 7 9 16.5t15 17.5t21.5 14t27.5 6q18 0 32.5 -6t27 -12.5t23.5 -12.5t22 -6q13 0 21.5 8.5t16.5 19.5l36 -22v0z" />
    <glyph glyph-name="macron" unicode="&#xaf;" horiz-adv-x="402" 
d="M80 622v57h242v-57h-242z" />
    <glyph glyph-name="breve" unicode="&#x2d8;" horiz-adv-x="356" 
d="M306 661q-24 -37 -57.5 -60t-71.5 -23t-71 23t-56 60l35 34q26 -32 47.5 -48.5t44.5 -16.5t45.5 16.5t47.5 48.5l36 -34v0z" />
    <glyph glyph-name="dotaccent" unicode="&#x2d9;" horiz-adv-x="207" 
d="M155 642q0 -22 -15.5 -38t-37.5 -16t-37 16t-15 38q0 23 15 38.5t37 15.5t37.5 -15.5t15.5 -38.5z" />
    <glyph glyph-name="ring" unicode="&#x2da;" horiz-adv-x="227" 
d="M182 646q0 -34 -24 -58t-58 -24t-58 24t-24 58q0 35 24 58.5t58 23.5t58 -23.5t24 -58.5zM143 646q0 18 -12.5 31.5t-30.5 13.5t-30.5 -13.5t-12.5 -31.5t12.5 -31t30.5 -13t30.5 13t12.5 31z" />
    <glyph glyph-name="cedilla" unicode="&#xb8;" horiz-adv-x="421" 
d="M319 -124q0 -16 -5.5 -31.5t-16.5 -27.5t-29 -19.5t-42 -7.5q-18 0 -40 6t-34 13l11 43q11 -5 28.5 -10t32.5 -5q25 0 35 12.5t10 26.5q0 13 -10 24.5t-35 11.5q-6 0 -16.5 -1t-27.5 -5l17 114h42l-10 -65h5q42 0 63.5 -22t21.5 -57z" />
    <glyph glyph-name="hungarumlaut" unicode="&#x2dd;" horiz-adv-x="500" 
d="M310 570l-32 30l124 131l45 -42zM114 570l-32 30l124 131l44 -42z" />
    <glyph glyph-name="ogonek" unicode="&#x2db;" horiz-adv-x="239" 
d="M198 0q-38 -29 -64.5 -60.5t-26.5 -60.5q0 -41 37 -41q11 0 22 3t20 8l11 -41q-12 -8 -27 -12.5t-35 -4.5q-35 0 -58.5 21.5t-23.5 60.5q0 32 24 66t69 61h52z" />
    <glyph glyph-name="caron" unicode="&#x2c7;" horiz-adv-x="445" 
d="M111 723l111 -91h2l111 91l32 -42l-144 -112l-145 112z" />
    <glyph glyph-name="Adieresis" unicode="&#xc4;" horiz-adv-x="613" 
d="M526 0l-63 180h-311l-63 -180h-67l240 674l86 12l243 -686h-65zM308 623h-3l-134 -387h272zM259 846q0 -19 -13 -32t-33 -13q-19 0 -32.5 13t-13.5 32q0 20 13.5 32.5t32.5 12.5q20 0 33 -12.5t13 -32.5zM445 846q0 -19 -13 -32t-33 -13q-19 0 -32.5 13t-13.5 32
q0 20 13.5 32.5t32.5 12.5q20 0 33 -12.5t13 -32.5z" />
    <glyph glyph-name="Aring" unicode="&#xc5;" horiz-adv-x="613" 
d="M526 0l-63 180h-311l-63 -180h-67l240 674l86 12l243 -686h-65zM308 623h-3l-134 -387h272zM388 846q0 -34 -24 -58t-58 -24t-58 24t-24 58q0 35 24 58.5t58 23.5t58 -23.5t24 -58.5zM349 846q0 18 -12.5 31.5t-30.5 13.5t-30.5 -13.5t-12.5 -31.5t12.5 -31t30.5 -13
t30.5 13t12.5 31z" />
    <glyph glyph-name="Ccedilla" unicode="&#xc7;" horiz-adv-x="618" 
d="M435 -124q0 -16 -5.5 -31.5t-16.5 -27.5t-29 -19.5t-42 -7.5q-18 0 -40 6t-34 13l11 43q11 -5 28.5 -10t32.5 -5q25 0 35 12.5t10 26.5q0 13 -10 24.5t-35 11.5q-6 0 -16.5 -1t-27.5 -5l12 86q-65 6 -112 33.5t-78 72.5t-45.5 106.5t-14.5 137.5q0 80 18.5 145.5t56 112
t92.5 71.5t129 25q71 0 123 -24.5t90 -56.5l-39 -44q-32 27 -75.5 46t-98.5 19q-58 0 -100.5 -20t-70.5 -58t-42 -92.5t-14 -122.5q0 -69 13.5 -123.5t41.5 -92.5t71.5 -58t103.5 -20q28 0 55 7t51.5 17.5t45.5 24t36 27.5l33 -46q-18 -18 -43.5 -34t-55.5 -28.5t-62.5 -20
t-65.5 -7.5h-1l-5 -34h5q42 0 63.5 -22t21.5 -57z" />
    <glyph glyph-name="Eacute" unicode="&#xc9;" horiz-adv-x="515" 
d="M467 0h-387v686h378v-60h-312v-250h274v-60h-274v-256h329zM208 766l-29 33l136 129l40 -46z" />
    <glyph glyph-name="Ntilde" unicode="&#xd1;" horiz-adv-x="627" 
d="M481 0l-337 569h-3v-569h-66v674l75 12l333 -565h3v565h66v-686h-71zM439 858q-3 -7 -9.5 -16.5t-15.5 -17.5t-21 -14t-28 -6q-18 0 -32.5 6t-27 12.5t-23.5 12.5t-21 6q-13 0 -21.5 -8.5t-16.5 -19.5l-36 22q3 7 9 16.5t15 17.5t21.5 14t27.5 6q18 0 32.5 -6t27 -12.5
t23.5 -12.5t22 -6q13 0 21.5 8.5t16.5 19.5l36 -22v0z" />
    <glyph glyph-name="Odieresis" unicode="&#xd6;" horiz-adv-x="688" 
d="M630 343q0 -77 -17.5 -141.5t-52.5 -112t-89 -74t-127 -26.5q-74 0 -127.5 26.5t-89 74t-52.5 112t-17 141.5q0 81 17 146t52.5 111t89 71t127.5 25q73 0 127 -25t89 -71t52.5 -111t17.5 -146zM561 345q0 62 -12.5 115.5t-39 92.5t-67.5 61t-98 22t-98 -22t-67.5 -61
t-39 -92.5t-12.5 -115.5q0 -63 12.5 -117t39 -94t67.5 -62.5t98 -22.5t98 23t67 63t38.5 94t12.5 116h1zM297 846q0 -19 -13 -32t-33 -13q-19 0 -32.5 13t-13.5 32q0 20 13.5 32.5t32.5 12.5q20 0 33 -12.5t13 -32.5zM483 846q0 -19 -13 -32t-33 -13q-19 0 -32.5 13
t-13.5 32q0 20 13.5 32.5t32.5 12.5q20 0 33 -12.5t13 -32.5z" />
    <glyph glyph-name="Udieresis" unicode="&#xdc;" horiz-adv-x="632" 
d="M557 231q0 -115 -59 -178.5t-179 -63.5q-121 0 -180 63t-59 177v456h66v-463q0 -80 40 -126.5t133 -46.5q92 0 132 46t40 126v464h66v-454v0zM269 846q0 -19 -13 -32t-33 -13q-19 0 -32.5 13t-13.5 32q0 20 13.5 32.5t32.5 12.5q20 0 33 -12.5t13 -32.5zM455 846
q0 -19 -13 -32t-33 -13q-19 0 -32.5 13t-13.5 32q0 20 13.5 32.5t32.5 12.5q20 0 33 -12.5t13 -32.5z" />
    <glyph glyph-name="agrave" unicode="&#xe0;" horiz-adv-x="498" 
d="M374 0q-5 14 -7 32t-2 29h-2q-8 -12 -24 -25t-37 -23.5t-45.5 -17t-49.5 -6.5q-37 0 -66 11t-49.5 30t-31 45t-10.5 55q0 46 21 74.5t53.5 45t72.5 22.5t78 6q26 0 49.5 -2t40.5 -4v51q0 68 -30.5 100t-84.5 32q-38 0 -73.5 -14t-64.5 -36l-32 46q12 9 29 19.5t38.5 19.5
t47.5 15.5t55 6.5q36 0 68 -11.5t56.5 -35.5t39 -60.5t14.5 -87.5v-317h-54zM365 222q-14 2 -37 3.5t-50 1.5q-28 0 -56.5 -3.5t-52 -13.5t-38.5 -28t-15 -46q0 -17 6 -33.5t18 -29t30 -20t43 -7.5q45 0 85 22.5t67 54.5v99zM337 602l-29 -33l-147 116l41 46z" />
    <glyph glyph-name="acircumflex" unicode="&#xe2;" horiz-adv-x="498" 
d="M374 0q-5 14 -7 32t-2 29h-2q-8 -12 -24 -25t-37 -23.5t-45.5 -17t-49.5 -6.5q-37 0 -66 11t-49.5 30t-31 45t-10.5 55q0 46 21 74.5t53.5 45t72.5 22.5t78 6q26 0 49.5 -2t40.5 -4v51q0 68 -30.5 100t-84.5 32q-38 0 -73.5 -14t-64.5 -36l-32 46q12 9 29 19.5t38.5 19.5
t47.5 15.5t55 6.5q36 0 68 -11.5t56.5 -35.5t39 -60.5t14.5 -87.5v-317h-54zM365 222q-14 2 -37 3.5t-50 1.5q-28 0 -56.5 -3.5t-52 -13.5t-38.5 -28t-15 -46q0 -17 6 -33.5t18 -29t30 -20t43 -7.5q45 0 85 22.5t67 54.5v99zM361 569l-110 92h-3l-111 -92l-32 43l145 111
l144 -111z" />
    <glyph glyph-name="adieresis" unicode="&#xe4;" horiz-adv-x="498" 
d="M374 0q-5 14 -7 32t-2 29h-2q-8 -12 -24 -25t-37 -23.5t-45.5 -17t-49.5 -6.5q-37 0 -66 11t-49.5 30t-31 45t-10.5 55q0 46 21 74.5t53.5 45t72.5 22.5t78 6q26 0 49.5 -2t40.5 -4v51q0 68 -30.5 100t-84.5 32q-38 0 -73.5 -14t-64.5 -36l-32 46q12 9 29 19.5t38.5 19.5
t47.5 15.5t55 6.5q36 0 68 -11.5t56.5 -35.5t39 -60.5t14.5 -87.5v-317h-54zM365 222q-14 2 -37 3.5t-50 1.5q-28 0 -56.5 -3.5t-52 -13.5t-38.5 -28t-15 -46q0 -17 6 -33.5t18 -29t30 -20t43 -7.5q45 0 85 22.5t67 54.5v99zM202 646q0 -19 -13 -32t-33 -13q-19 0 -32.5 13
t-13.5 32q0 20 13.5 32.5t32.5 12.5q20 0 33 -12.5t13 -32.5zM388 646q0 -19 -13 -32t-33 -13q-19 0 -32.5 13t-13.5 32q0 20 13.5 32.5t32.5 12.5q20 0 33 -12.5t13 -32.5z" />
    <glyph glyph-name="atilde" unicode="&#xe3;" horiz-adv-x="498" 
d="M374 0q-5 14 -7 32t-2 29h-2q-8 -12 -24 -25t-37 -23.5t-45.5 -17t-49.5 -6.5q-37 0 -66 11t-49.5 30t-31 45t-10.5 55q0 46 21 74.5t53.5 45t72.5 22.5t78 6q26 0 49.5 -2t40.5 -4v51q0 68 -30.5 100t-84.5 32q-38 0 -73.5 -14t-64.5 -36l-32 46q12 9 29 19.5t38.5 19.5
t47.5 15.5t55 6.5q36 0 68 -11.5t56.5 -35.5t39 -60.5t14.5 -87.5v-317h-54zM365 222q-14 2 -37 3.5t-50 1.5q-28 0 -56.5 -3.5t-52 -13.5t-38.5 -28t-15 -46q0 -17 6 -33.5t18 -29t30 -20t43 -7.5q45 0 85 22.5t67 54.5v99zM375 658q-3 -7 -9.5 -16.5t-15.5 -17.5t-21 -14
t-28 -6q-18 0 -32.5 6t-27 12.5t-23.5 12.5t-21 6q-13 0 -21.5 -8.5t-16.5 -19.5l-36 22q3 7 9 16.5t15 17.5t21.5 14t27.5 6q18 0 32.5 -6t27 -12.5t23.5 -12.5t22 -6q13 0 21.5 8.5t16.5 19.5l36 -22v0z" />
    <glyph glyph-name="aring" unicode="&#xe5;" horiz-adv-x="498" 
d="M374 0q-5 14 -7 32t-2 29h-2q-8 -12 -24 -25t-37 -23.5t-45.5 -17t-49.5 -6.5q-37 0 -66 11t-49.5 30t-31 45t-10.5 55q0 46 21 74.5t53.5 45t72.5 22.5t78 6q26 0 49.5 -2t40.5 -4v51q0 68 -30.5 100t-84.5 32q-38 0 -73.5 -14t-64.5 -36l-32 46q12 9 29 19.5t38.5 19.5
t47.5 15.5t55 6.5q36 0 68 -11.5t56.5 -35.5t39 -60.5t14.5 -87.5v-317h-54zM365 222q-14 2 -37 3.5t-50 1.5q-28 0 -56.5 -3.5t-52 -13.5t-38.5 -28t-15 -46q0 -17 6 -33.5t18 -29t30 -20t43 -7.5q45 0 85 22.5t67 54.5v99zM331 646q0 -34 -24 -58t-58 -24t-58 24t-24 58
q0 35 24 58.5t58 23.5t58 -23.5t24 -58.5zM292 646q0 18 -12.5 31.5t-30.5 13.5t-30.5 -13.5t-12.5 -31.5t12.5 -31t30.5 -13t30.5 13t12.5 31z" />
    <glyph glyph-name="ccedilla" unicode="&#xe7;" horiz-adv-x="508" 
d="M367 -124q0 -16 -5.5 -31.5t-16.5 -27.5t-29 -19.5t-42 -7.5q-18 0 -40 6t-34 13l11 43q11 -5 28.5 -10t32.5 -5q25 0 35 12.5t10 26.5q0 13 -10 24.5t-35 11.5q-6 0 -16.5 -1t-27.5 -5l13 86q-92 13 -141.5 81t-49.5 177q0 60 15.5 108t45 82.5t72.5 53t97 18.5
t98.5 -20t71.5 -41l-32 -46q-25 17 -61 33.5t-77 16.5q-80 0 -122 -51t-42 -153t43.5 -153.5t123.5 -51.5q42 0 81 15t67 32l25 -49q-32 -22 -77 -38.5t-96 -16.5h-1l-5 -34h5q42 0 63.5 -22t21.5 -57z" />
    <glyph glyph-name="eacute" unicode="&#xe9;" horiz-adv-x="534" 
d="M482 279q0 -7 -1 -19t-3 -18h-362q1 -57 16 -95t39 -60.5t54.5 -31.5t62.5 -9q46 0 86.5 15.5t69.5 32.5l25 -49q-37 -23 -84 -39.5t-100 -16.5q-59 0 -103 19.5t-73 54t-44 82.5t-15 105q0 58 14.5 106t43 82.5t70 53t95.5 18.5q53 0 92 -18t65 -49t39 -73t13 -91z
M418 295q-2 74 -38 116.5t-107 42.5q-26 0 -51.5 -7t-47 -25t-36.5 -49t-20 -78h300zM208 566l-29 33l136 129l40 -46z" />
    <glyph glyph-name="egrave" unicode="&#xe8;" horiz-adv-x="534" 
d="M482 279q0 -7 -1 -19t-3 -18h-362q1 -57 16 -95t39 -60.5t54.5 -31.5t62.5 -9q46 0 86.5 15.5t69.5 32.5l25 -49q-37 -23 -84 -39.5t-100 -16.5q-59 0 -103 19.5t-73 54t-44 82.5t-15 105q0 58 14.5 106t43 82.5t70 53t95.5 18.5q53 0 92 -18t65 -49t39 -73t13 -91z
M418 295q-2 74 -38 116.5t-107 42.5q-26 0 -51.5 -7t-47 -25t-36.5 -49t-20 -78h300zM375 602l-29 -33l-147 116l41 46z" />
    <glyph glyph-name="ecircumflex" unicode="&#xea;" horiz-adv-x="534" 
d="M482 279q0 -7 -1 -19t-3 -18h-362q1 -57 16 -95t39 -60.5t54.5 -31.5t62.5 -9q46 0 86.5 15.5t69.5 32.5l25 -49q-37 -23 -84 -39.5t-100 -16.5q-59 0 -103 19.5t-73 54t-44 82.5t-15 105q0 58 14.5 106t43 82.5t70 53t95.5 18.5q53 0 92 -18t65 -49t39 -73t13 -91z
M418 295q-2 74 -38 116.5t-107 42.5q-26 0 -51.5 -7t-47 -25t-36.5 -49t-20 -78h300zM389 569l-110 92h-3l-111 -92l-32 43l145 111l144 -111z" />
    <glyph glyph-name="edieresis" unicode="&#xeb;" horiz-adv-x="534" 
d="M482 279q0 -7 -1 -19t-3 -18h-362q1 -57 16 -95t39 -60.5t54.5 -31.5t62.5 -9q46 0 86.5 15.5t69.5 32.5l25 -49q-37 -23 -84 -39.5t-100 -16.5q-59 0 -103 19.5t-73 54t-44 82.5t-15 105q0 58 14.5 106t43 82.5t70 53t95.5 18.5q53 0 92 -18t65 -49t39 -73t13 -91z
M418 295q-2 74 -38 116.5t-107 42.5q-26 0 -51.5 -7t-47 -25t-36.5 -49t-20 -78h300zM230 646q0 -19 -13 -32t-33 -13q-19 0 -32.5 13t-13.5 32q0 20 13.5 32.5t32.5 12.5q20 0 33 -12.5t13 -32.5zM416 646q0 -19 -13 -32t-33 -13q-19 0 -32.5 13t-13.5 32q0 20 13.5 32.5
t32.5 12.5q20 0 33 -12.5t13 -32.5z" />
    <glyph glyph-name="iacute" unicode="&#xed;" horiz-adv-x="247" 
d="M92 0v501h63v-501h-63zM66 566l-29 33l136 129l40 -46z" />
    <glyph glyph-name="igrave" unicode="&#xec;" horiz-adv-x="247" 
d="M92 0v501h63v-501h-63zM212 602l-29 -33l-147 116l41 46z" />
    <glyph glyph-name="icircumflex" unicode="&#xee;" horiz-adv-x="247" 
d="M92 0v501h63v-501h-63zM251 658q-3 -7 -9.5 -16.5t-15.5 -17.5t-21 -14t-28 -6q-18 0 -32.5 6t-27 12.5t-23.5 12.5t-21 6q-13 0 -21.5 -8.5t-16.5 -19.5l-36 22q3 7 9 16.5t15 17.5t21.5 14t27.5 6q18 0 32.5 -6t27 -12.5t23.5 -12.5t22 -6q13 0 21.5 8.5t16.5 19.5
l36 -22v0z" />
    <glyph glyph-name="idieresis" unicode="&#xef;" horiz-adv-x="247" 
d="M92 0v501h63v-501h-63zM78 646q0 -19 -13 -32t-33 -13q-19 0 -32.5 13t-13.5 32q0 20 13.5 32.5t32.5 12.5q20 0 33 -12.5t13 -32.5zM264 646q0 -19 -13 -32t-33 -13q-19 0 -32.5 13t-13.5 32q0 20 13.5 32.5t32.5 12.5q20 0 33 -12.5t13 -32.5z" />
    <glyph glyph-name="ntilde" unicode="&#xf1;" horiz-adv-x="541" 
d="M408 0v303q0 74 -24.5 113t-82.5 39q-27 0 -52 -10t-46 -24.5t-37.5 -31t-28.5 -30.5v-359h-63v501h52q1 -6 2.5 -17t3 -23t2 -22.5t0.5 -16.5h2q11 13 27 29t37.5 29.5t48 22.5t58.5 9q37 0 67 -12t51.5 -37t33.5 -62t12 -88v-313h-63zM396 658q-3 -7 -9.5 -16.5
t-15.5 -17.5t-21 -14t-28 -6q-18 0 -32.5 6t-27 12.5t-23.5 12.5t-21 6q-13 0 -21.5 -8.5t-16.5 -19.5l-36 22q3 7 9 16.5t15 17.5t21.5 14t27.5 6q18 0 32.5 -6t27 -12.5t23.5 -12.5t22 -6q13 0 21.5 8.5t16.5 19.5l36 -22v0z" />
    <glyph glyph-name="oacute" unicode="&#xf3;" horiz-adv-x="556" 
d="M506 251q0 -57 -15 -105t-44 -83t-71.5 -54.5t-97.5 -19.5t-97.5 19.5t-71.5 54.5t-44 83t-15 105q0 60 15 108t44 82t71.5 52.5t97.5 18.5q57 0 99.5 -18.5t71 -52.5t43 -82t14.5 -108zM439 252q0 92 -39 147.5t-122 55.5q-81 0 -121.5 -55t-40.5 -148t41 -149.5
t121 -56.5q39 0 69.5 15t50.5 42t30.5 65t10.5 84zM219 566l-29 33l136 129l40 -46z" />
    <glyph glyph-name="ograve" unicode="&#xf2;" horiz-adv-x="556" 
d="M506 251q0 -57 -15 -105t-44 -83t-71.5 -54.5t-97.5 -19.5t-97.5 19.5t-71.5 54.5t-44 83t-15 105q0 60 15 108t44 82t71.5 52.5t97.5 18.5q57 0 99.5 -18.5t71 -52.5t43 -82t14.5 -108zM439 252q0 92 -39 147.5t-122 55.5q-81 0 -121.5 -55t-40.5 -148t41 -149.5
t121 -56.5q39 0 69.5 15t50.5 42t30.5 65t10.5 84zM366 602l-29 -33l-147 116l41 46z" />
    <glyph glyph-name="ocircumflex" unicode="&#xf4;" horiz-adv-x="556" 
d="M506 251q0 -57 -15 -105t-44 -83t-71.5 -54.5t-97.5 -19.5t-97.5 19.5t-71.5 54.5t-44 83t-15 105q0 60 15 108t44 82t71.5 52.5t97.5 18.5q57 0 99.5 -18.5t71 -52.5t43 -82t14.5 -108zM439 252q0 92 -39 147.5t-122 55.5q-81 0 -121.5 -55t-40.5 -148t41 -149.5
t121 -56.5q39 0 69.5 15t50.5 42t30.5 65t10.5 84zM389 569l-110 92h-3l-111 -92l-32 43l145 111l144 -111z" />
    <glyph glyph-name="odieresis" unicode="&#xf6;" horiz-adv-x="556" 
d="M506 251q0 -57 -15 -105t-44 -83t-71.5 -54.5t-97.5 -19.5t-97.5 19.5t-71.5 54.5t-44 83t-15 105q0 60 15 108t44 82t71.5 52.5t97.5 18.5q57 0 99.5 -18.5t71 -52.5t43 -82t14.5 -108zM439 252q0 92 -39 147.5t-122 55.5q-81 0 -121.5 -55t-40.5 -148t41 -149.5
t121 -56.5q39 0 69.5 15t50.5 42t30.5 65t10.5 84zM231 646q0 -19 -13 -32t-33 -13q-19 0 -32.5 13t-13.5 32q0 20 13.5 32.5t32.5 12.5q20 0 33 -12.5t13 -32.5zM417 646q0 -19 -13 -32t-33 -13q-19 0 -32.5 13t-13.5 32q0 20 13.5 32.5t32.5 12.5q20 0 33 -12.5t13 -32.5z
" />
    <glyph glyph-name="otilde" unicode="&#xf5;" horiz-adv-x="556" 
d="M506 251q0 -57 -15 -105t-44 -83t-71.5 -54.5t-97.5 -19.5t-97.5 19.5t-71.5 54.5t-44 83t-15 105q0 60 15 108t44 82t71.5 52.5t97.5 18.5q57 0 99.5 -18.5t71 -52.5t43 -82t14.5 -108zM439 252q0 92 -39 147.5t-122 55.5q-81 0 -121.5 -55t-40.5 -148t41 -149.5
t121 -56.5q39 0 69.5 15t50.5 42t30.5 65t10.5 84zM404 658q-3 -7 -9.5 -16.5t-15.5 -17.5t-21 -14t-28 -6q-18 0 -32.5 6t-27 12.5t-23.5 12.5t-21 6q-13 0 -21.5 -8.5t-16.5 -19.5l-36 22q3 7 9 16.5t15 17.5t21.5 14t27.5 6q18 0 32.5 -6t27 -12.5t23.5 -12.5t22 -6
q13 0 21.5 8.5t16.5 19.5l36 -22v0z" />
    <glyph glyph-name="uacute" unicode="&#xfa;" horiz-adv-x="541" 
d="M419 0q-2 6 -3 17t-2.5 23t-2 22.5t-0.5 16.5h-2q-11 -13 -27 -29t-37.5 -29.5t-48.5 -22.5t-58 -9q-74 0 -119 48.5t-45 149.5v314h63v-304q0 -74 24.5 -112.5t82.5 -38.5q27 0 52 10t46 24.5t37.5 31t28.5 30.5v359h63v-501h-52zM211 566l-29 33l136 129l40 -46z" />
    <glyph glyph-name="ugrave" unicode="&#xf9;" horiz-adv-x="541" 
d="M419 0q-2 6 -3 17t-2.5 23t-2 22.5t-0.5 16.5h-2q-11 -13 -27 -29t-37.5 -29.5t-48.5 -22.5t-58 -9q-74 0 -119 48.5t-45 149.5v314h63v-304q0 -74 24.5 -112.5t82.5 -38.5q27 0 52 10t46 24.5t37.5 31t28.5 30.5v359h63v-501h-52zM358 602l-29 -33l-147 116l41 46z" />
    <glyph glyph-name="ucircumflex" unicode="&#xfb;" horiz-adv-x="541" 
d="M419 0q-2 6 -3 17t-2.5 23t-2 22.5t-0.5 16.5h-2q-11 -13 -27 -29t-37.5 -29.5t-48.5 -22.5t-58 -9q-74 0 -119 48.5t-45 149.5v314h63v-304q0 -74 24.5 -112.5t82.5 -38.5q27 0 52 10t46 24.5t37.5 31t28.5 30.5v359h63v-501h-52zM382 569l-110 92h-3l-111 -92l-32 43
l145 111l144 -111z" />
    <glyph glyph-name="udieresis" unicode="&#xfc;" horiz-adv-x="541" 
d="M419 0q-2 6 -3 17t-2.5 23t-2 22.5t-0.5 16.5h-2q-11 -13 -27 -29t-37.5 -29.5t-48.5 -22.5t-58 -9q-74 0 -119 48.5t-45 149.5v314h63v-304q0 -74 24.5 -112.5t82.5 -38.5q27 0 52 10t46 24.5t37.5 31t28.5 30.5v359h63v-501h-52zM223 646q0 -19 -13 -32t-33 -13
q-19 0 -32.5 13t-13.5 32q0 20 13.5 32.5t32.5 12.5q20 0 33 -12.5t13 -32.5zM409 646q0 -19 -13 -32t-33 -13q-19 0 -32.5 13t-13.5 32q0 20 13.5 32.5t32.5 12.5q20 0 33 -12.5t13 -32.5z" />
    <glyph glyph-name="Agrave" unicode="&#xc0;" horiz-adv-x="613" 
d="M526 0l-63 180h-311l-63 -180h-67l240 674l86 12l243 -686h-65zM308 623h-3l-134 -387h272zM394 802l-29 -33l-147 116l41 46z" />
    <glyph glyph-name="Atilde" unicode="&#xc3;" horiz-adv-x="613" 
d="M526 0l-63 180h-311l-63 -180h-67l240 674l86 12l243 -686h-65zM308 623h-3l-134 -387h272zM431 858q-3 -7 -9.5 -16.5t-15.5 -17.5t-21 -14t-28 -6q-18 0 -32.5 6t-27 12.5t-23.5 12.5t-21 6q-13 0 -21.5 -8.5t-16.5 -19.5l-36 22q3 7 9 16.5t15 17.5t21.5 14t27.5 6
q18 0 32.5 -6t27 -12.5t23.5 -12.5t22 -6q13 0 21.5 8.5t16.5 19.5l36 -22v0z" />
    <glyph glyph-name="Otilde" unicode="&#xd5;" horiz-adv-x="688" 
d="M630 343q0 -77 -17.5 -141.5t-52.5 -112t-89 -74t-127 -26.5q-74 0 -127.5 26.5t-89 74t-52.5 112t-17 141.5q0 81 17 146t52.5 111t89 71t127.5 25q73 0 127 -25t89 -71t52.5 -111t17.5 -146zM561 345q0 62 -12.5 115.5t-39 92.5t-67.5 61t-98 22t-98 -22t-67.5 -61
t-39 -92.5t-12.5 -115.5q0 -63 12.5 -117t39 -94t67.5 -62.5t98 -22.5t98 23t67 63t38.5 94t12.5 116h1zM470 858q-3 -7 -9.5 -16.5t-15.5 -17.5t-21 -14t-28 -6q-18 0 -32.5 6t-27 12.5t-23.5 12.5t-21 6q-13 0 -21.5 -8.5t-16.5 -19.5l-36 22q3 7 9 16.5t15 17.5t21.5 14
t27.5 6q18 0 32.5 -6t27 -12.5t23.5 -12.5t22 -6q13 0 21.5 8.5t16.5 19.5l36 -22v0z" />
    <glyph glyph-name="ydieresis" unicode="&#xff;" horiz-adv-x="462" 
d="M246 -67q-9 -24 -21 -49.5t-30 -45.5t-43.5 -33t-61.5 -13q-22 0 -43.5 4.5t-31.5 7.5l8 56q10 -4 29 -7.5t34 -3.5q21 0 37 9t28.5 23.5t21.5 33.5t17 39l18 50l-193 497h66l94 -251q3 -8 11 -29q7 -18 19 -51t33 -89h3q19 56 30.5 89t17.5 51q7 21 10 29l84 251h65z
M184 646q0 -19 -13 -32t-33 -13q-19 0 -32.5 13t-13.5 32q0 20 13.5 32.5t32.5 12.5q20 0 33 -12.5t13 -32.5zM370 646q0 -19 -13 -32t-33 -13q-19 0 -32.5 13t-13.5 32q0 20 13.5 32.5t32.5 12.5q20 0 33 -12.5t13 -32.5z" />
    <glyph glyph-name="Ydieresis" unicode="&#x178;" horiz-adv-x="538" 
d="M301 293v-293h-63v293l-216 392h70l176 -333h3l175 333h70zM222 846q0 -19 -13 -32t-33 -13q-19 0 -32.5 13t-13.5 32q0 20 13.5 32.5t32.5 12.5q20 0 33 -12.5t13 -32.5zM408 846q0 -19 -13 -32t-33 -13q-19 0 -32.5 13t-13.5 32q0 20 13.5 32.5t32.5 12.5
q20 0 33 -12.5t13 -32.5z" />
    <glyph glyph-name="Acircumflex" unicode="&#xc2;" horiz-adv-x="613" 
d="M526 0l-63 180h-311l-63 -180h-67l240 674l86 12l243 -686h-65zM308 623h-3l-134 -387h272zM418 769l-110 92h-3l-111 -92l-32 43l145 111l144 -111z" />
    <glyph glyph-name="Ecircumflex" unicode="&#xca;" horiz-adv-x="515" 
d="M467 0h-387v686h378v-60h-312v-250h274v-60h-274v-256h329zM379 769l-110 92h-3l-111 -92l-32 43l145 111l144 -111z" />
    <glyph glyph-name="Aacute" unicode="&#xc1;" horiz-adv-x="613" 
d="M526 0l-63 180h-311l-63 -180h-67l240 674l86 12l243 -686h-65zM308 623h-3l-134 -387h272zM247 766l-29 33l136 129l40 -46z" />
    <glyph glyph-name="Edieresis" unicode="&#xcb;" horiz-adv-x="515" 
d="M467 0h-387v686h378v-60h-312v-250h274v-60h-274v-256h329zM220 846q0 -19 -13 -32t-33 -13q-19 0 -32.5 13t-13.5 32q0 20 13.5 32.5t32.5 12.5q20 0 33 -12.5t13 -32.5zM406 846q0 -19 -13 -32t-33 -13q-19 0 -32.5 13t-13.5 32q0 20 13.5 32.5t32.5 12.5
q20 0 33 -12.5t13 -32.5z" />
    <glyph glyph-name="Egrave" unicode="&#xc8;" horiz-adv-x="515" 
d="M467 0h-387v686h378v-60h-312v-250h274v-60h-274v-256h329zM345 802l-29 -33l-147 116l41 46z" />
    <glyph glyph-name="Iacute" unicode="&#xcd;" horiz-adv-x="226" 
d="M80 0v686h66v-686h-66zM55 766l-29 33l136 129l40 -46z" />
    <glyph glyph-name="Icircumflex" unicode="&#xce;" horiz-adv-x="226" 
d="M80 0v686h66v-686h-66zM225 769l-110 92h-3l-111 -92l-32 43l145 111l144 -111z" />
    <glyph glyph-name="Idieresis" unicode="&#xcf;" horiz-adv-x="226" 
d="M80 0v686h66v-686h-66zM66 846q0 -19 -13 -32t-33 -13q-19 0 -32.5 13t-13.5 32q0 20 13.5 32.5t32.5 12.5q20 0 33 -12.5t13 -32.5zM252 846q0 -19 -13 -32t-33 -13q-19 0 -32.5 13t-13.5 32q0 20 13.5 32.5t32.5 12.5q20 0 33 -12.5t13 -32.5z" />
    <glyph glyph-name="Igrave" unicode="&#xcc;" horiz-adv-x="226" 
d="M80 0v686h66v-686h-66zM202 802l-29 -33l-147 116l41 46z" />
    <glyph glyph-name="Oacute" unicode="&#xd3;" horiz-adv-x="688" 
d="M630 343q0 -77 -17.5 -141.5t-52.5 -112t-89 -74t-127 -26.5q-74 0 -127.5 26.5t-89 74t-52.5 112t-17 141.5q0 81 17 146t52.5 111t89 71t127.5 25q73 0 127 -25t89 -71t52.5 -111t17.5 -146zM561 345q0 62 -12.5 115.5t-39 92.5t-67.5 61t-98 22t-98 -22t-67.5 -61
t-39 -92.5t-12.5 -115.5q0 -63 12.5 -117t39 -94t67.5 -62.5t98 -22.5t98 23t67 63t38.5 94t12.5 116h1zM285 766l-29 33l136 129l40 -46z" />
    <glyph glyph-name="Ocircumflex" unicode="&#xd4;" horiz-adv-x="688" 
d="M630 343q0 -77 -17.5 -141.5t-52.5 -112t-89 -74t-127 -26.5q-74 0 -127.5 26.5t-89 74t-52.5 112t-17 141.5q0 81 17 146t52.5 111t89 71t127.5 25q73 0 127 -25t89 -71t52.5 -111t17.5 -146zM561 345q0 62 -12.5 115.5t-39 92.5t-67.5 61t-98 22t-98 -22t-67.5 -61
t-39 -92.5t-12.5 -115.5q0 -63 12.5 -117t39 -94t67.5 -62.5t98 -22.5t98 23t67 63t38.5 94t12.5 116h1zM455 769l-110 92h-3l-111 -92l-32 43l145 111l144 -111z" />
    <glyph glyph-name="Ograve" unicode="&#xd2;" horiz-adv-x="688" 
d="M630 343q0 -77 -17.5 -141.5t-52.5 -112t-89 -74t-127 -26.5q-74 0 -127.5 26.5t-89 74t-52.5 112t-17 141.5q0 81 17 146t52.5 111t89 71t127.5 25q73 0 127 -25t89 -71t52.5 -111t17.5 -146zM561 345q0 62 -12.5 115.5t-39 92.5t-67.5 61t-98 22t-98 -22t-67.5 -61
t-39 -92.5t-12.5 -115.5q0 -63 12.5 -117t39 -94t67.5 -62.5t98 -22.5t98 23t67 63t38.5 94t12.5 116h1zM432 802l-29 -33l-147 116l41 46z" />
    <glyph glyph-name="Uacute" unicode="&#xda;" horiz-adv-x="632" 
d="M557 231q0 -115 -59 -178.5t-179 -63.5q-121 0 -180 63t-59 177v456h66v-463q0 -80 40 -126.5t133 -46.5q92 0 132 46t40 126v464h66v-454v0zM257 766l-29 33l136 129l40 -46z" />
    <glyph glyph-name="Ucircumflex" unicode="&#xdb;" horiz-adv-x="632" 
d="M557 231q0 -115 -59 -178.5t-179 -63.5q-121 0 -180 63t-59 177v456h66v-463q0 -80 40 -126.5t133 -46.5q92 0 132 46t40 126v464h66v-454v0zM431 769l-110 92h-3l-111 -92l-32 43l145 111l144 -111z" />
    <glyph glyph-name="Ugrave" unicode="&#xd9;" horiz-adv-x="632" 
d="M557 231q0 -115 -59 -178.5t-179 -63.5q-121 0 -180 63t-59 177v456h66v-463q0 -80 40 -126.5t133 -46.5q92 0 132 46t40 126v464h66v-454v0zM404 802l-29 -33l-147 116l41 46z" />
    <glyph glyph-name="Amacron" unicode="&#x100;" horiz-adv-x="613" 
d="M526 0l-63 180h-311l-63 -180h-67l240 674l86 12l243 -686h-65zM308 623h-3l-134 -387h272zM185 822v57h242v-57h-242z" />
    <glyph glyph-name="Abreve" unicode="&#x102;" horiz-adv-x="613" 
d="M526 0l-63 180h-311l-63 -180h-67l240 674l86 12l243 -686h-65zM308 623h-3l-134 -387h272zM434 861q-24 -37 -57.5 -60t-71.5 -23t-71 23t-56 60l35 34q26 -32 47.5 -48.5t44.5 -16.5t45.5 16.5t47.5 48.5l36 -34v0z" />
    <glyph glyph-name="abreve" unicode="&#x103;" horiz-adv-x="498" 
d="M374 0q-5 14 -7 32t-2 29h-2q-8 -12 -24 -25t-37 -23.5t-45.5 -17t-49.5 -6.5q-37 0 -66 11t-49.5 30t-31 45t-10.5 55q0 46 21 74.5t53.5 45t72.5 22.5t78 6q26 0 49.5 -2t40.5 -4v51q0 68 -30.5 100t-84.5 32q-38 0 -73.5 -14t-64.5 -36l-32 46q12 9 29 19.5t38.5 19.5
t47.5 15.5t55 6.5q36 0 68 -11.5t56.5 -35.5t39 -60.5t14.5 -87.5v-317h-54zM365 222q-14 2 -37 3.5t-50 1.5q-28 0 -56.5 -3.5t-52 -13.5t-38.5 -28t-15 -46q0 -17 6 -33.5t18 -29t30 -20t43 -7.5q45 0 85 22.5t67 54.5v99zM377 661q-24 -37 -57.5 -60t-71.5 -23t-71 23
t-56 60l35 34q26 -32 47.5 -48.5t44.5 -16.5t45.5 16.5t47.5 48.5l36 -34v0z" />
    <glyph glyph-name="Cacute" unicode="&#x106;" horiz-adv-x="618" 
d="M578 79q-18 -18 -43.5 -34t-55.5 -28.5t-62.5 -20t-65.5 -7.5q-76 0 -131.5 24.5t-91.5 70t-53 111t-17 147.5q0 80 18.5 145.5t56 112t92.5 71.5t129 25q71 0 123 -24.5t90 -56.5l-39 -44q-32 27 -75.5 46t-98.5 19q-58 0 -100.5 -20t-70.5 -58t-42 -92.5t-14 -122.5
q0 -69 13.5 -123.5t41.5 -92.5t71.5 -58t103.5 -20q28 0 55 7t51.5 17.5t45.5 24t36 27.5l33 -46v0zM290 766l-29 33l136 129l40 -46z" />
    <glyph glyph-name="cacute" unicode="&#x107;" horiz-adv-x="508" 
d="M456 44q-32 -22 -77 -38.5t-96 -16.5q-112 0 -172.5 70t-60.5 191q0 60 15.5 108t45 82.5t72.5 53t97 18.5t98.5 -20t71.5 -41l-32 -46q-25 17 -61 33.5t-77 16.5q-80 0 -122 -51t-42 -153t43.5 -153.5t123.5 -51.5q42 0 81 15t67 32l25 -49v0zM205 566l-29 33l136 129
l40 -46z" />
    <glyph glyph-name="Ccircumflex" unicode="&#x108;" horiz-adv-x="618" 
d="M578 79q-18 -18 -43.5 -34t-55.5 -28.5t-62.5 -20t-65.5 -7.5q-76 0 -131.5 24.5t-91.5 70t-53 111t-17 147.5q0 80 18.5 145.5t56 112t92.5 71.5t129 25q71 0 123 -24.5t90 -56.5l-39 -44q-32 27 -75.5 46t-98.5 19q-58 0 -100.5 -20t-70.5 -58t-42 -92.5t-14 -122.5
q0 -69 13.5 -123.5t41.5 -92.5t71.5 -58t103.5 -20q28 0 55 7t51.5 17.5t45.5 24t36 27.5l33 -46v0zM460 769l-110 92h-3l-111 -92l-32 43l145 111l144 -111z" />
    <glyph glyph-name="ccircumflex" unicode="&#x109;" horiz-adv-x="508" 
d="M456 44q-32 -22 -77 -38.5t-96 -16.5q-112 0 -172.5 70t-60.5 191q0 60 15.5 108t45 82.5t72.5 53t97 18.5t98.5 -20t71.5 -41l-32 -46q-25 17 -61 33.5t-77 16.5q-80 0 -122 -51t-42 -153t43.5 -153.5t123.5 -51.5q42 0 81 15t67 32l25 -49v0zM387 569l-110 92h-3
l-111 -92l-32 43l145 111l144 -111z" />
    <glyph glyph-name="Cdotaccent" unicode="&#x10a;" horiz-adv-x="618" 
d="M578 79q-18 -18 -43.5 -34t-55.5 -28.5t-62.5 -20t-65.5 -7.5q-76 0 -131.5 24.5t-91.5 70t-53 111t-17 147.5q0 80 18.5 145.5t56 112t92.5 71.5t129 25q71 0 123 -24.5t90 -56.5l-39 -44q-32 27 -75.5 46t-98.5 19q-58 0 -100.5 -20t-70.5 -58t-42 -92.5t-14 -122.5
q0 -69 13.5 -123.5t41.5 -92.5t71.5 -58t103.5 -20q28 0 55 7t51.5 17.5t45.5 24t36 27.5l33 -46v0zM406 842q0 -22 -15.5 -38t-37.5 -16t-37 16t-15 38q0 23 15 38.5t37 15.5t37.5 -15.5t15.5 -38.5z" />
    <glyph glyph-name="cdotaccent" unicode="&#x10b;" horiz-adv-x="508" 
d="M456 44q-32 -22 -77 -38.5t-96 -16.5q-112 0 -172.5 70t-60.5 191q0 60 15.5 108t45 82.5t72.5 53t97 18.5t98.5 -20t71.5 -41l-32 -46q-25 17 -61 33.5t-77 16.5q-80 0 -122 -51t-42 -153t43.5 -153.5t123.5 -51.5q42 0 81 15t67 32l25 -49v0zM325 642q0 -22 -15.5 -38
t-37.5 -16t-37 16t-15 38q0 23 15 38.5t37 15.5t37.5 -15.5t15.5 -38.5z" />
    <glyph glyph-name="Ccaron" unicode="&#x10c;" horiz-adv-x="618" 
d="M578 79q-18 -18 -43.5 -34t-55.5 -28.5t-62.5 -20t-65.5 -7.5q-76 0 -131.5 24.5t-91.5 70t-53 111t-17 147.5q0 80 18.5 145.5t56 112t92.5 71.5t129 25q71 0 123 -24.5t90 -56.5l-39 -44q-32 27 -75.5 46t-98.5 19q-58 0 -100.5 -20t-70.5 -58t-42 -92.5t-14 -122.5
q0 -69 13.5 -123.5t41.5 -92.5t71.5 -58t103.5 -20q28 0 55 7t51.5 17.5t45.5 24t36 27.5l33 -46v0zM240 923l111 -91h2l111 91l32 -42l-144 -112l-145 112z" />
    <glyph glyph-name="ccaron" unicode="&#x10d;" horiz-adv-x="508" 
d="M456 44q-32 -22 -77 -38.5t-96 -16.5q-112 0 -172.5 70t-60.5 191q0 60 15.5 108t45 82.5t72.5 53t97 18.5t98.5 -20t71.5 -41l-32 -46q-25 17 -61 33.5t-77 16.5q-80 0 -122 -51t-42 -153t43.5 -153.5t123.5 -51.5q42 0 81 15t67 32l25 -49v0zM162 723l111 -91h2l111 91
l32 -42l-144 -112l-145 112z" />
    <glyph glyph-name="Dcaron" unicode="&#x10e;" horiz-adv-x="656" 
d="M599 346q0 -77 -16.5 -141t-50.5 -109.5t-86 -70.5t-122 -25h-244v686h243q70 0 122 -24t86 -68.5t51 -107.5t17 -140zM530 346q0 63 -12 115t-37 88.5t-64 56.5t-93 20h-178v-566h177q54 0 93.5 21t64.5 59t37 90.5t12 115.5zM176 923l111 -91h2l111 91l32 -42
l-144 -112l-145 112z" />
    <glyph glyph-name="Dcroat" unicode="&#x110;" horiz-adv-x="712" 
d="M654 346q0 -77 -16.5 -141t-50.5 -109.5t-86 -70.5t-122 -25h-243v315h-96v60h96v310h243q70 0 122 -24t86 -68.5t50.5 -107t16.5 -139.5zM585 346q0 63 -12 115t-37 88.5t-64 56.5t-93 20h-177v-251h186v-60h-186v-255h177q54 0 93 21t64 59t37 90.5t12 115.5z" />
    <glyph glyph-name="Emacron" unicode="&#x112;" horiz-adv-x="515" 
d="M467 0h-387v686h378v-60h-312v-250h274v-60h-274v-256h329zM146 822v57h242v-57h-242z" />
    <glyph glyph-name="emacron" unicode="&#x113;" horiz-adv-x="534" 
d="M482 279q0 -7 -1 -19t-3 -18h-362q1 -57 16 -95t39 -60.5t54.5 -31.5t62.5 -9q46 0 86.5 15.5t69.5 32.5l25 -49q-37 -23 -84 -39.5t-100 -16.5q-59 0 -103 19.5t-73 54t-44 82.5t-15 105q0 58 14.5 106t43 82.5t70 53t95.5 18.5q53 0 92 -18t65 -49t39 -73t13 -91z
M418 295q-2 74 -38 116.5t-107 42.5q-26 0 -51.5 -7t-47 -25t-36.5 -49t-20 -78h300zM146 622v57h242v-57h-242z" />
    <glyph glyph-name="Ebreve" unicode="&#x114;" horiz-adv-x="515" 
d="M467 0h-387v686h378v-60h-312v-250h274v-60h-274v-256h329zM402 861q-24 -37 -57.5 -60t-71.5 -23t-71 23t-56 60l35 34q26 -32 47.5 -48.5t44.5 -16.5t45.5 16.5t47.5 48.5l36 -34v0z" />
    <glyph glyph-name="ebreve" unicode="&#x115;" horiz-adv-x="534" 
d="M482 279q0 -7 -1 -19t-3 -18h-362q1 -57 16 -95t39 -60.5t54.5 -31.5t62.5 -9q46 0 86.5 15.5t69.5 32.5l25 -49q-37 -23 -84 -39.5t-100 -16.5q-59 0 -103 19.5t-73 54t-44 82.5t-15 105q0 58 14.5 106t43 82.5t70 53t95.5 18.5q53 0 92 -18t65 -49t39 -73t13 -91z
M418 295q-2 74 -38 116.5t-107 42.5q-26 0 -51.5 -7t-47 -25t-36.5 -49t-20 -78h300zM405 661q-24 -37 -57.5 -60t-71.5 -23t-71 23t-56 60l35 34q26 -32 47.5 -48.5t44.5 -16.5t45.5 16.5t47.5 48.5l36 -34v0z" />
    <glyph glyph-name="Edotaccent" unicode="&#x116;" horiz-adv-x="515" 
d="M467 0h-387v686h378v-60h-312v-250h274v-60h-274v-256h329zM326 842q0 -22 -15.5 -38t-37.5 -16t-37 16t-15 38q0 23 15 38.5t37 15.5t37.5 -15.5t15.5 -38.5z" />
    <glyph glyph-name="edotaccent" unicode="&#x117;" horiz-adv-x="534" 
d="M482 279q0 -7 -1 -19t-3 -18h-362q1 -57 16 -95t39 -60.5t54.5 -31.5t62.5 -9q46 0 86.5 15.5t69.5 32.5l25 -49q-37 -23 -84 -39.5t-100 -16.5q-59 0 -103 19.5t-73 54t-44 82.5t-15 105q0 58 14.5 106t43 82.5t70 53t95.5 18.5q53 0 92 -18t65 -49t39 -73t13 -91z
M418 295q-2 74 -38 116.5t-107 42.5q-26 0 -51.5 -7t-47 -25t-36.5 -49t-20 -78h300zM327 642q0 -22 -15.5 -38t-37.5 -16t-37 16t-15 38q0 23 15 38.5t37 15.5t37.5 -15.5t15.5 -38.5z" />
    <glyph glyph-name="Ecaron" unicode="&#x11a;" horiz-adv-x="515" 
d="M467 0h-387v686h378v-60h-312v-250h274v-60h-274v-256h329zM158 923l111 -91h2l111 91l32 -42l-144 -112l-145 112z" />
    <glyph glyph-name="ecaron" unicode="&#x11b;" horiz-adv-x="534" 
d="M482 279q0 -7 -1 -19t-3 -18h-362q1 -57 16 -95t39 -60.5t54.5 -31.5t62.5 -9q46 0 86.5 15.5t69.5 32.5l25 -49q-37 -23 -84 -39.5t-100 -16.5q-59 0 -103 19.5t-73 54t-44 82.5t-15 105q0 58 14.5 106t43 82.5t70 53t95.5 18.5q53 0 92 -18t65 -49t39 -73t13 -91z
M418 295q-2 74 -38 116.5t-107 42.5q-26 0 -51.5 -7t-47 -25t-36.5 -49t-20 -78h300zM165 723l111 -91h2l111 91l32 -42l-144 -112l-145 112z" />
    <glyph glyph-name="Gcircumflex" unicode="&#x11c;" horiz-adv-x="688" 
d="M613 70q-17 -13 -41 -27.5t-54.5 -26.5t-67.5 -19.5t-79 -7.5q-77 0 -135.5 26.5t-98 74t-59.5 112t-20 140.5q0 80 23 145.5t65.5 112t102 71.5t131.5 25q63 0 113 -18t92 -50l-35 -47q-46 30 -84.5 42.5t-85.5 12.5q-57 0 -103.5 -22t-79.5 -61t-51.5 -92.5
t-18.5 -115.5q0 -63 15 -117t45.5 -93.5t76 -62.5t107.5 -23q57 0 103.5 15t75.5 35v181h-113v53h176v-263v0zM481 769l-110 92h-3l-111 -92l-32 43l145 111l144 -111z" />
    <glyph glyph-name="gcircumflex" unicode="&#x11d;" horiz-adv-x="545" 
d="M475 -3q0 -45 -13 -82.5t-40.5 -64.5t-69.5 -42.5t-99 -15.5q-38 0 -79 10t-70 22l16 56q10 -5 25.5 -10t33.5 -10t37 -8t37 -3q83 0 121 40t38 107v64h-2q-26 -22 -63.5 -41t-84.5 -19q-99 0 -155.5 63t-56.5 188q0 57 14.5 105t42 82.5t67 54t88.5 19.5q23 0 46 -6
t43 -16t36 -23t26 -27h2q0 10 2 28.5t6 32.5h52v-504zM412 378q-22 29 -60 53t-84 24q-37 0 -65.5 -14.5t-47.5 -41.5t-29 -64.5t-10 -83.5q0 -100 38.5 -147t113.5 -47q21 0 42 6t39.5 16.5t34.5 23t28 26.5v249zM384 569l-110 92h-3l-111 -92l-32 43l145 111l144 -111z
" />
    <glyph glyph-name="Gbreve" unicode="&#x11e;" horiz-adv-x="688" 
d="M613 70q-17 -13 -41 -27.5t-54.5 -26.5t-67.5 -19.5t-79 -7.5q-77 0 -135.5 26.5t-98 74t-59.5 112t-20 140.5q0 80 23 145.5t65.5 112t102 71.5t131.5 25q63 0 113 -18t92 -50l-35 -47q-46 30 -84.5 42.5t-85.5 12.5q-57 0 -103.5 -22t-79.5 -61t-51.5 -92.5
t-18.5 -115.5q0 -63 15 -117t45.5 -93.5t76 -62.5t107.5 -23q57 0 103.5 15t75.5 35v181h-113v53h176v-263v0zM509 861q-24 -37 -57.5 -60t-71.5 -23t-71 23t-56 60l35 34q26 -32 47.5 -48.5t44.5 -16.5t45.5 16.5t47.5 48.5l36 -34v0z" />
    <glyph glyph-name="gbreve" unicode="&#x11f;" horiz-adv-x="545" 
d="M475 -3q0 -45 -13 -82.5t-40.5 -64.5t-69.5 -42.5t-99 -15.5q-38 0 -79 10t-70 22l16 56q10 -5 25.5 -10t33.5 -10t37 -8t37 -3q83 0 121 40t38 107v64h-2q-26 -22 -63.5 -41t-84.5 -19q-99 0 -155.5 63t-56.5 188q0 57 14.5 105t42 82.5t67 54t88.5 19.5q23 0 46 -6
t43 -16t36 -23t26 -27h2q0 10 2 28.5t6 32.5h52v-504zM412 378q-22 29 -60 53t-84 24q-37 0 -65.5 -14.5t-47.5 -41.5t-29 -64.5t-10 -83.5q0 -100 38.5 -147t113.5 -47q21 0 42 6t39.5 16.5t34.5 23t28 26.5v249zM400 661q-24 -37 -57.5 -60t-71.5 -23t-71 23t-56 60l35 34
q26 -32 47.5 -48.5t44.5 -16.5t45.5 16.5t47.5 48.5l36 -34v0z" />
    <glyph glyph-name="Gdotaccent" unicode="&#x120;" horiz-adv-x="688" 
d="M613 70q-17 -13 -41 -27.5t-54.5 -26.5t-67.5 -19.5t-79 -7.5q-77 0 -135.5 26.5t-98 74t-59.5 112t-20 140.5q0 80 23 145.5t65.5 112t102 71.5t131.5 25q63 0 113 -18t92 -50l-35 -47q-46 30 -84.5 42.5t-85.5 12.5q-57 0 -103.5 -22t-79.5 -61t-51.5 -92.5
t-18.5 -115.5q0 -63 15 -117t45.5 -93.5t76 -62.5t107.5 -23q57 0 103.5 15t75.5 35v181h-113v53h176v-263v0zM426 842q0 -22 -15.5 -38t-37.5 -16t-37 16t-15 38q0 23 15 38.5t37 15.5t37.5 -15.5t15.5 -38.5z" />
    <glyph glyph-name="gdotaccent" unicode="&#x121;" horiz-adv-x="545" 
d="M475 -3q0 -45 -13 -82.5t-40.5 -64.5t-69.5 -42.5t-99 -15.5q-38 0 -79 10t-70 22l16 56q10 -5 25.5 -10t33.5 -10t37 -8t37 -3q83 0 121 40t38 107v64h-2q-26 -22 -63.5 -41t-84.5 -19q-99 0 -155.5 63t-56.5 188q0 57 14.5 105t42 82.5t67 54t88.5 19.5q23 0 46 -6
t43 -16t36 -23t26 -27h2q0 10 2 28.5t6 32.5h52v-504zM412 378q-22 29 -60 53t-84 24q-37 0 -65.5 -14.5t-47.5 -41.5t-29 -64.5t-10 -83.5q0 -100 38.5 -147t113.5 -47q21 0 42 6t39.5 16.5t34.5 23t28 26.5v249zM335 642q0 -22 -15.5 -38t-37.5 -16t-37 16t-15 38
q0 23 15 38.5t37 15.5t37.5 -15.5t15.5 -38.5z" />
    <glyph glyph-name="Hcircumflex" unicode="&#x124;" horiz-adv-x="640" 
d="M495 0v315h-349v-315h-66v686h66v-311h348v311h67v-686h-66zM431 769l-110 92h-3l-111 -92l-32 43l145 111l144 -111z" />
    <glyph glyph-name="hcircumflex" unicode="&#x125;" horiz-adv-x="543" 
d="M411 0v301q0 74 -25.5 114t-87.5 40q-27 0 -51.5 -11.5t-45 -27t-36 -31.5t-24.5 -26v-359h-63v739h63v-315h2q8 12 23.5 27t36.5 28.5t46.5 23t55.5 9.5q35 0 66 -12t54 -36.5t36 -62.5t13 -90v-311h-63zM221 769l-110 92h-3l-111 -92l-32 43l145 111l144 -111z" />
    <glyph glyph-name="Itilde" unicode="&#x128;" horiz-adv-x="226" 
d="M80 0v686h66v-686h-66zM240 858q-3 -7 -9.5 -16.5t-15.5 -17.5t-21 -14t-28 -6q-18 0 -32.5 6t-27 12.5t-23.5 12.5t-21 6q-13 0 -21.5 -8.5t-16.5 -19.5l-36 22q3 7 9 16.5t15 17.5t21.5 14t27.5 6q18 0 32.5 -6t27 -12.5t23.5 -12.5t22 -6q13 0 21.5 8.5t16.5 19.5
l36 -22v0z" />
    <glyph glyph-name="itilde" unicode="&#x129;" horiz-adv-x="247" 
d="M92 0v501h63v-501h-63zM250 658q-3 -7 -9.5 -16.5t-15.5 -17.5t-21 -14t-28 -6q-18 0 -32.5 6t-27 12.5t-23.5 12.5t-21 6q-13 0 -21.5 -8.5t-16.5 -19.5l-36 22q3 7 9 16.5t15 17.5t21.5 14t27.5 6q18 0 32.5 -6t27 -12.5t23.5 -12.5t22 -6q13 0 21.5 8.5t16.5 19.5
l36 -22v0z" />
    <glyph glyph-name="Imacron" unicode="&#x12a;" horiz-adv-x="226" 
d="M80 0v686h66v-686h-66zM-7 822v57h242v-57h-242z" />
    <glyph glyph-name="imacron" unicode="&#x12b;" horiz-adv-x="247" 
d="M92 0v501h63v-501h-63zM3 622v57h242v-57h-242z" />
    <glyph glyph-name="Ibreve" unicode="&#x12c;" horiz-adv-x="226" 
d="M80 0v686h66v-686h-66zM242 861q-24 -37 -57.5 -60t-71.5 -23t-71 23t-56 60l35 34q26 -32 47.5 -48.5t44.5 -16.5t45.5 16.5t47.5 48.5l36 -34v0z" />
    <glyph glyph-name="ibreve" unicode="&#x12d;" horiz-adv-x="247" 
d="M92 0v501h63v-501h-63zM252 661q-24 -37 -57.5 -60t-71.5 -23t-71 23t-56 60l35 34q26 -32 47.5 -48.5t44.5 -16.5t45.5 16.5t47.5 48.5l36 -34v0z" />
    <glyph glyph-name="Idotaccent" unicode="&#x130;" horiz-adv-x="226" 
d="M80 0v686h66v-686h-66zM165 842q0 -22 -15.5 -38t-37.5 -16t-37 16t-15 38q0 23 15 38.5t37 15.5t37.5 -15.5t15.5 -38.5z" />
    <glyph glyph-name="IJ" unicode="&#x132;" horiz-adv-x="451" 
d="M80 0v686h66v-686h-66zM371 -8q0 -38 -9.5 -72t-30 -60t-53 -41.5t-79.5 -15.5q-14 0 -31 2.5t-31 5.5l9 59q12 -3 25.5 -5t27.5 -2q36 0 57.5 13t32 33.5t13.5 45t3 47.5v684h66v-694v0z" />
    <glyph glyph-name="ij" unicode="&#x133;" horiz-adv-x="421" 
d="M92 0v501h63v-501h-63zM173 659q0 -20 -14.5 -34.5t-34.5 -14.5q-21 0 -35.5 14.5t-14.5 34.5t14.5 34t35.5 14q20 0 34.5 -14t14.5 -34zM347 -58q0 -75 -39 -112.5t-104 -37.5q-25 0 -49 5t-43 13l14 54q17 -6 37 -10.5t41 -4.5q36 0 58 25t22 80v547h63v-559zM366 659
q0 -20 -15 -34.5t-35 -14.5t-35 14.5t-15 34.5t15 34t35 14t35 -14t15 -34z" />
    <glyph glyph-name="Jcircumflex" unicode="&#x134;" horiz-adv-x="225" 
d="M145 -8q0 -38 -9.5 -72t-30 -60t-53 -41.5t-79.5 -15.5q-14 0 -31 2.5t-31 5.5l9 59q12 -3 25.5 -5t27.5 -2q36 0 57.5 13t32 33.5t13.5 45t3 47.5v684h66v-694v0zM226 769l-110 92h-3l-111 -92l-32 43l145 111l144 -111z" />
    <glyph glyph-name="jcircumflex" unicode="&#x135;" horiz-adv-x="222" 
d="M148 -58q0 -75 -39 -112.5t-104 -37.5q-25 0 -49 5t-43 13l14 54q17 -6 37 -10.5t41 -4.5q36 0 58 25t22 80v547h63v-559zM228 569l-110 92h-3l-111 -92l-32 43l145 111l144 -111z" />
    <glyph glyph-name="Lacute" unicode="&#x139;" horiz-adv-x="484" 
d="M454 0h-374v686h66v-626h317zM74 766l-29 33l136 129l40 -46z" />
    <glyph glyph-name="lacute" unicode="&#x13a;" horiz-adv-x="264" 
d="M216 -11q-39 0 -66 12t-44 32t-24.5 45.5t-7.5 52.5v608h63v-603q0 -17 4 -33.5t13.5 -29t26.5 -20t43 -7.5zM76 766l-29 33l136 129l40 -46z" />
    <glyph glyph-name="Lcommaaccent" unicode="&#x13b;" horiz-adv-x="484" 
d="M325 -109q0 -26 -11 -44.5t-28 -30t-37 -17.5t-38 -7l-12 37q10 3 22 6.5t22.5 10t17.5 16.5t7 25q0 17 -8 31t-20 25l51 14q14 -11 24 -27.5t10 -38.5zM454 0h-374v686h66v-626h317z" />
    <glyph glyph-name="Lcaron" unicode="&#x13d;" horiz-adv-x="484" 
d="M350 621q0 -29 -7.5 -50t-19.5 -35t-26 -22.5t-27 -12.5l-24 35q18 8 32.5 25.5t14.5 52.5q0 20 -6 37.5t-17 29.5l52 16q12 -12 20 -31.5t8 -44.5zM454 0h-374v686h66v-626h317z" />
    <glyph glyph-name="Ldot" unicode="&#x13f;" horiz-adv-x="484" 
d="M454 0h-374v686h66v-626h317zM344 290q0 -22 -15.5 -38t-37.5 -16t-37 16t-15 38q0 23 15 38.5t37 15.5t37.5 -15.5t15.5 -38.5z" />
    <glyph glyph-name="ldot" unicode="&#x140;" horiz-adv-x="265" 
d="M216 -11q-39 0 -66 12t-44 32t-24.5 45.5t-7.5 52.5v608h63v-603q0 -17 4 -33.5t13.5 -29t26.5 -20t43 -7.5zM291 290q0 -22 -15.5 -38t-37.5 -16t-37 16t-15 38q0 23 15 38.5t37 15.5t37.5 -15.5t15.5 -38.5z" />
    <glyph glyph-name="Nacute" unicode="&#x143;" horiz-adv-x="627" 
d="M481 0l-337 569h-3v-569h-66v674l75 12l333 -565h3v565h66v-686h-71zM254 766l-29 33l136 129l40 -46z" />
    <glyph glyph-name="nacute" unicode="&#x144;" horiz-adv-x="541" 
d="M408 0v303q0 74 -24.5 113t-82.5 39q-27 0 -52 -10t-46 -24.5t-37.5 -31t-28.5 -30.5v-359h-63v501h52q1 -6 2.5 -17t3 -23t2 -22.5t0.5 -16.5h2q11 13 27 29t37.5 29.5t48 22.5t58.5 9q37 0 67 -12t51.5 -37t33.5 -62t12 -88v-313h-63zM211 566l-29 33l136 129l40 -46z
" />
    <glyph glyph-name="Ncaron" unicode="&#x147;" horiz-adv-x="627" 
d="M481 0l-337 569h-3v-569h-66v674l75 12l333 -565h3v565h66v-686h-71zM202 923l111 -91h2l111 91l32 -42l-144 -112l-145 112z" />
    <glyph glyph-name="ncaron" unicode="&#x148;" horiz-adv-x="541" 
d="M408 0v303q0 74 -24.5 113t-82.5 39q-27 0 -52 -10t-46 -24.5t-37.5 -31t-28.5 -30.5v-359h-63v501h52q1 -6 2.5 -17t3 -23t2 -22.5t0.5 -16.5h2q11 13 27 29t37.5 29.5t48 22.5t58.5 9q37 0 67 -12t51.5 -37t33.5 -62t12 -88v-313h-63zM159 723l111 -91h2l111 91l32 -42
l-144 -112l-145 112z" />
    <glyph glyph-name="Omacron" unicode="&#x14c;" horiz-adv-x="688" 
d="M630 343q0 -77 -17.5 -141.5t-52.5 -112t-89 -74t-127 -26.5q-74 0 -127.5 26.5t-89 74t-52.5 112t-17 141.5q0 81 17 146t52.5 111t89 71t127.5 25q73 0 127 -25t89 -71t52.5 -111t17.5 -146zM561 345q0 62 -12.5 115.5t-39 92.5t-67.5 61t-98 22t-98 -22t-67.5 -61
t-39 -92.5t-12.5 -115.5q0 -63 12.5 -117t39 -94t67.5 -62.5t98 -22.5t98 23t67 63t38.5 94t12.5 116h1zM223 822v57h242v-57h-242z" />
    <glyph glyph-name="omacron" unicode="&#x14d;" horiz-adv-x="556" 
d="M506 251q0 -57 -15 -105t-44 -83t-71.5 -54.5t-97.5 -19.5t-97.5 19.5t-71.5 54.5t-44 83t-15 105q0 60 15 108t44 82t71.5 52.5t97.5 18.5q57 0 99.5 -18.5t71 -52.5t43 -82t14.5 -108zM439 252q0 92 -39 147.5t-122 55.5q-81 0 -121.5 -55t-40.5 -148t41 -149.5
t121 -56.5q39 0 69.5 15t50.5 42t30.5 65t10.5 84zM157 622v57h242v-57h-242z" />
    <glyph glyph-name="Obreve" unicode="&#x14e;" horiz-adv-x="688" 
d="M630 343q0 -77 -17.5 -141.5t-52.5 -112t-89 -74t-127 -26.5q-74 0 -127.5 26.5t-89 74t-52.5 112t-17 141.5q0 81 17 146t52.5 111t89 71t127.5 25q73 0 127 -25t89 -71t52.5 -111t17.5 -146zM561 345q0 62 -12.5 115.5t-39 92.5t-67.5 61t-98 22t-98 -22t-67.5 -61
t-39 -92.5t-12.5 -115.5q0 -63 12.5 -117t39 -94t67.5 -62.5t98 -22.5t98 23t67 63t38.5 94t12.5 116h1zM472 861q-24 -37 -57.5 -60t-71.5 -23t-71 23t-56 60l35 34q26 -32 47.5 -48.5t44.5 -16.5t45.5 16.5t47.5 48.5l36 -34v0z" />
    <glyph glyph-name="obreve" unicode="&#x14f;" horiz-adv-x="556" 
d="M506 251q0 -57 -15 -105t-44 -83t-71.5 -54.5t-97.5 -19.5t-97.5 19.5t-71.5 54.5t-44 83t-15 105q0 60 15 108t44 82t71.5 52.5t97.5 18.5q57 0 99.5 -18.5t71 -52.5t43 -82t14.5 -108zM439 252q0 92 -39 147.5t-122 55.5q-81 0 -121.5 -55t-40.5 -148t41 -149.5
t121 -56.5q39 0 69.5 15t50.5 42t30.5 65t10.5 84zM406 661q-24 -37 -57.5 -60t-71.5 -23t-71 23t-56 60l35 34q26 -32 47.5 -48.5t44.5 -16.5t45.5 16.5t47.5 48.5l36 -34v0z" />
    <glyph glyph-name="Ohungarumlaut" unicode="&#x150;" horiz-adv-x="688" 
d="M630 343q0 -77 -17.5 -141.5t-52.5 -112t-89 -74t-127 -26.5q-74 0 -127.5 26.5t-89 74t-52.5 112t-17 141.5q0 81 17 146t52.5 111t89 71t127.5 25q73 0 127 -25t89 -71t52.5 -111t17.5 -146zM561 345q0 62 -12.5 115.5t-39 92.5t-67.5 61t-98 22t-98 -22t-67.5 -61
t-39 -92.5t-12.5 -115.5q0 -63 12.5 -117t39 -94t67.5 -62.5t98 -22.5t98 23t67 63t38.5 94t12.5 116h1zM441 770l-32 30l124 131l45 -42zM245 770l-32 30l124 131l44 -42z" />
    <glyph glyph-name="ohungarumlaut" unicode="&#x151;" horiz-adv-x="556" 
d="M506 251q0 -57 -15 -105t-44 -83t-71.5 -54.5t-97.5 -19.5t-97.5 19.5t-71.5 54.5t-44 83t-15 105q0 60 15 108t44 82t71.5 52.5t97.5 18.5q57 0 99.5 -18.5t71 -52.5t43 -82t14.5 -108zM439 252q0 92 -39 147.5t-122 55.5q-81 0 -121.5 -55t-40.5 -148t41 -149.5
t121 -56.5q39 0 69.5 15t50.5 42t30.5 65t10.5 84zM373 570l-32 30l124 131l45 -42zM177 570l-32 30l124 131l44 -42z" />
    <glyph glyph-name="Racute" unicode="&#x154;" horiz-adv-x="548" 
d="M455 0l-106 195q-9 16 -20.5 34t-26.5 34t-32.5 26.5t-37.5 10.5h-86v-300h-66v685h203q55 0 94.5 -14t65.5 -38.5t38.5 -59.5t12.5 -77q0 -71 -38.5 -122t-118.5 -67v-2q12 -6 23 -17.5t20 -24t15 -23t9 -15.5l122 -225h-71zM424 495q0 63 -32.5 97t-110.5 34h-135v-268
h136q71 0 106.5 35.5t35.5 101.5zM215 766l-29 33l136 129l40 -46z" />
    <glyph glyph-name="racute" unicode="&#x155;" horiz-adv-x="339" 
d="M317 449q-7 2 -17.5 4t-22.5 2q-23 0 -47.5 -14t-45 -37t-34 -51.5t-13.5 -58.5v-294h-63v501h52q1 -8 2.5 -19.5t3 -24t2 -25t0.5 -22.5h3q6 13 19.5 30.5t32.5 33.5t42 27t47 11q17 0 29.5 -2.5t21.5 -5.5zM150 566l-29 33l136 129l40 -46z" />
    <glyph glyph-name="Rcommaaccent" unicode="&#x156;" horiz-adv-x="548" 
d="M337 -109q0 -26 -11 -44.5t-28 -30t-37 -17.5t-38 -7l-12 37q10 3 22 6.5t22.5 10t17.5 16.5t7 25q0 17 -8 31t-20 25l51 14q14 -11 24 -27.5t10 -38.5zM455 0l-106 195q-9 16 -20.5 34t-26.5 34t-32.5 26.5t-37.5 10.5h-86v-300h-66v685h203q55 0 94.5 -14t65.5 -38.5
t38.5 -59.5t12.5 -77q0 -71 -38.5 -122t-118.5 -67v-2q12 -6 23 -17.5t20 -24t15 -23t9 -15.5l122 -225h-71zM424 495q0 63 -32.5 97t-110.5 34h-135v-268h136q71 0 106.5 35.5t35.5 101.5z" />
    <glyph glyph-name="Rcaron" unicode="&#x158;" horiz-adv-x="548" 
d="M455 0l-106 195q-9 16 -20.5 34t-26.5 34t-32.5 26.5t-37.5 10.5h-86v-300h-66v685h203q55 0 94.5 -14t65.5 -38.5t38.5 -59.5t12.5 -77q0 -71 -38.5 -122t-118.5 -67v-2q12 -6 23 -17.5t20 -24t15 -23t9 -15.5l122 -225h-71zM424 495q0 63 -32.5 97t-110.5 34h-135v-268
h136q71 0 106.5 35.5t35.5 101.5zM152 923l111 -91h2l111 91l32 -42l-144 -112l-145 112z" />
    <glyph glyph-name="rcaron" unicode="&#x159;" horiz-adv-x="339" 
d="M317 449q-7 2 -17.5 4t-22.5 2q-23 0 -47.5 -14t-45 -37t-34 -51.5t-13.5 -58.5v-294h-63v501h52q1 -8 2.5 -19.5t3 -24t2 -25t0.5 -22.5h3q6 13 19.5 30.5t32.5 33.5t42 27t47 11q17 0 29.5 -2.5t21.5 -5.5zM90 723l111 -91h2l111 91l32 -42l-144 -112l-145 112z" />
    <glyph glyph-name="Sacute" unicode="&#x15a;" horiz-adv-x="498" 
d="M451 182q0 -44 -17 -79.5t-47 -61t-71 -39t-88 -13.5q-63 0 -114.5 20.5t-88.5 46.5l26 53q15 -11 35 -21.5t43 -19t48 -14t51 -5.5q72 0 113 33.5t41 95.5q0 42 -24 67.5t-59.5 44t-77.5 34.5t-77.5 39.5t-59.5 59.5t-24 94q0 41 15.5 74t43 56.5t65 36t81.5 12.5
q27 0 53.5 -5t50 -12.5t43 -17t32.5 -17.5l-26 -51q-25 12 -63.5 27.5t-89.5 15.5q-66 0 -101 -32t-35 -88q0 -43 24 -69.5t59.5 -45.5t77.5 -35t77.5 -39t59.5 -57t24 -88zM200 766l-29 33l136 129l40 -46z" />
    <glyph glyph-name="sacute" unicode="&#x15b;" horiz-adv-x="406" 
d="M361 138q0 -38 -15.5 -65.5t-40.5 -46.5t-56.5 -28t-63.5 -9q-42 0 -84 16t-74 40l28 48q29 -21 64.5 -34t65.5 -13q21 0 41 5t35 15.5t24.5 26.5t9.5 38q0 30 -18 48t-44.5 31t-57.5 25t-57.5 29t-44.5 43t-18 67q0 34 14 59.5t36.5 42.5t51 26t58.5 9q40 0 74 -11.5
t67 -31.5l-27 -49q-25 15 -54 25t-60 10q-38 0 -66 -18t-28 -57q0 -30 18 -48.5t44.5 -32t57.5 -25t57.5 -28.5t44.5 -42t18 -65zM144 566l-29 33l136 129l40 -46z" />
    <glyph glyph-name="Scircumflex" unicode="&#x15c;" horiz-adv-x="498" 
d="M451 182q0 -44 -17 -79.5t-47 -61t-71 -39t-88 -13.5q-63 0 -114.5 20.5t-88.5 46.5l26 53q15 -11 35 -21.5t43 -19t48 -14t51 -5.5q72 0 113 33.5t41 95.5q0 42 -24 67.5t-59.5 44t-77.5 34.5t-77.5 39.5t-59.5 59.5t-24 94q0 41 15.5 74t43 56.5t65 36t81.5 12.5
q27 0 53.5 -5t50 -12.5t43 -17t32.5 -17.5l-26 -51q-25 12 -63.5 27.5t-89.5 15.5q-66 0 -101 -32t-35 -88q0 -43 24 -69.5t59.5 -45.5t77.5 -35t77.5 -39t59.5 -57t24 -88zM380 769l-110 92h-3l-111 -92l-32 43l145 111l144 -111z" />
    <glyph glyph-name="scircumflex" unicode="&#x15d;" horiz-adv-x="406" 
d="M361 138q0 -38 -15.5 -65.5t-40.5 -46.5t-56.5 -28t-63.5 -9q-42 0 -84 16t-74 40l28 48q29 -21 64.5 -34t65.5 -13q21 0 41 5t35 15.5t24.5 26.5t9.5 38q0 30 -18 48t-44.5 31t-57.5 25t-57.5 29t-44.5 43t-18 67q0 34 14 59.5t36.5 42.5t51 26t58.5 9q40 0 74 -11.5
t67 -31.5l-27 -49q-25 15 -54 25t-60 10q-38 0 -66 -18t-28 -57q0 -30 18 -48.5t44.5 -32t57.5 -25t57.5 -28.5t44.5 -42t18 -65zM326 569l-110 92h-3l-111 -92l-32 43l145 111l144 -111z" />
    <glyph glyph-name="Scaron" unicode="&#x160;" horiz-adv-x="498" 
d="M451 182q0 -44 -17 -79.5t-47 -61t-71 -39t-88 -13.5q-63 0 -114.5 20.5t-88.5 46.5l26 53q15 -11 35 -21.5t43 -19t48 -14t51 -5.5q72 0 113 33.5t41 95.5q0 42 -24 67.5t-59.5 44t-77.5 34.5t-77.5 39.5t-59.5 59.5t-24 94q0 41 15.5 74t43 56.5t65 36t81.5 12.5
q27 0 53.5 -5t50 -12.5t43 -17t32.5 -17.5l-26 -51q-25 12 -63.5 27.5t-89.5 15.5q-66 0 -101 -32t-35 -88q0 -43 24 -69.5t59.5 -45.5t77.5 -35t77.5 -39t59.5 -57t24 -88zM147 923l111 -91h2l111 91l32 -42l-144 -112l-145 112z" />
    <glyph glyph-name="scaron" unicode="&#x161;" horiz-adv-x="406" 
d="M361 138q0 -38 -15.5 -65.5t-40.5 -46.5t-56.5 -28t-63.5 -9q-42 0 -84 16t-74 40l28 48q29 -21 64.5 -34t65.5 -13q21 0 41 5t35 15.5t24.5 26.5t9.5 38q0 30 -18 48t-44.5 31t-57.5 25t-57.5 29t-44.5 43t-18 67q0 34 14 59.5t36.5 42.5t51 26t58.5 9q40 0 74 -11.5
t67 -31.5l-27 -49q-25 15 -54 25t-60 10q-38 0 -66 -18t-28 -57q0 -30 18 -48.5t44.5 -32t57.5 -25t57.5 -28.5t44.5 -42t18 -65zM103 723l111 -91h2l111 91l32 -42l-144 -112l-145 112z" />
    <glyph glyph-name="Tcaron" unicode="&#x164;" horiz-adv-x="496" 
d="M466 626h-186v-626h-66v625h-192v61h453zM136 923l111 -91h2l111 91l32 -42l-144 -112l-145 112z" />
    <glyph glyph-name="Utilde" unicode="&#x168;" horiz-adv-x="632" 
d="M557 231q0 -115 -59 -178.5t-179 -63.5q-121 0 -180 63t-59 177v456h66v-463q0 -80 40 -126.5t133 -46.5q92 0 132 46t40 126v464h66v-454v0zM442 858q-3 -7 -9.5 -16.5t-15.5 -17.5t-21 -14t-28 -6q-18 0 -32.5 6t-27 12.5t-23.5 12.5t-21 6q-13 0 -21.5 -8.5
t-16.5 -19.5l-36 22q3 7 9 16.5t15 17.5t21.5 14t27.5 6q18 0 32.5 -6t27 -12.5t23.5 -12.5t22 -6q13 0 21.5 8.5t16.5 19.5l36 -22v0z" />
    <glyph glyph-name="utilde" unicode="&#x169;" horiz-adv-x="541" 
d="M419 0q-2 6 -3 17t-2.5 23t-2 22.5t-0.5 16.5h-2q-11 -13 -27 -29t-37.5 -29.5t-48.5 -22.5t-58 -9q-74 0 -119 48.5t-45 149.5v314h63v-304q0 -74 24.5 -112.5t82.5 -38.5q27 0 52 10t46 24.5t37.5 31t28.5 30.5v359h63v-501h-52zM396 658q-3 -7 -9.5 -16.5t-15.5 -17.5
t-21 -14t-28 -6q-18 0 -32.5 6t-27 12.5t-23.5 12.5t-21 6q-13 0 -21.5 -8.5t-16.5 -19.5l-36 22q3 7 9 16.5t15 17.5t21.5 14t27.5 6q18 0 32.5 -6t27 -12.5t23.5 -12.5t22 -6q13 0 21.5 8.5t16.5 19.5l36 -22v0z" />
    <glyph glyph-name="Umacron" unicode="&#x16a;" horiz-adv-x="632" 
d="M557 231q0 -115 -59 -178.5t-179 -63.5q-121 0 -180 63t-59 177v456h66v-463q0 -80 40 -126.5t133 -46.5q92 0 132 46t40 126v464h66v-454v0zM195 822v57h242v-57h-242z" />
    <glyph glyph-name="umacron" unicode="&#x16b;" horiz-adv-x="541" 
d="M419 0q-2 6 -3 17t-2.5 23t-2 22.5t-0.5 16.5h-2q-11 -13 -27 -29t-37.5 -29.5t-48.5 -22.5t-58 -9q-74 0 -119 48.5t-45 149.5v314h63v-304q0 -74 24.5 -112.5t82.5 -38.5q27 0 52 10t46 24.5t37.5 31t28.5 30.5v359h63v-501h-52zM149 622v57h242v-57h-242z" />
    <glyph glyph-name="Ubreve" unicode="&#x16c;" horiz-adv-x="632" 
d="M557 231q0 -115 -59 -178.5t-179 -63.5q-121 0 -180 63t-59 177v456h66v-463q0 -80 40 -126.5t133 -46.5q92 0 132 46t40 126v464h66v-454v0zM444 861q-24 -37 -57.5 -60t-71.5 -23t-71 23t-56 60l35 34q26 -32 47.5 -48.5t44.5 -16.5t45.5 16.5t47.5 48.5l36 -34v0z" />
    <glyph glyph-name="ubreve" unicode="&#x16d;" horiz-adv-x="541" 
d="M419 0q-2 6 -3 17t-2.5 23t-2 22.5t-0.5 16.5h-2q-11 -13 -27 -29t-37.5 -29.5t-48.5 -22.5t-58 -9q-74 0 -119 48.5t-45 149.5v314h63v-304q0 -74 24.5 -112.5t82.5 -38.5q27 0 52 10t46 24.5t37.5 31t28.5 30.5v359h63v-501h-52zM398 661q-24 -37 -57.5 -60t-71.5 -23
t-71 23t-56 60l35 34q26 -32 47.5 -48.5t44.5 -16.5t45.5 16.5t47.5 48.5l36 -34v0z" />
    <glyph glyph-name="Uring" unicode="&#x16e;" horiz-adv-x="632" 
d="M557 231q0 -115 -59 -178.5t-179 -63.5q-121 0 -180 63t-59 177v456h66v-463q0 -80 40 -126.5t133 -46.5q92 0 132 46t40 126v464h66v-454v0zM398 846q0 -34 -24 -58t-58 -24t-58 24t-24 58q0 35 24 58.5t58 23.5t58 -23.5t24 -58.5zM359 846q0 18 -12.5 31.5t-30.5 13.5
t-30.5 -13.5t-12.5 -31.5t12.5 -31t30.5 -13t30.5 13t12.5 31z" />
    <glyph glyph-name="uring" unicode="&#x16f;" horiz-adv-x="541" 
d="M419 0q-2 6 -3 17t-2.5 23t-2 22.5t-0.5 16.5h-2q-11 -13 -27 -29t-37.5 -29.5t-48.5 -22.5t-58 -9q-74 0 -119 48.5t-45 149.5v314h63v-304q0 -74 24.5 -112.5t82.5 -38.5q27 0 52 10t46 24.5t37.5 31t28.5 30.5v359h63v-501h-52zM352 646q0 -34 -24 -58t-58 -24t-58 24
t-24 58q0 35 24 58.5t58 23.5t58 -23.5t24 -58.5zM313 646q0 18 -12.5 31.5t-30.5 13.5t-30.5 -13.5t-12.5 -31.5t12.5 -31t30.5 -13t30.5 13t12.5 31z" />
    <glyph glyph-name="Uhungarumlaut" unicode="&#x170;" horiz-adv-x="632" 
d="M557 231q0 -115 -59 -178.5t-179 -63.5q-121 0 -180 63t-59 177v456h66v-463q0 -80 40 -126.5t133 -46.5q92 0 132 46t40 126v464h66v-454v0zM401 770l-32 30l124 131l45 -42zM205 770l-32 30l124 131l44 -42z" />
    <glyph glyph-name="uhungarumlaut" unicode="&#x171;" horiz-adv-x="541" 
d="M419 0q-2 6 -3 17t-2.5 23t-2 22.5t-0.5 16.5h-2q-11 -13 -27 -29t-37.5 -29.5t-48.5 -22.5t-58 -9q-74 0 -119 48.5t-45 149.5v314h63v-304q0 -74 24.5 -112.5t82.5 -38.5q27 0 52 10t46 24.5t37.5 31t28.5 30.5v359h63v-501h-52zM366 570l-32 30l124 131l45 -42z
M170 570l-32 30l124 131l44 -42z" />
    <glyph glyph-name="Wcircumflex" unicode="&#x174;" horiz-adv-x="833" 
d="M661 0h-87l-121 387q-4 11 -9 29l-27 90h-3l-27 -90q-5 -18 -9 -29l-120 -387h-86l-150 685h67l71 -319q3 -16 11 -52q7 -31 19 -85.5t32 -142.5h3q27 88 43.5 142.5t26.5 85.5q11 36 17 52l64 205l83 6l67 -211q6 -16 17 -52q10 -31 27 -85.5t46 -142.5h2
q19 88 31 142.5t19 85.5q8 36 11 52l67 319h65zM528 769l-110 92h-3l-111 -92l-32 43l145 111l144 -111z" />
    <glyph glyph-name="wcircumflex" unicode="&#x175;" horiz-adv-x="718" 
d="M551 0h-74l-117 422h-2l-115 -422h-73l-145 501h63l80 -286q2 -9 7 -27q5 -16 12 -44t20 -74h3q13 46 20.5 74t12.5 44q5 18 8 27l70 280l77 6l74 -286q3 -9 8 -27q5 -16 12.5 -44t20.5 -74h3q12 46 19 74t12 44q4 18 7 27l79 286h60zM470 569l-110 92h-3l-111 -92
l-32 43l145 111l144 -111z" />
    <glyph glyph-name="Ycircumflex" unicode="&#x176;" horiz-adv-x="538" 
d="M301 293v-293h-63v293l-216 392h70l176 -333h3l175 333h70zM380 769l-110 92h-3l-111 -92l-32 43l145 111l144 -111z" />
    <glyph glyph-name="ycircumflex" unicode="&#x177;" horiz-adv-x="462" 
d="M246 -67q-9 -24 -21 -49.5t-30 -45.5t-43.5 -33t-61.5 -13q-22 0 -43.5 4.5t-31.5 7.5l8 56q10 -4 29 -7.5t34 -3.5q21 0 37 9t28.5 23.5t21.5 33.5t17 39l18 50l-193 497h66l94 -251q3 -8 11 -29q7 -18 19 -51t33 -89h3q19 56 30.5 89t17.5 51q7 21 10 29l84 251h65z
M342 569l-110 92h-3l-111 -92l-32 43l145 111l144 -111z" />
    <glyph glyph-name="Zacute" unicode="&#x179;" horiz-adv-x="521" 
d="M472 0h-426l-6 39l342 586h-322v60h390l20 -36l-343 -586v-3h354zM201 766l-29 33l136 129l40 -46z" />
    <glyph glyph-name="zacute" unicode="&#x17a;" horiz-adv-x="446" 
d="M399 0h-349l-11 46l270 395v3h-250l-6 57h326l14 -46l-269 -395v-3h280zM164 566l-29 33l136 129l40 -46z" />
    <glyph glyph-name="Zdotaccent" unicode="&#x17b;" horiz-adv-x="521" 
d="M472 0h-426l-6 39l342 586h-322v60h390l20 -36l-343 -586v-3h354zM313 842q0 -22 -15.5 -38t-37.5 -16t-37 16t-15 38q0 23 15 38.5t37 15.5t37.5 -15.5t15.5 -38.5z" />
    <glyph glyph-name="zdotaccent" unicode="&#x17c;" horiz-adv-x="446" 
d="M399 0h-349l-11 46l270 395v3h-250l-6 57h326l14 -46l-269 -395v-3h280zM275 642q0 -22 -15.5 -38t-37.5 -16t-37 16t-15 38q0 23 15 38.5t37 15.5t37.5 -15.5t15.5 -38.5z" />
    <glyph glyph-name="Zcaron" unicode="&#x17d;" horiz-adv-x="521" 
d="M472 0h-426l-6 39l342 586h-322v60h390l20 -36l-343 -586v-3h354zM149 923l111 -91h2l111 91l32 -42l-144 -112l-145 112z" />
    <glyph glyph-name="zcaron" unicode="&#x17e;" horiz-adv-x="446" 
d="M399 0h-349l-11 46l270 395v3h-250l-6 57h326l14 -46l-269 -395v-3h280zM111 723l111 -91h2l111 91l32 -42l-144 -112l-145 112z" />
    <glyph glyph-name="amacron" unicode="&#x101;" horiz-adv-x="498" 
d="M374 0q-5 14 -7 32t-2 29h-2q-8 -12 -24 -25t-37 -23.5t-45.5 -17t-49.5 -6.5q-37 0 -66 11t-49.5 30t-31 45t-10.5 55q0 46 21 74.5t53.5 45t72.5 22.5t78 6q26 0 49.5 -2t40.5 -4v51q0 68 -30.5 100t-84.5 32q-38 0 -73.5 -14t-64.5 -36l-32 46q12 9 29 19.5t38.5 19.5
t47.5 15.5t55 6.5q36 0 68 -11.5t56.5 -35.5t39 -60.5t14.5 -87.5v-317h-54zM365 222q-14 2 -37 3.5t-50 1.5q-28 0 -56.5 -3.5t-52 -13.5t-38.5 -28t-15 -46q0 -17 6 -33.5t18 -29t30 -20t43 -7.5q45 0 85 22.5t67 54.5v99zM128 622v57h242v-57h-242z" />
    <glyph glyph-name="Aogonek" unicode="&#x104;" horiz-adv-x="613" 
d="M591 0q-38 -29 -64.5 -60.5t-26.5 -60.5q0 -41 37 -41q11 0 22 3t20 8l11 -41q-12 -8 -27 -12.5t-35 -4.5q-35 0 -58.5 21.5t-23.5 60.5q0 32 24 66t69 61h52zM526 0l-63 180h-311l-63 -180h-67l240 674l86 12l243 -686h-65zM308 623h-3l-134 -387h272z" />
    <glyph glyph-name="aogonek" unicode="&#x105;" horiz-adv-x="498" 
d="M428 0q-38 -29 -64.5 -61t-26.5 -61q0 -40 37 -40q11 0 22 3t20 8l11 -41q-12 -8 -27 -12.5t-35 -4.5q-35 0 -58.5 21.5t-23.5 60.5q0 32 23 66t68 61q-5 14 -7 32t-2 29h-2q-8 -12 -24 -25t-37 -23.5t-45.5 -17t-49.5 -6.5q-37 0 -66 11t-49.5 30t-31 45t-10.5 55
q0 46 21 74.5t53.5 45t72.5 22.5t78 6q26 0 49.5 -2t40.5 -4v51q0 68 -30.5 100t-84.5 32q-38 0 -73.5 -14t-64.5 -36l-32 46q12 9 29 19.5t38.5 19.5t47.5 15.5t55 6.5q36 0 68 -11.5t56.5 -35.5t39 -60.5t14.5 -87.5v-317zM365 222q-14 2 -37 3.5t-50 1.5
q-28 0 -56.5 -3.5t-52 -13.5t-38.5 -28t-15 -46q0 -17 6 -33.5t18 -29t30 -20t43 -7.5q45 0 85 22.5t67 54.5v99z" />
    <glyph glyph-name="dcaron" unicode="&#x10f;" horiz-adv-x="578" 
d="M423 0q-4 14 -6 34.5t-2 30.5h-2q-20 -30 -62 -53t-89 -23q-49 0 -88.5 19t-67 53.5t-42 83.5t-14.5 110q0 59 16 106.5t44.5 81t67 51.5t84.5 18q47 0 85.5 -14t62.5 -34h2v275h63v-739h-52zM412 394q-23 26 -60.5 43.5t-83.5 17.5q-70 0 -111 -53t-41 -147
q0 -100 38.5 -154.5t113.5 -54.5q46 0 84 25t60 57v266zM608 671q0 -29 -7.5 -50t-19.5 -35t-26 -22.5t-27 -12.5l-23 35q18 8 32 25.5t14 52.5q0 20 -6 37.5t-16 29.5l51 16q12 -12 20 -31.5t8 -44.5z" />
    <glyph glyph-name="dcroat" unicode="&#x111;" horiz-adv-x="545" 
d="M423 0q-4 14 -6 34.5t-2 30.5h-2q-20 -30 -62 -53t-89 -23q-49 0 -88.5 19t-67 53.5t-42 83.5t-14.5 110q0 59 16 106.5t44.5 81t67 51.5t84.5 18q47 0 85.5 -14t62.5 -34h2v123h-187v50h187v102h63v-102h74v-50h-74v-587h-52zM412 394q-23 26 -60.5 43.5t-83.5 17.5
q-70 0 -111 -53t-41 -147q0 -100 38.5 -154.5t113.5 -54.5q46 0 84 25t60 57v266z" />
    <glyph glyph-name="Eogonek" unicode="&#x118;" horiz-adv-x="515" 
d="M80 686h378v-60h-312v-250h274v-60h-274v-256h329l-8 -60q-38 -29 -64 -60.5t-26 -60.5q0 -41 36 -41q11 0 22 3t20 8l12 -41q-13 -8 -28 -12.5t-35 -4.5q-35 0 -58.5 21.5t-23.5 60.5q0 32 24 66t69 61h-335v686z" />
    <glyph glyph-name="eogonek" unicode="&#x119;" horiz-adv-x="534" 
d="M469 45q-31 -21 -53.5 -44t-37 -45.5t-21.5 -42.5t-7 -34q0 -41 37 -41q11 0 22 3t20 8l11 -42q-12 -7 -27.5 -11.5t-35.5 -4.5q-35 0 -58 21.5t-23 60.5q0 24 13.5 57.5t43.5 65.5q-17 -3 -34 -5t-34 -2q-59 0 -103 19.5t-73 54t-44 82.5t-15 105q0 58 14.5 106t43 82.5
t70 53t95.5 18.5q53 0 92 -18t65 -49t39 -73t13 -91q0 -7 -1 -19t-3 -18h-362q1 -57 16 -95t39 -60.5t54.5 -31.5t62.5 -9q46 0 86.5 15.5t69.5 32.5zM418 295q-2 74 -38 116.5t-107 42.5q-26 0 -51.5 -7t-47 -25t-36.5 -49t-20 -78h300z" />
    <glyph glyph-name="Gcommaaccent" unicode="&#x122;" horiz-adv-x="688" 
d="M417 -109q0 -26 -11 -44.5t-28 -30t-37 -17.5t-38 -7l-12 37q10 3 22 6.5t22.5 10t17.5 16.5t7 25q0 17 -8 31t-20 25l51 14q14 -11 24 -27.5t10 -38.5zM613 70q-17 -13 -41 -27.5t-54.5 -26.5t-67.5 -19.5t-79 -7.5q-77 0 -135.5 26.5t-98 74t-59.5 112t-20 140.5
q0 80 23 145.5t65.5 112t102 71.5t131.5 25q63 0 113 -18t92 -50l-35 -47q-46 30 -84.5 42.5t-85.5 12.5q-57 0 -103.5 -22t-79.5 -61t-51.5 -92.5t-18.5 -115.5q0 -63 15 -117t45.5 -93.5t76 -62.5t107.5 -23q57 0 103.5 15t75.5 35v181h-113v53h176v-263z" />
    <glyph glyph-name="gcommaaccent" unicode="&#x123;" horiz-adv-x="545" 
d="M211 624q0 26 11 44.5t28 30t37 17t38 7.5l12 -37q-10 -3 -22 -6.5t-22.5 -10t-17.5 -16.5t-7 -25q0 -17 8 -31t20 -25l-51 -14q-14 11 -24 27.5t-10 38.5zM475 -3q0 -45 -13 -82.5t-40.5 -64.5t-69.5 -42.5t-99 -15.5q-38 0 -79 10t-70 22l16 56q10 -5 25.5 -10
t33.5 -10t37 -8t37 -3q83 0 121 40t38 107v64h-2q-26 -22 -63.5 -41t-84.5 -19q-99 0 -155.5 63t-56.5 188q0 57 14.5 105t42 82.5t67 54t88.5 19.5q23 0 46 -6t43 -16t36 -23t26 -27h2q0 10 2 28.5t6 32.5h52v-504zM412 378q-22 29 -60 53t-84 24q-37 0 -65.5 -14.5
t-47.5 -41.5t-29 -64.5t-10 -83.5q0 -100 38.5 -147t113.5 -47q21 0 42 6t39.5 16.5t34.5 23t28 26.5v249z" />
    <glyph glyph-name="Hbar" unicode="&#x126;" horiz-adv-x="640" 
d="M494 0v315h-349v-315h-66v519h-42v53h42v114h66v-114h348v114h67v-114h42v-53h-42v-519h-66zM493 375v144h-348v-144h348z" />
    <glyph glyph-name="hbar" unicode="&#x127;" horiz-adv-x="543" 
d="M411 0v301q0 74 -25.5 114t-87.5 40q-27 0 -51.5 -11.5t-45 -27t-36 -31.5t-24.5 -26v-359h-63v587h-75v50h75v102h63v-102h186v-50h-186v-163h2q8 12 23.5 27t36.5 28.5t46.5 23t55.5 9.5q35 0 66 -12t54 -36.5t36 -62.5t13 -90v-311h-63z" />
    <glyph glyph-name="Iogonek" unicode="&#x12e;" horiz-adv-x="225" 
d="M79 686h66v-686q-38 -29 -64.5 -60.5t-26.5 -60.5q0 -41 37 -41q11 0 22 3t19 8l12 -41q-12 -8 -27.5 -12.5t-35.5 -4.5q-35 0 -58 21.5t-23 60.5q0 32 24 66t69 61h-14v686z" />
    <glyph glyph-name="iogonek" unicode="&#x12f;" horiz-adv-x="244" 
d="M174 659q-1 -20 -15 -34.5t-34 -14.5q-21 0 -35.5 14.5t-14.5 34.5t14.5 34t35.5 14q20 0 34.5 -14t14.5 -34zM156 0q-38 -29 -64.5 -61t-26.5 -61q0 -40 37 -40q11 0 22 3t20 8l11 -41q-12 -8 -27 -12.5t-35 -4.5q-35 0 -58.5 21.5t-23.5 60.5q0 32 23 66t68 61h-9v501
h63v-501z" />
    <glyph glyph-name="Kcommaaccent" unicode="&#x136;" horiz-adv-x="551" 
d="M338 -109q0 -26 -11 -44.5t-28 -30t-37 -17.5t-38 -7l-12 37q10 3 22 6.5t22.5 10t17.5 16.5t7 25q0 17 -8 31t-20 25l51 14q14 -11 24 -27.5t10 -38.5zM447 0l-224 310l-77 -105v-205h-66v685h66v-379h2l273 379h74l-232 -320l266 -365h-82z" />
    <glyph glyph-name="kcommaaccent" unicode="&#x137;" horiz-adv-x="487" 
d="M306 -109q0 -26 -11 -44.5t-28 -30t-37 -17.5t-38 -7l-12 37q10 3 22 6.5t22.5 10t17.5 16.5t7 25q0 17 -8 31t-20 25l51 14q14 -11 24 -27.5t10 -38.5zM408 0l-121 225q-11 20 -22.5 31.5t-26.5 11.5q-22 0 -38 -18l-59 -65v-185h-63v739h63v-470l213 232h77l-173 -186
v-2h8q26 0 41 -14t32 -44l138 -255h-69z" />
    <glyph glyph-name="lcommaaccent" unicode="&#x13c;" horiz-adv-x="264" 
d="M195 -109q0 -26 -11 -44.5t-28 -30t-37 -17.5t-38 -7l-12 37q10 3 22 6.5t22.5 10t17.5 16.5t7 25q0 17 -8 31t-20 25l51 14q14 -11 24 -27.5t10 -38.5zM216 -11q-39 0 -66 12t-44 32t-24.5 45.5t-7.5 52.5v608h63v-603q0 -17 4 -33.5t13.5 -29t26.5 -20t43 -7.5z" />
    <glyph glyph-name="lcaron" unicode="&#x13e;" horiz-adv-x="289" 
d="M215 -11q-39 0 -66 12t-44 32t-24.5 45.5t-7.5 52.5v608h63v-603q0 -17 4 -33.5t13.5 -29t26.5 -20t43 -7.5zM280 671q0 -29 -7.5 -50t-19.5 -35t-26 -22.5t-27 -12.5l-24 35q18 8 32.5 25.5t14.5 52.5q0 20 -6 37.5t-17 29.5l52 16q12 -12 20 -31.5t8 -44.5z" />
    <glyph glyph-name="Lslash" unicode="&#x141;" horiz-adv-x="487" 
d="M148 339v-279h317l-9 -60h-374v312l-76 -31v62l76 31v312h66v-286l142 57v-61z" />
    <glyph glyph-name="lslash" unicode="&#x142;" horiz-adv-x="267" 
d="M140 349v-213q0 -17 4 -33.5t13.5 -29t26.5 -20t43 -7.5l-8 -57q-39 0 -66 12t-44 32t-24.5 45.5t-7.5 52.5v191l-70 -29v62l70 29v355h63v-329l70 30v-62z" />
    <glyph glyph-name="Ncommaaccent" unicode="&#x145;" horiz-adv-x="627" 
d="M376 -109q0 -26 -11 -44.5t-28 -30t-37 -17.5t-38 -7l-12 37q10 3 22 6.5t22.5 10t17.5 16.5t7 25q0 17 -8 31t-20 25l51 14q14 -11 24 -27.5t10 -38.5zM481 0l-337 569h-3v-569h-66v674l75 12l333 -565h3v565h66v-686h-71z" />
    <glyph glyph-name="ncommaaccent" unicode="&#x146;" horiz-adv-x="541" 
d="M333 -109q0 -26 -11 -44.5t-28 -30t-37 -17.5t-38 -7l-12 37q10 3 22 6.5t22.5 10t17.5 16.5t7 25q0 17 -8 31t-20 25l51 14q14 -11 24 -27.5t10 -38.5zM408 0v303q0 74 -24.5 113t-82.5 39q-27 0 -52 -10t-46 -24.5t-37.5 -31t-28.5 -30.5v-359h-63v501h52q1 -6 2.5 -17
t3 -23t2 -22.5t0.5 -16.5h2q11 13 27 29t37.5 29.5t48 22.5t58.5 9q37 0 67 -12t51.5 -37t33.5 -62t12 -88v-313h-63z" />
    <glyph glyph-name="OE" unicode="&#x152;" horiz-adv-x="986" 
d="M938 0h-371v99q-35 -52 -90.5 -81t-132.5 -29q-74 0 -127.5 26.5t-89 74t-52.5 112t-17 141.5q0 81 17 146t52.5 111t89 71t127.5 25q77 0 132.5 -27t90.5 -78v94h371v-59h-305v-250h259v-60h-259v-256h313zM561 349q0 61 -12.5 114t-39 91t-67.5 60t-98 22t-98 -22
t-67.5 -61t-39 -92.5t-12.5 -115.5q0 -63 12.5 -117t39 -94t67.5 -62.5t98 -22.5t98 23t67.5 62.5t39 93.5t12.5 117v4z" />
    <glyph glyph-name="oe" unicode="&#x153;" horiz-adv-x="931" 
d="M879 279q0 -7 -1 -19t-3 -18h-362q1 -57 16 -95t39 -60.5t54.5 -31.5t62.5 -9q46 0 86.5 15.5t69.5 32.5l25 -49q-37 -23 -84 -39.5t-100 -16.5q-78 0 -129.5 32.5t-77.5 89.5q-26 -57 -75.5 -89.5t-121.5 -32.5q-55 0 -97.5 19.5t-71.5 54.5t-44 83t-15 105q0 60 15 108
t44 82t71.5 52.5t97.5 18.5q75 0 123.5 -31t74.5 -87q26 55 75 85.5t119 30.5q53 0 92 -18t65 -49t39 -73t13 -91zM443 252q0 92 -41 147.5t-124 55.5q-81 0 -121.5 -55t-40.5 -148t41 -149.5t121 -56.5q39 0 70 15t52 42t32 65t11 84zM815 295q-2 74 -38 116.5t-107 42.5
q-26 0 -51.5 -7t-47 -25t-36.5 -49t-20 -78h300z" />
    <glyph glyph-name="rcommaaccent" unicode="&#x157;" horiz-adv-x="367" 
d="M160 -109q0 -26 -11 -44.5t-28 -30t-37 -17.5t-38 -7l-12 37q10 3 22 6.5t22.5 10t17.5 16.5t7 25q0 17 -8 31t-20 25l51 14q14 -11 24 -27.5t10 -38.5zM317 449q-7 2 -17.5 4t-22.5 2q-23 0 -47.5 -14t-45 -37t-34 -51.5t-13.5 -58.5v-294h-63v501h52q1 -8 2.5 -19.5
t3 -24t2 -25t0.5 -22.5h3q6 13 19.5 30.5t32.5 33.5t42 27t47 11q17 0 29.5 -2.5t21.5 -5.5z" />
    <glyph glyph-name="Scedilla" unicode="&#x15e;" horiz-adv-x="498" 
d="M332 -124q0 -16 -5.5 -31.5t-16.5 -27.5t-29 -19.5t-42 -7.5q-18 0 -40 6t-34 13l11 43q11 -5 28.5 -10t32.5 -5q25 0 35 12.5t10 26.5q0 13 -10 24.5t-35 11.5q-6 0 -16.5 -1t-27.5 -5l12 84q-56 4 -101.5 23.5t-78.5 42.5l26 53q15 -11 35 -21.5t43 -19t48 -14t51 -5.5
q72 0 113 33.5t41 95.5q0 42 -24 67.5t-59.5 44t-77.5 34.5t-77.5 39.5t-59.5 59.5t-24 94q0 41 15.5 74t43 56.5t65 36t81.5 12.5q27 0 53.5 -5t50 -12.5t43 -17t32.5 -17.5l-26 -51q-25 12 -63.5 27.5t-89.5 15.5q-66 0 -101 -32t-35 -88q0 -43 24 -69.5t59.5 -45.5
t77.5 -35t77.5 -39t59.5 -57t24 -88q0 -42 -15.5 -76t-42.5 -59t-64.5 -39.5t-81.5 -17.5l-5 -35h5q42 0 63.5 -22t21.5 -57z" />
    <glyph glyph-name="scedilla" unicode="&#x15f;" horiz-adv-x="406" 
d="M294 -124q0 -16 -5.5 -31.5t-16.5 -27.5t-29 -19.5t-42 -7.5q-18 0 -40 6t-34 13l11 43q11 -5 28.5 -10t32.5 -5q25 0 35 12.5t10 26.5q0 13 -10 24.5t-35 11.5q-6 0 -16.5 -1t-27.5 -5l12 84q-38 3 -74.5 18t-65.5 37l28 48q29 -21 64.5 -34t65.5 -13q21 0 41 5t35 15.5
t24.5 26.5t9.5 38q0 30 -18 48t-44.5 31t-57.5 25t-57.5 29t-44.5 43t-18 67q0 34 14 59.5t36.5 42.5t51 26t58.5 9q40 0 74 -11.5t67 -31.5l-27 -49q-25 15 -54 25t-60 10q-38 0 -66 -18t-28 -57q0 -30 18 -48.5t44.5 -32t57.5 -25t57.5 -28.5t44.5 -42t18 -65
q0 -34 -13 -60t-34 -44.5t-48.5 -29t-56.5 -13.5l-5 -36h5q42 0 63.5 -22t21.5 -57z" />
    <glyph glyph-name="Tcommaaccent" unicode="&#x162;" horiz-adv-x="496" 
d="M311 -109q0 -26 -11 -44.5t-28 -30t-37 -17.5t-38 -7l-12 37q10 3 22 6.5t22.5 10t17.5 16.5t7 25q0 17 -8 31t-20 25l51 14q14 -11 24 -27.5t10 -38.5zM466 626h-186v-626h-66v625h-192v61h453z" />
    <glyph glyph-name="tcommaaccent" unicode="&#x163;" horiz-adv-x="359" 
d="M242 -109q0 -26 -11 -44.5t-28 -30t-37 -17.5t-38 -7l-12 37q10 3 22 6.5t22.5 10t17.5 16.5t7 25q0 17 -8 31t-20 25l51 14q14 -11 24 -27.5t10 -38.5zM334 5q-19 -8 -42.5 -12t-43.5 -4q-63 0 -104.5 36t-41.5 115v304h-81v57h81l9 170l54 11v-181h149l-11 -57h-138
v-296q0 -54 21 -78t65 -24q35 0 67 11z" />
    <glyph glyph-name="tcaron" unicode="&#x165;" horiz-adv-x="373" 
d="M334 5q-19 -8 -42.5 -12t-43.5 -4q-63 0 -104.5 36t-41.5 115v304h-81v57h81l9 170l54 11v-181h149l-11 -57h-138v-296q0 -54 21 -78t65 -24q35 0 67 11zM352 671q0 -29 -7.5 -50t-19.5 -35t-26 -22.5t-27 -12.5l-23 35q17 8 31.5 25.5t14.5 52.5q0 20 -6 37.5t-16 29.5
l51 16q12 -12 20 -31.5t8 -44.5z" />
    <glyph glyph-name="Tbar" unicode="&#x166;" horiz-adv-x="496" 
d="M466 626h-186v-255h139v-53h-139v-318h-66v318h-136v53h136v254h-192v61h453z" />
    <glyph glyph-name="tbar" unicode="&#x167;" horiz-adv-x="359" 
d="M165 236v-87q0 -54 21 -78t65 -24q35 0 67 11l16 -52q-19 -8 -42.5 -12t-43.5 -4q-63 0 -104.5 36t-41.5 115v95h-73v50h73v159h-81v57h81l9 170l54 11v-181h149l-11 -57h-138v-159h97v-50h-97z" />
    <glyph glyph-name="Uogonek" unicode="&#x172;" horiz-adv-x="632" 
d="M291 -10q-106 8 -158.5 70t-52.5 169v456h66v-463q0 -80 40 -126.5t133 -46.5q92 0 132 46t40 126v464h66v-454q0 -109 -52.5 -171t-158.5 -70q-33 -26 -55.5 -55.5t-22.5 -55.5q0 -41 37 -41q11 0 22 3t19 8l12 -41q-12 -8 -27.5 -12.5t-35.5 -4.5q-35 0 -58 21.5
t-23 60.5q0 29 20 60t57 57z" />
    <glyph glyph-name="uogonek" unicode="&#x173;" horiz-adv-x="541" 
d="M471 0q-38 -29 -64 -61t-26 -61q0 -40 36 -40q11 0 22 3t20 8l12 -41q-13 -8 -28 -12.5t-35 -4.5q-35 0 -58.5 21.5t-23.5 60.5q0 32 24 66t69 61q-2 6 -3 17t-2.5 23t-2 22.5t-0.5 16.5h-2q-11 -13 -27 -29t-37.5 -29.5t-48.5 -22.5t-58 -9q-74 0 -119 48.5t-45 149.5
v314h63v-304q0 -74 24.5 -112.5t82.5 -38.5q27 0 52 10t46 24.5t37.5 31t28.5 30.5v359h63v-501v0z" />
    <glyph glyph-name="yacute" unicode="&#xfd;" horiz-adv-x="462" 
d="M246 -67q-9 -24 -21 -49.5t-30 -45.5t-43.5 -33t-61.5 -13q-22 0 -43.5 4.5t-31.5 7.5l8 56q10 -4 29 -7.5t34 -3.5q21 0 37 9t28.5 23.5t21.5 33.5t17 39l18 50l-193 497h66l94 -251q3 -8 11 -29q7 -18 19 -51t33 -89h3q19 56 30.5 89t17.5 51q7 21 10 29l84 251h65z
M172 566l-29 33l136 129l40 -46z" />
    <glyph glyph-name="zero.onum" horiz-adv-x="599" 
d="M551 288q0 -65 -17 -120t-49.5 -95t-79 -62t-106.5 -22t-106.5 22t-78.5 62t-48.5 95t-16.5 120q0 67 16.5 122t48.5 94t78.5 60t106.5 21t106.5 -21t79 -60t49.5 -94t17 -122zM483 288q0 52 -11.5 96t-34.5 75t-57.5 48.5t-80.5 17.5q-45 0 -79.5 -17.5t-57 -48.5
t-34 -75t-11.5 -96q0 -53 11.5 -96.5t34 -75.5t57 -49.5t79.5 -17.5q46 0 80.5 17.5t57.5 49.5t34.5 75.5t11.5 96.5z" />
    <glyph glyph-name="one.onum" horiz-adv-x="525" 
d="M88 0v60h169v451l-162 -51l-17 54l190 60h54v-514h149v-60h-383z" />
    <glyph glyph-name="two.onum" horiz-adv-x="568" 
d="M464 0h-387v42q0 56 23.5 95t58.5 68t76.5 51t76.5 44.5t58.5 48.5t23.5 63q0 24 -9 44.5t-24.5 35.5t-38 24t-49.5 9q-42 0 -79 -14t-69 -36l-28 49q15 12 35 23t43.5 19.5t48.5 13.5t49 5q46 0 81.5 -13t59.5 -36t36 -54.5t12 -67.5q0 -47 -23.5 -80t-58.5 -59
t-75.5 -47.5t-75.5 -45.5t-58.5 -53t-23.5 -69h325z" />
    <glyph glyph-name="three.onum" horiz-adv-x="512" 
d="M450 79q0 -41 -15.5 -77.5t-45 -64t-72.5 -43.5t-99 -16q-57 0 -105.5 17.5t-77.5 37.5l28 51q30 -19 71.5 -32.5t83.5 -13.5q75 0 119.5 40t44.5 103q0 34 -13 60t-33.5 44t-46 27t-51.5 9h-38v58h32q23 0 47 9t43.5 26t31.5 40.5t12 52.5q0 54 -37 86t-103 32
q-63 0 -128 -41l-28 50q36 24 78.5 37.5t77.5 13.5q52 0 91 -14t65 -38t38.5 -56t12.5 -67q0 -28 -9.5 -52.5t-25 -44t-36.5 -34.5t-43 -25v-2q27 -11 50.5 -26.5t41.5 -36.5t28.5 -48.5t10.5 -61.5z" />
    <glyph glyph-name="four.onum" 
d="M527 45h-124v-156l-64 -11v167h-277v14q0 26 3 51.5t11 55.5l109 408h66l-114 -423q-5 -20 -6.5 -29.5t-1.5 -17.5h210l3 272l61 14v-286h135z" />
    <glyph glyph-name="five.onum" 
d="M496 109q0 -46 -17 -88t-48.5 -74t-75.5 -51t-99 -19q-57 0 -106.5 20.5t-84.5 46.5l29 49q32 -23 73 -39.5t89 -16.5q37 0 69 13t54.5 35.5t35.5 53.5t13 67q0 75 -43 116t-112 41q-33 0 -71 -7.5t-63 -15.5q-2 -1 -4 -1h-4q-10 0 -15.5 6.5t-5.5 16.5v1q0 8 1 44
q1 31 3 93.5t5 173.5h344l-5 -60h-281l-4 -209h2q16 7 45 11.5t61 4.5q42 0 81 -14.5t68.5 -41.5t47.5 -66.5t18 -89.5z" />
    <glyph glyph-name="six.onum" horiz-adv-x="586" 
d="M138 280q0 -41 7.5 -82t26 -74t49 -54t75.5 -21q40 0 69.5 13.5t49 36.5t29 53t9.5 64t-9.5 64t-28.5 52.5t-47 35.5t-65 13q-47 0 -91.5 -22t-73.5 -57v-22zM520 217q0 -48 -15 -89.5t-43.5 -72t-70 -48.5t-95.5 -18q-58 0 -100.5 25t-70.5 66.5t-41.5 94t-13.5 108.5
q0 75 18 149t56.5 132.5t99 95t146.5 36.5q22 0 43 -2.5t39 -7.5l-12 -58q-17 5 -34.5 6.5t-36.5 1.5q-62 0 -105.5 -22t-73 -59t-45.5 -85t-22 -100q29 30 71.5 48.5t96.5 18.5q45 0 83.5 -16.5t66.5 -45.5t43.5 -69.5t15.5 -88.5z" />
    <glyph glyph-name="seven.onum" horiz-adv-x="532" 
d="M500 517q-56 -62 -95 -123.5t-64.5 -129.5t-37 -145.5t-11.5 -171.5v-58l-67 -11v80q0 93 13 170t37.5 143.5t61 125t84.5 114.5v3h-362l-6 60h436l11 -57v0z" />
    <glyph glyph-name="eight.onum" horiz-adv-x="574" 
d="M292 388q27 10 51 22.5t42 28.5t28.5 37.5t10.5 50.5q0 27 -12 47t-31 34t-44 21t-50 7q-26 0 -50.5 -7t-43.5 -21t-31 -34t-12 -47q0 -29 11.5 -50t31 -37t45 -28.5t54.5 -23.5zM272 332q-29 -12 -56 -25.5t-47 -32t-32 -44t-12 -59.5q0 -29 13 -51.5t34.5 -38t51 -24
t62.5 -8.5q34 0 63.5 8.5t51.5 24t35 38t13 51.5q0 36 -15 60.5t-40 42.5t-57 31.5t-65 26.5zM514 171q0 -42 -18.5 -75.5t-49.5 -57t-72 -36.5t-87 -13t-87.5 13t-72.5 36.5t-49 57t-18 75.5q0 40 12.5 69.5t34 51.5t49 37.5t57.5 27.5q-26 12 -49.5 27t-41 35t-27.5 46.5
t-10 61.5q0 37 14.5 68t40.5 53.5t63.5 35t83.5 12.5t83.5 -12.5t64 -35t40.5 -53.5t14 -68q0 -34 -11 -59.5t-30 -44.5t-43.5 -33t-52.5 -26q31 -13 60.5 -29t52 -38.5t36 -53t13.5 -72.5z" />
    <glyph glyph-name="nine.onum" horiz-adv-x="581" 
d="M518 291q0 -75 -16.5 -149t-54 -132.5t-97 -95t-144.5 -36.5q-21 0 -42.5 2.5t-39.5 7.5l12 58q17 -5 35 -6.5t36 -1.5q62 0 105 22.5t71 60t42.5 86t20.5 101.5q-31 -32 -76 -51.5t-100 -19.5q-45 0 -82.5 16.5t-64 45.5t-41.5 69.5t-15 88.5t15 89.5t43.5 72t70.5 48.5
t96 18q58 0 100.5 -25t70.5 -66.5t41.5 -94.5t13.5 -108zM450 294q0 41 -8 82t-26 74t-48.5 54t-75.5 21q-41 0 -70.5 -13.5t-49 -36.5t-29 -53t-9.5 -64t9.5 -64t28.5 -52.5t47.5 -35.5t65.5 -13q46 0 91 20.5t74 57.5v23z" />
    <glyph glyph-name="Yacute" unicode="&#xdd;" horiz-adv-x="538" 
d="M301 293v-293h-63v293l-216 392h70l176 -333h3l175 333h70zM210 766l-29 33l136 129l40 -46z" />
    <glyph glyph-name="nonbreakingspace" unicode="&#xa0;" horiz-adv-x="260" 
 />
    <glyph glyph-name="Eth" unicode="&#xd0;" horiz-adv-x="712" 
d="M654 346q0 -77 -16.5 -141t-50.5 -109.5t-86 -70.5t-122 -25h-243v315h-96v60h96v310h243q70 0 122 -24t86 -68.5t50.5 -107t16.5 -139.5zM585 346q0 63 -12 115t-37 88.5t-64 56.5t-93 20h-177v-251h186v-60h-186v-255h177q54 0 93 21t64 59t37 90.5t12 115.5z" />
    <glyph glyph-name="eth" unicode="&#xf0;" horiz-adv-x="556" 
d="M506 251q0 -57 -15 -105t-44 -83t-71.5 -54.5t-97.5 -19.5t-97.5 19.5t-71.5 54.5t-44 83t-15 105q0 60 15 108t44 82t71.5 52.5t97.5 18.5q42 0 78 -11q-21 32 -43.5 60t-44.5 52l-110 -64l-25 42l101 58q-22 22 -39 37.5t-26 24.5l39 39q11 -9 31.5 -27t46.5 -44
l110 64l24 -42l-100 -58q32 -35 65 -78t60 -93t44 -105.5t17 -115.5zM439 251q0 45 -9.5 82.5t-29 64.5t-50 42t-72.5 15q-81 0 -121.5 -55t-40.5 -148t41 -149.5t121 -56.5q39 0 69.5 14.5t50.5 41.5t30.5 65t10.5 84z" />
    <glyph glyph-name="Thorn" unicode="&#xde;" horiz-adv-x="553" 
d="M496 365q0 -45 -13 -82t-39 -64t-66.5 -42t-94.5 -15h-137v-162h-66v685h66v-121h137q54 0 94.5 -14.5t66.5 -41t39 -63t13 -80.5zM426 365q0 68 -34.5 103.5t-111.5 35.5h-134v-284h134q77 0 111.5 38t34.5 107z" />
    <glyph glyph-name="thorn" unicode="&#xfe;" horiz-adv-x="553" 
d="M503 248q0 -59 -16 -106.5t-44 -81t-67 -51.5t-85 -18q-47 0 -85.5 14t-62.5 34h-2v-234h-63v936h63v-302q20 30 61.5 52.5t88.5 22.5q49 0 88.5 -19t67 -53.5t42 -83.5t14.5 -110zM437 248q0 100 -38.5 154.5t-113.5 54.5q-46 0 -84 -25t-60 -57v-266q23 -26 60.5 -43.5
t83.5 -17.5q70 0 111 53t41 147z" />
    <glyph glyph-name="brokenbar" unicode="&#xa6;" horiz-adv-x="249" 
d="M149 -75h-49v295h49v-295zM149 475h-49v295h49v-295z" />
    <glyph glyph-name="dollar" unicode="$" 
d="M513 177q0 -39 -15.5 -73.5t-42 -60t-62.5 -40t-77 -14.5l-39 1l-13 -75l-48 9l13 73q-49 11 -85.5 30.5t-56.5 33.5l26 52q18 -12 50 -30t77 -28l47 269q-31 12 -61.5 28.5t-55 39.5t-39.5 54.5t-15 73.5q0 41 15.5 73.5t43 55.5t65 35t81.5 12h15.5t15.5 -1l14 78
l48 -8l-14 -79q32 -8 57.5 -19.5t42.5 -22.5l-26 -51q-16 8 -37.5 17t-47.5 17l-46 -260q31 -11 61.5 -24t54.5 -34t39 -52.5t15 -79.5zM298 49q66 0 106 33.5t40 95.5q0 30 -9 50.5t-24 35.5t-35 25t-43 19l-46 -259h11zM321 636q-66 0 -101 -30.5t-35 -86.5q0 -30 9 -51.5
t24.5 -37t36 -26.5t43.5 -20l44 252h-21z" />
    <glyph glyph-name="mu" unicode="&#xb5;" horiz-adv-x="545" 
d="M419 0q-2 6 -3 17t-2.5 23t-2 22.5t-0.5 16.5h-2q-11 -13 -27 -29t-37.5 -29.5t-48.5 -22.5t-58 -9q-60 0 -101 32v-218h-63v698h63v-303q0 -74 24.5 -113t82.5 -39q27 0 52 10t46 24.5t37.5 31t28.5 30.5v359h63v-501h-52z" />
    <glyph glyph-name="summation" unicode="&#x2211;" horiz-adv-x="552" 
d="M57 -42l-20 37l226 327l-226 328l20 36h410v-60h-347v-2l211 -302l-211 -301v-3h347v-60h-410z" />
    <glyph glyph-name="product" unicode="&#x220f;" horiz-adv-x="719" 
d="M596 627v-668h-66v668h-320v-668h-66v668h-42v60h535v-60h-41z" />
    <glyph glyph-name="pi" unicode="&#x3c0;" horiz-adv-x="608" 
d="M565 -11q-63 0 -104 36t-41 115v304h-237v-444h-63v444h-70v57h502v-57h-69v-295q0 -54 21 -78.5t64 -24.5z" />
    <glyph glyph-name="integral" unicode="&#x222b;" horiz-adv-x="327" 
d="M356 680q-13 5 -28.5 9t-34.5 4q-20 0 -37.5 -5t-31 -17.5t-22 -33.5t-11.5 -53l-60 -604q-4 -36 -18 -63.5t-33.5 -46.5t-42 -30.5t-44.5 -16.5l-27 53q15 5 32 12.5t32 20.5t25.5 32t13.5 48l60 604q8 78 52.5 117.5t114.5 39.5q24 0 46 -5.5t40 -13.5z" />
    <glyph glyph-name="Omega" unicode="&#x3a9;" horiz-adv-x="710" 
d="M415 0v57q41 11 70.5 39t49 68t28.5 89t9 103q0 62 -12.5 115.5t-39 92.5t-67.5 61t-98 22t-98 -22t-67.5 -61t-39 -92.5t-12.5 -116.5q0 -54 9 -103t28 -88.5t49 -67.5t71 -39v-57h-240v57h125q-57 47 -84 123.5t-27 173.5q0 81 17 146t52.5 111t89 71t127.5 25
q73 0 127 -25t89 -71t52.5 -111t17.5 -146q0 -97 -27 -173.5t-84 -123.5h125v-57h-240z" />
    <glyph glyph-name="radical" unicode="&#x221a;" horiz-adv-x="594" 
d="M347 0h-70l-165 455h-92v46h138l153 -423h3l247 661h63z" />
    <glyph glyph-name="Delta" unicode="&#x2206;" horiz-adv-x="620" 
d="M14 0l252 675l86 11l254 -686h-592zM311 623h-3l-202 -555h410z" />
    <glyph glyph-name="uniF8FF" unicode="&#xf8ff;" horiz-adv-x="0" 
 />
    <glyph glyph-name="sfthyphen" unicode="&#xad;" horiz-adv-x="396" 
d="M77 242v57h242v-57h-242z" />
    <glyph glyph-name="divide" unicode="&#xf7;" horiz-adv-x="571" 
d="M332 454q0 -20 -13.5 -34t-33.5 -14t-33.5 14t-13.5 34t13.5 34.5t33.5 14.5t33.5 -14.5t13.5 -34.5zM57 226v60h457v-60h-457zM332 58q0 -20 -13.5 -34.5t-33.5 -14.5t-33.5 14.5t-13.5 34.5t13.5 34t33.5 14t33.5 -14t13.5 -34z" />
    <glyph glyph-name="lozenge" unicode="&#x25ca;" horiz-adv-x="612" 
d="M341 0h-70l-211 371l211 371h70l211 -371zM305 687l-181 -316l181 -316l184 316z" />
    <glyph glyph-name="exclam" unicode="!" horiz-adv-x="319" 
d="M192 186h-65l-9 500h82zM209 40q0 -21 -15 -36t-35 -15t-34.5 15t-14.5 36q0 20 14.5 35t34.5 15t35 -15t15 -35z" />
    <glyph glyph-name="aacute" unicode="&#xe1;" horiz-adv-x="498" 
d="M374 0q-5 14 -7 32t-2 29h-2q-8 -12 -24 -25t-37 -23.5t-45.5 -17t-49.5 -6.5q-37 0 -66 11t-49.5 30t-31 45t-10.5 55q0 46 21 74.5t53.5 45t72.5 22.5t78 6q26 0 49.5 -2t40.5 -4v51q0 68 -30.5 100t-84.5 32q-38 0 -73.5 -14t-64.5 -36l-32 46q12 9 29 19.5t38.5 19.5
t47.5 15.5t55 6.5q36 0 68 -11.5t56.5 -35.5t39 -60.5t14.5 -87.5v-317h-54zM365 222q-14 2 -37 3.5t-50 1.5q-28 0 -56.5 -3.5t-52 -13.5t-38.5 -28t-15 -46q0 -17 6 -33.5t18 -29t30 -20t43 -7.5q45 0 85 22.5t67 54.5v99zM190 566l-29 33l136 129l40 -46z" />
    <glyph glyph-name="currency" unicode="&#xa4;" 
d="M447 371q33 -47 33 -104t-34 -104l55 -55l-43 -42l-54 54q-47 -33 -104 -33t-105 33l-54 -54l-42 42l54 55q-33 47 -33 104t33 104l-54 54l42 43l54 -54q48 33 105 33t104 -33l54 54l43 -42zM387 180q18 18 27 40.5t9 46.5t-9 46.5t-27 40.5t-40.5 27t-46.5 9t-46.5 -9
t-40.5 -27t-27.5 -40.5t-9.5 -46.5t9.5 -46.5t27.5 -40.5t40.5 -27t46.5 -9t46.5 9t40.5 27z" />
    <glyph glyph-name="quotedbl" unicode="&#x22;" horiz-adv-x="416" 
d="M171 468h-42l-9 217h59zM287 468h-42l-8 217h59z" />
    <glyph glyph-name="numbersign" unicode="#" 
d="M427 213l-20 -213h-54l19 213h-144l-20 -213h-54l19 213h-82v55h87l14 151h-79v54h84l19 213h55l-19 -213h144l19 213h55l-19 -213h82v-54h-87l-14 -151h79v-55h-84zM377 268l14 151h-144l-14 -151h144z" />
    </font>
</defs>
</svg>
